<mxfile host="Electron" modified="2023-09-17T07:07:58.045Z" agent="Mozilla/5.0 (Windows NT 10.0; Win64; x64) AppleWebKit/537.36 (KHTML, like Gecko) draw.io/21.7.5 Chrome/114.0.5735.289 Electron/25.8.1 Safari/537.36" etag="ITFH_3IoAiJAd3s3vIs8" version="21.7.5" type="device">
  <diagram id="C5RBs43oDa-KdzZeNtuy" name="Page-1">
    <mxGraphModel dx="3417" dy="1515" grid="1" gridSize="10" guides="1" tooltips="1" connect="1" arrows="1" fold="1" page="1" pageScale="1" pageWidth="827" pageHeight="1169" math="0" shadow="0">
      <root>
        <mxCell id="WIyWlLk6GJQsqaUBKTNV-0" />
        <mxCell id="WIyWlLk6GJQsqaUBKTNV-1" parent="WIyWlLk6GJQsqaUBKTNV-0" />
        <mxCell id="Af3WYm81faStxUDlxVcE-1" value="" style="shape=image;verticalLabelPosition=bottom;labelBackgroundColor=default;verticalAlign=top;aspect=fixed;imageAspect=0;image=data:image/png,iVBORw0KGgoAAAANSUhEUgAABA4AAAQOCAYAAAEs2UrWAAAAAXNSR0IArs4c6QAAAARnQU1BAACxjwv8YQUAAAAJcEhZcwAAFxEAABcRAcom8z8AAP+lSURBVHhe7N0FuBRVGwdw76W7G6S7EVFBSkJUDKRRsUAJsTEQBTE/FRFUFBFRFBFBQVBUQhFQyqJTQrqkO873/s+8c9m7d2Nmd2brvr/nee+Z3Tu9s2fOzpw55xIhhBDhypcv33nlhd7+1fiviCXvJScnK4txiqexhD93v3g0EQv4M7GMJ7Pia55EtW7dWp05c4ZfXUTjlDFGFVHHn4m6cOGCuuuuu9TJkyfV5s2b+V2levbsqd838WRWjORJVN++fdWCBQtUnz591OnTp/ldPa98xqgi6vgzsYwns4Qn8YtHE7GAPxPLeDI71vCkKei9/xn/EvFmB6cg3+R0bA+nobqxVatWqkGDBjiIyhlviUSymVN//uSzQRr0v3uNUUTC48/cLx5NxJnLOPWnp2fkzp37An/eatq0aapYsWJ6eOXKlToFGu8pChFn8nBqGX/efvFoIh3IzZ95Gvx/EQeKcOqUxhTBTi8iTqzlVCS6K664gjNvA78dsilTpvCcLnrkkUfk1BDL+HNKg/9t+pyivzEYGE/uF48mYgl/Nn7xaMFMpjAvFB3EdBUqVNBRrVo19cADD6j7779f3XnnnWaucIsxqogJ+pMmmzZt4iGDx780ep1NT2DNgzyZXzyeiBX8uWg33XSTuvHGG9Xs2bPV5Zdfrq699lr+j/7gMhhTWMOT+XTkyBE5EGIRfz5+8WihqMuz0M6dOycHQKzjzyoN/rdIT2rVqsUfv3x7hRBCCCGEEAGMoChlDAohYh8eI7ODJ7Pk33//tT2NJz2xDTyZCAXvQ8t4sqB49BT01tPGf6zjSS3jyUQoeB9axpP5lSdPnjTtGJjWrFlj68PiySzjyUQoeB9axpP5xKMExaMHxaNbxpOJUPA+VJUrV1br1q3Tj7N7mjVrltqwYQO/0js7pzFlWjxKCtRLmDRpkho4cCC/Y6BR+xpTBPQej66VL19enTp1il8Z6+WNp/PnMU6FL7wPLePJ/OLR/KJRJhpjBseTWMaT+fMIp8IX3oeW8WQB8ahp8L8t48ks48n8eYhT4QvvQ8t4sqBq1KjBUyh1/Phx2wcB8OSW8WT+9OM0FP/xIizhaeIPr39Q7du3j/RGfsOLDorGbWpM4peVcolPvAjLeDIRo3pxaht/vqpevXo6RTtRnpYuXcpDBp5MxKg7ObWLP97U3njjDfXzzz+rmTNnqj/++EP9/vvv/B85EGJdB05t48/XMp5MxKhrOLWNP1/LeLKEgOcObjIGE8ZVnIp0TrJsu7p06ZJwWRz5jlNhRbdu3fRBYOK34xpvimrbtq3kClZ06tSJd1lq/O+4xJuQAjfV+F/xibcjJDyLgLp27cpj+8ajxRVedZ94lPjD6x8SnoVfZpkgGB49HuTkVQ6IxzW9QTHJT1jxJYXdaezjddf69evHQwZ8m/HYOa5yAS6Bvv/++3oYMLkxl7S8ywS33HKL6tWrl/r0009VmTJl+N2LeLJYNo1XVX311Vc85B9PA7s4jW283iHhWfjFowVFo9YwpohtQ4cO5TVOrXPnzjxkoFE7GVNociAAj+oXjVLVGDM+JCUlHeVV94lH8xQfBwKqne/bt8920KRvG3MIjvdRGvSvasYYcacFb0Iq/D9v8XEgBNGM07DxvkpBb8XrQZCCN0Xjt3xx+kC4nNOIcuxAAN5n2GnVjXfiH29PIMH+HxccPRBYXBQMQ1TDu3KJLzReF2P0wHr37s1T+Fe/fv2IHGhuHAjhyMQpJHMaE/hzSeFdu8gXnjSNSpUq8Ri+NW3alIcuosnaGVP78MILL/BoF6HLGv63FaEcCPs5DdmJEyd4ba3hyaKKVyUFmgCEESNGqNKlS6uyZcvq15540jQ8uxyEli1b6v4kUKWtatWqKleuXKpJkyb8X0OhQoXSzm/FihX8b/9eeuklKzvQ7oGABi+foLhRvwoRr6JlPFnUeV+Q8+eTTz6xss4P8+hB0bhpc8fPPvuM/x0cmp7lyfwJeiDwrAK67LLLbH1YPJmWPXt2Hrpo/PjxPGTgyWJVFk6dgIo91k6J2DHoHXXr1q2qRYsWOkspWLCgQrN0SKFixYpq9erVepgn8yfggaBn4OWHH37Qj7kVL16c3zHYeQaBJ0nx8ccf60vbgwcP1pU7M2bMqHbv3s3/jfkDwaqNFJ8Zgw7gfaMdPnyYh/zjyfyxfSD4Q6MvNqYKjiexjCaZH6VwSgWKtyje5GFHpO7QIAAePxAr47Tk2fl0++23W5lHKjypZTxZPNnIqx4UjfubMUmIeD5+8Wgp8ufPz//xD9kxjepc9hU+y5e5Y4X3L6IOHTqoW2+9Ve3YsUMNGTJE7dy5k/9z0bx58xw52Mc0atTILLC9aLxlsPszzRtuUfOsoiXuDgRyD+8+y2ga12pKf8nLcATPMxri8UAw/cq7zy8ax8lySFq8nBSoRPLiiy+qQYMGqeuvv14NGzZM7dq1S/eHgNxkzJgx6uqrr9Z9JxcpUkS1bt1a/zLwxLOOtHg+EKKPPzvH4OoZzzrS5EAIF3+GYUN9Bp5lqDy7/LdLDgSnfPjhh/yR2pM9e/ajPAu7Ljac5EPHjh3tHFhWDoTGBw4c4Lmnhf/ROFcao1qHafPlyxetnDAiqlBMpZ+TmytVqrQ/Q4YMa+j1cIok/DNUnlcCreJJAwl0ICzj2VhG01gqnPHoKfhtEczBg7pnPc3sqQ3pmTNn1P79+/Xrf/75R6feeBb++DsQivLkusU01BE4duwYv2Mwl3fo0CGdbt++Xac0bQ5jFj75vbfM/xeBoI6jt//++0//MvHmXbGDZ+GPvwNB31R57rnnFO7Eoim+VatWpXzonvCEkucyadqsxixS438HlDdvXjkggvHus9EKnjSQQKeGBTwby2iaecakqfG/U6BzUFPNmjV56CKeTARhPC3jB56O4vGssFJYLLp48WKee1oLFy7E8gobo/oXqMBpotH2GmOLSPC8H2/lQHDSaP7M0+D/ixDcSr9MdqGOBIJe4xk/KzzP4XYOhIIUv3ks71d+zzb+7FPw28Iq3m+W0OjPGVOlkYdTCHgg3H333Ty34Lp3727rA+XrD7uNV8Kq1ry/bePpG3EKnt9ivwcCT24bTy7cwPs4lbp166rChQvrJ6NxY+u2227TVeiuvPJKHsPAs/BUglMwD4QlHnGA4i+eXMPTy9ddd50exnUFFEhR8sfPyquuuko1btxY/w9o2qkUwi28n23B4/g8uaeynILkCPHo8ccf590dHE/iCy6Bm4IVFgP+VPVE49rNCU5wKhzQmuJxih76lTW1OIVgB4I3XC94kKMQ3rDq5ZdfVsECVzJ5dBEB9TkFuwdCqCZwxhEUjy+CCdauEj//4PkrwZvn/6wcCEbfgAHQOFuNUf3jUVP88ssvatSoUfzqIhoVF7z8heD9ZAtNlsuYOhXPto/9Hgjt2rXjuVgXqDIujxIUjy584X2UxnfffadeffVV/fPu/HnfvfnxLDy14RR8HQiY5nqeXG3cuFH/RMXdzh49evC7Sm3evFmn5m1wPBEGNK3Pthv0Py3g0YUvqNMYKp6Fv15UfB0I+llDntw2PQffQm6FXXjAhRu7eNJAApURKvJsLKNpihmT+uTEgZCfU0Eu9VXIAlRUof/PMEazxEph8ZJy5crxEtLC/3i0YCRHiGGWDgSHhHUg4KCT6wxpZSVn8eAMen6fP3++uvnmm7GTRhr/tszOgTB99OjRujkAVFvDML33jfEvS0I9EF7XWY8Hfj/94v1gScmSJT132Eecegt4IPCsLOPJ/LF9IASquU3/duzx93iSUlfMswIpahKbvZjhQpIvPD0qkfji90DgyW3jyX2xdSBgXitXrtTz9LRkyRIeUvoxQx49feDtVkePHlVTp07VO2j58uUKD9e8++67/F+lqlevrlCZZMqUKerBBx/U7/Es/EGbTSiJe8ZOiuF6YpYnTx7d6gpOCZ5V632haUdR+GL5QOBZpcA1DDBbrPnxxx/VW2+9pYcvvfTS9Hkw2IE6Czy5bTwL23hyX2zlCL5atPPGo6ZLW3gfBISu+3n8cFnqXwFo3OzGJH6FUlgszbNPg/8v4lAoB4LGn72Gy938tohTIR8IMGDAADkAEkRYB4KIPQMpBhuDtjhxIIT0HIWILZIjxLNx48ZxMc2/jz76yN/5+wVO7erJsw6KxxduOXv2LO9q69AqOk9u8ncgeHYX4MtInmVQPL5wSUoz6Tly5NA3mB577DH9+oEHHtBpzpw59f8yZ86skpOT9RU+oGl7G7PQ/B0IRTj1Rx8IaDsay27evLnKli2bvsKJ5nayZs2qlwU8vnAL72dL0A+CiSc3hXUgmHB52x8eX7iJ97VlPJknRw6EQHh8ESH3jhyZ9rPBe/S/bsYoPoV6IFg6CLnbRBEHQj4QRGx6yFfPNvhpSf/zLBx6kwMhEfDnbRlP5kkOhHjHH6z+gO0wpk4hB0Kc0z1n3nPPPfpJqkD27NmjW6RH5xlA095L4St38CQHQrwIViXNFzz+xpMHIwdCvHn77bf5Y/bvzTfftHoAmORAEJocCEKTA0FociDEqbVmM/ye8Lgd/meMYouTTyndwalwC3/elvFkVtzCqRPQnoM0q+MW/mxTQVVyNLUbCE+ewkoNJ0AHqjyJTxkyZLDc+yvgaTCeVIShM+/PVFA5BF0b/vzzz6pr1678bmo0bXPMICkpKXjH2j5gWk9Zs2Y9xf8KGc9KhCJQZRB/PLst5LdSwYEEaH+pfPnyetgXnoXGbylcz+jcubOuDucN/WgGw7MTocKDtcFUrVo1zY7mf9mWPXt2nwdCOGg2wR7HEy5bwZ+FJTS+v55gjBbBbXrvvfckJ4hBXapUqaLGjh2raxahdffk5OQz/D+7HkJO9eyzz+re5dCd0EMPPYQP/YjxbyGEEEJEG5fLUuF/iViCp5CsBk9iVcBLhvT/4sZoIhYEvwjgoV+/fvgAHzAmDYwnUU8//bROZ8+endI/tIlHFTEg5UBA41Toxxl1DLdsMZpiGjp0qHr99YvtWfKBUMaYNDCeRPvpp5/0tGjxDfM38agiBgTNEXBwmPhAsKoXT+YT/T/YE88igjLy52JJ5cqVbX+LDx9OfW8JnZnzv0QcaMkpfMep6UNORTrgeSD48gWnVp3t3bs3coJNxksRL4IdCJbw2cAnHkXEOO8DoSenvvjs35E/74B4VBHD7OYId1HgYEkJ/qx1p2K9evXSTev0799fv4fGwoHGEzEu7FOD/qQDmDdvnhwIccDXgfATp5b5ez5y/PjxchDECac/qNwU7Sgy6lcibpTjVKRXnHtr/FY4fFZF5v+JGFWcP6dU6P39xr815BQbjcHAChcufI5n4RONMsIYU8QMs99mfw4cOGDlW1yHIqVyKKZDT3JmT2wtW7ZUM2fOVD/88ENKh2M8qogF6EAc7rjjDp0GwpNYwpMExKOKWGA2i4fq4ydOnNDDUKtWLfXMM8+oW265hd+x/cHl4Ml84nFELEFj1oGgZhGPapt3TnPZZZfJQRDjfPbYRu9vNf4t0hX+/DV+S6RjlTgV6Zwj9RFE/JMDQWhyIAhNDgSh6XaOhFjJqYh1/FPfksKFC9u5JtAM02TKlOkcv7bL54Upf3gaESrej5bxZAH9+OOPPPZF/C/LcufOzVNaQ5OE0o+0MPF+tIwn84tH84lHsUQOhAjj/aiqVavGQ4HxZL7U5lH0HUjTzTffzEOGYC2fmrwPhB49evCQbzSJHAjh4P2YyooVK9SRI0f4VWqYxJgyNf63dsMNN6jixYurEiVKqNq1ayvvD5UnCSTNNMHQNAONSUVIeD9axpP5tGHDBh7LPx41KDk1RBjvR8t4skCe4VFTadOmjeWDAORAiDDej5bxZEHx6Bq9tP0cQs6cOc/z5JbQJI8bUzqPF2EJjT7cmCrOvPLKK7wJwfEkEcOLDerQoUOurhsvxjKeTCSQbPjDn69lekqRePDhfv311+rbb79V06dP1x92IDyZSDT8+VrGk4lEw5+vJf/9919CHQiXcipEQpHsOhTI4tDTGr8U6ZE+0bFLL700EQ6GlGft+LUIhvdXKvGcM2TIkCFNV238r/iElsRCxbMIikf3KR4PhkAdgtK/uxljxRm3DwQeNaCyZcvGzcHAqxxQrly5vKvQTfITn1NY4TlNU7zhOPNA2Lp1q06PHj2qduzYoc6dMxoTadCggerbt68exl2+W2+9VQ8DTV6awm8L5jxaCtx7QM9mXbp0UbNmzeJ3DRUrVoz5g4FXVa1du1b3yrZgwQLdrD+a4UND3mbjGoA2HXgypz3MacjWcZqK3Rzh2muv5SFLOYLRI4YFPH4w13AKUXmugVc3KB7dDbFxIHjiWQTzJI/uF49nRdQPBODV9sliEz7hcOdAAHRmaTe2bdtmZ4Of4v2UBv/fqpg4EIBXP5VGjRqFexBY6UzUvQMhQtLkDPy+HTFzIIDZCBfQy2nGu2nU4tSKdHEgQMrBwK/tiqkDAbiZnSzGq7BZORBOcRqyWDgQoD+noYi5A8Hb1VdfzYe6f2iziUf35n0gBK5nT06dOoV5lTVGtybUb2Es8dyGWNueR/mz0ZYtW8ZDhsmTJ/PQRVmyZLnA05pSDgQeJYX5Vr169XTqizGlbw/zOKnQ+zWMf7vmV05DxqtqCY0+0pgqetDUnyez5zk8f9G0aVPd6diECRP0eyZcr+HJTX4PBHRH2KRJE5UhQwZVoUIF3fKbN540Nf5fQDyq05BlP0WRU78KTS5eRUtcvHhjV15epaBo3PuNSVJJdWqwUnUN7r777tAPAhNPErICBQoEbM/YxKNblXIgeD4V9eqrr/JQajF0IPiSTJHBGAzKSmHRWsE0OTk55eSErAQtldasWVM98MAD+gZP5syZdfvDJpoEfRSEZP78+TwXQ+vWrdWqVav0o2j0b373ImMqS1LlCB9//LE+N5YuXVo/8ta1a1d9f8IUwoEQ6uP0bjvBqSNSPxkaBE8TKp9lEH94GitCOTXMtxF2x/cXlroetiCJ4nqKgxQt8IYjeP9YwpP4o+veB9O5c2eem28YxRjTOp7Ukly5ctk5yMCpHKEep7bxqlvCk4Tmk08+4dn4dtttt3kvoPfbb7/N//WPfwNHq7sbf9cR7uDUqqgeCLwrU+nevbtOcekenaF740nDkjVbtmzH0ZYApZvpNQovprG8nJDxfCIlYQ+EYHhS5/H8HfHzzz9H6oBIiAPB5F0nw9ukSZPc3a/169fnRSk1ceJEhd5ROnTooK688kr9nvnwKiqr7Ny5U50+fVpXHMF0uEBSqlQpVaNGDT2OiWfttoQ6EGJBaf78HMPzdZscCC6w/sx6EDy/cFi9VevUgeDUgRupL0BEvMyfpy24UMXT2/biiy/yXNI6e/Ys5vusMWYaIR0IZcuWTVP13FPp0qVDubVbANPycMLCxY0lZcqU2U3lh200PJuiCv4Rhix6r9vw3HPPee9oWwcCz8YWnjSgBx98kMc20Fs9jP+IoLDD6tatq3fcli1b1D///KOHUfv3woULenjjxo36fRRQ8T6gUMqzAMsHAqZFayf58uXT8wFcogb+t14WlglmCsYcfONR0kCNZh5FBIKdNWbMGL3T8E0fOHCgGjBggHr22WdT3Vh677331IgRI3TvbVClSpWQDwTTmTNn9K+jGTNmKLTc+tJLL+n3sYynn35arwdSE8/CWxH+d0A8rgggmfeVZXiegqc1ReXUgIY8PdWpU0d9+umnOnyhSXIYU4qA3n//fd5laeHBGhrFX1e8IRUWCxYseIpn7xP939JdPx49IB5VuCykA8FJ/HmngVMajyJsykwxhb6N+EaqHDlybKDXwVpTCfdAGEvLOs7LPE6vxxhv23P55Zfzx2+gt2oa/xFWreV9F5SfB2hsHwg8O0t4EstCmSbd03s6BObknHoKeCBcf/31PAd7mjVrZufDTYhLzBHF+1nDdQJUnYPVq1erL774Qg8DWg7ztHz5cn8fjOeB0JBiiUfw1Be1a9dOX5tYtGiRatiwIb/rG01vlRwIdvE+to0n98XzQPDFuGJlE0233JjcEjkQQlST93dQaJeBp/En2IGgHTx4kOcYWIhPMYcyjfCjD8WjFA30K+ssHQg+dKV4kqKLfmXdwZdfflkFCx5XRFCoB0Iogj6DaPrss8/kYLCoN+8zvyy2M2D5QDCbBfJn8+bNwZY3gkcNig8E1Av1FYK8wfvKMtyV5Gl9CXog8Gxs4Um92T0QhD+8n9LAMxHTpk3TdSZ9eeqpp7BjUR/CW8ADgSfXP1NxlxEpno5C4RHN46HqfqtWrfRTU4CntEw8C0+WD4Ty5cvLgRAI7yfbMmXKtINn4c3SgRAKnoUnz5tgT3AK8vMxFLyfLaNJ/jGm9CnoqQEXruwIUFaQA8Ely8x2HL3hiR8eJxjLhUXS+bfffuMlpIb36f/tjdH8cupAuI1T4SA7B0K4wj4Q8FwI8EvhYQyqrP3555+67uCHH36IpmT20Pt4MtgKuwdCRTwsiyZs0BoaniLKkSMHPpjyxr8DCutA0EeAB3pro/GfdOrhh209RR/s22PlQEj7NGkANP7TxmRphHwg8Kx94lHSF2y4Z01hT97d/Zo1nIEmLWzMwR70Qe3Js53kQH799VdfH5DtAwGVbr0dPnyYhy7i0dMPbDRu/+bNm7qZoVtuuUW98YZxren777/XacuWLRWeHcB59e+//w62s/L7CD0fb0uWLNEpfk3s2bNHDR8+XF/F9EbTe7N7IOgjG52ToEo9LoydP39e16JGQ1jlypXTz5uaeJr0wfwQ7OLJQ9GRZ2ELTXelMXkqIZ0aeJZ+IefjUdMfNBBpBY36P2OK8Pi7YukN7UfwJL44Xkagfw0wxhDxJOQDga3nz1/j90QcCvdA0HAXlAdFjAinfYSQDwQRe85zGopQDwSrF8pEBIWTRYeTIxTnVETBcC6jBUTjvW6MHpSlA4FnGxSNusWYQriG97UtPGkgngeCXzy7oDCqMYVwBe9nhYZH0YjFN998o9ti+OGHH1Tx4sV1TaIsWbLoVluzZ8+uChTQLeFoPAt/bB0IaK4fD8jOnTsXlWx0q3RYntmAB0Y1phCu0HvZIjwU64ln4Y/kCPGmatWqvLutwX0AnjQQORDiWebMmQ+hxxRP27dvR7cFB3gUqywdCL667vGFRxdxyNKBIGJUxYoVD3v20wi7du3Cre5DPIpVciDEG7NtaavQ1jRPGogcCPGEP1tdAPS2f/9+NWjQIHXPPffwO6nxLPyRAyGe8Gfq05w5c1LaWERfUegKyLNqG02Op7P9kQMh3vDnagtPGogcCHHqYpOqAdB4gXIBT3IgCE0OBKHJgZBArJQFRAK6tFu3blwaSA3tM9D/SxmjWYY6BB2MQUdErAnhdAmtl9iB5y950mDQfLBTTeFgPtb6exb28WebRrZs2XjIP56FydKvDuDx/Vq5ciWPaU1ycnL6fljWCbwv07j//vt1J+nXXXcdv5MWzyKk6xDAk6fgt0OWIUOG0zwrEQrej7bwpJeg62NfBg8ezEP+8Sw0PPMIZnfLS5cu1Sl49lzTuHFjHlL6Ocnjx48rz6fCeHYiDBXQI10g2Ok0Xjlj9Iv437bx5KZU5yKzc1W7eF4iWvhzsCRQ5x2jRo3iseyhST27JhAx4u+HHnpIrVmzRrfy3q9fP3xQDxn/su0w5rVw4UJdUwqdnVWrVi2c+QkhhBBCxJjcFG/nyJFjVYUKFXD1/W+Kx/APIUTiM3pUtommK2NMLoTwlpO/J65o3ry53ytb4eDZh4VnJYTwUJ2/Hyk8bzpdddVVPJSa56P7gfAVTzMWOBG5c+fmuafWvn17NXXqVP24f61atVSNGjXUW2+9pe/wem6Tieblr5ljIdKtNBkCoNei1157jV9dbJJ67dq1usNcqFmzppo/f77CXXI0G232ROSJMwTH8exDtm/fPlfWS4h45zNDcIpbGQLzX7HLD+5jVzo7FCKAGykWW4y1Pt5DLPPx3lcUUJvTSLiT4iMKLB9tFLahEEK4xF+XRTjzvkAxUb9KLR+nKzgVQiSIQH2Y5eXUigKchu22227jHwSBVaxYMZxG8IUQPgTr1PAvTq0ax6ldvjvos4imv9mYjRAiHHa7u7XjX06DSfPoLrrsQz+G6OAbFzL9wa1JE82noTE7IUSorGQIqzl1y7P8nVYzZ87UtzzRoSnaqkQPvrNnz1bLli3jMS768ccfechA85G7DUKEyc0Sgh11+HsdEp6HECIMfSm6URzVrwIbzGkk/O/bb7/lr7pvaBKExqthjC6EcMrdnFrRlFMhRIKZwydbDS2p8PuBoN3HSBpfsWJFNWbMGDV9+nT1zjvvqMKFC2M9hxj/FkKEBRfsgqHRehpj+/Q5p46jL/s5XgVbaNLpxhyEEFaM5++OLb1797ZSavBUiQIZBqbrjzes4kWGhWclhPAFTcA7hWbXxJir83LmzHmBF6N16tRJtWnTRqFlcdx2NJuQRSujN998s0I3u7feeqtu4h4/KfCEJtCsHjfmKIRIRX9DPKD9gAwZMqg9e/aoN954I1WXgw8++KBav369yp49u2rUqJH+sl177bX834totjuNuTuPFxGyl156SUoIQgTy5ptv8tfFN/RFahXNrpoxV3dNmTKFl2jNTTfdJBmBEDYN5++PLd27d5cvmxCJbNasWfx1949Gu90YWwiRXqQqm/ft21dKA0KIS67lVAghYubhJiFEDJAMQQiRQjIEIUQKyRCEEClwd+FZY1AI4QhfvRyFq1q1aol+K/AFNJXmJDS1RvO91Ji9EFHAx6JreDGOyZ0791medSro1o1HcV2OHDlO8mJdQYt4wFiSEBHGx6BreDHhuoVnZ0nZsmVdzRz8dfDqFFpEJJt8E+IiPgZdw4sJyYwZM3guoaPZPGPMzTmSIYiExcdgCu+uyk+ePKn+/PNP9e+//+rmxefNm6cOHz6s5s6dq4f/++8/nW7cuFEX272Zi+HUEp40jbZt26akHTt21HHFFVfortaLFi2qihcvrv/vC80W/SyGC/PpHSxD2Llzp04XLFig059++klNnjw5ZRj7LhBahlwoFdHBx6BreDGQkVMrOvLkAV1++eWqZMmS/Mo/dBXP83VEjJcQHuVUCPv4GHQNLyZk+DKH4ujRo1i2nUzIshjPEB7mVAj7+Bh0DS/GEZs2beK5+kejfWaM7Z4YzxAe5FQI+8w2/9xQvXp1RzMED33PnDnDS1Hq0ksvdWs5/vi/WOEAXkao+nEaUbzqrjh79mykP18hEkYfTiOKv7uu4cUIIWzqxWmk6C8rf2+1jBkz8pBS58+fV2bXdugRG3dbcLfq559/VijloafsEydO6BRwN8sXvSQhhG0dOI0o/t5agvYu7eLFCCFsuoHTiOLvrWt4MUIImxpyGmnO9azjAT8vaN7NjEWIWIMP54gxKGJUbYoMxqAQLurcubMqX768FN9i2wVOhXAHnhnwVqZMGckYYks2/mhUrly5JFMQzuvSpQsfYv6VKlVKMobomsYfRRqTJk2SzybK2vNnETHoA5GX7Zjbb7+d525d6dKl5eCLIF8d2gZCk+Q3phQR89hjj/HujyxefNhwjSBc5cqVk4zBRfv37+c9HRqaxWxjTsJ1vjKEunXrqiuvvJJfBTZhwgTdI7DpyJEjPBQYLx4qc2qLr2sEJjy/DwMGDNCpVZIxOOo23q1a8+bNdbp06VKdhqJVq1b+Pp9dnMaiqD/JuY5TS3xlCP3791c5c+ZU999/v349ceJEnaLrcO8v/BdffKGuueYa/Zw/ztavv/66wsNHqOYJf//9t0698eKfovjKGLSlP8/Gr++//1716NFDf8nxINHYsWPVrl27+L/+0byrG4sI2zWceksXzbCbDa54GjVqlFq8eLGuFvzbb7/p96ZPn66+++47/R6Osw0bNqhx48bpBm3M6sOeaNY/GktIRTKEAMLOECKBFx+uJ3l2YaN51TRm6Zh0nSGYGjRowHs4PDSrQPUUJEMIwFaGYDbxFWm8eKc8w7O1jaatZszCcZIhpDaad7llH3/8sdXjxOkMoTnFKWMwbPGVIYQp1qpnPsXHUlA0bhVjEtdIhuBbSt0Df2ic48aolrlRQjjDabgkQ4gBfq8x0P/cKhF4kwwhiKFDh/KnYqC3Qu0qH9Peaww6xokM4X0KrFtUSYZw0RN8rOFDQX35SJIMwXltKZa0aNHi7IMPPqgvOm7evFkdPHhQt0mAC9nPP/+8uuGGG/B576AI57FquxlCF4o9+An+8ssvq19++UWvE1r4RjN606ZNU71791ZNmjQ5TeMtoLgeE7kNO2IDxbv6lfvkiS7f8lKgnUTvswMuXL5NEfWzRoyr7OsuhVNo/p8YiwnIX4YQuD36MKxZswbrVtBYTPgwo1oUuC2DW2e5KNyWHjOEyykaWIh2Pt5D3OfjPWQgguB2YyC4He4J/WsULlxYD6NKOm6DL1++HF8s/V4gxhL9SpMh8GQBYbQ2bdqot956S3366aeqXr16ugWm2rVr6/5DHnroIdWuXTse2zdef8t+4elCQtPj3r9TIpUhTKLYZwxGTS7eha5AHQ9eTrpHxWreK+6YOXOmlX3ts4SAL2swP/zwAw/ZV7VqVWvHAY/vGFQY4lmHw8kMoQ8qNiE3taNXr17YjieMWbjK1Qzhq6++kgzBvxoUJ3HWtePDDz9U+fPnx37tqedij9VrCA+XKFFC3yK1Y9iwYVivvRRl9VxsKMrz0E+CoaZXKNDn4NSpU1Oq9Zp4GaEKK0PgVfBp27ZtOrVSu9AbzTqUn0t3BImePPtU0N/BBx98oMaPH6+7Z0NnK+3bt1cjRozQ3bSNHDlSNWvWTB04cEB98sknujanL5wh+FquU3EjhbDO7kXFyChatOgGPmZSqhJ71i5s2bKlrjaMQK5z3XXXqWPHjunfLi+99JLuVRjQfVjFihX18Llz53QKtIhwOhYNOUNAu/XB4Au2cuXKlP4PUbX11KlTOoLhxTgp3ksI5zgV1rj9eYQObbS5AbdteBGhwLSrjMGQ1cFtGadw5xh3G7N2nGQIzqrHaTQUyps376ZQe+r++uuvVY4cOf6m+eQzZhcd9h/4D4DmV8CYrWXJFFUpBlL8j+JNivco3qB4keJWCozjhDYU4+hDO48n3O69917Vs2dPdf3116siRYqcp/99S9ERI0bYlbiX3K9fP0cjc+bM2KbbjUW4Jl1nCHzY+4Q6AnafjPWGUjkvKiry3nPPPbwq1uDCB0/rLS9u17hVCvGGShu0zFeMRSc0KxWTUCfBhN/5bkq3GQIfen516NBBp2ZX+HhSNhT4Kc6LjCsVrfwGj6TChQsnYnt6kiEEFvGfDN5VpZ2CUh4vIq5k5fVPBbWj0G6Ap+PHj/NQakOGDNEpbvXhjoUvr776Kg/5N3z4cB5KDQ2t8LomAskQAovmNQRvqEE6Mjk5eV2lSpX+q1Wrlm4kCN36V6xYEfVf1lIMpXCqrYzou+qqq/hrlxpqdgFqT+F3EJosR+MVJ0+e1L/dTQUKFEi55bl+/XqdXnbZZbp/O7SV9/nnn+v30BgJ6nEjReMXqJlVrVo1/d6jjz6qVq1apWin63F94dVNBJIhBBZLGUL6lDFjxj38vYs5p0+fjmZmgGU7vfxYyhBGU+DC5RD9Kvrc2N8iHJQ5BK8I4LJvvvkGB8VlxhpFVE6K7hQvUyyj+I8Cz9TPoxhMgafqwhXtDAFPdz5G8THFRgqUEJCOoXiUAs+9RJPTjysLFxSl+AXXCnDGdgJqRqJSFM23r15C5Azx1013OFADkeZdx1hEQK5nCMWKFTvBq+WowoUL222gxKpFvIgU+CnJ/xPCcQX5OIsIrgjljysZQsGCEd1ElS9fvnC/sHl5VkHlzp1bem8SzuHjSkNV7o8++ohfGTp16qRTNFgBW7du1Wkgd911l25FGtCitPfF2RUrVvj7wriRIXzFi1XvvPOOTvEw2GeffaYKFSqkrrjiCvXXX38pKjmoKlWq6OcssB+Apk2zP9AKMnhWZQfv1zTtdL10G3ArLhw0i3uMOQkRuoiePtEkPS/XF7dKCJGpQcYyZMhwlhdthdG2uh9mC8zr1q3TqZkhm699QWUhnrcQYRm0aFGan6xhQz0Lmnc5YxEBuX4NIUuWLPaeFbcoc+bMoV5DGM+zSGPPHuMGFxpAeeIJo2W7QYMG6RS3o/0ZPXq0ZAjCdbkp0NjqNxS/eMU7FCH1JuXF9QwhiDIUd1F4bx8Cd1jwf9eghaBw0CysXLgVIm54ZgiZOIVIZQgxAxXerKBRcftXCFddigtuGzdu5MPOPtSXyJgx42qaV0ZjlpZ4Zgio92ByI0N4K9yn9Z588kl8IfHkqpvG8uJSoFUj/p8QrmjMx5qrfv/9d+8DGRWbOhmDWkNOwfO5+bAzhLx5Ld/JC0u2bNlQu9Et13EqhDvOnDnDh7Jvt99+uzIvNKKDUcCz8CgBoH1/wP/Nq+FoYQoNZgZ69uLmm2+2coZDhS9TKBkC2vKHy3ixPuFBNdx6/PPPP9WLL76o30MTdCiyo3ViQHNvMHfuXN1vgAkX7ypUqMCvUqPleq6/U+RZBuGuhQsX8iHsn3m122z3/8SJ1JX90CaieRsMmcT+/ftTxvUlX758Vtreu5RT8JchBHITpxl4samgLgSamkOdhH379qnt27fr98DMJM0v/7Jly3S6ZcsWnZptVq5evVodOnRID3uj5SYZi3eUZAgiMtC2pNvQViUvzoqKnEIoGYI3//fpHETL6WMszhXIEKLaBJlIv+6uX7++pcZZvc2ePVtlyZIFRfZwuoLzfI7eiQzBl2lohNdK47WeMD6mo+m/NmYTMcc4FSLdqcspuJUhxATOZxyD6uI8ayFc0YRi6qWXXnoAHXOi01DcssNtN7QEhWbts2XLdoDGQcOxTvUUfSWnEIkMARco9zRo0OBMt27ddLP9zz33nE67du2Ki6Yo8eyhcLJh1xH4w99jn9A1AJ6xsAPPaei5CxEOsw8KN9DsUSfBDmRCJqcyhDrokswNaJ6c5m+3ubCgGULmzJl1y1x4yOzpp5/W/R+Cvyb7QDIEEY7X+TiKGF5uMK04hbAyhLfffpuXHBm4fcmLDiZohhAKyRBEyPgYsgX33rt06aIPfJyp0DKvea/eCu6p9xAWT4E+Jn0FWi4yeWYIaLjT1/jesZsC8095/NnUv39/XU8Cd1bKlCmjf3OjEVtsBx7bRoMugF6vAP1boEs5MBvK3bFjh07fffddneKnkyda7hcUwegMgWG4H8dUj2HPQN8evt73jNsohAgdGoeNFHwZebF2hPuTYQwvPiJoea8biw3KM0PwrLaNDM0XqYcgIqtcuXJ8WDsDFX+Sk5PX8OxD5eRFxW7oZNZJKD3QfDsYs7clljIEbEMombUQl5SmwAW0KhRuVNH15mSGYEU2ivIUqEeBNCuFG2IpQ3iJYqcxKERsi3SGEClRzxBQZdsX+lcFYwwhLrlkMWobhuuNN97AgTXcmGVYnM4QSqOnISdUr14d21jcmK1tUckQ7NRreOGFF+RnRDq0mj9/19GyrjcWqSsC4TUa+EC6jQJX1z+jmECBIix+l6MvhDwUppAyhAkTJvAauOvjjz+28wWKZIbwJq9iyGge641ZiYTFn7XWqFEjdeONN+p+K9Gff5s2bXQP182bN9ctEwPaNICxYy+222H2R7F7926F5x9QwQkNrKBb+qZNm+pbcng8GhVsYMyYMXa+NN6sZghYBn7/d9ML9SM5OVmnaLcQ3evh2Y077rhDbzMgRYvTqI0JrVu31il65A6EltsCKxGE6xmC+aQqmOuOC7033HCDHsbnA82aNdOPt7do0QLPoej38BniUXf0dI7bs55o1vKTIhGhvQMrDhw4wEOBoU/KYJKSktBGYcTwYkOGL5CnW2+9lYf840UHE4kSQnFeJcfQPAcYsxYJK2PGjEf583YNLSaqFwTtVJ4KBfp94EVZFelrCP7bbg8CHRHzPEQ69gy69/7555/5sAgOTa7nyJEDBw9aKY51uJ24Bs8I2MFtKf5FkRkzCUNULirC4MGDeWv8Q4/lPLoQIgKiliF4KMXf/xT0Xn/jX0IIT+j9OVKilSEIISySDEEIoSVTRPI3dLQzBGyrXDMQ6V5+ig/RQ3WwugV43BtNttP4H1CE2tjpc5wG4miGYPXWshXffvutZBoiMSQnJx/h49oVtAg0IxfMC5wG4mSGMJJXzzE0T8kURPzi41hDzcPp06fzq8DMWn79+vXTqR28aF/sZghFOA1VqgwBtRWfffZZfmWN2SGPieYpGYKIW8/wcaydO3dOp8WKFUtp5QgtIqFzFjyM9d9//6nGjRvrKsxmdd3y5curjh07qhIlSuierFDXonDhwurxxx/XDaCii/YhQ4bocU203IHG4tOIaobw1FNP6RRd25kN4+CnELYZ24tu5tGQ7qhRo3Tmec011+ht9UTzlAxBxLUcfCxHBC/Tn6hmCE6geUqGIBLKMn/tANiF7t1ofr8bs7Uk0hnCk7yqjqF5HjRmLYQIV6QzBCFEDJMMQYhYki1btk1WH+cOZu/evWg/wE7DIZIhCBFlhfj7GxG0vEzGYn2SDEGIKHqev6caWoNasGCB7mDFs+ET70ZQ4KefftLpwIEDFR4Dv++++/Q9ebQEhbYV0OpQ9+7d1d9//6369u2rxzXRcgdTbKDYh5XwIBmCENGEZuAi6cSJE+HelpMMQYgI2MbfWVfQ/DcaiwmbZAhCREleirfr1KlzAlV69+/fr44eTd2a3JEjR/T7+OlQu3bt4zT+WxS5MLFLJEMQQqSQDEGIGHOKAqWBcK8HhEsyBCFiBDqPiTbJEIRwUSmz0xWn4ElBmq8bnd42oIh2CcUfrBdKUELEHaObogih5bUzFmtJYzyK/MUXX/DUwaGdhnvvvRfL+ZoCPVU7rVBSUtLCO++8Uy1dupSXah2mQf0Mms9vFAX1HIWIEbYe/x06dKi67bbb1F133aVfr1y5UreNUK5cOf3aKloumlnzdhv/2zXojo6XZUU+dC4TadyhjZt3aYTwb+HChXwoRsaSJUu8v5SWSyg0rmrfvj2/Ch2e1TAWnVaGDBl28Gga+tx8/fXX+ZU96MwlHLQ664y1EiLyXjh48CAfis7iL6DPPg8LFSp0ikcLKmPGjDx0EZp8e/vtt3XJxQ5efBorVqzgMVJDB79YRp8+ffgdAzrzRUewntW7V61axUMXzZgxQ6eos2Ey38P0Z8+e1amnuXPn+l1PIaLlaoqVDRs21M8kLFu2TK1du1Zt3LhRp3jdu3dvhZaZabwVFI0wkV1mk2Vuy507t6Uv2a+//spTRB5KbbwaQgjSvnPnzvz1CN2GDRvwxdppzDJsT3Tt2jWle38nYF6YJ837KWMRQgghhBBCCCGEEEIIIUQ6V5difunSpTcVK1YMzaTNoKiIfwghEl9b9HocDBpQoXHzGJMIIRLKyJH2e0GrUaOGVLgRwp/k5GTlRtCsHzSW4Lx///2Xv9724aEono0QwoS6927ixTgKvTuHi2ZjpZl1IdKPNWvW8NfDHbwYOMpp2HjWKfLkycNDSo0YMUKn06ZN01WFwXzP06xZs6R0IIQnf5lB1qxZeciAB4VCQYvYT4F0LsUCB2IuzzpFhQoVVLZs2fSwr/Vs1KiR2rlzJ78yoO8HmpcQwuQrMzDPpOPGjVNVqlTRjWMUKVJEX5EHPPiSM2dOhSbQd+zYoT755BO1detW/T9vvBhwrDtynnWKnj178pDSTzh6P+jjq/m18ePHS2YghCdfmQEa3oCOHTuqQoUKqYkTJ6r8+fPrbtDg+++/1+mQIUN0q0Qff/yx3yfteDGOolLACZ59yGg2PYy5CSG0cK4ZmH0i+vpNbuLFOG7OnDm8BPvQdgLPRghhiuAFRMeZJRg7smTJcoQnF0J4euihh/hr4g5ejJvKPvDAA7w0/66++mopDQhhwTyKxRZjqY/3EIu8Xi+hKEsxhiITRaTcR/ELxfcUd+ENIYQ7cnDqzd+ZNyeFnJWFSED+MoO9FCgF+HKAorYxKIRIFL4yAzsddDzAqRueKVy48Nl77rlHdevWTWXPnv0svdfb+JcQwmn+SgbwNKfBoFaiUyaeOBG82gH6LKBxuxiTCCGcECgz+JVTKy7nNGT//PMPf9Wt69+/v1y/EMIhgTKDUPTn1Bb+bofkm2++kQxBCAcEywxyc2qHrYpA6Jo9XDSbb425CSFCFSwz2MypXfU4DYq/z+qaa67RKZo9Q23EZs2a6dd4pmLy5MnKzDSKFi2qypQpo4fR7yCg+zaenRAiRMEyg8qchqpnkOihv82kVatWOh09erTavXu3HkYfhnia8pVXXtGZA42fKjMw2ziQR5iFCJ/T1wxs099mggZKZs6cqTMC76cmt23bpjtthUWLFql58+Ypz+cw0B06z04IESIrmcH9nLol7KeraB4NjVkJIUJlJTP4jVPXPProo/y1tg+tOPFshBBhiPrPBFPevHmNq4E20GTTjamFEOHYSHElRXn9KrBsnLquYMGC/FX3Da0xZcqUKdS7HEIIH7pSWC1in+Q00vDY9I0UbSiK4w0hhDsKchpMVU6FEAkIRf9yxqAQIl2aPn06/wI30FvPGv8JqA+nkVC2QIECm1DhaMqUKerLL79UeJQ5KSkJLTBZLc0IIQKowt//NLJmzXqKx/HnG05dkyFDhiO8OkHR6FONqYQQdn3H3yO/nn/++ajds+dVsGXBggVRW18h4lLlypX56xMcbt3xZL48R4HGTD6iqIM3nMCLDsmePXskQxDCCu/rA1bRpLcZc7AELSaPpthG8SpFDQpL7r//fl5i6Gg2Uu9AiACy8HclZDQPJ75kuGvxBsVaikkUzSlSYDk33XSTXh4eUELXb/v371dNmzZVPXr0UEuXLtX/w+PK//33n+6Y9fz586pBgwaqbNmyCs2kHTt2TEoHQvgxWH+DHNClSxc3v2iFsYz27dvrZU2YMEEtXLhQnTt3TlWrVk0dPXpUd9H+4osv6jYOpk6dqsfzdPz4cXmEWQg/LuPvSQr0rpwhQwZ+ddHJkyd5KLDOnTu79mXjRYTl8ccfl8xACG9Vq1blr8hFI0eO1GmnTp1U9erVdevC6LB02LBh+sxvQrsAOMv6wrN3wwReRMhoHkWMWQkhPKXNDUijRo10E2J9+vRRzZs315kCely+9tpr9f9//PFHdfPNN+thb7feequrZ94aNWrwkuyjyZcZcxFC+NKbvys+HThwgIeCu+GGGyJVBF/Ci7SMprnbmFQIEUgyf2dCRvPAY86RttJsA9EXNI5K4+DuhBDCjkmTJvHXyB6aFI8OCyESSYkSJfgrHtzBgwcj9bNACBEl4/n77hfaIuRxhRAJ7lL+3qeRlJR0iMcRQqQXn3/+OWcBBnrrQeM/Qoj0qhKnQoh0LienQoh0Lmb6TRBCRJdkBkIITTIDIYQmmYEQQpPMQAihSWYghNAkMxBCaJIZCCEuyUKRkeJ2/UoIkW6tpJCnFIUQ2tOcCiEccL/VJset2rBhA87YVxqzT0y9evXirXVO0aJFpaQjoiYzH4eu4GU4rmLFirwEpWbOnInlRLSbczTJ7pasWbMe48UIETl04C3mY9AVtIjhxpIckytAvwgrjFHcx4t0BXpj4sUIETn58+f/k49BV9AixhlLcsQMnq1fgwYNisgXiRfnGl6MEJETL5mB2bGpVTRJGWNKd/BiXMOLESJy4iAzyIVicyho2tXGLJzHi3ANL0aIyInxzCDoz4Jgnn76aVe+WDx71/BihIgcX5nBN998o7Zv386vLtq3bx8PWUeLCCkzaNOmDc/BGTRL1FR0DM/WJ3SxbkLHsJ7uueceHgqMFyNE5AQqGVSpUkWhFeJChQqpggULqjvuuEPVqVNHd3h6+eWXqwoVKqj69evrvgxvueUW1b17d57yIlrEJxQfU5zC8ixaypP7NWvWLPXvv/+qefPmqcWLjRsiv/32m059OXHihBNfsEwUej48W5/KlCmjvvvuO1WkSBGVPXt2HVmzZlVXX321uuaaa9T111+vu4gPBMsQIqJ8ZQZnzpxRQ4YMUaVKlVK9e/dWPXr0UHXr1lXPPfecmjZtmsqTJ4/u8Ri9Hzdp0kStWrVKZwTml9ITLQIZwRKKfVieFUlJSSt48oCwLhAoEzCdP3/eqS9Y0MwA7r33XlWuXDnVvn17hd6gWrRood58803VqlUrtXXrVp2hBqKXJEQkxeo1g0ceeYTnENioUaN4KDCaZTFjzs7g2bqGFyNE5MT4BcR/eDYh++yzz1z5YvHsXcOLESJyYjwzgGo8K9syZcp0mOfhOF6Ea3gxoUjiVAh74iAz0AYOHMhztIYmaWVM6Q5ejGt4MaFI5lQIe+IlM2BBfzZ88cUX4XyRLOPFuYYXEwpHb6GKdCRnzpxBb+OFgxbxnrEkx1ThWaeRMWPGIzyO63iRruHFhCIzpxF38OBBXntnzZgxIyIZvLjkkty8z13By3Ac7tWbtm3bhuXUM/4TGd69QDupYMGC53gxoYhWZrCZV98VNP8njcUIt33A+9wxqIVH8+1uzD4xvffee7y1zmnWrFm4GWg2TiMqOTnZ93PlDqFFjDKWJGLJLk5FbIpKa9GSGaRPkhnEtlycRpR3ZoBKY6i9atq9ezcP+bZx40Ye8o0WIZlBDJLMILZFOjO4QDHDX8kA7VAsWrRIvfTSS6pnz55qxYoVqmnTpgrtR+I5l5EjR+pnYNasWaMuu+wy9dFHH+GLr0qXLs1zMNB7khnEIMkMYls+Tq16idNQ4Yva3TszwPWU1157TeXLl08/7IZ6Irjoe+DAAVWzZk01YsQI/YWfP3++fu5l3bp1qnz58mrOnDn6obi2bdvynAy0DMkMYpBkBrGtEKdWhZsZaHauGZgPwdlBi5DMIAZJZhDbYj4zCAUtQjKDGCSZQWyz+3SmZAYiZJIZxLZSnFrlSGZA5vP31hU0/07GYkQskcwgtpXm1CqnMoNLPv30U/7qOuv2229HZiBizFGKfynO6FciFtltIt6pzMBfFeqlnFr1FaciDkguHbvwXEIFY9AytzOD3zm16mtORRyw3JahiApk1qgIZJVkBiIkl+E3HA+L2GT385HMQNhWR1/NYfQ6g/G2iDF2e5GSzEDYkiojMPH/RIxAk+wmfssKyQyEZfqngT/0f2lzLwY8/PDD/IlcRG9XM/4bkGQGwhKfJQJvNJ60uxdFeBLQH/r328ZYfklmIIKqy8eTJTyNiDDe/QHRaDuMsX2SzMAt48eP548gcmixdY2lO6Y+z9oWnlZEhq3+JCpWrOjv85HMwC287yMKffjx4p1gq0Tgjech3DWAd7ctL7zwgq/PRzIDt/B+j6j333/fqS9hSCUCbzwv4Y6wupxbu3at9+cjmYFbeJ9HlEOZQcC7BnbxPIWDypYty3s3fDxL8JUZfEkxyWb4q/VoNzPAg3C+5m9G/OB9nWLevHnqqaee4leGvHnz8tBFlStX1umWLVt0CmgXzgqvzCCUK/u1eFZpLFiwQKcVKlTQqR08b+GAPn368F5VatCgQTr1rFcQCprtlRROlQz8sZsZJA7ezynQCzDUqmV839AeXLZs2dTcuXNV0aJFdUORgHbh0Jf/9u3b9Wv49ttvVf36Rsn90Ucf1emZM2d06okzg21YvF4JeyyVCE6ePMlDRp8IEydOTPWePzR/qakYpj/++IP3puHpp59Wf/31l1q2bJnukn7fvn26HcEdO3aoTz75RLczmCtXLn2sFS5cWO3cuVMVK1ZMjR07ludwEc1+p7EU10hmYHr++efVxx9/zK+MMyxGK168uEKx77vvvtPvV61aVacoGZw/f15NmTJF/fjjj2rq1KkKFUruv/9+/X+0KOvNo2QQSmZwyaRJk3hOvnkWT7/66iu9fp06dVL58+fnd33r2rVrSOvjRxZOvUWln4AIW8m7VOvfv7+67bbb1KpVq1TJkiXVNddco08m+NKj1ImOWO666y5Vr1491blzZ3XDDTfozwrjevrzzz+d/Hz8kczADYcPH+ah1Jy4ZhAsQ7ALByvP2inpOTMAW3cQkFEE6rkaJxeer9skM4gkhy4gXjJhwgSeY3i6devmxoGW3jMDKMa7OCwoIfD8IkEyg0hyKjOAcEsId9xxh1sHmmQG7OzZs7y37aPJ1xhziRjJDCIJF4l48Y4INUNwua06yQw8oLMRu2iyp4ypI6oxRXNjMP35FBdycIU3EnHvvfe68gXE3QI7XPpp4EkyAy/47K2i0SsaU4l4UInTSDjCaUCTJ0/mQymwCGQEIJmBD+i+LBgeVcSRSGYGaOXYki+//JIPKd8cvn0YiGQG/qWuiMAWLlwYzmdTmdNYUZPTdCEmMwPwlyF06dIlkmcdyQwC68cfi4bu0Pl9uzBdJD9XO7Be6aKZ/pjNDMD7J0OEMwKQzCA4Xavo0ksvDfezuZfTWDOS04QX05kBmBcVI/jTwJNkBs57Ojk5+Wi7du10tWZUe8bF77179+rnYlCdGZl+uXLljtO4YykiVVRvQDGhatWqJ3A9CscdumzHBXOs35IlS9TIkSPVLbfcguMQ178exkSJJOYzA2jevHk0MgKQzCB8CxcvXqwz9HDgGYgsWbLs5nk6In/+/AfwRQ/X9OnTcXxON+bqrO8p9hiDrouLzCBK8AE/SpFVv7oI779DIQ9DBVC4cOHQaykF0aNHj7BODmhwxS05cuRw9Dg/RRGsQUmnSGbgX34KXwcdWv8N62BMdH///Td/NXxDSa9gwYL8KnS8ODuSeVKfevXqxUPhwbUuXl5YylPgYKtHcSnecFl6zAzwJcfvQyvRzMd7iMu9XtenEIZu/J0ICvUVRo8erR+NPnXqlH56Fo+oP/jgg2rlylQPTfpEy7J1lf/qq6/mKX3zbL8BPB/tx7UDwOP8v//+ux4OhBZX0liqRVSk2LV69Wqe3L+ZM2di5vONqRwVqczgCwpcEIp2huDsY5Iejh496sjZIBHwLvELbWrgwaUsWbLoR9NxMfHXX39VHTp0UOfOndPj4BHoYGhR3Y0lWjaEJ/XpoYceUldeeaUexoVCuPXWW/U64fF52LRpk34vGF5ecEOHDuVJ7LvpppucPOgiWTKI+pflo48+4r3oDloEeiQWl1xifKNcRMsI9eS4nmfhGlpGWWNRgQUvX1hE8+phzDIskcgMilH0pjhI0ZfC0o5yg2QGEbfQPNM7hUrT2M9h8250JVxcMvzGmHtw4d/D8ELzfNmYdciczgzWjRkzhtfOGjSzRtMdNiZ3l2QGUTW8devWys5tRvw+f+yxx7Bf3Wy9GHeFfgzUKIsvP/30k2rcuDHWbaieiw2VeB6O4/mHyonMoMny5ct5bcJz8OBBbM8Dxmyd5yszwBkC7fdZEeyZflqEZAahQYO6mYzBmIPP1Lmu/Dyf1f/iiy94KDTe06PRSV5MKMLKDPLmzXueVyONI0eO6HTPnj1+m07zp0mTJqFsU2eKOwKFr8wAjXgiQ0CDqyZ/bSscO3ZMt+GHRkF9oWXc7b1Mh0PEOz5WUmTOnFk1atRIN/QJI0aM0FdScXEQzCuZeA9no19++UW/NqHGkwlXY3kxoQgnM6jCqxAQioYoObRs2VJduHCB3w2O5o8KP3YM5tQvX5mB2YS8mXlVqWJsltmMfPXq1XUmUK2a0bMYfgOb//NGi5CSQexAX4+osxNb+FhJBb+d2rZtq8+CdmE6T7yYUISTGfTlxft1+eWX6/Sff4wOeXbt2qWfMbjvvvv060Bo/nabrgopM3ASLUIyg9ixigIds8QWz8oL3nARIhwDBgyIVmZwCR7ecAOK7LwIO2IhM1hAgVtebsQvFPO83otm/EwRa0pTVKB4mgIPOY2hQAkT75WgiAnG7wEX0LyrGouwLRvFbxThZCaX4NFVJ4V4vQCkZBBZqHkZTSPxM/q///7jvW/d1q1bdT8PNI8XjFlFmK+eZcJVqlSpsL7IJNzpPa3DI5+hQFVPmh71EMIRNDMIt2uwYGgRkhm4qzgeI3bas88+i88usnczhg0bxosPH3pD4tnakUzRgQJ93b1BgWLUmxT/o3iGAj8bME64MI/HKI5Wr179PDo36du3r27SvE6dOugsE73nPkmRm8IpQTMDyJo16/l+/fopu4F69L7eR3DnIHieRDIDl6A3sEAef/xxHjKgyze7aDH7jKVFznxedshoHo8bs/IJj9x+effdd4dUhPKGDCxPnjxYZk8999hlKTOwybM9g0Wcgr/2DCQzcMcdfDgGhdu+eNYBPwPQ1yjuBuGOEe4Gmd0JBkLLqm0sMrJm22lYgWvqDTMmTWPYG2+8wWO6C7cHuc+EWKsk4nZmsJBTkMwgspnBKD78AkI/oaVLl9bDeEwaJbb58+frvkbRd+hvv/2m/xcILau/scjouSYpKek7XIy7/vrr1bXXXqs7raT3UQ3Tb9vzVp6echPuzdNqoKGPWOB2ZoCLrSbJDCL8M8FqE/rhwFOLvLj44fQV/HBxpmDv+W3nSckgsqJxATH4qT1ENO+JxiLiCNqlj1W0ergoGS1yzSCyopEZmGqipuiJEyf4yLMPFeDKlSuHYxZ1EOIP2n7zBc01oXEIK/Aw0L///qvbkXMDraYTdyNC4XZmsJhTkMwgupmBN7Re1YliSZkyZTbhYmGdOnVU7dq1ceHwfMmSJf+h/6FC2E0U2SniH3/f0kC/+IDcDp2PfP/997oWn9nM+LZt23Qzz59++ql+vWDBAp2+9tprOp07d67+X82aNdU777yjn5VAM1TTpk3Tz0Z89913ejxcxIT33ntPp77Qjo9WfXDJDCIrljKD9Ie/b2mgujOKTGY9hv379+s26U14JhzMdtzMzMCEK66AW5FmO3B42hDMqtRoqhq8p/VWr1491CGIBrczgyWcgmQGkhlE1zfffMNfudhFq1nUWNuIczszWMopSGYgmUH08XcuJtHqbTfWMuK2UpykqKFfOcczM/B8ijIamQH2LyJWxNr6pE+oSx1raLUGGGsXNW4cmLGUGbxHgWrjsUIyghhyzQ8//MBfxehJTk4+xusTaVdS4PkGPLO+mQL9362jeJcCTaeF9Xg288wM/uAUIpEZJFHgCvkQCmREqDe/lwLXLvAenjGJpj6cihiSIUeOHGfttCIULtxxoOU+ayw+Im5Buw+HDh3iNbAHj6xmypQJmUVxY3aWeWYGf3IKbmQGM3r27MlrbB8eAqN5uNlwaIpChQrxUnWJMI/xrohFj6GG4s8//8wfV3hwixItx9J80ZhFEb2ECKlfvz6vhbNo1mgSywq3M4OuVurL24WWe2neHY1FOMtX68b0NhpeEXECrbtWoUBf83MyZsy4tlixYtsqV668v0yZMrvz58+PYjaKn1MoWlFUpoiarFmznuTjzFW0qLeMJfrlmRn8xSmEnRmgbofbpk6dim10ygM8W5/QlB2PJ4QzrHSr5SRapOeX3JtnZvA3pxBWZsCLjhhebMjwCLtVGN2YSojwGB3aeUCL0adPn9bDZpPrKFqjUpTZjwH+362b0d/nZZddplMTeroBtHCMSleoWemNl+2LZ2awjFMIOTPwbKnHbA0b13twXWPjxo369fr16/W2YXs3bNig3zOVL18+ZRvQyQigpij2h9nCMzz99NM8pBS68+PF27Z06VKei3U02a/G1EKEqGzZsrv4eNLQZiGqWOPZC7MLb/Sk+8cff+jGKtBpLfqNALSkBMgM3n//fXXdddfp+umPPPKI7ugTcC0F0xcpUkS/NtGi8RPKF8evGfAitd27d+vUvDCKTj9xradz584pzcrjPbO6OfYHmmpHI7i33367zhSwPXPmzNH74/nnn9fP8IN3q1q8eDuMGYUIF0N5PkKExDhVepkxY4ZOzWci0G8Euu42e7DG61dffVUPo3s3dHQyYcIE9eGHH6rBgwfrYTSDhYwDz2B433nhZfvimRmgZWJTyJnB8OHDeanGQ2MvvfSS3hZ45plndIoLtrhwO3v27FRneBMyDGQKU6ZM0SUIXDBEd+bINFA6+Pvvv3XGYPrf//5n64tpZrxOoNkVMOYqhE2RbrCFFrncWLJPnpnBDE4hYa8ZBOoLsUWLFjrFTy70iYESTcWKFdWaNWv0+/7QbOVugwjZQT6OXEXLecJYnF+emcFkTiGszAA8e8VyC55l4cVZEfQqIUox+ImCB+HQQxZKNPgZg7YGzWsz/qAbO16OEPah8Qk30KwDlQY8eWYGH3MKYWcG7GZ//TqGA/1x0rxvMBZhj/mYuzezi79Zs2bpny9vvvmmfrQdGQR+hgRCs0Ur3EI4oi5+xwYrjvqDhjLz5s37L83H7u9Xz8wAdTRMTmUGniY+99xzvMb2cc9aE4xZhS38ZrXJ3r17pTQgIqI8BfpmwO9R72hD4USbjJ6ZwWucghuZgTcsG3c5PqPw3r5PKPA/J5fnrQF/p0NSo0YNyQhEQvHMDAZxCpHIDGJCKF3S0WSx0mK2EI7xzAw8O65JN5kBJCUlXazNFADuLvAkQkRMQYrxGTJk+LNgwYKncD3BjEKFCh2m/82iGMrjhcMzM+jNKUQiM7iCYnKePHm2em4fInfu3GjMZRLFZRgxQurwd94n3FHg8YRw1afh9lPZtWtXHKwPG7OzzDMz6M4pOJ0ZZM+WLdspqy1c+4IHn7JmzXoU8zJm6Q5fdxvo7VHGf4VwR8EXX3yRDzdnoQltXkYwnpmBZ2MiTmUGzt9XZDRvNzsFOYBlyN0C4bprrrlGH9Buo0WtMZao4baj98HtmRngDoUp3Mwgr/mQkZvQYjYty61+LG7hVAh34CGjSKKi9WleNC4QBjrTXc0phJMZ5OVFRwwtE+1ZOE1aRxaueoKP3zToNzUPKd0nhNkvBDIP8+k/PMWH13hQx/PMiweVAuFlm/ydSetyCnYzg6YUV2HAV78TDRs25CFje+Cpp57SKTrEATz6jG3++uuv9Ws8eNWpUye9zagViFqHgG33ZrNaslWSGQj3XHrppakeYfaUPXt2/TizJ/OiIjp/AV997/mrXuuJFu3vEWZP1TkFf5kBel1Ci1G+AsvhJaZmZgae7RGYzdah0VvvrvvNxkbwGDN+tzdr1ky/DoSW7TTJDISrUrdM4sG7kQ/zDPjXX3/pUgDaOMDjvHh8GcyGT2DFihU85BsvO5hqnIK/zMCf4Zxecu+99/JSL0L3d+Y6Yjs84QlBT+gnE9AQCho0QRVt9Hq1adMm/T7m5Q0Nv/DinSSZgXBXvnz5+BCODFok6iNYUZVTsJsZpHL+/HleuvuQUfJinSaZgYiIr/hYdg0aD6HleJ7tg/H8KRFWZgC33XYbr4l70DYEL85p+SgkMxARtdVXm4XhWLduHb4gns8ZWOVoZsCydOzYkdfMObfccgu2MdQKUFZhGajkJETEbXj00Uf5cLcOjaX26NEDB+7zxmxC5tl8vFOZgadbLr300nNoGNUuXC8oVqzYWZpHSG0YhOgEp0LEhLIUt1M8RIGu1vpRoPMQz8pCTvHsrs2NzMAf3JbsRYHHtRH3UzSmcEvSoEGD1Msvv+xI0PzQJZwQCSVamUFEoRFZp/GshUgYFTmFRM0M+qBVKKfxvIVwXFaK+ygONGzY8EL37t3V448/rtBkGPpIwAW5OnXqoGfofyic7Km4AqfgdmZwOcXoggULHmjTpo164IEHdJPpCPQPgfcKFChwgMZBN+31MYFTgmUGbdu2TenMxhTsIijPWoiwJWfJkmVPKBfWPKEXJpqX54NJdrmZGbRu3rw5r2noMA+aV0tjlqEJlBmgoxZPHTp00FXB0cRZIDxrVPO2E+iSXgjtbnQz5oZXXnkFByjulduBNhdNjmQG+fPnd61J+Bw5cvzHi7ElUGaAylKLFi3SrSKj7QWzRJApUyad+sOztsupxl1FPHvrrbf4MHIXfRntHKjlOIVwM4OI9S5Ly7J15yGGrhlIZpDe/fPPP3wIRUbNmjWtHqxOZQZ+n79wCy3Ts1QTkGQGIlZYvq91xRVX6BTXEnBBDdDLD6DTVTtouaith2f+Ax24qNNgspsZoC3GYRjwfJDI7DQWTyu2atVKD0Pr1q31BVG49tprdYqnEwHb1r59e4UKWHhI6e6779bbjWI7ah7iQSj0w+jZRyN6UsayrahcuTJP5RyetV2SGaRnRYoUMRomsKBBA9/N+vfv3z9oDz/eaNG3UiD9kgJdrvmKXBQmz8zA17i+AvOfx4vUzMwAj15jnXExDk2Tm+v/9ttvpwybmYEJGciNN96oU2QGeNQZvUyj+jaeYvRGy7YDlbfMeMTrtRlv+HjPV4RKMoN0zug7PcJ42eBZ5TgQuyWDIZxectVVV/FSI6dKlSp2M4MSnIK/2pxuP6gkmYG4JHVLHi6j5V1jLNaWsC4gotgeKXZ+IniQzEDEjDv4WHbNnDlzQvmSmMLKDKBAgQK8Ju7JnDlzqNsY7cygFIVkBiKVN52+uo2HcGi+dtox8CXszMBkNmHmpFy5cp3k2YcqFkoG+JxuMwaFSO2ZihUr+mzwM5CZM2eqsmXLonpyHWM2jnAsM/CQl+K3wYMHp2oLMRhUDR44cCC+OPMpPC9yhiNWMgMhbMEXAA8R1aZAXQA3mgX35kZmEAh6lEZpBuFE79LBRD0zwF0UHhQipkU6M4i0aGYGZbnQo9HrgcbbQsQmyQzcyQx2cB6QCn4e8v+FSKUtxfwSJUqo0aNHq2nTpul2DVFhZ+XKleqzzz7T72fNmhUH0GcUOTGRw9zMDFAbcgyt/7FevXopNDayZMkStWXLFh2LFy/W7913333YxiMYl6dxUsQzg2AVxVDTlEcV6Virdu3a8SERnty5c+OAymDMNixOZwZfooekcI0dOxbb58QtuUhmBqmfiw6Cxg+lMVsR577jz99x6ICE5u+v49AWnAbiSGbgVCbnC55h4MWEIlKZQdoeXyyoVKlSONsm4gmK/ZFw0003eR5UGEbgNuR5CnSVNo5iPMVYigco8DjwpRTheo9XwXVYlrFIW1zPDN544w1ew9Cghy2elUhU+KC9MwM8hRcI/u9dxdfqo9BoRowXDXkoHjQGXdOHFx0xtMwuxqItczMzqMCrlcK76zyTlZ6naH4vGLMViUY/1ef5GG3Tpk11JRy0vYeryuhRGO8B+h0sXLiwOnjQaDDIrM33zDPP6HTMmDH67I8n+fB4L5jTtmjRQqdAyy1gLN5Vu/Dn6NGjvNTA0BtzhQoVVN68eXUnrNj2iRMnqptvvll99dVXChdQsZ/Q6Sr6hggE+0mvgXVuZQZGR5Ee0P0btq1cuXLq4Ycf1o9v33HHHapz5866v8xDhw7xmEodOHBAp88//7xOTWXLlrW7fSLW5c6de4/54Zrw+x4HO9osQGch1atXV8uWLdP/wxfi448/Tqmxh9qGYPZKvHz5cp0++OCDOvVuyNNEi7bSC7M/+S0GlmOpVLB//35VunRp3W4jfvuXLFlSrzseeUbGgKcQL1y4oMqUKaPHb9y4sU4DoWXb4Upm4Ku0hrs/9evX143aonHb1atX6+7op0+fnvLlN5ld7/tCs/dcZ5EAMvNn61eTJk308wVO4mW7KeViZdGioT+ljcef77zzTn5lsNL9XLZs2c7x4q1y7WcCMnAncVVskaC+4M85Imh5btRDCOixxx7jpbsPzzrwYu1w85oBvMqrFxaazzZjdiKRFf3999/5I3cH978YTcZvHRfRMn41FmWb25mBFk57lzQ5HnMW6UjD3r1788fvDFxz4HnHijm+mikLFWop0jynG7MOWUQyA/C8PmTFE088EWufn4gCHKBHzTsFVuAiG6r00nRf6DnEvv74Tf3pp5/yFgSHNhNxYZGmfdyYhSMilhmw1LcH/KDxwukERwgRgkhnBpq/+gZA/47Eo9tCCC9RyQygSJEi/PU3oO4B/0sIEQVRywyY7vSB0o3GSyFEtEQ7M4BPOBVCRFEsZAbSOrIQMUAyAyFilOcX0onGWYKJdmaA1puQGfhrc0KIdA0X1CJ1ZT0WSgbYVnRYK4SIoqKcQjQzAyHStUczZsyou2QP1OITumN/9tlnVYYMGfClediY1LYkTgNxOjOw119+EDQ/dB4jRGKoXbs2H9rhQ4MnPFsrIp4Z8Go6imctRNyqunDhQj6cnTd37lx8ScoYi/IrnMygLqe28Oo5imctRPxJTk723eSSC2hxR42l+mQ3M6jOach4tRzFsxYi7vzMx7CaOnVqShNt3tAcmFNomd8Yi07DbmYQbu/VaTIDf9tvB89aiPiCBkBNeDYfVq1apebNm6dfDx06VL377rvqxRdf1A2CPvLII+r111/XFwz37t2rx4f58+er77//Xg+jlyXAe2C+NmE+vHhvUc0M8Ig5XHHFFeqLL77QmSPs27dP748ffvhBvza3B+8dO3ZMHT9+XL828ayFiC+ezb4/+eSTPHQRGgeFAQMG6NRsv+Hbb7/VqTezZWTzi2Wm3njx3mIiMzChL4Xy5cvzK+t41kLEl6SkpK18DDsOTan7Qov921h6GlH/meANLVHZxbMWIv4ULFiQD2P3lSpVKtCXJeYyg1DwrIWIW92sNHMeKvwcoWXcbCzKL8kMhIghrc1OXpyABmRpnk2MWQclmYEQMSoTxUc1a9ZUX375JR/q/uEKPNc4HM3T2hXxzIAYt1AcQvPbacxWCBGOaGQGVqEHbCFEhMRyZiCNmwgRQZIZCBGj8GDR/JYtW6o//viDfxX7hy7oUJ2XpvmFp7VLMgMhYkg7VD12Cto4oHneYMw6KMkMhIgBRn1jF9EyehuL8ksyAyGiqUqVKvx1dV+1atWQKfgjmYEQ0ZKcnJzy6CHXElS7du3idy7Knz8/D11kPq33yy+/6NQqWsYmvXBDAU5BMgMhouX8+fP8FTUyA7j11lvVjz/+qJ9YRC/MV155pc4kunXrplCKuOqqq1S+fPnUkSNH9Pimb775Rj/5N2fOHLVy5Ur93vvvv69OnDihhz3R/AphnlgHmyQzEMIN5iPH4Pk4M+DOQJkyZfTz/TSqqlu3rsqUKZNq06aNQoekeJbfVLx4cXXTTTepjRs3qu+++04dOHBAv4+2D9B+gSc8A2EsXTIDIWLJdP6ORgwtE52ShEoyAyFctIO/p66jZe0zFhkyyQyEcFmxadOm8VfWeV9//TUygnzGosISrczAriOcChG3ksqUKXPS++JgKA4fPqxKlix5nOfrFMkMhIiSGyn2d+3aVf32229q//79/FW/CO8tWLBAdenSBWf//RRWaxyGQjIDIYQmmYEQQpPMQAiRhmQGQsQAXEvoYAxGjWQGQsQA9JkYSg1CJ0lmIITQJDMQIkJur127tlq7di3fRAwO49aqVQslho7GLFzTkqIFxVr9KrZg+w9wKkTcWrxhwwb+aocPmQPNc54xa8dh3tcYgzFHMgIRt4xnjl1Ey/jDWJQjkimaUmTWr2IL+ow4zKkQ8WPEiBH8dXXf448/bueMiToFk1CzcccO689SoTOXPHnyYDlt9FychUzoE7TngOWEAtNheprPRxRWGnQRwn3oCNUOdJd25swZfhWa3Llzn+bF+5QzZ04e0xnoDZpm+7wx95D06Nu3L8/NHX369ME63mMsTogo4GPRsqSkJB5Savz48eqNN97gV/bw4lNp1KgR/9c9tJhgjbJ62siTRRQtd42xeCEiyFeTZP6gRDBkyBC1aNEi3bzZr7/+qrZu3ao++eQTHsOaf//9N01mwP+KCPoJcYYX61e4pZ9wYfm8KkJEzP18/EUMLfMOY9GGFStW8H+Ca9eunW6TEVq3bq3TUNBiuxtLT4tH0egnjW7OzQ5zvcxZec6ycePGqlOnTvzqorJly/JQanqFhIigcXzsuY6W9bKxyIv4X5a88847qnr16qp///4qb968umVmDMOrr76qUyvuvfdef1+0Z3kUDcvq0KGD+vvvv/XrP//8U3311Vc6k2jQoIHunRqNxk6ePFn/hMK6mNdhLrvsMp3Wq1dPz6NXr16qdOnSuqHZJk2aqIEDByo8Go6fWiVLllTPP/+8mjVrlp7GROvzkrFaQkRQixYt+BB0Hrew7BOPYgu++NmyZdNfIlzUHD58uFq6dCn/N7hatWqd48V7q8+jaGj8FZ588km9HHjrrbdU1apVUzIDfNnRlDwai0VmUKBAAT0exqH5qYoVK+rMA8MItDJ9/fXXq1y5cum7CtmzZ9fvY/zOnTvraU30flUKIaJm9vTp4beTyk2dzTBm6V/mzJlTN8scAbxonwJlimgOPlKaNm0acD2FiIbeWbNm3XH11VerKVOmqNWrV6v169frwDCKzfgffam307g9jUnsyZIly8U2213EHcVYqQy0mSeJCizfWA0h0qdcr732Gn8dnEfzt/0Fo0zwIE8eEVgeL1oIwbaYvTKFA7/PaV5djFmGJRfFIdxOddK8efOwfqi6nBMLEUIE91BycvIZXMR76KGH1MKFC9WePXvUunXr1Lhx4/R7NWrUwBdrNUWqW5cuuo7irUyZMp3t0aOHXgdcUFy1apVuGRopXuN93L3AeBif4lpMLIQQQgghhBBCCCGEEEIIIYQQQgghhBBCCCFiSQmKGWg84sMPP1TLly/n2t+BLViwQDdGWaBAgV00/bMU0ry1EEIIEaeKZ82a9eyaNWv4NO+sd999F8+9zDQWJYQQQohY9oOTPQJagYdUabkNjMULIYQQwa09e/Ysn0biBy6707rHU3vM9ULt5M4puGXB6yKEEEL4VQNNMMWrBx980N/JDr3OxpKGwW4fFC1alIeU7rzCLWgRmNdJCCGE8Km6W/e8I6Ffv37mie4BCgwjyuONWJIpU6agfW5UrlxZd2l39OjRlK7vzF6v0BEO0KzU8ePHVXJysu7+v2XLlvp99JYFV1xxhU6Dofn01SsmhBBC+GCpcICe4k6fPq1PXM8++6zavn27fv+pp57S6aRJk9Tu3bv1MHpyW7x4sdqyZYt+bTp58qTuYQ7dNcKyZcvUsWPH1LRp0/TrjRs36vmbr63wKBxUo/iPAq9b4I1YQifzoIWDChUq6HTz5s26S0wwryCYhYPatWvrFN1rwrBhw3RapkwZnaKrzFOnTunhQGiV7jfWTAghhEjL8pWDtm3b6p4foHDhwvo1FClSRP/iRZesixYtUmZPkEeOHFGfffaZHgZalv51jBMfCg5PPPEE/8c4MaJ3CdNVV13FQ4F5FA68xdpthbLff/89r3V0oZtdXichhBDCJ8uFgyVLluhuogC/8HF1wISrAfPnz9fDEydOVO+//776/fff9WsYPXo0DxnQb/wzzzyjKxWOHDlSv4dxME/ztRUBCgexKJ95pSVasmTJcpzXRQghhPArUeocxJMBkX5q4fLLL8d+ymEsXgghhAgsUZ9WiBerP/74Y94a55w7d07f9qH5P2MsRgghhLDnQ9QViDe4NUHrfq2xCQnjXooDqIiI2zOot3HmzBne4tRQwXPr1q1qyJAhqmnTpudpuvkUrTATIYQQIpY1o7DT1v8NFDuNQctWU6Cg4BmNKYQQQggRg1pS2LnXbT6OiFiJNyxaQYFpPqB4Am8IIYQQIjbZKRxkpPjNGLxkAad2dODUhIJGMWNQCCGEELHC7pUDExrpyWcMhu0Kig3GYEzrmZycfBKdJB0+fJhrFgR3/vx5tWrVKtWtWzdcOcF2NtFzE0IIIWJUqIUDwK0Cp31MESs1+O+9/vrr+RTvPFRWzJ49+ylaTgFjcUIIIURsCKdwUI+iujHoikMUBY3ByMmYMeMhPn9HzIwZM3BVQR5rFEIIERPCKRxAJG4H1KHYZAy6qgf6TYgmXKmg9UgyVkcIIYSIjnALB7koehiDETGCop8x6KguaHLaE72ncubMqaNnz578bnCvvPKKTmvWrKlTU6ZMmXRqzhc9Or755pv6PU9cN0EIIYSImnALB7CK00g7TeHIbYds2bKl6ZUxf/78uhVDxIoVK9SECRN0fxQHDx5M6bmyd+/eauzYsXoYHnrooZTCQePGjXVqKlq0qE7NHhoBPV/iloKnCxcuoHDwsLFmQgghROQ5UTiAPzmNV2maOUTPkygIINAS4qhRo3Szx7t27VJTp07V46ALZvRyeeLECfXaa6+pRx99VL344ov6f1deeaVOTShsQLFixfQ80VFWwYIF9XveaH3uNFZLCCGEiDynCgdo2CiPMRiXsvi6xB8NOXPmRFPLQgghRNQ4VTiAPZzGrfr16/MpOjpoFX431kQIIYSIHicLBxUpGhmDce3ydu3a8enafWgkKSkp6RgvWwghhIiavJx6Fg4KcxqOeK974O3FG264Qdc1cBJ62cyWLdtJmn9VYzFCCCFEbEDrfPrROor1eMMB2Sl6GYMJqQjFxHz58u1r2LChftJg5syZaseOHXzaV+rUqVNq9erV6vvvv1fvvfeeKleuHK4M/ErT3U2RGTMRQgghYtkZio3GoGNmcCqEEEIIkeI7ToUQQggRB+rnzJnzCJ7Lnz17tvrhhx/UHXfcgVsLaynMugjheoECXTynF7idUpSiBAUaZkqmEEIIIWJblixZ0jT048umTZtQUFhpTBWWC5wmglIUs2+++WY1d+5c3lP2TJw4UZUoUQL7Fk1AS+FBCCFE1HQfNGgQn57sa9asGU5mNY1Z2VaO4mpjMC59N27cON4T7mjVqhX2bztjcUIIIYS7dp88eZJPQeH7888/cRL7yZi1Lds5jRuVK1fmrY6c//77D/t3gbEGQgghhHOuu+eee/h0454aNWrgRFbcWGTI0C1xQ4pXKSZR/Euxn+Jtikcp6lFE2hin2zOw66WXXsK+LWSsjhBCCBG6dfv27ePTS+SgMiMt+3NjFSImC0UFig8oxlPspEB7De9R9KWoTRGKB3izVO7cuVX79u1Vp06d1FNPPcXvugv1EY4dO6aH0XkTr5MQQghhy5Vt2rTRJ5NYgN4FaZ1yGqsWk3JR1KF4hQK3RxZTHKf4iqITOjviTVF58+ZV1157rapUqZKaNGmS2rZtG//HqCOA/T5v3jx1+vRp/V7VqlV1w0cLFy5U48ePV2fOnNHTv/322+qKK65Q//zzjx4fatasqVOz0IEeGgHjmreBuMvmxymEEEIIS8b/+uuv+iTiy6xZs3TLfEit2rJlCw+FD5UfaR07GKsaVw7xJqjmzZvzkGHgwIHq1VdfVbfddps+uQ8dOlS/17hxY91VM640TJgwQVWpUkWPT/PSKbpyxpMfgALHJ598oueNk//IkSP1+3379tVdQefJkyelsIF50jxu1WslhBBCBJI1a9Zd+uwRwIMPPqhTnICSk5P1cJ06dVS3bt0UHsODkiVL6svmSUlJ+vWLL76oXn/9dX0ZvWjRovryNv63fPlyPQ1OinXr1tXj0mroX87B0Hi4zB9X7rvvPl776KJV2WaskRBCCBFEpkyZghYO8EsUcDXg/vvvV3v37tWXumHJkiVqw4YNKZe4zRP+sGHDdP8AMGDAAHX06FGVPXt2/fqBB4xb8ZgPWL2VQauLioVxh7Y75fZCpKHeCK3CMGNNhBBCCOve/umnn/h0Yh9O/IMHD9b3t8uUKcPvOufJJ5/ECe5aY1XjVrYCBQrwFrlv6dKl2GezjEULIYQQoavZpEkTPr1EX968edEaYlZj1RJKrezZs58MtVVEfx5++GEUCGYaixBCCCGc9zduF0QaavLTsuPy9kGYrqMYRXEGdTdQz+Pdd99VkydPVtOmTVOff/65rsDYs2dPddVVV2EfbaF4kgJ9LgghhBAR1bRt27Z86nYPKjTSsnIbixRCCCFEvFh38OBBPp2HD8/w0zw/M2YthBBCiHjWsV+/fnyKtw+N+NA8yhqzEkIIIUSiOXb27Fk+7fu3evVqFAiWGpMIIYQQIj0onTVr1g1owwCtLS5YsEA390vv/0qRQ48hhBBCiHQrA6dCCCGEEFpLCrlaIIQQQogUUjgQQgghRCpSOBBCCCFEKlI4EEIIIUQqUjgQQgghRCpSOBBCCCFEKlI4EEIIIUQqUjgQQgghRCpSOBBCCCGEVpACTSavoVjPw0IIIYRI5/JSoFAgBQMhhBAx7zGKzym+iMEYT3ENRaIoxGl6lEwxiCKWj7X6FEIIkW49vWjRIu40OD48/PDD+MVd0Vj9uHMLxQ8ZMmQ4Q/EfDeNkVB3/SAfe2bRpE3+K8aFbt2441tJzQU4IkQ69w3lg3EF3x7T+8VJAmEZ4zf174oknsE39jUkSzpe8mXFnypQp+FxwK0gIIRJf/vz5/+T8Ly7RJowztiQmdercuTOvqX0VK1bE9lU2ZhX/cufOzVsWn2gTBhtbIoQQCU4KB47LnidPHnXhwgVew/CtXLkS27nKmH38ksKBEELECSkcOGbK9OnTea3cM3DgQGzzE8Yi44sUDoQQIk5I4SAsXW677TZek8irVKkStr+8sSqxTwoHQggRJ6RwYFu27Nmznz137hyvQfStXbsW+wENKsU0KRwIIUScsFI4aNCggdq3b58evvfee9Xu3bvV9u3b9etjx44p80S5bt06neL/PXv21MNgPrp29uxZnW7cuFGnmzdv1qnJnOfp06d1euTIEZ0GQpvgXTiYQNHJGHRU8rXXXstLtaZt27Y8dNHOnTt5yGDum5MnT6p//vlHD2N/btiwQQ/blStXLuyTWLCWorsxaAincIDHCW+88UZ+ZcD+evrpp/Xwrl271N69e/UwjrMzZ87o4a1bt6oTJ07oYXP/hoo2QQoHQoj0wUrhoEWLFjx0UfXq1XX6xRdfqP379ytcXr/iiivUX3/9pd9Hpv3uu+/qYejQoYMe74cfftCvr7vuOp02bdpUjRw5Ut1yyy2qXbt2qnTp0mrbtm1qyZIl+v/B0CZsokBqxn6Knx2KeRRaxYoVz/MiLfMuHNSrV4+HlHr22WdVkSJF9PB///2n5s+fr2rXrq1fDxo0SKehnkxpdVcaa60bGppL4Wvb3I6ZFGcoUj6bULcHhU4cG0OGDNHzgSeffFKnL7/8sk7pONZpq1atdDps2DCd4vWsWbP0MQXmcRsKWvZmCl/b6nZ0oBBCiMixelth8ODBqnz58mr27Nn6NX7xli1bVs2cOVNfVfjll19UmTJl1Pfff6//j1/Z+AWME3/NmjXVnj17dPz222/6/7169dLpXXfdpdOhQ4equnXr6isR+IW3YsUK/X4wtAmeVw6yU/xNcZV+5azsDzzwAC/VGhSQSpUqpQOPNOLXbKNGjVJOaFClShX1zTffqKVLl+oCFLzzjtH0xFVXXaVTO7AsXt9o+4niLWPQEGrhAAUDE/Yh9iuurOB4HDBggH7fLMCaV6zGjRun0/vvv1+hgS/zig0KoaGiTYjWlYNHORVCiMiQOge2VURFwFiCy+YZM2Y8RuuWwVjF2CR1DkImhQMhRGRJ4SAsL7zyyiu8JpGH2xa0Dq2NVYl9UjgI2SOcCiFEZEjhwDHrQq1EaMfkyZOxzah0GXekcBAS1Bt5yBgUQogIkcKB4ypUrVqV184ZqIeRlJR0lOadZCwiPknhICQZKR40BoUQIkKkcOCqF1588UVeU/v4tsFNxqzinxQOQpJeCwe9c+TIsatcuXIxHeXLl99F64q4Qq+1EAnEqNYdh1avXo0Mu66xGTFvo5XbDng0lMYdb0yScKbwZsYdPIJL6x+NbpszU/QzBtOFXgcPHuS9Hl9effVVHCPSc6dIKJ94N84T68aMGYMv4tXG6sedJ/Ply7e5Vq1a+rl7er2Oor3+T+L7zmzkKl6g0imtd3Vj9SMuG0VfYzDxJScn816PT7QJHxhbIkRiyUeBg/sfin8dinM+3gs1cBKV+6+JoSQFrpCgYSFfn3W0A81R30sRbSgc9DEGEx8VDpzrzjQKaBNGGVsihAgG9+OEEKHJQSGFgzhBmyCFAyEsksKBEKHLRdHLGEw4Yym+o8DjmlqgwkGPHj3U4cOH9TD6YXn99df1MLpKRwut0Lx5czVq1Cg9/PPPP6uVK1fqYUCrmefPn1dbtmzRrydNmqT+/fdfPYwmtr/99lvdn8uBAwf0e6j/g35iTMOHD+ch/2gTpHAghEVSOBAidLjVd6cx6Ao8gWHWuI907KA4S4GTqg4qHBg9ZvmA/3s6fvy47jPjzjvvVEWLFtUn9+eff17/r0CBAqp48eKqWLFiurny/Nz3xoULF9SMGTN0PzCm9u3bp/R7gn48uKKznr5kyZLqyy+/VHPmzNHvoRn5QGgcKRwIYREyASFEaNwuHLzEaTT8RdHNGDQEu62Aflf69u2r1q9fr1+jN9N+/frptkDQRwngNbz99tspfWwA+uH4448/9IkecKKfO3euHjavCqCfGPPKAv5v9iWDSrSYL3r/DIQ2QQoHQlgkhQMhQofHJzsag66IZuEgDalzIET6IYUDIUJXjOIGY9AVUjhwEG2CFA6EsEgKB0KErgRFK2PQFbFWOODTbHyiTRhtbIkQIhgpHAgRulIU1xiDroipwgFp+NNPP/GpNr7cdNNNKBxkMjZDCOFLBk7Bs3AQ1x0HCREFZSiuNAZdEWuFg3mclqP4nGJDkDjl4z0n45iP97wDXWp75nlCiACeo0BJ2owqFEIIeypQ1DIGXRFrhQO0qGrH75y65WtOhRAOMgsINfQrIYRV6GsDDQSVp6hNMYmiE4XTpHAQmBQOhHABekxE4UAIYV9nCvPKW1O84QIpHAQmhQMhHFS3a9euXE3HUKZMGWRwUudACHtuo3CzW3IpHAQmhQMhHFCrQ4cOXBzwrXTp0lJIEMKCjBkzHsd3Bv0B0Ev0FOkGKRwEJoUDIcJQt0uXLvrkbxVfSRBCpFatRYsW/C1Jq2zZsvjeFDVGdYQUDgKTwoEQIah7xx13cLYVmksvvRSZnTwGJNK7Zz/77DP+VgSHDoZoGtxyCJcUDgKTwoEQNtQJdvvALv5FlNJ1qxDpxD9mF8Gh4B4EfzRmFRIpHAQmhYMY1qF8+fJq6NCh6p133kmoePXVV/HLGV+GFsamxrz6t912G2dL7uBCghCJLBldATste/bsF3j+dkjhIDApHMSiypUr82Gf+DJnzhzKFztSLrv99tt5TSNDnm4QCajzww8/zEe4e7gZ38uNRQYlhYPApHAQix577DE+3BPf+++/H4u/mC9r3749r2F0VKxYUa4kiHg3e82aNXxER87UqVPx3fnQWAW/pHAQmBQOYpEUDqLmcu92CqKtXLlyUkgQcSUpKekwH75Rdfz4cXx3NhtrlYYUDgL7ilMRS6RwEHF1O3bsyGsUm6SQIGJc9WuvvZaP1thTs2ZNfH8KGquqWSkc7OY0FrldOAgHOmQSbrBSOMBlZ9OuXbvU22+/rSsvouLcihUr1AsvvKCuv/563fgO/O9//1NVqlRR27dvV6glPGLECNWjRw/9P6hduzYPKfXNN9+oLVu2qAceeEC/7t27t7ryyivVmTNnVOHChfVjeHDzzTcr86T6yiuv6PFQ4XDv3r36vTZt2ug0EK/CwaUUaPQEPX5FQliFAnM/oLGWRx99VFe0BFxKRb0RbNvOnTvVokWL9Pt9+/bVaffu3XUaigoVKkghQcSSAePHj+ejM62BAweqdu3a8Svj2F+wYIHat2+fatq0qbrxxhv1+7169VL9+/dX1113nX6NPKpRo0bKfDrov//+UzVq1FCTJk1SK1euVEePHlUNGjRQTzzxhP7/999/r+vr4P+B4DtK69yRYrBe+8Biudv1WC4cPMxpunSe4jGKx10IKhsELxxcc801PKT0SXvAgAEpJ3OcjDZs2KCH69Spo3788UddWHjttdfUmDFj1MGDB9UPP/yg/2/yLBxMnjxZbd26VZm/BDZt2qS/4Pfdd5/6+uuv1YkTJ1BDWP8PGjZsqPr168evlP4S43lkK7hwMJACqRn9KXztGydjJLYlHEeOHFHTp09PKSQgg4PLLrtMvf7667rAduzYMb0/kMmh4PTmm2/qccKBDJbW/ymv7YlmfEyRkcIq9NOPz9zXvCTiIx7Oli3b/tOnT/NR6dvTTz+t07Zt2+ofGP/++6/67bff1COPPKLuv/9+9dxzz6nFixerevXq6fHwQ+err75SqMCI/AYn819//VVVqlQp5f8ofOM798Ybb6hhw4apVatW6f/hx0nu3Ln1cCA7duxQycnJa2gbgpHCQWjSdeFgHaeusHNbAScoE07anlC6xn03k/lc8YULF9TZs2f1sMlzPihs4NcwTmwmFChM5rDnPDyXjWXOmTOHXwXm57bCUIpsxqDrnkBmFCrP/eu5D/BLx5OZiXqOb1e3bt2wr6oZqx1TcLLPYgxa0pIihzEoEsBonMB9OXnypE7NvOLcuXMpw7h6AMh7kFcB8ibkP7B//36d4jszZcoUderUKTVr1iy1e/du/b45jcmcnz9ffvklvj9PGKtsiRQOQiOFA7dInYOoeGrixIm8VrEFt4po/dzs2z5cUjgQ0Kpnz5581MaOVq1a4ftT1VhFW6RwEBopHLhFCgdR9USsFBK4UFDDWK2YJoUD4SlTzpw5+SiOHlqP48bqhEwKB6GRwoFb0lPhYNSoUbFWODA9jboX0YCGl2j5ofzSiRYpHAh/lnveknTb0qVL8d2ZYSw6bLFcOFhJUYWjPN6IIVI4cNHL5n21RLZ8+XJ8kR81NjlmDYjUlQS+UlDTWGxckcKBCObRt956i4905/Xp0wffnbbGohwTy4UDT2c4jRVSOIiQGynaRyD6UTzn9Z4bgcY1jlGMpJhA8aXL4VRjHk8He0wqVFwoiKcrBd6kcCCsKmQ+meAE9NVA83SruXEpHIRGCgcJphJFM2MwoRzl1CmOFRK6dOkS74UCkxQOhG1JSUkHvJ+asgLtqNDkfxlzcZUUDkIjhYMEI4UDe54M9XYDFwqqG7NJCFI4EOEY88svv/C3w79x48bhezPAmMRVb1HsofiPAldTsdxYFguFA1y9wX5C+yWjKVAZtAdFuiOFg/jhVuHA9KTViovot4HGT4QrBd6kcCCc0Pruu+/mb8tFTZo0wfcm0o/yDqPAcmO9YACxdOXA3Ge36VfpkBQO4ofbhQPTE2hkxRe+UhCPFQ2tksKBcFKmYsWKqYwZM4b7KKJdGShQ+x/H800UWyjaUVxLcSWFZ98MsSTahYOiFA0prqNAvbLxFKgrh/1YgSJdkcJB/IhU4cDU/4svvtCFAr5SkMiFApMUDkSsQUuiT1LsRx8v6EsGLS6ihUa3oFXUP/74Q911112qatWqyHd+oLiewm1OFg5QGFpYp06dk2jeeu3atalax3UaWr3E54K+eVq0aIH8ch8FKsejn524UZgiuzGYUjioR+FWTdlIk8KBs/JxmshacNqcIrMxeEkjTn3BLzDAdOZ36XJOhQhVpxIlSpz566+/+JQTm9B8PTqro/X9jcJOYTqYUAoHuAqyDC1aejdDHWt+/vln9JmBfBw/KmIWMjV8uGYkEikciFCgAxvz+/AH3ggClbzM8SfhDSFC8DI6NgvHn3/+yUPRgT4jsmTJcpq2xU6nZb5YLRxkzpcvHy/dHnRWZQpWCDM7/XPLk08+ibyjj7FJsaUNBVYu0UjhQIRqM8UKY9CSIxTfGoNC2IM6POGgWfCQ4Z9//lG5cuXSXUDjtgPaYUAvtejdFh2m4f1y5crpjpvuvfdeVahQIT0derytVq2aWr9+vX4dDlqnl/XGhcZK4WA6LyokaGTKRPPSadmyZVWVKlX07VO44YYbVK1atVT58uX1a3TJjf/feuutasaMGSpDhgy6V80777xTv2/22Bkq9PJpbFrklKaYnjdv3r0lSpTQj8+gW150M7pt2zbdUyHukxw6dEht3LhRzZw5U/8fpZnChQtjB/xJ039KgdsQ8STRCgeoIANm4SA/BbYxPVuJDM48hmM50FPf2LFj8eVfaKy6EFpTdPscjuLFi/OQ0VsqulIvWLCgfo0u1ZG34zuC5SB/R9fQyPvRTTR+7U+YMEEXElCQwGt0aR8u2q4TxuaFJGjhwDxhh+rGG2/kIYXurnWKbvzhvffe0wUsswt8dOGP9iswDR5RbdSokX4fT51gvw4fPlynaK8iHFOnTsV+Q77uuKwUsx588MGUbkXdsmTJElWzZk1syCt6ybEpEa8cYJ+bURlvpFfdu3fnozH+4Jcbb4YQUPd///sfHx3xDV3j0/ZsMjYrZJZuK2TNmvViH/wOMAsH0dCjRw/st+LGljnj7nAvSTkBhRHc+6H1wSMgsSJRbytgP6e7x2m85Proo4/46Is/X331FT5Ds8KjEJ6W4pd/PMEvZly9oHW/wdiEsNmtkHj/ZZddpq/QxZMhQ4Zgn31nbIJz9vH8Yw4uu9D6fWisZlTFU+HgaYpRFIcqVKignnvuOR24vbNlyxZdK/jMmTPqwoULvJeVvsyFy4W4PIjary+++KKe5uqrr8b+P0XxDQVaQ8tEkWikcCDSi74Ux/r166eWLVvGR1D0DB48WN9upnV6gyIvVtAFdgsH3kpSfIB6FS+88AKvefTMmTPH7Jn2X4rbsYJumBZK293R8PHHH2NnRLoVME+xVjjAYyt7HnroIX1fMBpwye+ll15SWbNmxZevu16r+GS5cICCEwpZ+IJahQKZm6RwIByCRo7QQinaPxiTlJQ0P0OGDCfReRPuj993333qqaee0t/51157Td8bHzp0qHr11VfVoEGDFG5Bo5M0/OrOlCkT7r3/Q/OZTPEaBRr/wfyjIdzCQTD47qHFw6EUU2i7/82SJYu64oorFG5XPvzww+r555/X+wl1NrDfsP/wA+yJJ55QeFzyuuuuU0WKFEGdPNQB+5niAwr0yIs6fskUkUMrv4fzlriBkyCtOn69RkMsFA5WowJQLNu+fTseP8KVhng6WVkuHHhWXEKmCbg607dvX10xCzWP8SUHZKa471ijRg392nxMCg3OnDhxQuHXG8ZHDWb8gkLt7n379ik0SlO3bl19JccKKRwIEZDbhYOE8qbnJWUTHrnYuXOnvtyEkoxbzEzVZL7GZRssH085ZMuWTb/nDc/u0vpHIyOMZuEgrIIcSvIm1JRFLWK3K5kCTqS8/m56kQLHQzhRIJTCAaCBFNTOBhy/gJbgpk2bpq655hr92uynv0CBAjrFrwdA7WT49ttvde3k8ePHq7///lu/hysU5njBcOEgp9c2xUvgNtU5CiGcVIKiqTGYUjjoyKnwhzKxzZyvpIJfPMiw8Bzr7t279Xv4JfjDDz/oXzioKIKMCJdJAL9uALWlwWx0A8+2fvDBBwqXvDF9pUqV9Puvv/66TsuUKaNTk1k4qFixok5h9erV+jEZX2gTcJkq0qJVOOjlqyBnx549e/RjNHi0BZ/hypUr9eNFOFnhpDh69GjVv39//bljXLPmPprsDBet/3pjM1wzmNNwSJ2D6JLCgXADHpfHd8MMYcF8zldSueeee3jIgF8/KAC0b99eN2sJw4YNU7///rseNn+Rmqn5Swf3oerXr68vlwIulwLusUDjxo3VqFGj9DCYz9WioQ0sDyepDz/8UL/nDS1R0fqjXfBIi9qVAyces8OjTfjsAIWDVatWqTVr1qjLL79cF+ZQ9wRXFPAZAC1Wp+FA4Y7mU1dvhHukcGAUDuK5oqgUDoRb8Jy/FAxsyISKI3bhfig6gYgmWvcdxiZEzEsUyHjLU1xNgQ5xHqSItFdGjhzJeyG2LV++HJ9TpBrnkcKBUTiIZ1I48A8/StBHjTCeGuhG8XWePHlW44rzLbfcoq9So4VB/GjFFVHc1vMHlahxDsOt68WLF+vKxe+++65q2bKlvoKdJUuWZTT/CRSo8F2MIn1C84rxhFZ5rbHmEfcrBZaPmIo3oqwXrsrgCkAswKORqERH6/WesXoR5UThINv777/PWxN/cFuItkFuKySmBhTpqXCAH1/jUMl38uTJfITHBtQtQtPQtH7DKBLxke407pg7dy5vfmzCbQhaT1eagbQBPYXFcnv3dSiGUJxG29yoL4CnO8KtrwCYz8SJE/UjN7ly5ULlHrM/8ljgROEArsFJNtLC7YQFnzOt+/sUUjhITOmhcDDf323kWPfMM8/g+4fHNRNaHTyXGStQITIpKWkvr5sT2lI8T4Ge7naWLl1ad3AxYMAAfVnpu+++07/EQ+mbG7+ccSkdl6hQKRPPAt9xxx1mK19oqOILikEUrSmEs5wqHLgpUDfNvm6/NKbw9WwzfrH4cgeFFA4SU8IWDvLnz885aGhQF86ExtrQ34g3dG7kC/oFchpt0lZjyxJbGYr9n3/+OW92ZDz++OPYwV/pNbAODWug0Y7jHTp00M+Qxxs8xYFGRmgbUBh6hEJYFw+Fg2so/PVP76twgPuduLzq7W1OvUnhIHElauHgYh/HIUJ+76l169a63gAaHEJLhnhsu0WLFvp/qFOAX/nNmzfXr81HklGowA9E/N+J5pJpu9AQUrrTnOLrqlWr6goghw8f5t1hz7x583RjMXny5MGORCtQRTBzi/rRdOciXWiJJvTolTlzZmSevYxdILzEe+EAt6u8SeFAmBK1cJAfj0+Ho3PnzjiH6DC7N8ZTV9WrV9ddSgOexgJU5s6ePbvuHRiuuuoqNWnSJP2EHd43n6QLB+apt0xExFuhPFWRyFDbFv2C0755wdhF6Z4UDqRwkMgSvc7BLajMHM/wKDhtRzSb9k83BsdbL2LRhBIz7TN0ppJeyW0FKRwksvRQIdGEVj5/RHPjK1as4Bwutvz2228K9dVoPT+hiFZfEenOo4sWLeKPQNj1008/4YBF5x/pTbwXDhZx6kkKB8KUngoH/hSiuJViaalSpY6jfsCXX36pli5dGrBNAzvQbD/mh8b50EpwsWLFdtHycFWvFUVuChElv/JnZMkXX3yhW0qEKVOm6K6FTWZnNXhEDI/fmfz1JWD2aGg+bWCaP3++PmDg119/1U8hmLVhcWkf97bQrj66PjaZy6ADS6ee0Ha+J+/GpHzV4ahSpQoPWUf78l1jl6YbUjiQwkEik8KBSL/sPkKJkz6a/zWZj8TgPTTzjKab8Xghmu9FPxDXXnutrrWaOXNmPR7gUUNTxowZ9fhoMcu0cOFCPT4CTQ9Do0aNdLpr1y5dsRK1YwHdlXoym4NesGCBWr9+vR5GpzrYzn/++UfXkEXlFfTMh34r0I4D1i9v3ryp+gvHvSy78HgP79b0It4LB4s59SSFA2GSwoFI1/7lc5slaJOAptHx6KOP6vdwealo0aL6tfn4Ck76gK5zL730Ut2pkKeOHTvq7nRxkt66dWtKnxGAwsHatWv5lQHToyDy8ccf6xM/mu40YRnoOAqNDpkdTWEc9OWPxyvR2RQKCLj8jw6Q0MnV2LFj9Xi48oHnbtetW6dfo/tfPIaDAoRdtE+WYIemI/FeOPD1eUnhQJikcCDSvd88L9ELe3DbgvYhGltKD6pTPGAMXjKAAk2ZztavYlOgwsFSTj2lh8JBXopxxmBK4eBTTsUll4ygQKEAx3plCrSA+jKFEOnWZvzaFtagAxHaZ8uNXZeulKIwryDF+i9PKRz4htre5meIEKmNpjD3zVt4QwhxySX5KA6hYqBIDT2Q0b7ZRpEdOyodwzFy3hiMaYEKB79z6im93VaQgoF/oyj8NZsthCC4tLbypZde4lNk+oCnIrhzD/zCxK/lRNWRApdNj6G+xV133aXrduB2CcJuB1JoChXToQJov379VLdu3VCv4yTNfwvF3RQ1KSIlUOHgD049xWvhAH2HoDvzY9WrVz+LvkvwfUV/JfgscCzbgfExHeoToUlczK9KlSro+OsIRR8K7NdEtvjvv//Wj9jR8HzjLSGEFdko+mbKlOl3PJvq+ShivMG6owvt5ORkPFvbnSKefwn6cwPF9u7du6epHBpNKHjMmjVLN7VK64dLuU4/1xyocPAnp55iuXBwFcXitm3b6ltasWTNmjVm66HoYr02VjYOPdCnTx/eorTuvfdebN99xqhCiHCgE6meFD8UKlRoLZ4awON+6J4XTxOgJ8Z9+/bxVy98OOmhdS/cDkG/COhQCcvMnz//GloHdPl8J69TevCY+chmPPr222+REe+kQCMs4YjnwkHTEiVKnN+2bRvvlfiCp5AKFy58mrYDhZpYlY/YujSGAm3u3LlR1yaXMQshhIht1dGCWaJBOxi0bSuMTbQtUOHgL049Rb1wkC1bNt7yxJIjR45YqqPy959//slrFjq0LEvz8tUMtxBCRJ+//tkfeOAB3VMa2pSYPHkyvxsYMk2zhcpANm/ezEMGtDfhJn46pJ+xxZYFKhz8zamnaBYOVvOmprJ3717VoEEDdd111/E71nk2WOYL+tzH8VGrVi2Fe+xW/Pzzz7qF0mD83fqg7ZxnbG7E9UI7Jm7p1asXtg11aoQQIvqSkpL2cv6URr169XQz1agkaLb6mJycrAsAuMWD5qnRgdSyZcvUZZddppuyRquRuJRtNiiF2z+4XXPNNdfo6VA/A5XVUH/Bs7IipgcsB/PJkiWLbswKnaXg1/8TTzyhT1bo9x3T9+jRQ98CwvqgeWwULnDvOtBJEOtLm4wKslYFKhws49RTtAoH/X1VGkSlQu/mvrGvcFLftGmTvm2Gip+4hYbPAvsal/PNFkTRdz5uLWE8fKZ169bV75toufrYQPPj6D4X0OUuCn6lSpXSn2O7du30/8uWLasbC8M80Yy5eXwMHDhQp4ULF9afHxoVQ1Pqnk2re6PlPq632n15CxUqxEuNDOybvHnznqVlozMjIYSIGr81DFE48Gb+wjf7ocCJYNiwYSpPnjz6NXrm/Pfff3XLljB8+HDdXwZOMPDuu+/qk7v3rzCzcIAOVABNZwNOSGhZ0zzJ4SSE+aHFSqD113VQfvnlF/26Tp06OvUFPbPR+BX1VlsTqHAQS30rPOqrcIATO5okB5z8M2TIoE/mn376qX7PvAUxbtw4/X7z5s31axQWoEKFCjpFC6YwdOhQ/dmZaLk8dJHZP3/u3Ll1iibTUeDASR9QMQ8FzsqVK+vXKCxCvnz5dIrCBOC48YeW+4jeavf88ddff/HSooefdvB1nAkhhPvy588fV01c4pclTmS9e/dOOdEFg1/ItKl3GVtsWaDCga+WHaN5W2EJb2pCo+1cYGyu4+7D8WTX66+/7vM22j333MNDhs6dO/NQaPCIMK0jnoYSQoiIKmp2UJVIuK6Br/oBVgQqHEzl1FPUKySiE7BERJuGti6cVjic2wZLlizRfbncfvvt+soMnnjq2bOnvgWDK2toJwJtdeDKCfpkwZUA1M1A5294BDdUuEpH657f2AQhhIicPqiEGK99ZqBrcNqGdRRoTyMcgQoHn3PqKeqFAw9X5ciRI6V30XiDy/qod0Lbgb4J3HQk1OO8TZs2PGTcYkF39B9++KF+jR5e0Zy8WZG3YMGC6uuvv07p4j2UqxSA2zq0rIN6zYUQIsrqUyy8++67daXCWDJhwgT9K43WDyfgrFhZBwUqHKDRJW+xVDjwhjYfvkErlt9//z3vvdiAZsVRN4LWbzKvZzQ0RoNssQrdxtM6XmGsqhBCxDac2MpSfJ0xY8YV+LWE5o7RauTcuXPVrl27OGuzDhXj8IQDThioKIda7jTf47SMHykeoyhOESmBCge+OtSJ5cJBINin6AtgPu3r83jiBL9yf/zxR/1UA2rQ23Hu3DldxwPTf/XVV7rSIeaL+VOM5OXFsvfNKwDRNHLkSBQI3jFWSQghRKzwVzhIonjJGEwlXgsHwo8MGTIcN28FRAL6o0hKSjrMixdCCBGD/BUOMlIMMAZTkcJB4rrCzQq7fFvF7foVQgghHOCvcID30IuhNykcpA8fOHHbAX240LzeNWYphBCJAZX/mlN8kTdv3h24T43MDo0ToR0CJ6CFxC+//FJ3+4tGcpKSktBr35sUeSgiwV/hIDtFD2MwlXgsHJSjGJsjR47VqN/x5ptv6kanUPPeCXisD3VQ0IASGsbKnj37SlreGIpE6MY8meLk8ePHeWuDw3eDpjmmpxZCiDiWgWJMlSpV9EkjFqGZ4OTk5L20np31GjvHX+EAPep1MQZTieXCwf/wfPxHH33Eey22jBkzBp0r4cQ5yFjduNMg0G0Hvm1Q1xhVCCHi0xI0gxyv0JQw2vin7ehqbE5A1SnQNbAv/goHeSluMgZTiaXCwSi3O7Ny22233YbPMB5r649GM+FvvPEG1t/fZy+EEHGhXzwXCALhX6SetlHgPTM2UOynOEKBxyYvUJj/86UABQoO3qJdOCh900038VYnFrRBQNtXxtjMuNCAop4xKIQQcQgNrNiFhofQeU7FihV1185WoHMkK/eyx44dy0MGtNboqWrVqjxkHZ69p039xNjiVPpS+CsE+FOYwleDNJEoHNTmNBUqAJ3iTQ0IvWOanxt6SPRkHgctW7bUbVR49hmAditQJwG9KZqdKlmBdi+CQUNWViUlJe3mTY51UjgQQsSvzJkz7+N815acOXPqyoII9PYHZo+I6FYZ0BIf2pI3e2S8//77dZfBOMnA+PHjFSpzmT06Pv744zpFd86ecCJDT4xoFAkN8uTKlYv/Y88ff/yBQkBVY8vDUoyihjGYit3CQagd6eAEiW05QYHWK1/w7P46kKuvvjqlYFCrVi39XqdOnXRqfo7o9hrdW3sWDmbOnKl73MTn3aFDB/15mIU21Nw3W85ET46ffPKJ2r59u9q7d6/u2htNCGMY0F00OstCZVO0H/DZZ5/p9+yg7X2dItZJ4UAIEdfWcp5rCxUqeOgis734atWq6W6bBw8erFvKQ3fMONE0a9ZMN/KCbpj37dune1ZEX//lypXTv1RxSRwnuVatWunUhP9jfNxDRxfRZlfDdqHWPG1vCWOzw1KSopoxmIrdwkGosB1ocdCs93Cv1f4BcHVg1apVuhXKZcuW6fdq1qyp9y/NR79u3bq1furkhx9+0K8BLVaitURP5pUGjIuCAzq5wmeKK0To32L+/Pnq1ltv1Z0ToYAwe/ZsfVVizpw5+mrBokWL9BMuDRo00IVEK44ePYr17KS3OrZJ4UAIEd+Sk5M3c96bsHAyok1F5UMn4N63rysQkSoc+PIOegVMZLjSQNuJR1njgRQOhBCJgX6Rn8W9+UTywQcf4ITygrGFjilPEWuFA9MawlufGNDVMW3XT8bmxQ0pHAghEg46U9ofq+0aBIKOm3Apm9b/Nb0l7qhEUcUYTCUWCgcm9P8w79VXX+U9E1+effZZfIaz9ZbEF9zqWUzRlKIxxW8ULSiEECIh9cuTJ8+pxx57TNcTiAXr16/XleNo3fAoIjLjSMFVg8rGYCqxVDjwBe0+HL/jjjvUsWPHeC9GF1oMxPrQeuExUqcbsYoWPOaKbULgCoIQQqRLaEb5WYrf8+bNe+HGG29UKES8/vrrasGCBfpeMSoYBgtUXkTtdVRk7Nmzp67ISPM8Q/ERxf0UTlQmdEJNingsHASCTn/6U3yXIUOGC6hY2K9fP/Xyyy/rljFRYdTXZ+YdqHj67bffqhdffFE/4oonEZKTk9FuxDcUj1Ng38U6XHUJN5pRXO71XqghhBAiDuBEilsL3uK5cJCu5cmTx3oHCVGSM2dO6cpZCCFi2GUUFY3BVKRwEKd+/PFHPgXHLlxV49UVQggRg3AfWQoH8e99Ct13hhQOhBDCGagA+GHu3Ln33nDDDWrkyJFq9+7d+mkBJ6FlPbS2h0546tWrh3vXaB0QFdeKUETLVRQVjMFU4q1wUIsC9QB2o44B6ongM3Sqy23TwYMH9Xwfeugh3RAWlkfRj8JXK5ORNILTkAsHeBrEs4Ku2ZR4165ddTPfqPg5evRoXQfjueeew7brxqJCIYUDIUQsaZIpU6bdL7zwguMnfqegKd+GDRsi4/yeIqdea3fhETW0deAtVgsHqAS4sXPnzinNGMcaVHi85ZZb8BmupvBV2dMNYRcOUKDy9Pnnn+umpxs3bqzeeust3bfEiBEj+L+h9Qti4sJBO4qOLkcHir8ohBAiRYUCBQqc924qN97giQfalq+NTXIcaqLHcuEgE8V29IcQz7i5600UGbFRLgi7cGDCY7We1q1bp1NcJcCVExMK2OhfJBQRvnIwgVMhRDr3faiXO2MdHqej7StubKYj0KhNOWMwlWgXDrrjl2sieu211/AZ3mtspmMcKxxEghQOhBCRlBvPszsNnekMGTJEPf/882k6aUKjN9FA27rU2ORUslI0MQYtu5YCrUh6i0Th4FFOU0FviL7Qv9SgQYP0PkcPib7kz5+fh1IbNWoUD6WFfhyuvfZaNXDgQFW7dm19Kd0Ks+fOQN58800eSqtQoULnjC12RErhAB1LxTr0SsqrGwlSOBAiPcubN68rvfWg9z2cjBDo3hnMtEuXLjrt2LGjTl955RU1bNgw3R0z1KtXT6dOQ/fRtMl1KVA3QZ84KR6mQI11O3EzBTpf8haocOBrPqEG7sub6/8qhd+zeLFixXhI6V4Yf//9d1W8eHH9Gr0uojdGdKk9d+5cZfbJkDt3bp0OHz5cTZs2TfewCegd04S6C/Xr19efb6NGjfS+veeee/T/0DW2WVgoUaKEWr58eUolPPQAuWPHDt2wEmDZmHb16tX6NSruPfjgg3rYH9peNIrlhJTCAamNrqpxCwCX/mMp0JNpixYtsN2RqosBUjgQIp1z5XoqTgLeihYtqtObb75ZpzhJffTRR6p06dK6Qto111yja397V/Jyyttvv40MNq+x2fqX/38UeM8pkbqtgHVeQGHei+/g7z42/U93pd23b199Eoerr75aV5YzrzYULFhQp+XLl1fvvvuuatKkiX6NQhqeXMCvfXTJjJYvTbhy8OGHH/Irg+cVIZz0sb+xLChbtqxuMROfOQqBVapUUS+99JIqWbKkfo0rTfjsUVDEuo4ZM0ZP5w2FDNqmq/VWh8+zcGBCK5xo/tgbCmVPGIOWxHvHS1I4EEJcMjlW+ktwy1133YWTittPMkSzzkFXXAlIZKhgSduJjo2cIoUD/6RwIIRI8Su6x00kaIOBtusKY/NcF+0KifAGfqEnEm4fwGddizBJ4cA/KRwIIXwa2717d86e48dPP/2ksmXLhkpr0ciYY6Fw4OkhVBY06wzEiy1btqhKlSqhQNDD2AzXSOEgrR8o1lP8SPEyBT4HIYTwC4/uzalcubLudS/aVq5cqfr376/y5cu3ndZrIEVmrGSUxVrhwFtBigm47497+tFuEAn1FvBERLFixVCY+4SiAFYygqRw4NuXFCgUSMFACBG2ahRoindejhw5NlWrVu0sherTp49+Pnv27Nlq/vz56rffflOLFy9WuH2xaNEi3aUzasrjfjmeZUebBJiufPnyB2lef1BMp0Bzxb7aFYg1sV44CAafIVrIm0OxumrVqifwWaBlxffee0/f8583b55+EgGfnfkZ4jXex//RjHaHDh30Z1ilSpXjNJ+VFLMp0LJfVYpYIoUD/6ZwKoQQIkzxXjhIb6RwkNYOPGpqwlUmeu9S419CCCFCIYWD+CKFA8MLL7/8MhcHfEO9FRpvqzG6EEKELwMFTpj5KYpRIPPFLxE0IlSKAs0aF6bITYHWCuNZohYOkiiyUaCNiKIU+Azx2ZmfIV7jffwf42H8eJCeCweVK1asyKd+e9DyKU3/ijEbIYS4CCeE4RkyZPjv3nvv1Y3hoKU9N6GuAuoklCpVChkT7omjfgMKHrEkngoHqMD5alJS0hq0ZonWEL07D3IaWmBE40vosZCWi7oIqA0fzYqk6bFwsAVPgzgFBQyap69OyIQQCW5kq1at1Nq1azk7iE3/+9//FBVWztL6OtlIjl2xWjh4Gi0WTp06lfdWbJo4caJubpnWF01aR0J6KRxQufo13svuQIGDlrPRWJwQIhE90qlTJ/7Kxy+050/bcowi0NWF/hQY75R+ZQ8uneNXL26V4ETQnmI4BS6re4t04eBKPHJ67tw53hvxCevPv0yxf92QyIWDKlWrVuU9GVkoqNPyXzNWQwgR1+hX9wH+biccPIZHm9jB2NIUtSk2U+B/eGzSTZEqHHwdbw0eWbVixQp8Tl8bm+mYRCwcbNy6dSvvtehDfx20TvK0gxBxqPznn3/OX2WjgxzT5ZdfzkMXnThxQv3111/8yprChQurb775Rg+jhzl047xt2zb9jDw63PGEWxhjx47VjRxlz56d300NHfMAOgOygwpAu3ibffH1i98pThYOPqRI0+ZD69ateSvtmzNnjsLVInwm6AjJ1xUHtF0QC6666iqcbJyq8JgohYPXhg4dynvoogceeEC98cYbCoWFjBkz6vdq1aqlUyumTJmiPDv02rBhg7rsssv0cdKsWTO1cOFC/k9qI0aM4KGLNm3ahM9NbjsIES+KFSu2i7+/Gi5Hm8xe/HCSxgkEJw10aYt7123atNH/Q8aDroDRyx6gu178yjPVqFFDp0899ZSeFoHLnVdeeaXu8tcTCgu//PILvzLgpGfOA5Dh3X333XoYFenQa+DXX3+tX+N/0KNHD516djEMWE/a5CrGlkfUuxRtHIw/KbAtiG0UYfWs6bl/TTgpnD59Wn3wwQe6oHb99dfr99EFNBo7mjFjhkKhslChQvp9NHKFFhfR7LEJvTKiYAg4TtC09YABA9SFCxf0e6Gi7Z1E4YR4LhxcQXiP+Obr9qD5WaN1UXwO+A6hAbJHH31Uf+Zmj6ioQ/D999+rtm3bqsOHD+v3PPMGyJcvn0KHbWaLqeb3Dd2vB8JX8oYZmyGEiFVvoctcE1orRCaAe73o8AbQlzx+KaATo2PHjumKY/gFB/g1gScJJk2apE/46KrZ7JsfTfT+888/ehjQNTAKGJ4dA9HyeciAQgi6CkY3wehqGLAsLBuFijNnzqjRo0frgkvDhg31/3GFA90M33PPPfq1mRYoUECnJsyPlmd2cxyvilBgO/roV4Zr8DmE6vjx4/ozR6uG6IsBUCgzP3OcPPCZXXfddfrXJD4PdPeM4wbNH+MkhStA27dv111w47V5vztXrlw6hcGDB+tjJRxojZG2t4Kx2WFLhCsHzz3zzDO8d1JDoQ6fZ/Xq1XWvpIDL/NCrVy+d4mkjfI9wRQBuv/12/TQJUnzWKBig9Ut05Q04TlDAwLFiQkNJ+LFgFh5y5MihU2+o1Ezru8ZYbSFEPOj9559/8lc4dNOmTdOFBaf9/vvvPBQ6rtiWyCqav/oiCb8+8bmjYBDIrl27UhUUQ4Fft7SdOHk7JdHqHPyzefNm3luxA1ePaN2c/NyEEBHWDxlwojh16hR6aDxP25XJ2Lx0oY75KzBR4D45bRf6fXBaIlZIhNJ4dDWaBg0ahM/sWWN1hBCJpHWhQoXO4pJivMCvWFRWpHX/2diEdA+X3/ebl4TjBe5Z03rvoHD712aiFg48DUQF4EhAI1e0PDRuJYRIZx6g2IN7+uhZMVpQ72DgwIG6chytz0iKeOixMVagd8SFqEeCp0KiCS1rohdOWp+5FNdj5SIsPRQOPG1w4zHH0qVL4zNEex9CCOETmlW+m+ItCjyTfhwncFQYbNeune6+GffFcWJH++xPP/20euihh3RlKZys8MRD5syZkdGsoPiAYghFc4pYayY5kaF/hFspXqf4hGInaqWjYhueWLjvvvvUI488olAJ7oUXXtBPH+B1z549dYVF3ALImzcvPsPtFB9ToDGcmynQd0asSW+FA1P5UPtVMOE7TPN5ypidEEIIkTjSa+HA09P+nnbwxk8brDYmE0IIIRKTFA5S2+briRLu7KykMYoQQggR2GiKyXEaX1BI4cC3cmi7gNIBxkshhBDCunOcJhIpHBgmcCqEEELYIoUD/6RwIIQQIl2SwoF/UjgQQgiRrkynwD3p45zikcVEkd4LB70p8Jma3ZnvpxBCCCEsmUKBk8cY/SpxyJWDSy65jwKfbaAuzoUQQqRj6NOgKwUavEHDSGiREg1UfUixigJPLOA13sf/n6ToTFGVIhYkUYynwGVyK/ENRRMKb/FQOECPo+gKeRwFGrAKJ5ZToODn6392YhRFXQohhBAxDic6nMTPouvemTNn6n4pIgHLmT59um5pkZZ/htfDzW60UTh4wRgMS0wXDm6++Wbew7Fp+fLl+Lw7GmsrhBAi2ppSHBoxYgRn07HtjTfewElkN0UjrLwD0kPh4D3efTGN1hMhhBAiSia9915cnC+CQqGGtgcNFoXK7cJBGYoLFObJzzPqU0TCSN5dMY3WEyGEECKSsmTJcpLz4YREm3jW2FJb3C4coE5GEWMwaqRwIIQQIo0cL730EmfBqfXv35+HlPr000/VwoUL1fbt23WYjh49ykNKHT58WKePP/64OnDgQEpdhH379un01KlT6vz58+rs2bMqf/78KeND+fLldbp///6U+Z88mbq8gj7/PW3btk3t3buXXym1fv16HvLt2WefxQkGJ2qr0nXhAJ/foEGD9DA+s3r16unh48eP688XNmzYoFPAZ4fPeufOnfo1ukf3hM6XTBjXHA+fc/bs2fXx4Q+tpxQOhBAigr7i/DcNdKtcvXp1Hd9//71+D91ow6233qpTwHvobtmE7rQHDx6sTyjwxBNP6Hl4Klu2LA8ZzMKBOV+0zw/du3fX6aZNm/Rwjhw59Mlk9uzZ+n10BY3lYPnNmjVTpUuX1u/7Q9uLdhasSvdXDnLmzKk/O7OQAGPHjlWNGzdWb775ptq9e7eaM2eOql+/vv5fw4YNdWp+vigoQpkyZfTnU6dOHf26SZMmOm3ZsqVOCxUqpFN/aD2lcCCEEBFUcty4cZwFp4bCwenTp/mVwbMQcOedd6rWrVvzK6WuvfZahasQ//vf//QJu0aNGmrSpEnq+eef1/+/4YYb1F133aWHhw8frsaMGaOH4YorrtBpjx49dGqeRPr27atTTIda9f369dOv586dqypXrpxykpk1a5YqXLiw+v333/VrX0aPHo0TTB5jsy1J91cOhgwZwq8MuFpTsGBBXVjs2LGjfu/uu+9W586d08Pmkw9mYcEsVPz555+6APDjjz/q12YhsH379jrF547P1B9aTykcCCFEhCWbv9QTFXcdbJfUOYgRtJ5SOBBCiCjaumLFCs6S4xvqSND2rDY2KyRSOIgRtJ5SOBBCiBjRH3UBVq5cyVl0bMOla9Q5oPV+yFj9sKWHwoG0cyCEECJs7SjmVKtWTY0cOVIdOXKEs+/IOHTokG6/oEqVKjhZ/EhxA1bKJemhcJDxkUce4b0bmw4ePIjP+nFjdYUQQsSrvBTlKAZQfMbxbaZMmdZlyZJlZ7Zs2Y7kzJnzHFK8zpgx4xr6P54iMMdFs8hlKexUHnRDeigcmKpTzMXTCRQXHIjzPt6zEypz5szbaJ2kUCCEECKmpKfCgZPQCZUQQgiRkKRwEBopHAghhEgFvSTiEjW62h1K8QvFYopVhQsX3lm6dOn9FStWPFK9evWTSPGa3t9B/1/J482leI2iDgXmk0wRLVI4CI0UDoQQIh3JSnF7cnLyX40aNdIN4Xg3kuQ2NN07Y8YMddVVV6mkpKQ/aH06UWTCyrlACgehkcKBEEIksHfRUuG///7Lp+bY9s8//6iqVauiZvubxuqHTQoHoZHCgRBCJJgDW7du5dNtfENHTLQ9u4zNCokUDkIjhQMhhEgAGdFuQSKrWLFiKI3oSOEgNFI4EEKIOFdh6tSpfApNDZ3p9OrVi18plTFjRrVkyRK1atUq3UsiPPfcczoF9Jb4wQcfqJIlS+rX33zzjU5HjRqlU8+OfDp16qR7bzShwybPHhXvu+8+nc6bN0+99dZbehhXAtDN89tvv61fe/YUiKaSv/76a37l2/jx41FAyGdstlaUYitFE/0qLSkchEYKB0IIEecm87kzDRQOmjZtqiZPnqyWL1+u30OPi7B9+3bdVS+gxUL0hmiOU6lSJZ3edtttOkU9gD179ugTvenbb7/VrR2aBg4cqNNPP/1ULVu2TPXs2VNXPrz66qt1b4+ogIiKiJjPgQMH1JQpU/T4N954o2rTpo3uzrlr166pCjO+0Pauo0Bqxm6KiRRf+olbKMIlhQMhhBBxJVP//v351Jkaful/9dVX/Mrwyy+/8JBSp06d0l0oYzzAyfypp57S/fwD6i6888476t1339Wv8f+HHnpID8MDDzzAQ0aXy57Mk/9jjz2m9u3bp+exYcMGdfToUT0fs7+HTz75RKc//fRTynL8efjhh1EY8H6y4SkON0nhQAghRFy6+DM+AWH7jM2MCikcCCGEiGsjBg8ezKfU+Pbkk0+iUPCGsVlRld4KB4MoNrsY+FyFEEJESRWKTaj4F+nGjuzCrQYuDKATpwpY+RiS3goHbjvCqRBCiBiBE10Xih3XXHON+vLLL9XOnTv5FO2uHTt2qHHjxqnmzZujEIAmlztToLnmWCeFA2dJ4UAIIeIYfsFfS9GeoifFYIrXKd6h+JBTvMb7+D/Ga02B7p4TiRQOnCWFAyGEEHFPCgfOksKBEEKIuCeFA2dJ4UAIIRKIZxsDqDeAWwsjKD7i4USOqym8SeEgNFI4EEKIBHMjBQoGZjSjSK+kcBAaKRwIIUQCQiVFFAx8/ZpOT6RwEBopHAghRBzB0wltKF6kWJ8tW7ZNlSpVOnT55ZerVq1aqY4dO+r+Fu666y7ddwJSvO7QoYNq2bKlwngVK1Y8mDVr1k00PfpAwFMMKEiUp0gkZudPnoWDrJwK35I5Bc/Cgew3IYSIsnoUy2rXrq07WopWw0jo/XHx4sUK64H14fWKN8cpzFsrJ/CGCOoqCnOfIepTCCGEiKBLs2TJsu2zzz7jU3J8QEdMGTJkQDfMJYzNiGkoIJw2BoVFV1CgYNBAvxJCCOG6huiiOZE0aNAAJ5LqxuZFRF6K2hTDKb7JmjXrnwULFtTdVqPbadxOQbfX77//vpo4caJuYXLUqFHqtdde091NN2zYUFWrVk0VKlRIZcuWDVdFvqF4nwJXR8zbEYkiFwVuRaHFzSkU2F9/58+fX1WoUEHVrVtXtW7dWvfkif3z3nvvKRRW0WMn0pEjR+p9if9jPIyP6TA9zecvzI9iKgVa0sRysDwhhBAWVXn++ef5dJqYHnnkERQSihmbG5ZsFB9nz55dffDBB2rPnj28hMg7cOCA+uijjxTWhdZpHEUOrGCMQGFmItbt7bffVkuXLuW1ji1LlixRw4cPN/chepO8HCsvhBDpXcuNGzdyVums7du3674QTCtXrtS/9uCGG25QN910k2rTpo1+3a9fP11h0U2//vorTgCVjM227O2bb75ZnThxgucS+y5cuKAretK6o8DgNlwp+f7OO+9Uhw8f5jVIDCh8de/eHftxBkVubKwQQqQX4zkvdNyKFStSVVpER0333nuvHt6wYYMyr1bcf//96oknnlCPPvqoGjJkiH7PLbS9XxqbHdDff/zxB08R/7CvaZu2GJvmiHGJ0q23XeihlLb/c2M3CCFEAsNJ203nzp3jIaXOnz+vUzxxcOzYMR0mt59+qFevHjL2QNbzqAkrY8aMIbcRUKBAAZ6LgOLFiwc7noQQIu5NwS/MRLR+/Xpk4mOMzfQtb968+3l0R+XKlYuHlLr++ut1iqsnXbt2VVWqVNGvcbWkRIkSat++fbogVbNmTdWlSxf9PzeUKlXqDG+2VRVnzJjBU6eF20MmGlen1113na5UuXv3btWkSRP9HqBtC9w+aty4sXrppZdU7969dRsXsHbtWlW0aFH15ptv6tfNmjVTjRo10hUOUXDEvEeMGKH/By1atNDLgS+++ELVqVNHD8+dO1ehEigqLm7atElPh0dfb7nlFrSjkXJrC5UaMd5PP/2kX7/zzjuqRo0aqlatWvr1HXfcocc/ePCgfu3L+PHjMf9EqygqhBBpXF62bFl15MgRzv7i0/79+xV+6dL2VDU2K7A+ffrwlM7yLByYhg4dqtN8+fKp2bNnq7179+rX69at008qLF++XP3111+6sOAG3MbhzbbqfzypT56FA8A24emBCRMm6MIA4ERevXp1PYynCgAFBPjqq690PQmMg9s5q1evVmfOnFG5c+fW/x8wYIBOUYDyhMIA9hkKAHjyAyd2ePrpp/V8UCgEKgzp9O6779YpCglHjx5VP/zwg36NwsKyZcv0NGA+sYNjCE+PdOvWTb/2h/bPq8ZuEkKI9OMhZK4zZ87krDA24ZctTh60vr2N1bbtsUOHDvHcnINKbd7Myo2e//OszHf27Fkecgdt6wvGJluXM2dOv/d8fBUk//vvP52aT3PgiQDzlpK5n81txlUBFA7A81e6uX+OHz+uU/Bcljkf8z3Pab0LVriNhQIBeM4DBQBPWCd/y/MlU6ZMR3kXCSFEulea4gGKtWjyGM/s4xecZ90CJ+FkuWbNGn3ZF8uj5a6mQCGgOIWjypUrx0tNPFdccQX2nWczxHYVRrsRQqny5ctjX8rtBCGECENGisIUNSnQsl1jipac4rnyGhSFKDBerPjMvJwdz15++WWcxNAQkNOalyhR4vzmzZt5SYlty5YtqIB4lrYbLTQKIYQQumW9b9HeASrYxSpcIkdlP1rX+RSR7u0RhbvR9erVO/fxxx9Hrd+NcGG9x4wZg/oMKAiMpCiIjRNCCCGsupLieYqj9913n3r33XcD1mwPF+5/o0VErlCIfhn+R9GKItaVorifYgX9+j6H9f/www91RUyzHoLbsBzUf0Crllh+kSJFztH6oHlqrFdJCiGEECJq0PwyftXjhImuqNHmP4bxXnYKkRau3GD/4CRelgKtXCLFa7wvfSYIIYQQQgghhBBCCCGEEEIIIYQQQgghhBBCCCGEEEIIIYQQQgghhBBCCCGEiAo0JNST4muKP4oUKbK+fPnyW8qUKbM5T5486KBpIcVoikYU6N9BCCGEEAnorhw5cqzp1KmTmjdvnjp16hQ3kusf+vafNGmSqlatGpoenktRVc9JCCGEEHErC8WM7t27B+1j34q5c+eq0qVLo6DwkJ67EEIIIeLKiIcffphP685CT4aFCxdGIQFdRwshhBAixmXMkiXLaSu3DcI1c+ZMFBBQb0EIIYQQMSpvs2bN+NQdGUePHkUBYYuxeCGEEMKaahSrk5OTVbwEre9MimSsfBzJUK9ePT5lR9bJkyexz5YbqyGEEEIEVrRPnz58CokvVatWxQkvbmTMmHEPr3pUbNy4Efurt7E2QgghhH9z+dwRd3DPntY/Xk521+LkHG2tWrWKqwKVEEKI6PiPzxtxidZ/mrEZqWTmNGbkyZPnEK+yT6+++qr69ddf+ZVS99xzDw85i+sfyGOOQgghAjrA5424ROs/1dgMLSvFXxRX61exI9vQoUN5jX0bMmSIKlq0KL9SqmPHjjpFI0cTJkzQw+aVhy+++EKnI0eO1Cls2bIlVeEikBw5cmzl9RJCCCF8ivfCAR7Ty0axggKv/6OINaX/+OMPXmPfBgwYoNPLLrtMpygczJgxQ/3+++/q0KFDqkuXLmrWrFnq+eefV3///bdq3bq1OnHihLr77rt1C4lz5sxRO3fuVM8884yePpBKlSphPwkhhBB+BS0c4OQ0fPhwPfztt9+qYcOG6eGvv/5an5A87dmzR5/UfFm1apW68847+ZUzaP3/pUBqxgaK+RQLYij+WL58Oa+xb2bhYNSoUWrdunWqQ4cO+vVdd92lLr/8cnXrrbeqadOmqb179+rPw7x6cPPNN+uCRNOmTdXVV1+trr/+ev1+IBUrVpTCgRBCiIAsXTlA2/2AX6yNGzfWwy1bttQpWuObOHGiHt69e7f64Ycf1GeffaZfe8JJqWHDhvzKaOoXv3rPnj2rXy9cuFBNnjxZnTlzRr+2gtZ/irEZl7xPgdfH9avYUgZXAAJB4eDChQt6uGTJkqpXr16qbdu2+jX273XXXZeqcGDearjpppv0LQnsd+jatatOA5ErB0IIIYKxVDioXLmyTnEy6tatmx4uXry4On78uD45nT59Wp/88fqqq65Shw8fVuXLl9fjmdq0aaNWrlypL48DLVuPV6VKlZTXOPHVrVtXv7aCpvGscwCjKO40BmNG0pNPPslr7Nu4ceNSCgdI//e//+lhFMa2bt2qHnnkkZRbDMeOHVO//PKL/j/2PaBw1r9/fz0cTMaMGdfwegkhhBA+WSoc4Bf92rVr1eLFi9XmzZvVTz/9pC+Bv/vuu6pz584KPQm2a9dO/8rFZXGoWbOmTuHLL79UFSpU0FcgChQooN8z76+vWLFC//LFr2P4+eef1Y4dO/RwMLT+3oWDmJQ9e/ZtvMpRtW3bNuyzG4y1EkIIIXyzVDhAmwLmyRxwlQC3A7Zv365ee+01/R4uh6MlPlSeA8/a93Ry5CHjPjp+HWfKlEm/vvLKK3WalJSk0+bNm+vUClr/uCgckBro5yDaypUrd4HXRwghhPDLUuEAzEvd8M477/CQUqhs98QTT+gTPm4T/Pvvv/q1p88//5yHlL4s/ttvv+lbFQMHDlT79u3T7+N2wrPPPqsOHLC8SvFUOIDAFQ9cNn36dOyvRsaqCCGEEP5ZPxM7zLy9YCpVqhQPWUfrH0+Fg0sKFizIax5ZfDthvLEWQgghRGBRKxw4gdY/rgoHEOkCwl9//YX9NMlYuhBCCBGcFA6iY93q1at5K9yD2zu0rEeNRQohhBDWHOTzSFyi9Z9ubEZcao96FujvwGloQ4Lmf4Air16SEEIIYcMkPp/EHTQIROvfytiMuNavRo0a55cuXcpbFho8KfLCCy9gn+yhqK/nLIQQQoSCTkx8eokfeLQyc+bMx3gTEkU9ikm1a9c+/fjjj6s1a9bo/hN8OXfunH7qA61RolVEmg774hHMRAghhHDKSxRLKRY7GIsoDnm9FygwPi6FI/X1fzOwnv0o4GWKXhR59KvEciXFXRRDKNA1NfYL+o34jKIvxd0U6HRKCCGEiCszOLUKv4LtdLmcnwLTeMZCCiGEEELEqB84tSIjhXmCvwxvWLSewpyuDt4QQgghROyyUzgoQmGe5BFlKaxAjXyMfwfFCYpkCiGEEELEKDuFg0EUOMkf5OHlFMUorNhIUd4Y1PUSGhqDQgghhIg1dgoHOKmXohirX9ljFgxMvSm+MQaFEEIIEUvsFA6ycIonD+40BsOC+Z0xBuNKAQoUbhZlzpz5bO3atXWX2L169VI9evRQ119/PXrAPEf/P0vxOkU3CiGEECJu2CkceEIlQ6esoYj13ggrUszDiX/27NnqzJkz3KJBcGjvAM0k58+fHwWhp/TchBBCiBgWauHgZ06dgvYCYrFXwsa5c+c+MWvWLD7Vh+fs2bPqscceQ70NPM4pFTOFEELEpFALB10pihqDjslNcdIYjDqcuP/99ddf+bTuvIcffhiFhKF6aUIIIUQMCbVwAK9w6jTcZmhqDEZF/TZt2vAp3F245ZAhQwY8/SGEEELEjHAKB/jl6xY0PTzRGIyoVsOGDeNTd+QULlzYzX0phBBC2BJO4eA9Tt2SiyKSnTeVGThwIJ+uIy9btmzneT2EEEKIqAqncJCVAhUJ3baFwvVGk0qWLHmez9NRgZ4caTXQaZMQQggRVeEUDiBSnSg9SOHmbYZn0M10tD399NMoIGQ2VkkIIYSIjnALB+imOFLwNAO6jHZcqVKlzvL5WWvbtq3KmTNnSthRr149hXoLR44c4XeUOnDggHrvvffUhAkTVJYsWfQ8q1Wrxv+96Pz58ygcfGSslRBCCBEd4RYO7qFAi4mRtIKijTHoiIITJ07k07MBhQNv77zzjurQoYNas2aNeuaZZ9Qnn3yi31++fLlq1qyZmj9/vn79yCOP6ILA0aNH9Wv477//1NixY9Xnn3+u1q1bx+8q1bBhQx66qEiRIod4vYQQQoioCLdwAO9yGklovnmqMRi2in/99Refmg1oDvnGG2/UhQSzoJA9e3adJiUl6fT222/X6fPPP69T80oArhy8//77qQoHuHJgFg5Wr17N7ypcJeChiypWrChPLgghhIgqJwoHpziNtPwU91H0DDMG4te/pxtuuIGHLrrlllt0Wq5cOZ0OGDBAp61atVJVqlRRlSpV0q/NwgHqMNC8VcaMGdXJkyd9Fg5Kly7NQxdJ4UAIIUS0OVE4eIPTeFVx0aJFfGo2XHfddergwYM6Dh06pN9DvwpQsmRJnT755JM6xRWGw4cPp1wFqFmzpho5cmSaKwdjxoxRn332mcKyMF/Mb/HixTzGRShkGKslhBBCRIcThQM0o4y6B3ELtxE8rV27Vs2cOVPHjBkz9HsrV67UqXlC37x5s05RMFi/fr3av3+/fv3nn3+qnTt36kcTTehTYffu3XqcH3/8UYc/tDp/GWslhBBCRIcThQNYwGlcSk5O/oPPzVG1dOlSFA4qGWslhBBCRIdThYO1nMarnC+//DKfoqMnW7ZsR3l9hBBCiKhxqnBwGwVaTIxn75i3BqIBj0DSOqDJaCGEECKqnCocwBecxrNtFy5c4NN15OBJBlo2Hs8UQgghos7JwsFJTuPdJlQojJTBgwejYBCJPiqEEEIIS5wsHDxHkWQMxr3XhgwZwqdv91StWhUFgyrGIoUQQojoycEpeBYOMnAaqmIUNxuDCSFnUlLSNvNRRif16dMHhQLpgVEIIURMwcmpO8U0itcp9lA4YRaniaQIxdInnnhC7dmzh0/v9v3000+qQoUK2O/jKJIxYyGEECKW3E6BE5UZTnWetIPTRNWSYhaaPcZth++//16hX4bjx49zEUCpvXv36oIA/oeWFgsWLHiapplBURIzEEIIIWKZWTBYqV85oytFAWMwXcBVhdoUrSluobiJoilFBYp8FEIIIURcQdsEKBzk1a+cM4FTIYQQQsShZZw6aTenQgghhBAaemnMZAwKIYQQIp6UoShPgUcQnVSRAvfehRBCCBEnplWpUkV99913au7cuerrr79WJUqUQN2DQca/HbGQ0/QiP0UJChS0pH8EIYQQcaN2/fr1+YG7tHbv3o1eAU/QeE7cEtjGaaLBI5/9KH4pXLiw6tChgxo+fLj64osv1LRp09SUKVPUxx9/rF588UVVt25dRePsonG/pqhHIYQQQsSUR3DCsqJNmza4ilDfmCxkuK1Q3BhMCM/kyZPnwocffqjOnTvHe8q6P//8U/Xq1UslJSX9QfOSgoIQQoio+2nt2rV8mrLmnXfeQQHhWWPykE3mNJ69iasDTlqwYIHKly8f9m8zYxFCCCFEBCUnJ+8/c+YMn5bsWb9+PU5g4TSHvI7TeFSvcuXKvCfc8dtvv2H/rjcWJ4QQQrivKCodhuvChQsqU6ZMx3iedg2jCLczp2h4ZuzYsbwH3FevXj0UEgoZixZCCCHccfuDDz7Ipx5n1K5dGycwPPZoRzmKVsZg3Bi2YsUK3urIad++PfYvmmIWQgghHDf+559/5lOOswYOHIgT2N3GYiy7l+Jtil8oMP33FP+jQMdPsXZVofP8+fN5ayMPT5LQOiQZqyKEEEI4Y/d///3Hpxp3zJkzByewb4zFhSULxSMU71L8SoH5fkfxEsWtFLkpIikDelCMNlqPFcbqCCGEEOHJW6pUKT69uO/06dM4iR02Fu2KrBQPUoyhQMHhFAUaVXqKohOF0x1FwUTevKiaNGkS9q305iiEECIsLe666y4+tURW+fLlcSIrbKxGxKAlwm4UEylmU5yk2ECBhom6U6BgYRsaLILGjRvr+/+IAgUK6Pci4corr+QhffVgrrFWQgghhH1DP/vsMz6lREfPnj1xMmtprE5Uof4CCiodKaZRoFXCcxR4VPBxinso/BUcysyePVtvT9OmTXUKU6dOVcuXL1evv/66fqKgXbt2+n20e1CxYkW1aNEideDAAVWmTBldYfPEiRPqo48+0uOULVtWp7Vq1dLjlCxZUo8Dd999t6pRo4Y6deqUatCggWrevLlq27at/h/QtGd5vYQQQghbVmzbto1PJ9H15ZdfooDwgbFaMSkzBS7V30ExlWImxQGKlRTPUdz/999/6225/vrrdaCVyEKFCun3Vq5cqdMePXro9KqrrtIpnmp44403lFmwwGOfeHwUBYrLL79cvzd+/HhVrFgxPQwDBgxQN998sx4eN26cOnr0qB6++uqrdQooeNA6CSGEEJZlypUr11k+j8QM9MtA6/a3sYpxBRUjG5mFgyZNmujUE26fDBo0SPXp00e/PnjwoD7J49c/mlLeuHGjLgwsXbpUFyq6du2qfv31V/Xqq6/q8bNly6ZT6Nu3b8oViNdee02n4FkZUgoHQggh7MgaqOLhH3/8oWbMmKEDJywr8CvXSUlJSed5XeNJmZ9++kmv/2WXXaZTT3ny5NGdKRUsWFC/zp07t5owYYJq3bq1+vHHH9Vjjz2mCwTY52vWrFH4jM6fP48TvB4fTVE/+eST+tYEChatWrXS72McFDwef/zxVMstW7YsbocIIYQQwWXNmvUknz98qlq1qtqxY4eON998U82cOZP/49+xY8d46CIUGEK9ZYFf0rSq0401jh+eFQIDwa0Dt9HqoE0IIYQQIqgK3333HZ8+fPPsC+DTTz/Vv2pxvxyV3qpXr64OHTqk0EASLp2jwR30MHjDDTfo8fELFsO4D969e3fVuXNnXWGuUqVKevrVq1er/v37qxYtWqhg64HpaX2TjdWOG19F4sQfDK5I0LoUMFZJCCGECKwXnz/8Qm34MWPGqIYNG+qa9lCzZk01fPhwNWLECHXHHXekejxv1KhR+nI44FK5eaVh4cKFat26dapRo0bqvffeU2+//TZuF6innnpK/z8YFB5ofePuBHfTTTfxFkQPrQYeyxRCCCEsKT158mQ+hfjm2dFSrly5dIrCgQn3xM0a+OipcfTo0bpwgHvfsGrVKlWuXDn1+++/qw0bNqSqQY978rg3bgWuOtD6xtuVA+ho1j2IBlyh4fUQQgghrMmSJcsRPo/4ZDbkAydPntTPz+NWAirCoeCAx+b27NmjmjVrpq8ioOdBswEl1FfAI3YTJ05U27dv14/rof4Aas6jkIDprF45oFX93FjjuDTefHIhktB2Ai27orEKQgghhHUZCxcuzKeT/7N3H+BRVF0YgP+QQAKh9957B0EQ6b0J0osiWBFEBUVF7IgiAgoWEEQRpCgKghTpVRQU6b33XqXX+5/vzh1cQhaSzfb93uc5z8xsNrszs7szZ+7c4hokAEgc+vTpoysuupusI/oPCHTD0T+Bt5ghm3NZb01EROSCZMmS3bXVwr3g9gSa1LnTrl27cIL73VrDoHA/6nDYt1w8AU1P5X0OWm9HRESUcH+gXoA/QMsIWZ9B1moFnRGtWrXSdTTcBZ9bzpw5b8pr17XegoiIyH36DB061JxyfAO3KWQ9KlmrE9RezZ0793V0aORKooD+JNDDorzOEQkmBURE5FFlfdUEL1u2bDjZpbRWI2SgFQZGgFyHviMwiBLqb6B/iKlTp6rJkyfrJqIvvfSSatu2rYqIiECPkRhBso0EERGR1yRLmzatOWV73okTJ5AU7LLemoiIiPzZjsOHD5tTuGdMnz4dicE46+2IiIgoEHyCIZQ94ZlnnkFi0NB6GyIiIgokjZ944glzSncPdJIkr5vNenkiIiIKROny5MljTu2uu3btGpKCE9ZLEhERUTA4+u+/d+112akVK1YgMQi44ZeJiIjo3n7BYErx8dFHHyExeNH6dyIiIgpGXV599VVz6r87MzpgUevfiIiIKJjlyJUrl0kB7oTRGMPDw8+Y5xIREVEIGYQhnOfMmaOWLVumvvvuO/R2iJ782ll/JiIiolCVW6KgRBq9RERERCSizJSIiIhIW2ymRERERNosMyUiIiLSmBwQERHRbZgcEBER0W2YHBAREdFtmBwQERHRbZgcEBER0W2YHBAREdFtmBwQERHRbZgcEBER0W2YHBAREdFtmBwQERHRbZgcEBER0W2YHBAREdFtmBwQERHRbZgcEBER0W2YHBAREdFtmBwQERHR/5JJtLBm/zfbTD+SCLNmiYiIKBRtk7gucURCSXwoQURERCEsnQSSAjtYakBERET/WyeBxOAdvUREREQhL6MEkgMiIiK/lkFinMQPfhgTJIZLREsEi4fNNBRllfDn79oXElESREQh7diMGTOUv/v8889xtb3EWmUKQJFJkiS5uGDBAvOJ+q++ffviu/aztdpERCEmT5485nAYGG7evImD9j5r7QNOEonPw8PDd0ZERKhEiRKtluWQqXdQvHhx8ykGhosXL+K7ttxaeyKi0DHHHAcDyq5du3DQftTahIDxe58+fcwW3K5jx47YnkHW04LWVrO5AeWPP/7AZ1PR2gQiohDQunVrcwgMPOnSpTtnNsPfFStZsqRZa+dOnz6tIiMj/5Xno3Qh6HTt2tVsaeCR1T9rbQURUfCLXrRokTn8BZ569erhoO3vPhw4cKBZ47h5+OGHsV0NrH8PGlV37NhhtjDw1K5dOxC+a0REbpE2kA/Y9evX9/cD9t49e/aYtY2fqVOnYtumWC8TFB4+fvy42brA07JlSyYHRBQy0m7fvt0c/gKPHycHRYsVK2bW0nWXL19WSZIkuSSvl9h62YDG5ICIKEAwOXC/Dz/++GOzhu7RqFEjbGcd6+UDFpMDIqIAweTAvfbs3LnTrJ17jR8/Htv6o/U2AYnJARFRgGBy4B4FChUqZNbKc3CbISoq6rK8XyC2ZmByQEQUIJgcJFxfd99GuJcAbc3A5ICIKEAwOUiYPfv37zdr410///wztj2QbjMwOSAiChBMDlxT2Bu3Ee7l0qVL6DTpoqxPUmu1/BqTAyKiAMHkIP7e/vDDD80a+IcGDRpgP1SzVs9vMTkgIgoQcUoOzp07pxo2bKj69etnHrm7f//918x5lg+Sg91x7dQIg0MNGzbMLN3boUOH1MqVK81S/I0ZMwb74ktrNX0utn4ZEpQcNGvWzMzd7vnnnzdzd0JHUtevXzdLCcPkgIhCyT2TgwsXLqgaNWro+Rs3bqhUqVKpa9eu6SJtOHDggJ5iXAD7MTx/3759ev7gwYN6CocPH1bnz583S0qdPXvWzCnleNLF8+JyLz+W5KCIxGlr1u2mOa77vSA5ePPNN83SfzBglKNTp07pbcVJDPva3l+uJFizZ8/G/mhvra5PpZHYKJFaL1kSlBwgCejVq5dZsm6pQN26dfXIiWB/Z+zv9JkzZ/QU30V8PxOCyQERhZJ7Jgfdu3dXV65cMUuW9evXq8WLF+v5EiVKqFmzZumrtJ49e+qTW7Vq1dS2bdt05z3z58/XB9ajR4+qAgUKqBkzZujpgAEDVKtWrfRJtFKlSur333/X/wcYyhj/dy8OyUExCQyMg+WH8ICbhb3zzjvmXeMmZnKAZQy+tGTJEpU/f379WLly5fQJPTw8XJ+8li1bph544AH19ddfq27dut2WMMVVkSJF/OUktlgC67JWIqVEQ1eTg6+++konAylTptTLa9asUW+88YYaPHiwatq0qVq6dKn+Ln333XeqdOnS+rv05JNPqrFjx+rnYz3wfSpcuLBedgWTAyIKJfdMDl566SVdUuAIyQFOcoCDMUoAMmfOrNq0aaMfa9GihZ7ef//9egpIHCpWrKjnH3nkET1FgoGr8YwZM6rmzZurhx56SCcaGTJk0H+/F5McnJTQJwATsyUWuilaS0CL+BZPx0wOPvvsMzOnVPv27dXQoUPV1atX9XLOnDl1coChgXFyh927d6t58+bp+fj46aefsA9SWKv9v7ESsW2XN+JPCcfPZYeryUFYWJh69913VdWqVRXGAnn88cfNX5T+zuC7iMfRD8SkSZP04xUqVFATJkzQ89HR0XoaW0lOXJnkwJ3frbjG3xJERF51z+QA9Q3atm1rlqyrsBMnTqhp06bp5eLFi6vJkyfrecBBFFdzkDVrVj3FgXv69On6gA04OcLChQt1kXBkZKRe/vvvv/VrxzM5gI4S9kmoBB5ws8ghQ4aYd40bJAcffPCBWbISKns/4QoYy/aImClSpLgjOUBPi3EpPYkJpTBmnX1ttATWBcNql5Wo70pygMT0lVdeMUtKFS1aVH3zzTe3bk/VqlVL70fcrkHpwsSJE/XjSERjJgcobXCVD0sOvjZTIiKviVOFRBTjli1bVr3wwgvmEaW6dOmiXn75ZdWpUye93LFjR120C0gGcEsBV3IoJrcrMtolBva947/++kvfcz958qQqVaqU+uijj/Tj9u2Fe4mlzsETEhioyBPWmreNEyQHuXPnVjly5FCZMmXSj6GCIpKpI0eO6OVBgwbpUhYUd6OOAfaznVjh/vmKFSv0fFxt2bIF+6O3tbo+hR4cr0uU10sWl+ocxKwEayequN2FWy+vvvqqTipR9wXfN9ymgUcffVT99ttvet5OSj///HM9dYUPk4NA7jKbiAJUnJIDfxVLcuBpl+1bAQmFynIPPvigeu+99267MnbVP//8g32xxFpNn4ut3wU2ZXQNkwMi8jomB/H3s31LxV/06NED++FZa/X8FpMD1zA5ICKvY3LgmocaN25s1sK38uTJg32Qz1otv8bkwDUzzJSIyGuYHLguWYoUKa6i7wdf2LhxI7Z9vbUqAYHJgWuYHBCR1zE5SLhpaH7pTW+99Ra2+1Xr7QMGkwPXzDFTIiKvYXLgHk3QT4M35MuXD9uc23rbgMLkwDXoTIqIyKuYHLhPkqioqKt2t77uhmaO8h6BdBshJiYHrmFyQERex+TA/aagwyd3QlNHed3nrZcPWEwOXLPSTImIvIbJgWe0cNdthly5cmEbA/E2QkxMDlzzj5kSEXkNkwPPSZosWbJrMQetiivT2+EW66WCApMD14RiyUEGiTV58+Y97O+RJUuWw7KuI/VaEwWRlOh6NlDVq1fPn5MD23S7S9+4wgiQ8n+vW/8eNOq4Msqkv0B34GY7vG2rmYaKBzp37mz2euDAeDCy7omsTSAKAh06dDBf78CTO3fui2Yz/F0ze9yJe8EIjfL8nNa/BZeEDHzka2FhYRfMZnhbSCUH9sBjgUhWP5ArDBPdYaP5bgcUDNYk6/6ytQkBIVLi2Jw5c8wW3G7w4MHYnrn6mUEqSZIkJ8zmBhSMkCmr38jaCq8LpltL95IbI7UGKgwfbraDKChEValSxXy9A0dERMR5s/6BpqjEisKFC18oU6YM+i04IctTJHCfNdhFNmvWzHyCgUO+a/vN+vvCQTMNBQ9gRNdA1bVrVyYHFHRSZMqU6SaGvfV3y5Ytww8wlA6YwSZH/vz5bw1b7c9mzpyJ79pGa7V95oCZhoIHArmCNIaxN9tBFHQaSKyR2OemOCZxKMZjCQl0CPOABAW+xhK4Rxvb5+zr2CuBbotLSvgaasOHCiYHRCGiskQWa5aIXHDGTEMBkwOiEFFdIoc1S0QuYHIQIJgcEMUdkwOihLlqpsEmmZk6umtycPbsWd23SY0aNZzWWZk6daqZc02pUqXMXPwxOSCKOyYHRAlz3UyDEU6mTaxZzWlycPPmTVW0aFGzpFT27Nn19Pz58+qTTz7R89u2bVOo7Hrx4kW9/Pnnn+spnDt3Tv3yyy9q6dKlevny5ctq+PDhev769eu6ueq8efOU3WHZv//+q0aMGKHnYdGiRboy9N0wOSCKOyYHRAkTzMnBGxI4oSJQQbWks+Rg7dq1avLkyWbpP23atNFTvAY0aNBATytWrKinWbNm1Sd/x+ddu3ZNtW7dWi+nTp1aT6tXr66nGTNm1AkHBjuDvHnz6qQBycP69evV8uXL9eOxYXJAFHdMDogSxtM9M+KEhhZFaBXh7UCTZH3CNnHMWXKwb98+NXbsWLNkXfnDq6++qkqUKKESJUqkl3HbYfXq1TopyJIlC/oRUUuWLFGbN2/Wf0fygBKAQ4cO6WW7h9hBgwbpKf4PtyayZcum/x8lEVCtWjX0yKpOnTqll2PD5IAo7pgcECWMp5ODnWbqC9MkcEL9WyJCouzd6hzYCQDg//bu3avGjx9/axlq1aqlbty4oaeA7shxSwFJBCRNmlRhMLTXXntNL6dJk0ZPBw4cqKdIDo4ePar69eunlzNnzqz7uzh48KBebt++vZ7GhskBUdwxOSBKGE8nB7vN1NuiJf6SQFJgu2drBZzE+/fvb5aUrjcwZswYNWnSJL08evRofXI/c+aM6tatm76FALt27dJ1EypUqKCX8T4vv/yynkcysXjxYj3ft29fPcWoqN27d9fzgPewEwhnmBwQxR2TA6KEQffanuSr5MAxKbB5pCkjTv4oIcDgZ19//bV51P2YHBDFHZMDooQ5aaae4qvkIDbs54AoRDA5IEqYYC05iA2TA6IQweSAKGHQksCTmBy4CZMDorhjckCUMEwOAgSTA6K4Y3JAlDAYIdKT/Ck5qITOhgJV165dmRwQxRGTA6KE8fTJ25+SgzTjxo0zp9rAU65cOSYHRHHE5IAoYUIpOfhfdHT0eXOuDSgY+0FWf6S1FUR0L0wOiBJmq5l6il8lByIxejU8ceKEOe36vw0bNiAx8HTdEKKg4pgcJDVTIoq7zWbqKf6UHJSUyGnN/q+hxDaJ7XcJjM+wI8Zj7oyjsTwWM5ZLVJAgojgYIDFM4kGJ3BJ/SvAHRBR/W8zUU/wpOagsUciajZOWZuopncyUiNwIRW12eLojF6JgtdpMPSWQk4PWEuHWrEc8YaZE5Ea9JezkoDAeIKI4CTNTWGOm4IkTIZMD55gcEHkIEgPctyOi+MFvp4bESon6ZtkTmBw4x+SAyENelchnzRJRPLSXsEveEJ6qs8PkwDkmB0QegtrGn1mzRBRPNyWQGJzVS57B5MA5JgdEHrD94sWL6o8//sDB7QvrISKKh3YS+P08oJc8g8mBc0wOiNxsy6VLl0wXIYoJApHrdpqppzA5cI7JAZEbbb5y5YpJC/7z559/IkH40noKEcVBhUyZMuHWAvoK8RQmB84xOSByky2xJQa2v//+GwnC59ZTiegunh80aJD+3XTs2BG/m0bWw27H5MA5JgdEbrDV8VaCMyxBILqnEbNmzTK/GMuwYcPwu3ne+rNbMTlwjskBUQJtvXz5sjmM3duyZctwoGMdBKI7Ld23b5/5pdzO1N350Xqa2zA5cI7JAVEC3PVWgjNLly7FgW6o9RJEJI5j6N+7OXToEH43jr0mJhSTA+eYHBC5aPO1a9fMYSv+WIJApIWnSpXK/CriJiws7Iz534RicuAckwMiF2x0pcQgJpMgsKMkClUZCxQoYH4N8ZMmTRr8dhJbL+MyJgfOMTkgiqet7kgMbMuXL8dBboj10kQho3S7du3Mr8A1lStXxm8nvfVyLmFy4ByTA6J42ObOxMD2+++/M0GgUPKi3VQxoZ5++mn8dh6yXjbemBw4x+TAz61p2bKlGjp0qPriiy+CJrA9TZs2xY96obWZAWG7JxIDGxMEChEjfvvtN/Otd48vv/wSv53XrJePFyYHzjE58FdRUVHmqx/cEiVKdMJssj/bcvXqVbPGnmMSBNZBoGC1bP/+/ebb7l7m9tz31tvEGZMD55gc+KmmR44cMV/74LZ161b8qKtZm+2XtmIQJW8xHSUxQaBg86+nE+yjR4/it7PLers4YXLgHJMDP7XUfN9DgmzvMGuz/c7W8+fPm7X0HpMgDLZWgSiwpU6d+u4dGLjRjRs38NuJa2kkkwPnmBz4qb/Mdz0kyPaOtDbbr+zwRWJgW7FiBfYLx2KgQJazZMmS5hvtXaap471OnkwOnGNy4KeYHPjW9gsXLpi18x3TZSwrKVIgevCRRx4x32TfqFGjBn4/uazViRWTA+eYHPgpJge+sz0ugyh5i+koiSUIFEi6ffLJJ+Yb7FudO3fG76eJtVp38KfkoJIEkwO6JyYHvhGvQZS8xdRBYIJAgWD0zJkzzTfXPyBRkfXqZa3ebeKSHPws8ZMXYpFEAYm48nRy0F4itvWMa5CHMDnwvm3ebJUQX6YOAsdiIH+2cO/eveYb619WrVqF388oazVviUtyMMBM/Y2nk4OE+MpMyQPilBwUKlRIvf766ypv3rxq7dq15tHboakgRgG8lxMnTqivvvrKLCmVP39+Pf3555/11FHjxo3NnHvI9saWHLQ1U29wqY6B/J+Zs0aMGzt2rKpXr555xP1MW26WIJA/OuqsqaL8Tdm36v7999/bfjfetGfPHrz3BqysEZfk4FMz9Tf+nBz4Wx2yoHLP5OC5554zc5akSZPq6ZNPPqnKlSunrl+/rsqUKaOGDRumK7ahdz/0Rf7CCy/o5z3++OPqwQcfVPYwqSdPnlRjxozR81C8eHE9nTt3rsIY60hEPv74Y7V9+3Z0XKSvZCdOnKgTkwULFujn9urVS1WoUEE1adJELyNhOXDggJ6/G9lexy9THwk8lkoved42VysffvbZZ8r+XztheuaZZ/S0S5cuqnr16nr+4Ycf1tPmzZvrKfYzPh9XmFsMX1qrTuR7mTJlumtTxWzZsqmPPvpIz3fv3l3df//9ev69995TOXPmVDNmzNDLffr00ceZOXPm6OW3335b5c6dW02aNEkv9+7dW9WvX1+9+OKLehmvidYQSMwBvcmi59W7we8uIiLiuFn1PWZ6N0wO4o/JgQctN99lp7JmzWrmLP3799fTsmXL6mmePHn0FBXa1qxZo390gAweJ3UkDo7OnDmjH2vRooVq06aNKlKkiH4cP8zMmTPr+Xnz5ukpXgvtid944w29jB8loHYwdOzYUU/t5XuR7UVx+bsSmEeskPCGrQmtfIhkDOxtrVatmho+fPitkz9KYJA0ARKnlStX6iQtIUwrBt5iIF/LF5emiriAuO+++/Q8jhX2hce6dev0NH369HpqD8SUOHFiPd2xY4eeYuTGbdu26QsSSJcunb5I+fvvv/UyfmNImufPn6+Xcby7Fzl+XpD1X2dtxl0xOYi/kE4OUOT9lkRPD8U+8x12qm3btmbOgh8g2FftdpKAnhbxI0S734EDB6pPP/1U7dy5Uz3wwAP67zaUHHz77bdm6b+Sgx9//FFP33zzTZ0koKQBP1bchpg+fbr+W79+/fTULpVA0SESkFatWunle5HtRaWfvyTs5GC7RGz7xZ3RI2aC5QocmHA/c9euXXoZSQJKZQYPHqxLWnBb5tSpU+rXX3/V3SP36NHjVkLhKpRWhIeHb5JteDnGNvkqXpLYIhEfeyX8Zf0ZrkXfd955x3wrncPvbMSIEergwYP6NmfhwoX145ji95AxY0a93LVrVz2Njo7Wxxn8/aWXXlL58uXTFyY45gAScFR6REkDfmOjR4/Wj6MEs27dumr8+PF6+W7wG5X1ryBxL0wO4i+kk4M2EimtWY+IU52DlClT6iJqnGwwmBGg2A1wMsePBqUByLifffZZvYzMHckBbj04wg8PV7y2ggUL6ilO8pUqVdIlCA0bNtQlBmnTplXHjx9XyZIlU9OmTVMZMmTQz0VRug2PxbUTIdle+8sULfGPBB7zCiRNCbF69epbJSuAfYV7m7iFgDoI7du314/LW+kpnovbNK7CPpXX2qhX3r/8bqZxNctMKbBVxHHhblAygJO9PFcv40Lm9OnTqlOnTuq77767dUvUviUXERGhSwaQGIwcOVLfxoTSpUur77//Xh9/cBxCYv7LL7/o19uyZYt64okn9DEOAzHdTdGiRbEuWfXa3xuTg/hjcmDNekScWyvgdoAjxxMyruDh2rVreup4b/3cuXNmzoIfr+Oog/b/2pWM8GN2ZDf5s7N5cKztb5dcxIVsb8wvE5IEV0ZZc0lCu3d1vDXhuF9jm3e1fgPgfWR111tr7XeYHISuaPs2ZGzOnj2rp/YxxfHYguOOfSyxjx/2Mc0+HuGYhtI3PBdQT8GGxx3dq8WR/NavmnWOKyYH8cfkwJr1iIBuyojiwQ0bNpile5Pt9fmXCaUw/gwHSlnNuNwj9RUmByFOrvBvmK+rR6DUs1mzZi5V5kVSLqvoygiwTA7ij8mBNesRAZ0cxJdsr198mVKkSGHWyL8EQGIATA4IdvpyTJLYHD58GL+fhdbqxRuTg/hjcmDNegSTAx/xtxIEFLnKajm2zfZXTA7ItsBuieBrU6dOxe8nIZ3yMDmIPyYH1qxHMDnwoVSpUpk1860ASgyAyQE5Gmj3T+AraEUl69HNWh2XMTmIPyYH1qxHMDnwMV+XIJjEwN9vJThickAxtUQPrr6AESHl/e+zViNBmBzEH5MDa9YjQi05+MbabP+SPHlys4behVrc8vZrrLUIGEwOKDala9WqZb7Z3oFeFeV901hvn2D+mhy0kigmUdhEIgl/weTAmvWIF5z1Ux5s0BRStreFtdn+Bx2yeBNqYsvbrrbePaAwOSBnou0eWz0tRYoUN8x7uou/JgdpJWqYQG+paP7tL5gcWLMeEW53Nxrs0GbZbLPf8lYrBvRHIW+31nrXgMPkgO4qKirKfNPdz/x2Tlrv5Fb+mhw4el6CyYGf8HRyABmyZs16Hf2FozfCYAt0vSwn3UuyncmszfVvnq6kaG4lBGpiAEwOKC62u7upI3p8ldddZL282zE5iD8mB9asx+WQaCmBondPB35ksT3u7sD7LJb4TmKiF6KxRIIltKtlZ0xiEEiVD2PD5IDiakZcBkeKC3TfLq/nyWHMmRzEH5MDazao4IcWjHqbaYKlTp3aHJbcw9QxCLTKh7FhckDx8enkyZPNr8A1GHhJXuc56+U8hslB/DE5sGaDSjAmBxESbksOwF23GMx90kCsfBgbJgcUXw3s4czjC8PKy/+XtF7Go5gcxB+TA2s2qDA5iKOEliCYfgwCuY5BTEwOyBWlqlevbn4VcYOhnOX/Mln/7hE1zRTs5KC8mfojf0kO0KQSHJOD7GYaMpgcBA6PJAfgaoKAkePk3wOl58O4YnJArkpXoEAB8+u4u1SpUl2T53uj8x/8RvtKTJE4JdFTwl/5S3IwRmKvxHSJQRLBeD65JyYHgcNjyQFgbPn4MKPDbbT+O6gwOaAEiYyM/G/M+BhMQr3feqZX2Cc3O/yZP91WcNxnj+KBUMPkIHB4NDmAuCYIQVpiYGNyQO6w8+zZs+YXY9m1axd+N8utP3uVfZJ7WS/5L39KDoZJ2PstJDE5CBweTw7gXrcYAmTY5YRgckDuMnPt2rX6d2OaKn5sPex1H0kEwjHR3yokYp89Ys2GHiYHgcMryQE4a8UQgIMouYLJAbnTwKeffhq/my7WotdklKgkUV+iicQ0iYckUEmxoIQ/jWFg83VykFiiqEQtiaYSyyQelqgnUUECXT2HDCYHgcNryQHETBAuXbqEfRqstxIcMTkgd3N3i4SyEjh2j5U4XKhQoYuNGzdW7dq1U3379lU//PCDWrx4sdq6davat2+fOnbsmDp16pQ6dOiQvrXx999/65KMYcOGqa5du6pmzZqpGjVqXJXX+lfiDwncfmgo4W2eTA6QDCE5ekPin4iIiHO1a9e+1rx5c/Xiiy+qr7/+Ws2YMUP9888/avfu3erw4cPqzJkzet9hH27atEktWLBAjRs3Tr377ru6CWqjRo0wONYFeT3UIUHLBnSMV0QiKDA5CBxeTQ7AThCCuPJhbJgckL/BVeySUqVKnUcpxPr16/XJ3lPQ0ykGkhswYICqU6cOfvsnJHpI5JXwJHcmB8Ul3gwPDz/RoEEDNXToUL1NN27cMFvpfidPnlTLly9Xjz32mCpQoAASLbR2QMlNQGJyEDi8nhxAjhw5bsokFEoMbEwOyB88Jsn5iWeffVZf8fsaOjrD+DgPPPAAjq0LJArotXSvhCYHpSVWVq1aVa1cudKsuW8dPHhQlzJEREQclnVrrtfSz+E+CiA5SGHN/u9+Mw0GTA4oPvAbwNgfYCcH+SWirNk7pJKwx9m3k4MSEkmsWSKX4ELt70cffVSdPn3anF7809KlS1X69OlRpO7OK2NXk4NHcubMeQNF//4Mtyhw+0fWd6ZEmF5zP4QKFuiE4zOJ0RJYYW90yOEtTA4ovjBM7noJjIq3W2KPxN3gO7ZCYrbEQQlcTRG56ue3337bnEYCx/79+1WaNGkuyvrnsTYjQeKbHBTNnj27PukGmqeeegrHjxHWZvgfrJwdnhwNzBewTcGGyYFnoSay42/CLlFzBv3hOz6fyBWJ5Apc3bx505w24u/IkSPq33//NUu+8eGHH+I38Lq1SS6LT3LwJSoRxhcqG9rQLPteJTRHjx41c+6HfjASJ0583myPX6khYR/Y/LFZS0IE48GayYHnodYxvjtxrWNxWQLPn6qXiOIpd+7c5lThmrx586rZs2erb775RnXo0ME8GjclSpQwc+7x66+/4reQkH4B4pocDNiwYYN51/hBCwPbjh071Pjx481S7NAyISZspztFRUVdN9vlV7BSQ63ZoMLkgFyBegT47tj1Ce6lnEQwftfIOyYkpPY8asb/8ccfZkmpVatW6avRkiVL6uaJOIkVKlRIValSRf/9rbfe0glBsWLF9HKiRIl008dRo0bp59WsWVM/nhA1atTA78HVi824JAdR3bt3N+8Wfw899JCZU2rnzp262ecLL7ygHn/8cTRL1PsPJTFIulD0379/f72fy5Qpo3LlyqX7esmWLZuqXbu2bt6N/Va6dGk9ZL2rTDNxNLH0qWQSGF0KbTHRVvZdCdTwRKD2KdrjBkPdAyYHoQHfY3ROgsq07gic7P8y09j+HjPKSCyUwEh3sf3dDnuUN6JbsmfP7voZRXz//ff66tcRmjjiZA/o7XT16tVq0qRJau7cufrePJolv/HGG/pkZg8ShdEhUbt/9OjR+vkJsWLFChx7XW3yGJfkoE5CbqGgQqANycGECRPUSy+9ZB5ROpGqXLmyWVLq/fff1/UqkMRh27BvsZ9wGyhTpky6L4lt27ap+I7IGVP69Ol3me3zinQS70sszJgxo2rfvr3u+AIdPaBWJ9pkImPBlwUdPuDLgb9PnTpVZ5bp0qW7JP+LXrUelIiUCCTBlBw8YabIxu3kwNu9rfmbB3B1hK5pcd8Q2by/BtYPHasUKVIE38lS1uoT/e9/cly+ffCFeELnPF988YVZUqpWrVq6ySGSBihYsKA+vp8/f15/D3Eymzx5su78CMlB/vz59fNwVYzn4HyASIhly5bhe57b2sJ4i0tyUGnPnj3m3eIPpQQ2JFZImhxLIipUqKDuv/9+s6RUv379VKVKlXQJw4EDB3RigAQByQL2J/Yj9m1Cm5tGRkZuNdvnMUgIpiEjRLboDqiQgYofZohRVFwMhEQh2EoOsD0YRhSDtmC+kESoiqhXr575dgYWXJXI+vttEybyul7Hjx833w7XoHe/hg0bqgcffFD98ssv+qLv22+/1X9DJUHcXsicObNezpIli2rVqpW67777dAkDisYHDx6sXnnlFdWyZUuVNWtW/byEQOsBs22uiEtykMjxyj6+kLDLha/CMQQXzYBWIk2aNNH7EBfKqLSIhKBixYrq448/Vo888ohq0aKFatq0qXrvvffUrFmz9DKSBfwPkgncinDVxo0bsc881lnSExhRD6UCnjZo0CAVFha2Wd4T7cD9VUK+oP5oggS2CYESnVDWy3wVAw6uMmT90dMckW2f+XoEvM6dO+P7nZBbaHGtkFjn888/N++acD169DBz3md6n11tbZZ7tUDRkS/aeeL2g7z/PonUek38C9Yt2GCbEBgYJJQl7FLLx2T9Z1ibQXTLBn/p0c9VuHqW7UCXxQkR1+QAaqJrZ3dwrNTpTVOmTME+Qz8pbndkzZo15m18BxU2ZF38rcUD1inYfCdxzpoNaZ5reOwFsv7ob50opuao9Y57/4EEJcmy7vOtTUiw+CQHtrV2BcxAgVsQuIUj617H2gT3KZPQmpHudvHiRXTmgB7m/EWgJweofIguetHRTnuJFyXQ1GWKxEsSj0uglj6a3GGY0VDC5ICCWVfcC0cFOH+FCnhmGGp0He7OOmiuJAeQQeIfx1YH/mj48OHo0wD7LSF9QTjVxJ33WtwNbUNlHf3hZBUoyQGak74tsU5CPfHEE7pyDGogo1QIlWNwT8qxDS1qyaJGMSqKbtmyRX333Xf6f1CpSBI0bDdu9bwn0VIiGDE5oFCQUWIo2t5/8MEH5tvjO2jGZ7r8PSrxFFbQA1xNDhzhQuoSKmqiiaGvoRMl1AeUdfpIIqHb5lRFNEHxdwmsreou/rAOsUH73y+SJ0+uevbsqTZv3mz2mvsheXjnnXdU0aJFsS8mS9TCCgQBJgcUalCS2E1iGprP9erVSzenS0iXy3ezZMkS3YoBJdTynqclPpXwRgspdyQHjnDxhfGDLqNFx5AhQzw2WiNKz0eMGKGbRaJ/CXnPiRIo4fW4pK1btzar4f/M8JS+5G/JQf/y5ct7pTWJMyhlQLMmWRckCrhlEajilBycOXNG99uBXuLi02nKX3/9ZeY8Q9afyQG5A0po20kMlJicKFGiPUmSJNEVA9GNMq6c0ezuo48+Up988ok+MaJZHkohXnvtNX1bAF0Jo3ljeHj4hbCwMAw49rVET4l8Er7oUt/dyUFM6OAPlSYxBsS3ss1/yLZfyZkzp26miNYWr7/+ut5HAwYM0PsMdSqwD3Gh9fzzz+v+gtAvhJzj0MPkdnmdnyRQKoCRjn3SgeApc2wJCOhRStb5BWvVfcJfkoNf8CP0VIbvKlwVyLqhOaonf4ieEqfkAGPPL1iwQCcG+MH/9ttv5i93V6pUKTPnHNo2u0rWn8kBeRNOWBhKHHUD0MuqL076ceXp5CCusI+wr7DPkIT5ba/BpdDrVKApV66cL0/Qvk4OqqMTDX/XpUsX7Kd+1ioHjDglB0gM0Ne8rXfv3rpTE3RegmQtR44cup/1H3/8UXeMki9fPt3ZSdWqVdXff/+tezUEPA/Qh3q1atXUrl27MEStGjt2rO5Hvnnz5rd1yXovsv5MDohi5y/JQcA4bI4rt6DoE7VZcWDzJtRSRX/UaIqB98Y6XL161fz1dug9Sta9gbUJXufL5OBpV2sax7ztMH36dN29pyehb3BZZ2+MKojOUTq4IeLU5SzaLidNmlShfscDDzygH0NyACgytKFY9dNPPzVLSuH2DxIDu4959CPiONodblfYJQeoaIS+2eNTMiTrjw5PYtuuQAgUY+MqlMgTmBzEB4qlY2rQoIHuyxmBCmeoDOEJ6IrTsdQCy0OHDtWdN2CkKrw/KmDg3m5swsLCtpjN8DZfJQcFv/zyS7P18YemOPb9cfSRjlHU0LWmp+FqWNb9OWsTPOYLCRTR4eSSkIhTj1+4rYAxRBzZyQHuI9rQtSyaGNlQ4oWWInYfIuh/Hq1IbGPGjLk1MAtun2E8+JQpU+rluJD1nxljewIp0AQLteiJ3MkekRDHoCgJFOt7+ngU8KJGjhxpDiv/qV+/vplTauLEiXoACRz4UGkRrQXQ9A1FpICBJNatW6crn+AKCicgzKPzIjSTwwA2SDZQDDtz5kxd1IriU1yxYpAKx2E87eQAfXjjhGJDE8bYlClT5orZDm/zSXIQGRm532y6S1Ayg6J+6Natm57i8wQM3IMi7Jdfflk999xz+jHUWkbROYrBE9ohlunhzJOQHLhDnG4rYIz7mLfjMPqcDYOLYfhafM9x5Y8kG78hlByguSgqKaG/edxuAOx/3Fo4d+6cHtXuzTffVI899pgqXry4/t3Flax/IN9WaC3B5IDcLb0EfhuoB4UOlXxy/A40eU+cOGEOK//B4Bk4gSPsAxMOcDhB4IAHqFEJjz76qL4NYTebs0egQkLw6quvKiQfGKgjffr0aunSpboJHGBgClwZIWmwOUsOULwaGxxozXZ4m0/eF60BEgonG7DvdWMZRf9o+oimMmj3jJMXBtbCKGw4QSFpSCh8rrIJuDr0FK8mB/5K1p/JAdGdMGQxfh+IsXiA7i4bmqDFFNuodLjCQacP9okCI0ehgxyUDvz555+3TuZo4gJo94mrUBsSiDlz5twapwGlC3v37lWLFi3Sy+CYHDgOm4nR5mKD0b/MdnibT97XTsgSAle8KA1YuHChXraTA7tyHYYpBiQiaKqEq1l3NHNFsx3ZBE/WymVyIGT9mRwQ3Qm9HOL34atzRuBBz3cxxZYcoGgfJQmoOW1XEpR/11PH5MAez7pu3br6ChQnF9xnRecQSCjs5AAlC+jnG1eqNiQHuKeOinMohkVf4Lly5TJ/vZOs0zFrK7zOV1+wKdinCRUeHm7mlN7PgPvc+JxwOwiQ3Nkdb7ijNUtYWJinR3tkciBk/QM5OWglgYM4kSdslRhlzdI9Od4njQ9cbaLzC1+S1f/F2gqv81n2iXvVgQa3qWTVPd0xEpMDIeuPMUiWSCwNwMA94eUxHmP8Fxj7hO4urQSG+0egB8MnJPpLfCWxQAK3FDCQ34cSqABbQsJ+fgoJcuBS9XeUAviSGdI5p7UJXoEicVzZgJ0cPCrh7Q4sItAOPlCgwqqsM3pE8zQmB0LWHz1UBio0TUbnMBQ7+7gT6lB3KbcEui5emiNHjlMooUbrKzSBX7x4sW5JdPDgQT1OjDO4JY56bxs2bNC3WceNG6cr1KO0Wl4TvfCi8iL6ackhEZqeeeYZs7sCR+LEiX3RhTK6AEULCQR+qJMkfGUauiv1V0geZR13SHjrYM/kQMj6s85B8Arl5KC+xFy0rkIPrLiV7S2oF4cBjjJkyID9j6bCKJEIGR/Fp394X0MzL1lnX9ybRHeXeG87fA0H0s3IdtFvgT9Am35Zp7MS5bCCXuSu5MD3Q60lgKw/k4Pg5Q/HHG9qGBERsQ0V2x1br/kaRpBs164dPos/JUrrNQ1mciV+xmy7X0OnPbK6GLzDV+x2suP0kv/olTZt2itoYeCpTqtig6QEvfiZliOjJXw16JK7koMGdnPbQIMDqKw/k4Pghc83FHyIJvO7d+8232z/hUQBI1nKOgd3p0oZMmT4b2B/P2QGXMLJ2ZdQTO7vP1KMh74LzRTRA+b27dt1B0gJhVYqZ8+e1aOL1a5dG/vggsTTEv7QJam7koP/JU2a9JzZZK9BfyMJbYkiV1kHZPXnWFsRkJgc3F2wJweVCxQo4DeloPGBRCY6OhqfTxZrU4KQbKDzGhw+hAxNVu8Hay09Bt1qItJIVJPoKvGeBIbM/FhikATGHkeHGphiGY/j7+9KPCtRWQJXz3idMAl/gAqBz0i8LbFG4kbu3LlvoMc+9FvRsWNHfcJH74mdOnXS/Rqgb4n8+fPfiIyMvCHP3y2BbUTf5GUk/JHbkgPjFzTpxTCq3gg0JcX+j+1v9wr0Mirr+7212v/73UwDEZODuwvm5KBPQsbyQYd7PXr00JURnUHHbrFx56i2GK5atgXjhASt+Y49F/oaKkzKOnWyVi3BcPDBcM84meBAqvtkwEG2X79+avz48bpdPzpoiu+VHDJeZJC///67HlUP43ajK2Jz8EYslkANWxRB+ar4PVi5OznwFDQzjI2zYskZZhrTfjONiclB8ArW5KDt3U7qcfHss8/qKTpxQ5f9sWnTpo2Z+w8qTrv7NuJHH32EzymoWzg0KFu2rNlc30CvirIeaJWAioCuqCiBK96TGOkO9+MxEqE/mDx5snr77bftMQewjWh3G1K1YN0sUJIDZydvZ/VoZplpTLiFEBsmB8ErKJMDuyO2hHAcQLBJkyZ6il59+/Tpc6ur/7Zt2+pxgtCRH7qFRyKBC0+cF3DrFcOto6IhRgZOqNSpU58zmxfU+jdt2tQt96zjCs1UkiVLhh9CbWsV4qyqxDcZM2bUxTuBVrEMFcqw3vLFwrZ/LlEeG0VxEujJQS8zjYnJAdmCMTlINXr0aHMEdJ1jcmB3944kAYOY2aOlIiHA4IDoBdbuGh4l5OiZF3UdkEggMMx6QlWqVCkoEzlnXsP49Y7Dz7obPjB5n20S8bmCflziBDLAI0eOmFcKDqiAaW6pHJHAgZOcC/Tk4E0zjYnJAdmC8YSTqHfv3uaI5zp7tFmwu4cfMGCAntq3LDBIIMb0seEWMsb7wUiojqUXP/30k5lzHUrdzfaFFIyH/XlkZKQeWCkhOxL99levXh07cZ0Ear3HVV6Jv1CRDh9sKDh+/Lhq37499tVCiXTYCXSbQE8OUKE1NkwOyBasJ5w/zGHOZfIaOlCR2u4VESUEyZMnV4MGDdLL9u0G3GIuWLCgHtsHA/zh/wC3HzCcQEJbDeF15TVRYT3kZZLA/dKfoqKi1qdMmVJXCEFTN3wYuL+DAZvy58+vbxUkTpwY/VtPkGghkUwiPmpJXJwyZYr5GELTmDFj8OU7I1EBO4W0QE8O0ComNkwOyIbffVCSk/hlc3gLaKiULptzwtoq8oYCERERl5YvX24+AoK5c+fii4iBdrLqvRTaAj05eN9MY2JyQLagTQ6Mrf/88485ugUelKLLNjj7vZIHTPriiy/M7qfY9O/fH19Kf+ux0dsCPTnoa6YxMTkgW7AnB9AEAx9t2bLFHN38Hy5akydPflXWvZS1CeRpSVKmTHkjEHvL8oXLly/jlg2+oKEq0JODD8w0JiYHZAuF5MDWMFWqVCfd0ZLBE3C8Rb84ERERO2Vdi1irTN6QNGfOnOZjoPgw/Xyjd8ZQE+jJAYaGjQ2TA7KFUnJgQ2dx/dOmTXviySef1D3l+go6x0Nrh6RJk2K0WfSGmxgrSF6UOXNm83GQKyTjvml2ZSgJ9OQAnXXFhskB2UIxOYiphMTwqKioVaVKlVLdunVTf//9t1q/fr05+iXcqlWrdAd8HTp0UEWKFME+/1sCdYIKSJAPzTefUZygkwt0gIHxtp25cOGCmYsbNG95/fXXzZJSb731lu5voHv37io+Q1ujSYs7vrT79u1Tp0+fNkv3hgGSZD+OtXZnyAj05KC/mcbE5IBsTA5ih5N2JQm0mvtVYmO6dOl25M+f/0DhwoUvYoRHJBJoqohAazoMSleoUKHz8px9cjG1Hf8j8ZNENwkMN59HgvwJBtCID8dShsSJE5s5pc6c+W8EavSYaA9j7OzkfurUKT1FG1d8cRwlSZLEzP03b7eldXwf3IcC+z2OHTumu2u2X9sWc9mR/bo2JAXIZJGwxAf6gJDdGUq3FwI9ORhgpjExOSAbkwMKWc/FtwMKx+Rg0aJFauXKlQq1XXFStrvBzJYtm9q8ebOqVauWfhx/d4TerPA4htzEyRkdYWzatMn8VSl0+GSz388uqciQIYOeovtNvD/uSU2bNk13voFkIXv27Pq10YUnrugx+h6W0b0muon+/PPPdckHhuxFacW4ceN0Jx1IZtBPBF6rWLFiuvQgPrZu3YoDSUlrt4aEQE8OBpppTEwOyMbkgELWx+bcFmeOyQGusGfOnKnnhw0bpnvBApy4IX369DpBQP/af/zxX6dcGLYYMKIiHrf74rahRAIdOOXNm1cP0AEYcRFy5MihpxMmTNBTFF/Z0KvhL7/8oudRURDwHq1atVJp06bVJQh4TYynAOhACp1H1alTR3311Vc6KYCNGzfGu+QAZH8OtnZrSAj05ADDf8eGyQHZmBxQyHrDnNfizHGQDPtkapcMoHtnwAkYMNAGoA0tTtw2jN4Fv/76qx6RK2Zy4FhyYHvnnXf0NF26dHpqj0Vuv9b333+vbyvY3UsjOcBzkBwAShamTp2q5wEjgiE5AJSerF69WuXJk0cv4/8whHR8YDAR2Z/NrN0aEgI9OXDW3SqTA7IxOaCQlfSbb74xp7e4wQlV/k+h6eO2bdv0YxjIA7cGcILGY3hNDMyBq2/cYujZs6d+ng0lDjh5231w16xZU09tKHGI6amnntJX+egaGiZNmqSneA/cShgyZIguGbBLDuykAYkLKjeiFizg9kK5cuX0POovoJtpjKEA+H+sFypdYhCm+Bg8eDD2S1K9V0NDoCcHzkp5mByQjckBha6wsLC4V8snp2RXogZuKAn05GCImcbE5IBsTA4opKVCETu5rm7duqF0EJktgQG8PtFL1hDe8Rny29ucnbw/N9OYQiE5QH0LdD3bWAKlXfj8nFXQDDWREuOt2VvJwfcSeJwo5FRDsTjF3+OPP44DyH3WbgwJGL4b23zNTM9J+DNnJ29nJR+hUnKAzw6BDrwwpf98LeG4b5wlkkQhofJDDz1kTnkUF/Xq1cOBo4y1+0IKRqbEtiMK4QE/xuQgdsMl7M9wKB6g29j7BkEU8lJER0ffOHv2rDn9UWzQkiEsLOxf2V+h2tc3ejPDQfOMXvJvzk7ezk6IoVTngCc/5+zSA/v2GRGJ99u0aWNOheSoYcOGOGC8Yu2mkHZUIp8169ecnbyHmWlMoZQcoDmnswGoiIkTkVM/oglhqLt+/bruSEn2x7fWbgkJ+SUaSqDv83ckcN91scQWicMS5yVOSOyRWCuBftI/lOgl0VHiAYmUEr7m7OT9lZnGFEzJQTaJWhKdJd6UQKXDmRLo136/BOqLnDLzeGyGBLqVxnOfkaghkUUiVOG7TkR3MSRr1qxq4cKF5nQZGmbNmqX7XJDtd9abXjDA2OidJHZmyZLlYtu2bdVzzz2ne6bEQFYxx56IC/wfAl1To8JmlSpVsA+RTODk1FYiTMJbnJ28cc89NoGYHKSXeExidooUKc6j7hCG28WQt/gc4jsQGuB/8L/oovyJJ57Q3ZQnS5YMnyEG2sF7pZEIVhXuu+8+vR/QA6ssh1KFYyKX5JL4Dd0hL1iwQP94gg3GYcBAULKdOAhmxkYHGbRr7xUeHv4vSkPQQyXGoPAWdDzVv39/VaNGDezj3RLNsVIe5OzkjXvKsQmU5OARiTMtW7bUv0WcyL3l3Llzas6cOapZs2b4DE9LtMIKBYlRP/zwg9lSy5gxY7CdI6w/E9G9oFLaVPQo+Nlnn902cFIgWbNmjerXr59dQjBJIgc2LsigLfvnpUuXvvnbb7/p2yT+Al1e48pU1u+IBNrdu5uzk/dIM43Jn5ODzilTpjz36aefejUZuBeMivrhhx+ii3JU0n3CWtWAdM5ZZWx0/y5/RyJERPGADkJwj3lyunTp9qPSHsYxwHgF/uSff/5RkydP1oNBpU2bdqes748S6AAmQiIYlZDYhyv1QHDo0CE9zoasszs75HF28v7GTGPyt+QA9TaWdOjQwenw5/4EJUOozCzrPFciChsQAMrff//9ZgvuztxmQAdSROQiFMljCGO0J1+ZK1euY0WLFtXjFqDoHkM979ixw21XsSgax33yv//+WycmGHkR4z3kzp0blef+lkB3ucUlQqG72FQS+37++WezdwLLlStXVNWqVXEQRsW4hHJ28h5lpjH5U3IwC7+XQIWB2GQbfrE2xW99Fd/xZb788ktsVyiNwErkNdklCksUk+guMVECtahxoF2bIkWKnRkzZtybPXv2g/ny5TtWpEiRU5hiOUOGDHvl7zvkeWsklkqghjVKAFCrvqgEXjerRKjq88orr5jDWGDDLYfkyZNflm2KtjbNJc5O3t+ZaUz+kBxUizlSaSArWbIkTqYVrU3zK6dd7dPFjMKK5rxERH7vn8OHD5vDV/AwzUhdrTHu7OQ92kxj8nVy0H/kyJFmy4PHsGHD8Bm+aG2iz1VCpWp3wAiv8nrlrJclIvI/Ky5evGgOWcHHjGHhSpt7ZydvDKYTG18mB++h6WCwmj9/Pj5D9LngSyNHjRpl1sg9hg8fju0KlFFKiSiEdFq/fr05VP0H9TBQ0apYsWL6Hn5cYcyIe0Gx6rVr18ySUlOmTNGV0TwpW7ZsOAjHl7OT91gzjclXyUHqt99+22zp7VDvoHz58mrevHnmkbjB57Nv3z6zdKelS5fqIn98P+LTI2rnzp3NnHNbt241c7d7/vnn8RliVE9fOHnixAmzJu519OhRbBdvMxCR/8iZM6c5RN0OJQnvvfeeWVKqbNmy+gSOE7vdFA6VQm3o8Ai3JaKjo/Wy3XmOfasCJ5tdu3bpefSciTEmbEOHDtXNvU6dOqVfH4Hk5ODBg+YZ1ns5HpzRxwLYSQaWHROOmFBRUTb3WWur48zZyXucmcbkk+QgLCws1rbAZcqUudUR1TvvvKM/C5yIcNJHZV58jvZnAvgMdu/erefRCdL333+v53Fv3fHzggkTJqgjR47o+dOnT+vXx+eGzwz7Gp+/42vjNfD5IlG5fPnyrcrE9meK75b9HoUKFdKtT2Ijm7vK2mqvqVShQgXz7p6FzpPk/XibgYh8LvrHH380h6bbITlAjXEcyHHQbt26tb4KRSsGHMhxkMcVXubMmfWBHh3qLF++XCVNmlT/P4pLIU2aNOrGjRuqbt26unkqOr/p0qWLPhHZkBzgxILXRKc8KLH45JNP1LvvvqtPaCVKlFBbtmxRjz32mE4asLxhwwaFg/aBAwd04oLWJmiyh052nJHtxTC68eHs5D3BTGPySXJQp04ds4W3w36KCZ8PmuUimerVq5fauHGjaty4sZ7ic8Bn2L59e/2cn376SS+jOStaCOH7YENnP2vXrtXfDxT5//LLL7oUAc/HZ/LMM8/o/0HpAhIAXPXPnTtXf7azZ89W+/fv169Tu3ZttW7dOp2IonRjyJAhCi2TnFX2w/fQbLY3DP3666/NO3vH559/ju0L5l5ViSgARG/evNkclm6HK050e/vtt9+q0aNH68e6d++up+gK2y76Rb8USBjsg3mOHDn01D6oZsyYUSEBcTxpv/rqq2bOYicHNWvW1Mt2iwmcwP744w99ckHFQjQvRdKC9QJ0QoUrYZRWoIY+TjxLlizRf4tN6tSp3ZUc/GCmMfkiOQh3luAVKFDAzFlQsiL7QM+/9dZbqlKlSgqV67BfAcnVo48+qm8joQQA+xKdTOF5CMfXmzhxovrggw/09wP9f0CRIkX01PHWAbq/dlxGAojkAAkE4PsTs4UMSjycwfqZ7fa0o566jXAvSIjl/Z19Z4iIPC46ZnevNpyEcWXpyE4OcPDClT3gtgQSAzuBCA8P11P0egcpU6bUxdj2CQwdwbz++ut63mYnB+hgCnr27KmnuJWAEoKoqCi9jJILFIVnyJBBL6O3PzRZRAICSFocb3XEJNt73drsOHN28kbz19j4pOSgWrVqZgtvh3ES7BMc9imK+e3kYNq0acqua4JkoH79+noepTxItHDyxq2F999/X+9jQIJmw/cmZmJpJwf4HFAnAZC4IcHDawGKzlFSgMTu5s2bCuuO74Z9+6lJkyaxlnjYvFByUN1OUn2tcuXK2FZ0EEdE5F0YFCs2uMqMOQYGioVt6B+/d+/et+ofoFgZRcMjRozQy5h+/PHH6rvvvtPLuLp888039TxOBAMGDNDzgOJnJCMYbAlQTA24R40rWJxo8F5IMuy6BkgU0G897pHjJO2HKi4AAP/0SURBVIPXxrIzuAcumxvf7nmdnbzRt0ZsfFXnYI3ZzDugGSD2HU7GMHDgQD0FdOCDEgQb9ikqh6JLc7ArOWI5ZoVHdHke88ravpUEqNXv+Np4L3wf7M8IpQ54Dr43gNsJdh0X3H5y1ipANneFtdUeMc5Ocv2Fac3grLtuIiKPaYqTcyDB7QOUPjirTBmbXLlyuXLF6ezkjSGmY+OT5EBEvvDCC2ZLg1fXrl3xGXpqKO/DrtxGwO2WmNDTKm532ZBkO6tDEReo+Cnrh6GxiYi8ahmK9YNVu3btcHDFYF/x5ezk/bOZxuSr5AA62yUuwWj8+PH4DD0xMFNFFN+7AqVjKAFx/O3gdg1KuuxmoFhGl+x2BdyEdEuOCriyvhwCmoi8apld9BxMzDgLRaxNjDdnJ2+MwBkbXyYH0NO+rRNMBg0ahM8QXaW72/D4jo3gyC65sivIoiIl6myg50OUFOTLl+9WHQ4070RfG4BRXF1lWjNgrBciIq95AbXTgwGKYsPCwi7JNiW2Ns0lzk7ek800Jl8nB1ANt12CBVpIyDZ5YiTDhQkpaUFdG5z0+/btq5IlS6YfQ7NdQD0YlBTYTUxRkoBltOyQ971VD8dVv/76K15nut4KIiIvwRDU6xN6APMlNJeTbXDHlaazk7ez0QL9ITmwTQzkegimfoGzAa7c5Vlh3jF+Hn74YTOn1KpVq/StA7sZL5pmYohsO1l48cUXdf8caKkBdqscVyB5l/X2xO0VIqI4wVgEqxx7SfRnOECjvb6s8wd67d3D2cl7ipnG5E/JAYRL/Iw6F3aPlf4MRfFNmzbFZ4h+JMKwAV6QMVOmTGYN4q5bt25mzvLkk0/q6SOPPKKbbtp1DNChFDp3wrahbgK6mnbWt8i9pE2bFvsmjbXaRES+lUTiE/QtMHbsWHOY8g9oL48rP1m/vyUexMq6mbOT969mGpO/JQeOuiZLluwU+qdISM15d0MLATRxjIqKwtgCz1ir6hOr8X3yR0h8Zf082YSTiChB0koMSpUq1R5c4c2aNUsXl3rLtm3bFIYkRoUuWY/5Ep4e59/ZyXuamcbkz8mBLUri6fDw8FXobAhdJDt2Ze1paOKHDpTQRbKsB5K6xyUiJfzB088995xZU//w9NNPYz/xNgIRBRTceugmMTNLlizncufOrStdzZgxQ/e+Zw/6Ex+oSLh48WJd6apjx44KnTRFRkZukvdAUX5+CW+eSJydvJ1VBguE5CCm9BJ1JGamTZv2MPY3KtlNnz5d/fXXXy6VMmDsjRUrVuhmfBgfA6+ZJk0a7IMZEtUk0kn4q2hJfs2W+FZ0dDS6+/bVKJRERG6XTaKgBE46n0ssjkNMlXhVoqhEPolUEr7m7OSNk1xsAjE5cCajRAGJ+yU+lEBJTWyfm2PMk+grUVYC/5tBIlBt8tVtBnMbYZ21GkRE5G+cnbxnmmlMwZQc0P/+91zMioeehkGq5H2ftN6eiIj8kbOT929mGhOTg+CTzh7oy9PQ9FHeL7X1tkRE5K+cnbydJQFMDoLXKk+NQYIRK+X1/7TehoiI/J2zk/dsM42JyUFw6+pqp0nOdOrUibcRiIgCjLOT91wzjYnJQfBL667bDOY2QgrrZYmIgheaqGWXGCAxUWJudHT0djmYnkXfBHeJK2nTpj0SERGxWv4HXROPl2gjgWZ2vmwDH4rJAYZExn5HyxH0VDgtKipqk3xGJyWuO3xmMQN/OyHP3Sj/g06i8L89JPBanhpm2ZdW/fPPP+Y0Hz/Lly9HUrDcehkiouCCpoYfSyxFu/C33npL/fjjj2rTpk3mEJgw6Jt+0aJF6quvvlI1a9ZUqVOnPiLvhYSjroS32n47O3mjyV5sAi05wGeIMSh+k8/w6jPPPKMHBcK99Zs3b5pPwnXXr1/XfSXgNR9//HEl74GBsNAM9Hnz3oGuS3xvM5ixEXgbgYiCBgZkei48PHx9y5Yt1eTJk83hzrsw4t1nn32mMmfOjIMsShjQJ4KnODt5LzDTmAIhOagnMbtChQq6O2ycwL0NvWqOHj1alS5dGp8hkoWaWLEAlSV79uxmy+4OYzjI81GSQkQU8B4OCws74K8DMM2ZM0eVLFkSB12M4JeQ4Zlj4+zkvdBMY/LX5AAdUi189NFH1b59+8ye8x/bt2/XAxLJOqKiZ16scAD6E6UksTGtEdBJFBFRwOuNUQ537txpDnH+b+DAgTgI75FAD43u4OzkvchMY/K35KBJ4sSJdTfGgWLixIkK6yzrXtvahIDyOG7NOHrsscewLag/Q0QU0B4qUqSIOn/+vDm8BZ4RI0bggLzG2px7+lriKWv2Ds5O3kvMNCZ/SQ5ySyhXK8z5A4zNINtwXiIzNiiAZMAtL0iXLh22gUMsE1HA++f333/XB7ZgUKdOHRyca1ibdocPJPB3hDNLzTQmf04ORgwbNszsgcCH21myTf2tTQsod/teEREFhmTJkl0zx+OggopvsnlvWluptZCwkwLESYkTJi5KoEa9/bfdErFxljT4Ojn4xx/rFCTUjh078FkE2j17rDMRUeCKiIi4aI7DQemnn37CgbqltbUa+mNYL4HHz+GBeHJ2UvdlcrAEzT+D1alTp/BZ/WxtakBgckBEAW3opUuXzCE4blBJEc23ChQooJIkSRLnMf+rVatm5pybNWuWmbO8/PLLZs4yffp0dfz4cbMUdw0aNIjtYB0lgVKAdnop7paZaUyeTg6c9Q1QPuZ+i82FCxd0h0X43PLnz69LVWznzp3TTRubNm2ql1G501GyZMlUoUKFVJ48edS4cePMo3fXpUsXM+ccmjXOnz/fLN0d+tGQbS1sbbLfY3JARIGrXr165tAbd9u2bVNLliwxS0o1btxYVyD7/vvv1aFDh9TixYt150W22bNn6xNK1apV9Uno2LFj+vGZM2fq6cKFC9Xw4cP1/P33369PArYXXnjBzCn9mngd+//jSzb3fWur7xDfJpDOBsnxRskBtmO4NWuJjIw8ZTbxrlCyMHToULP0H1TgROVFJAurV6/WJ+yUKVPqJoa2nDlzmjmlWxNcu3ZNP/fnn3/Wj6Gew6pVq/Q8PmMs2x0E/fLLL3pqD1yE18ffDx48qMaPH687Boor2dxj1lb7PSYHRBSwkuPEHV84abz55pu62Vnfvn3Vr7/+qurWras71Dlw4MCtE5CctNTevXt10nDjxg2FppG4f7x06VL9d/RPgHvko0aN0su1a9fWPek5spMDvBZ07dpVFzG7Ijw83F0HbGdd38Y3OXDWJPJuskpgOxCj8UDnzp3NFt4dSg6SJ0+u8uXLp0sAsO/xueGzQW+UEyZMUOjgCrJkyaKnNtS8x+eNxA1jC1y8eFF169ZN/w2d+0Dv3r3V5cuX9d8BnzdkzZpVT+3P0u406MEHH9RT3PaJK9M0MBAwOSCigBW9ceNGc9iNO5Qc/PDDD7qUwL6l8NBDD+lp//799ckGWrVqpUaOHKmvMqFKlSo6sbBbRJQqVUqfGM6cOaOXoX379mbOYp9Qypcvr6e4OsX7uiJVqlQ3zXYn1AozjSm+yQHGaPgrnoHExE4OEEtxOyAuUHLgWKIDZcqUMXNKffvtt7eSA7s5ng0neOz3I0eO6OWjR4/eugWE7q0Bny2SjB49eujljz76SE/t5KB79+566nirCJ99XG9TADpykm0OBEwOiChgRX399dfmsBt3W7du1bcKHDVq1EhPkSw8+eST+iSSOnVqfYWJYWn37Nmj8ubNq69eUdyMMRhy5MihTpw4oRMAXMWiS18c/FHcbLOvTnEVipMT6g64WnIg23vI2uwEW2mmMcU3OXDFEAlsC8Z3QJ2J/6EuQFwgOcAJesOGDTpQqvPKK6+odevW6dIeJHzNmzfXz8VtBXx2NvsEb0NyYN8WQj2GkydP6lIIjMmAUgZ8RpgC6iucPn36VsKBsTiQFKB0Aolknz599ONxUblyZSYHRESeFh4efsEcd+MM94xxknfkeELHicG+/ww4MaxZs0YdPnxYLyNRwFWm/T+oYIi/29auXWvm1G31C3CPG/ez7ZKI+EAJiWxuLWurE+wfM43J08lBUgl07hSzjsQUs5l3hRP35s2b1fr163UgOQDM4zPACdsulUHS5rjvd+3aZeYsuIXk2FEW6iw4VmzFsmOJEJbxvbHZ9Q8gPoN1ybaim+xAwOSAiAJajsGDB5tDb/BKnDjxKbO97uCs90VvlBzECrdogh1KlszmBgImB0QU8N6aOnWqOQQHH9ONbSJrU91irZnG5LPkQOR/9dVXzRYHn44dO+IzLGBtakBgckBEQaE3KhMGExSjJ0+e/JpsW7i1iW6zwUxj8mVyAMXtyoHBBBVZZdvyW5sYMJgcEFHQyItmZrivH+hQK1+2Z7q1WW63yUxj8nVyAFFhYWGnUeEw0KEeimzPYYkwvWX+zzEJdUwO3J2cEhH5RJ+GDRveVls9UKC3PVn/sxIF9ZZ4xhYzjckfkgNba/SC6GqzT19CRdU8efKg2Wl9a1MCCr5/9vgd6HnTMUkgIgoKvdEO3pW+ELzpypUr6vXXX8dBGCfhcnrNPWubmcbkT8mBrVXKlCkv2T0Z+jP0d5AkSRIMfvWwteoBqZoEvot2VJAgIgpKD0hsQRt4fymuRrO5Xr16obLhFVm3HnotvWeHmcbkj8mBLZPEhIoVK+qeDu2OqnwJzSG/++47VbZsWZxER0pgQKxgYCcGN/QSEVEIKCbxduLEia+gT/wZM2boK3dPw3ugZz2c3OT990o8gZXxkV1mGpM/JweOUkt0k7jSokULNWTIEK99hgMGDFDNmjXDZ3hZ4lmJ5BLBproEtrGiXiIiCkGZJZ6W+FricpkyZW4+9dRT6p133tED+aCzI7QauFeg974//vhDnzx69uypRwdMmzYt7jujT4F3JGpL+AskJ7EJlOQgpiQSbSUGShzNly/fzUceeUSPlfDll1/qTqnQgVFsn5tj4DmoRPjFF1/o2zzt2rWz6w6gUuHHEhg2O0LCn6HyY0IDrptpbH+PbxARBRX05FdeAieFpyRwtYpbAK9J9JR4UaKrRAeJehL5JALBPjONKVCTg3spIdFUopPEcxLdJV4xgXk8hr81kSguEYi6Y4TSDz/80O+iVq1aKIVAKQsREfkxZyf7YE0Ogl15exApf4VOymQ9cUuPiIj8lLMBnJgcBKa4jxntQ7Ke31qrS0RE/uiImcbE5CAwTTLnX78m68nkgIjIjx0305iYHAQO1IV5RuJdif+Gn/Rjsp5MDoiI/NgJM42JyUHgmCGRTAKtASaa869fk/VkckBEAaewRHOJPhLbo6KiTpYqVepc7dq1VatWrVTnzp1Vjx491Guvvabefvtt3UwOTRZfeOEF9dhjj6mHHnpIPfjggypXrlwn5f8R0yRQQxttxqMl/MlpM40p0JOD7BINJV6W+FviZOHChU9Xr15d903w5JNPqu7duyuM/vjmm2/qwDwew98efvhhhecWKlQI+wef4Z8SaJ2CbpCzSvgTfL9sk835N95Wrlypv7eNGjVSLVu2NI/G7s8//1Tnz583S/En68nkgIj8WgYJNE88JAnA9bZt26o9e/aoY8fcWzqLTnOOHDmiRo4cqRo3bqxSp06N4vwxEjUkfAljN8QmkJID9DfQSGJt7ty5/8WJffny5Xp/uxtec8mSJTp5yJkzJ/bdP+a93TmMdny5JTlImzatmVNqzJgx+jv7+++/qyxZsqihQ4fqx9HvB8a5kG1X6I7cVbKeTA6IyO9Uklj/wAMPqEWLFulOi3xl7969enz/6OhoJAu4ykV/Ct50zkxj8vfkAP1I/FSgQIEr6NzIE4lAXB0+fFhhiPA8efJcknUaL5ETK+hFCU4O8Bvo16+fWfrPN998o6coLQMkBjB+/Hg9dZWs5ygJJFTeCCIip5JKTEZCsGXLFnOI8i/olQ8nmaRJkx6TdfXWKH4XzDQmf00OXi9YsOC1xYsXm73mf9DPQL58+TBOBjrH8ga3lBzcf//9Zk6pzZs36zE/MFZEnTp1dEkJoLdP+PbbbxM0HLqs5wIJlNi18nDYnZYREd0mhcRqdIEcSHbv3q2KFi2Kg6ine5PD1W5s/C05mIATU0JOSN52+vRp1aBBA3yG6I7bk9ySHKAeDerQ4LaJfYuhRIkS+taCvYzhz2HUqFFq4cKFet4Vsp7evK3A5ICIbjMW/eIHsv3796vMmTPjYFrS2iS3wxVubPwlOXgOV66BDKNGVq1aFZ/hk9YmuZ1bkgPAuBK41eUI9W8uX76s5w8ePKinkJDhz2U9mRwQkddFRkdH30AxfbBAhTDZrs+tzXOra2Yakz8kBwdinqgC2erVq/EZbrA2za3clhx4i6wnkwMi8qrkVapUMYeg4IJSBNm+5dZmug1GGoyNT5ODZMmSWZeqQShRokTObuW4isnB3TE5IAp1hQoVMoef4IRa+bKZI62tdQu8Xmx8mRycNZsbtGQb91ub6hZMDu6OyQFRiFtijj1uVaRIEd1JDjo3stt72+7VWYwn9OnTBwfX5NYm36admcaHr5KDVBJFrdnbdHW8r21D/xBdu3bVFeYSJ06sLly4YP7yn+nTp6udO3eapf+gk6q7wev17dtXv3bGjBnNo3c3e/ZsdeLECbPkXLdu3czc7bZv3479jqGj3YHJwd0xOSAKYWHo3c4THA/wmTJlUgsWLFDPPvusmjdvnrIrPKIWd/369fX8mjVrdPMvjF/vKbK9Y63N1nCSwWOv6aX48VVyALh6RqDPAi1VqlQ3zSbeBk3ncFvFVqpUKT1t37693u9odocmhGjlcfLkSVW3bl39GUH69Ol1e32UuuDxl19+WT9ui46ONnP/fdb4XNGTIl4X/9OmTRv9OBIXfLZIJNBDYJMmTfTjqNF/9OhRdeDAAf38Xr16qQkTJuj3tivzxZQiRYqrZrMTyjE5eDEhPRd6w6lTp/Cd81TlzNgwOSAKYdF//PGHOfy4V758+VSLFi10yQGacI0YMeJWx0lo//3000/reVi/fj263NXz48aNi9PVpSuioqJQV+BhCRxo7UBPgZHxjPgmBwclYnsdVyKLhL3uRyXyOUuokBzs27fPLFkn/GnTpqkzZ87oZZTuIGnD/kbrDkCiMHPmTIVeLyF16tR6umzZMp3A2VBagM8XpUDo+Q/sNv+5cuXSUyQJONmnSZNGL2N9cNLPkSOHXsa64L2zZcuml7EugOTFGXS1LdvsDo7JAayfOnWqXj9/i0mTJmGb0aukNzE5IAph0atWrTKHXfeKWSIxfPhwdfHiRT3fvHlzVbJkST0PKO4uVqyY7sxoyJAhHuu5L3ny5LjqHCRhn1wRr0i8Gs/oKhEbZ8nBGYnYXseVeFPCcf27orfD2MRMDooXL64++eQTNWDAAL2vv/rqKzV//nydLKAkAI99+umnujMfjIcBOJHbj2/atEk/BsmSJTNz/+nUqZOe2id/wP+hK2FYt26dLjnInj27XsYtDVwR25Vh7ZYydolDbDp06IBtdoeYyQGkkcBn9Xwsge9ObI87C6xnbI+7EqklvI3JAVEIi/joo4/MYde9MBCPoy+++OJWcoAiZvS4iAM9ukHesWOHKl26tK6bgKtbT5HtXWpttmYnCShJcBdv3FbAYEZY71sHb2f3/JEcPProo6pLly56/+JEjPb3GCho0KBB+m8oJcC4GJgfOHCg7t0PV/NI4H777Td9+wEneCRv165dM6+s96WZ+499Un/uuecUvlfVqlXTtw2wjKQEJQxIBJ944gmFhKZSpUr6lgMSEXw/7KQBJQn2dyUmJB7WVidYbMkBoJQnNvFtLeGu9fQVJgdEIW6bOe4GNQyKI9ua29rk23xqpu7g6eQgo8RL1uxtPoitsmGwwW0p2VaU9LgDk4O7Y3JAFOISYcTDYIbe9mQ70S+9p3mj5CBWyZIlu2E2N2ilTp3aWedTrmBycHdMDojofxWfeeYZcwgOLujaVrbviLWZHuez5ECE2a0RghEquGIbrU11CyYHd8fkgIi0ssHWS6Lpetebtbx9mRxoSZIkuRJMXWCj7oFs00Wzee7E5ODumBwQ0W02ou17oDOD9jxubZLX+Dw5MH5BB0WBDtsg2zLa2iS3Y3Jwp4JmCnZyUMpMiYj+VzwyMvLKnDlzzGE6cOD2iKz/RGszvM5fkgOIltiA/iUCDVouyLqvkojChngIk4M74bYN1ruLxEcS5yU6SBAR3aaAxLrXXntNXblyxRy6/Q96XSxQoAAOahiB0Z33pePLn5IDW0qJ2Y0aNdLNR/0V+lCoVasWPkOctGPr5trdmBzE7hcJrDvC2dDkRERauMQrqVOn3vviiy/qzmx8Dbc+ihYtigPYQgkkMf7AH5MDRw0TJUr0D7qt9lTPmPGB7pNr166Nz/AviVp6Db2HyUHs8Fu3k4PWeICIKK5KSkzPnTv32Xbt2ukT9aFDh8wh373Q2mDt2rXq66+/VgULFsQBa73EexK5JPyNvycHjvJKjMmQIcO+ypUr6y560RmVp2DQpIkTJ6qKFSuio6s98t4YRAjr4CtMDpxD6cFla5aIyHV5JCpITJFYmTdv3tO4qsdJBz3loae9hQsX6ivF5cuXq7/++kutWLFCX70uXbpU3xYYP368HsAH/ydxLXny5LvltdCj4esSGInQl7cL4iqQkoOY0klgP38t8UeWLFmO4LNAz4oYXRPjDqCrZXyGf/75p/4MEZjHY/jblClT9GiOJUqU0J9j5syZD+O1JIaZ1/ZFN8DOMDm4O7ZWICKPw+BGmSRwpVhYAiUPxSVwOwAlALgvHgwCOTm4FyRnSCDQy2QhiRImUMMdj6WVCCRMDmKXOGnSpDcw8JbMN7QeIiKihAjm5CDYMDm4U3NUXLWhtEgem279iYiIXMXkIHAwObjdb7NnzzZpwX/QSsl0QpXYehoREcUXk4PAweTAkiQyMvLq9evXTToQu2bNmmF7mlj/QkRE8cHkIHAwOfjf/1o/8sgj5vR/b6hULP/j7DtORBQvkRKocIjhhrNK5JBAJcScEtkkskigMht69EPFxUAWrMlBEokUEukl8Blml8Dnh8A8HsPf0HkRnhsIQj05+H3JkiXmtB93GLcjUaJE6BwpkfUyRESxQy12dHOL3gm/j4yMPBwVFaVQsQl9E4wcOVJ9//33Cgei9evXq507d6rDhw+rffv2qa1bt+rBkaZPn66++eYb/fw+ffqonDlzKnmN6/J6aAb3jURzCU92pesugZwcYP++LfFNRETEVnyG999/v/rss8/05zJq1Cjd5BR9TqDPgoMHD+rAPB5DV9vffvutfu6QIUNU2bJl8Rmq8PDwzXhNidfMe/iLUE0OwuTzvYL+QxKiadOm2L6HrJckIrKuGLpLzM6SJYvuxwB9FXjSyZMn9cmpS5cuONmckff+QsJfekV0FEjJAQ7s45MkSaLefvttXTM9oSeMu7lx44b65ZdfdJ8J8hnixDJGoj5WxEdCMTlo1qJFC/OJJBw6P5PX/M16aSIKRUgIBiVLlkz1799f3avykjcsXrxYtWnTBgen1RKNsJJ+wN+Tg5ckzr766qv6qt/Xdu/erV566SV8hqclXsAKelGoJQezFyxYYPa8+6A1Q+LEibFvAuV2EhG5QQOJC0gI/Bm6/W3cuDEOxqP0WrvGHT0w+mNygA6K/unevbvZW/4JJQsvvPACPsMVEqiL4mmhkhxEJU2a9Br2ryeZ3x9bMxAFuYaZM2dWGzduND/9wNGrVy8cpOZamxEn90vE98DvjD8lB6gseH7s2LFmzwQO1FORdT8mgcqqnhIKyYFbbyPcC0om5D3nWG9NRMEEV8/nVq5caX7ugevJJ5/Egep9vVWxSyNxVgLPexAPxBNaVqCFBboSri3xqMQiidh4OzmYiwqege6LL77AZ+Ope9rBnhwsmjt3rtmT3oNbjhEREdh23mYgChIV69SpY37iwQEtImS7MIBTTKingL/ZcVzimplHhcdNEvMlxkp8b6bjJSZIfCaBwaA6SdSTQMkDxhfA2BHODojeSg5S5sqVy2x98EiXLh0+FzSTdKdgTQ6ShIWFefw2wr2gtZKsS1NrlYgoUNUZOHCg+VkHn+joaHT/GtMnEjiAIcrjAQ/yRnKQslKlSmaLgw9GesQ2WpvqFsGYHDRv2bKl2WO+hybKsk4YqZWIAlDyTp066R/z6dOnb2uJgD4JYkLfBPGFK3jbli1bFG5bYLhfZ1atWmXmnEOzu+PHj5ule5PtRGlAbFBL3tMHco8nB1mzZjVb6pq9e/eqs2fPmiX/lDp16ptmc90h2JKDGTNnzjR76j/og8IW8/d9L9u2bTNz/zl27Jg6dOiQWbo3dJqULFkydJqEztCIKIDsN79jNXr0aHXixAmzpNSDDz5o5v6Dfg3i48cff1QZMmQwS0olTZpU7d+/XweuBnHAsp07d04VKFBA/+2xxx5T48aNM3+5Xfv27XVygOaMcfXbb7/hYF3U2uRYebJ3RnclB0kl3rFmbzMiIX0UpE2bVq1bt06NGTNGPfroo+bR26HJoa+h2Zxs6xvWJidYsCQHycUdtxGwnD17dp2Yd+3aVU2aNEmhcur58+fNM+6taNGiZs5SsGBB/TtCh2bo4yQ29erVM3O3Q4mGrOvD1ioTkb9LPGjQIPPzVfrggQ6HbDVq1NDJQs2aNVXJkiXV5cuXVeHChfXfUAu6evXq6vHHH9fLefLkUXXr1r31d1uaNGnUsmXLbpVCyIFMT+HTTz9Vu3btMktKlSpVysxZ7PvneBzr8uKLL6qJEyfqZANJxeDBg/VVDIrTcSDD+rVu3Vq1atVKFSpUSP3777/6/22yvX9bm+117iw5QAU9bAs6otISUmowf/583UulDb1XItHAiaBq1aqqW7duasSIEcp+j9y5c+vvAz4HwOeOZfuWRv78+fUyOq1C74nVqlXTn/PLL7+s/+44JLArihQp4q6TbjAkB5Intzd75nYNGzY0cxb8zpAgYAAlfFZoWYDfS/HixfUyfkdIHJCwo3dL/K106dLqwoUL+jM8cOCAmjFjhnk1pf744w+dnNtJwrRp03RJXsqUKdVbb72lH4sJPWzKOjvb70TkR6Idix2///57derUKbOk9MkfJw+clFHsjCJJHDzggw8+0FN0sYsDDQ4ekCpVKj2Fa9eu3TpQFCtWTE9xNYPEAh0qxbxtkTdvXjNnadKkiZ6+8cYbeopOjwAHRLz2V199pa96bTjI1a9fX8+jFGL8+PF63iaJiTuLpePjnAR6A3RHNJTAQdaON9Blsas+//xzdfToUbNksa9CcfsnceLEer5Hjx76BIATDHrGQ9fIWMZ+BiSPP//8862EDN8LFEHbvWeiRAgS2rSuQ4cO7jrpBnpysODPP/80e+VO9u/N0YQJE27disPngBY9ixYt0r9xJOBt27bVfwMcB5AcpE+fXi9PmTLlttsMSB7efffdWwk8EgckGDhm3A1uM0iieVXW35PNVIkogaIdB1/BvONVJE7CKJZEUoB+84cNG6ZPAoATM1SoUEEXNdr3IVGz3IaiaBRVo906nge4srDJ+5s5C/prdxQZGamnGG8B7OQAI8khORg+fPhtyUHFihXVQw89pOdRAvLDDz/oeRtez9psr8OgRBhcyh2BbqP1vpPYIpEZXRK7Cr0U4vOxlS9fXicLzz77rNqzZ8+tzwBX/igtwPNx4sBnjttQFy9e1H/HiQSJg11vAZ83Xsc+geH2Erpodkw+XYHbTbLN7hDoyUHjhx9+2OyVO6FE0DHpy5cv322fD4r58ftGycCZM2d06Z792wGMlYHSN/zmUeqApA89a9ref/99nRiiJAmQPKDUCaUMd/PTTz9hv0y0NoGI/FXYU089ZX62FlxxoKjQvtLDDx5FubiywJUgrvwBRcWA4md72qBBA10iYEO//TYkDxgbQd7TPGIVTfbu3dssWVCkiXVACQUOXJAtWzZd/8E+CaZIkUKf/NFz46ZNm3TCgv/BVYldTwJXSDh5OZL3Hq63OrCdlEBSgJEQtejo6CtmE12Cngmxv7EPf//9d30Cx+eMXu/s5Mu+HYSTzAMPPKBPDoDbCmgCa5co4XtQuXJlfVJB5VXH5FNW1cy5TpKV+J6knQmG2woR8hu7aP9OYkKyjNttuNWH5yDBRyIAuE2Hx/C3cuXK6VKiS5cu6e8AHkPybZcKyPvoKf4fSWCZMmVu1T3CRQLep3nz5jqZxG8Uv/PY1KpVC69VV685Efm9aQkdcAcn4tmzZ+t5O1lwJ2f3MOPDdM0b6B2zoAQCfSrE1NyVViQJhVImVGQEnGDuBkmmnVC4Cq1YZFtxa8UdgiE5sE3GLR5/hdKlRIkSxdacmIj8WcaMGc3P2HW44kS7Zk9AUXZCoGKcbOab1tYGrT1mc71q4cKFKrYmdDHZyWNCyDZutzbVLYIpOYDGMSsh+gPUQ5F1+8laRSIKNNE5c+Y0P+fgsnnzZhycJlmbGdzCw8Mvmc0OKqggKVeeR81mukuwJQcQKa7iloA/wO0mWSfeRiAKcOGJEye+4uz+ZSBCbWrZrtj6BQhmi9BkLFiY5m/OxqxIiGBMDmzTUGHUV5CcJEmSBC0SPNl3CBF52QDHJk2BCKNJysHpsmxLdmuTQs7DqDSGToMCFZJUVIKVbaljbZLbBXNyAI0S2qeEK3755RdsN28jEAWxWWjJEJ/uVn1txYoVaNlwXda9mbUJIe8DFO0mtPmgN6EVCjpfknV/19oEjwn25ACSRERESI7onSSxdu3a2OYa1lsTUbB7H83XPFXZMKFQhIle/GQ90Qthdb3GFNMzYWFhV9H001/169cPnyGKojvqNfa8UEgObNPQD4GnIPlIlCgRxk8gohCEdvWfoce0119/Xfcp4Cto0ta5c2ccfNHm/0WsHMVZL4kb6NTIsatsbzty5IjuWAnrIvEyVszLQik5gLro3tzdfv31V2znZOstiIj+9792Et9jIKVnnnlGX/l5ImFAE0l0n4x76PJ+OEBj4J2cEpRwVSQ+lNBdVaM/iYMHD5o97z7oehufIZra4b0k3peoIOFLoZYcQER4ePjVhPZrYjO3ETxVJ4SIgkQiiaoS70l8JbEW/fKjtzUMxNOxY0c9RkOvXr10d8g4EfXs2VOPGIfBYNBtL3pClP/DQRhjwA+WeFIitwR5T2mJnhJfSiyW0GNeoNfDdu3aqeeff153o4uWIAjM4zF0bY3eKdFjIv5HYqHEFxIoFSgp4W9CMTmwxTq8c1yhU6OIiAhU+A23Xo6IiCg4hHJyAHVd6TRp8uTJ2K6frZcgIiIKLqGeHGhhYWEXMMJiXJixEVjpl4iIghaTg/9MR8VCZ86fP49tuWA9lYiIKHgxObhdI4zCGZO5jfCL9RQiIqLg9quZxhSqyQGER0RE3GpyVL9+fWwDWyMQEVGclZJAN7monBaI4exkH8rJgW1GsmTJTsuUYyMQEVG8tJEIxpMHkwPLY2ZKREQUZ60lMlqzQYXJgeUpMyUiIoozJgd3x+SAiIhCDpODu2NyQEREIYfJwd0xOSAiopDD5ODumBwQEVHIwJDPaSWaSKSUSC3xukSwCOXkoIFEEWv2f49LJJH4Wi8RERHdA058xyQ2m/nEEsEi1EsOsN6nJOzPlqOiEhFRnPwggRMHYjQeCCKhnhy0lbA/2314gIiIKK7sE0iwdYTEOgf/fbY59RIREVEcoQviYLwfzeTgf//rILHfmiUiIrpdOokaEl0lPpAYIjFcYqTEdxLjzTwew9/6SnSRwJj/qLToD/pLYD0nxCG+l7guEZtASA5aSHwrgVs9CQl8nrNiPOZqvCdBREQBqJrEmxInsmTJop5++mn1zjvvqJ9//lndvHnTjNEXdzdu3FA//PCDfo0nn3xSZcqUCSfKw+Y9HpTwpjNmmlD+nhyc2bNnj/kE/Mv999+PfZHJWk0iIvJXuMJcmidPHvXaa6+pc+fOmcO45+G9XnnlFZUjRw6cMBZKPIwV8iCMLugO/pwcjLty5YrZw/4pTZo0N8y6EhGRH0Et9CPPPfecOn78uDlk+96RI0cU1knW7YAERnp0t6BPDipUqBD/4h0v+/vvv7E/cllrTEREvjakTp06+iTs7w4dOqSqV6+Ok8hAa9XdIuiTg6pVq5o96L82bNiA/eHtW0pERBTDwJYtW+r7/4Hm2rVrqkGDBjiZ9LM2JUGYHPgBkxxUstaYiIi8LV+uXLmUv9+DjotLly4pVJCUbcphbZpLPJ0crJHAOsYWXsHkgIiI7uaxDz/80ByOg8dLL72EE0t7axPjzdPJwe9m6jNMDoiIyJmWY8eONYfi4PPpp5/i5NLc2tR48XRy8IeZ+gyTAyIiitUTTzxhDsO3a9KkiapRo4bq1KmTLqaPi/79+5u5u7tw4YKZU+rkyZNq5cqVZskzWrRogRNMMmuL4yykk4MPPvhAf/61atVSq1evNo96xtWrV83cnZgcEBF5n9OzcsOGDc2cUtHR0bcO4PaJfevWrXpqO3DggE4o4ODBg3p6+PBhPQX7+SilmDFjhp6H/fv3q6lTp+okAezmkrt379ZTwHueOnXKLFkJBdivf/78eT29G9nWedYmx1lIJweOf6tfv/6tCqqbN2/W09OnT+sp4LO3P4Njx47p6a5du/QUUFHUrstif75oYQJvvPGGTgCcYXJARORlFSpUMIfgOzVq1MjMKZUqVSp9cm/cuLHatGmTypw5s/rzzz9VsmTJ9N8xXbp0KTqs0ct169bV06ZNm+ppunTp9PNTpEihJk6cqMOG5ODXX39VQ4YMUd27d1dvv/22fu85c+aoESNGqH79+qlJkyapzz//XP/f6NGj1TfffKN7Y+zcubPuUXHUqFG6V8U1a9aYV70T1sVsdlwxOTDszzN9+vTqr7/+wn7Uy88++6yelihRQk2bNk1/Jqi7Uq9ePfXbb7+pwYMHq0WLFqmPPvpIffnllzoJxOfUo0cPNXz4cN2TZq9evdSyZcv068SGyQERkXeF//jjj+YQfKeoqChVvHhx1aFDB33Vh5OCfdXYp08fPV27dq0++I8fP14vd+zYUU/tUgc0iYT3339fTwFJxLZt28zSf8kBkgB7ee7cuXoeiQKMHDlSVatWTb377rs6wbChi+XkyZOrmjVr6iJwx9KOmLAdZrvjKqSTg9q1a6uSJUuqcuXKqfXr1+vHdu7cqfd5hgwZ9HK2bNn0d2P69Olq3Lhx6uLFi7rEB98JeOqpp/TnZn8+9913363PFF599VWdJOD/nGFyQETkZfaVfWzsq0UbeqrbuHGjnscJA3Bf+uzZs6pdu3Z6uWLFinpq/71w4cJ62qpVKz3FyQH3r48ePaqXwU4O7NYS+/bt06UGgNfHVSlgrAZ0n1ylShW9jPfFlWq+fPn0MnzyySdm7k5t27ZlchDD3ZIDnNQdXb9+XXeZDWjyCkgusV8Bt4twksfthAULFujHUJ8FHWnZUGqA2wg2vN6wYcPMUuyYHBAReVl4ePh/N4ZjaN26tZmzoMjerjeAAzauHmfOnKmXccsAYx488sgjehkn+6JFi6revXvr5eXLl+si6e3bt+u6C5GRkfpxQP2E2bNn69sK9rJ95fnxxx+rHTt26P/Fe+G2A5QtW1aNGTNGPf/883oZJyBUOrwb2dwt1lbHWUgnBw8//LCZ+w+SMdxaQsVTuw5C+fLl9RS3CFBxde/ever333/Xj9mfF75LKD2Avn376imgROnEiRO69McZJgdERN6XEffyA8nLL7+sPvvsM13sHdexHt58802cYDJYmxxnIZ0cxEWzZs10SY8nMTkgIvKNwatWrTKH4uCzYsUKnFzeszY1Xpgc+AEmB0REvjNm1qxZ5nAcPKZMmYITi6uDMTE58ANMDoiIfKsp2rMHC2yLbFMTa9NcwuTADzA5ICLyDyvQJj1QoU29bMMya1MShMmBH2ByQETkPzJKrEUHNYECbeZlnf+SSIcNcAMmB36AyQERkX8aiB4Rv/vuO3O49h/oHClTpkw4efS3VtWtgj45ePDBB82e9F/oaEtWtYi1xkRE5G8iJT5JlCjRJXReY/dF4E3z58/XwzDLOlyUdUFFw0RYMQ8J+uRA/Gl2rd9CJ1dmXYmIKACklBgqsSxJkiS6/4GvvvpKj7AYl4GQnDl37pzuqhmv9eKLLyq8trzHEvNeySW8JRSSg/+hVMhfIRGUVSxprSkREQWqKAl0NtRIYpTEWInxYWFhf8pJfm9UVNSJ6OjoywjMy2N75G84SY4zz/1Wop4E6jygpMKXQiI5ML5KmjTpueTJk9/0l5B1miwRrdeOiIjIT4RScuBOj5gpERFR0GFy4JqnzJSIiCjoMDlwDZMDIiIKWkwOXMPkgIiIghaTA9cwOSAiotvkkigm8ajEDAl0Y/xPdHT0ruzZsx/Lly/f6SJFilxA5M2b93S2bNmOJUuWbCeeI/G7xHSJNhJ4jZwSvsTkwDVMDoiIQlhxiQlRUVFbChQooN566y01Z84ctWPHDnXx4kXTUj3+Lly4oLZv365mz56tevfurfDaiRMn3izvheaO3uwpj8mBa5gcEBGFEJQK/ChX+zf69OmjVq9ebU7n3vPPP//oJETW4Zqsyw8SObBiHsLkwDVMDoiIglwqiR8LFy6sr+T9zW+//aYKFSqEXvSQKKDHRndicuAaJgdEREEqT6JEifZ8/fXX5jTs/4YOHYokYZtEbr0FCcfkwDVMDoiIgkyExNYZM2aYU27gmTBhApKETRLh2KAEYHLgGiYHRERBpHOnTp3MKTbwYVtkmxJyomJy4BomB0REQeLXNWvWmNNq8FiyZAkShO+tTYw3JgeuYXJARBQEvtm9e7c5nQafDRs2IEHAcM/xxeTANUwOiIgCXI6xY8ea0+jtWrRogZOqjp49e5pH7w79G3z++edmyblff/3VzFmioqLMnFLly5c3c+7zySefYDucVVRMZKYxMTlwDZMDIqJAFhERccCcP+/QqFEjM6cUWi38+++/atKkSap///76scmTJ6ulS5fqeRg+fLg6ceKEGjZsmJo6dap+7Pr16+rvv//W8xMnTtR9I2zatEnlzJlTHTlyRD8OadOmVa+++qqer1Spkp7CO++8ow4fPqznf/rpJzVy5EidgOB9HftZePvtt82cc7K5+6ytvqWnBPpLcIbJgWuYHBARBbI2bdqYU+edGjdubOb+u5pPlSqVunnzpmrdurU6cOCAWrt2rU4Gmjdvrs6cOaNGjBihT+Dt2rXTz79y5Yr68ssv1VNPPaVOnjypvv32W/1/NWrU0H+3oRdEvObZs2dvJQcFCxbU01q1aumprK5ONjBFotKqVSv9eI4cOfQUr3njxg09H5tHHnkE/wuvSOjXkSiLB5w4ZaYJxeSAiIgCRjia/Tnz8MMP65ICBBICqFq1qp6WKlVKTyF9+vSqXLlyev7q1as6WbCTg2vXrulkwfG2AcRMDvLmzaun0dHRqm7dunoer5M/f/5bSQI6O4ISJUro6bvvvquneLxt27aqQ4cO6tixY/qx2ODvss3ohtlODBDjJSY6iZ8k3IHJARERBY4yZcqYU+edHG8r2CpXrqynKFXAVf7WrVvVwIEDFUogzp8/r6ZMmaJLDx599FH9PHRMhOQAJ28kCqhrgHETKlasqP9uy5Mnj57u3LlTn7QByQnky5dPT+3koFixYnqKWw6QIUMGPW3YsKG6fPmyno9N/fr18dqAnhQ3SmD5BTzgYUwOiIgooPxXaSCG0aNHm7n/oF6BDX+fP3++WVLqiy++UFu2bFHLly/Xy7169dL1A5YtW6aX8b/232LWGRgwYICZU2rIkCF6ilsWeBytDZBYoFIhDB48WE/nzZunp9ClSxd17tw5sxQ72dYp1ibfgiRhi0SYXvIcJgdERBRQwu5W7yBY4HaIbGtCe0x0FZMDIiIKOHXtFgjB6M0330RiUN3aVJ9gckBERAGp6fPPP29Op8HDVEKsY22iz4RactDGTImIKAikSZEixdW71fgPFIcOHVLJkyfHSdndwzi7ItSSA7QI2e2hOCDRUIKIiLzsVTQ1vFcFP390+vRp3axStuEla1P8QqglB56URaK+NUtERL7wZvHixXWPhv4OLRqKFCmCpAC9HvobJgfuk02CyQERkR+oILGjWrVqas+ePeZ07HsYLArrJOu2VeJ+rKifYnLgPkwOiIj8EBKF6Tly5DiLjo0OHjx4146H3AX9JeC9MBhU1qxZMebBLxL+nBA4YnLgPkwOiIgCAMYmeEZiS+bMmU/UqVNHPffcc+q7777TAyZhICaMqYBulZ3B3/A8BCoSfvPNN6pr1656TIWMGTOekNdeL4HmcaUlAhGTA/dhckBEFMCSSjwo0USivcTLEv0kBksMl/hK4lOJDyXwt3YSD0lUkoiUCCZMDtyHyQEREQUFJgfuw+SAiIiCApMD92FyQEREQYHJgfswOSAioqDA5MB9mBwQEVFQYHLgPkwOiIiCDFowAAbmGS8xVGJkCARaZcSGyUH8MTkgIgoyzSX+lOgogYM85qtJhComB/HH5ICIKAihu2M7LuCBEMbkIP6YHBARBaG6EnZygA6PQhmTg/hjckBEFKSQGJyzZkMak4P4Y3JARBSkHpAoYc2GNCYH8cfkgIgogKSUwIiNj0jMltiVOXPmvSVLlrxRpUoV9dBDD6l27dqpxx57TD355JM6MI/H8Dc8p0SJEjcyZcq0B/8rMUMC4y2Ul0guESySmCk4JgfhZkqxS22mjslBZjMlIiI/gURgUbp06Q498MADasaMGWrLli3q2rVrZqzFhMNojXjNX375ReE9UqdOfUDec65570CG2yrdJBZJtDXLdHfVJbZLoMQJ+2yHBEsQiIh8LIPEF5kzZz71zjvvqK1bt5pTuPchYXjppZdU+vTpMZwzRnlMgxUMIEUk7EqZCFTSpHtDPRV7n13FA0RE5BtPZcmS5exPP/1kTs3+Z8yYMSpjxoynZV3Rf0KgwPriJHddL1FcVJSwkwOUJBARkZcNefDBB9WRI0fMKdj/7du3T91///04cXxgbYJfKy6Bda2jlyiu0DfGRWuWiIi8pXXZsmXVpUuXzCk38Fy4cEEVL14cJ96m1ib5nQiJSAlUvEQFRSzT3aHCJvYZkqlGZp6VOImIvGDT+vXrzSk28C1YsAAJwu/WpnkFTvI5JVpLTA0LC5ueIkWKU7ly5VKlS5dWjRs3Vm+99ZYaMmSI+u6773RFy9GjR+tl1ONo2rSpKlOmjMqTJ49KmTLlv/L/M/E6Eo9K5JJwbOkQ6HBizyRRTmKAxNREiRLNlO0+njVrVlWsWDFVoUIF1b59e9WnTx81ePBg9c033yjc3po4caKex2Pvvfeefg6ei//JkiUL9t0xea3f8JoSH5v3wHslkiAioriSg+kZc04NKjdu3ECCcMraSrdLJTE8ceLEWzJkyKDrPsydO9e8s3stXLhQjRs3Tp/8oqKiUOIwRsJu3ufv0MwV42r8IMnSeSRLo0aNUpMnT1anTp0yW+g5J0+eVJMmTdKJWM6cORXWAesigZIlrBsREcUicCoWuEi2cYu1qQmGvhf+btiwoW6+6UtIRFq3bq3CwsLWyTp11mvnHzD65mcRERFbq1evrr7//nt1/vx5s9b+499//1Vjx45V1apVU+Hh4fh+YPRMe+RQIqKQ9siOHTvM4dK9pk+frsqXL6+L019//XX9WMuWLfXU29auXZuQyn8ZJRZ16tRJHTp0yLyif8EVeLdu3bCNyyXyYKW9DFfgozNmzKiL/APVyJEjVaZMmbAfR0ukwIYREYWcFClSuK/XohhQfGzDFRp89tln6v3339cJQ/PmzXV/CQcPHlRNmjRRw4YN08/xlKioqEtms+OqsMRFFOcHEhShR0ZGXpN1x712T+uaPHnyW59vMMFtCGybbOOz1qYSEYUIVJDzFPRwWLFiRdzj1ZXvAMXgtty5c982xXPQHNFT0F2z2ey42BToJzzc9pDtQHfUnqjV/yI+W7QMCXanT5/WJWCyzS9Zm05EFNzChg8fbg6B7te/f38zp1SHDh301E4OcuTIoaeQPn163ePhG2+8ofbv328edT+sg9nuu6mA/h2CSf369bHd9azNS7CC6dKlU5cvXzavHjpOnDih0qZNi32Z29oVRERBCrXfPaVz587qtdde003RkABAixYtdJO9WbNmqcWLF6vt27erfPnyqSlTpuia5Cht8JT8+fPfKzloNWDAAPPs4DJhwgRs+1PWZrqs58CBA80rhq4333wT+xJjYxARBa0hV65cMYc9z7h+/bqZs5oWYvncuXO6BrudDFy8eFFPPQVXurKt71qbHKvcSGKC2Zdffol94OqgVR+iOSVZsC9kn/Sydg0RURBKkyaNOeQFL1MD3Sn5+03zVLf57bffVK1atVSzZs1UyZIldXt724EDB5QvOpxCKY3Z5PjIhcQiNqjH8fDDD+ttTJYsmXnU/ZBM/v7772ZJqXnz5mE7zJJSHTt2vNUixtHq1av17YAePXqYR+4OPYOic6W46Nu3L9Yhnd5DRERBKKpq1armkBd80DuhbOPdehcss2HDBvNs98GtE8dmomgKifv/qNy2Zs0a9ddff6mzZ8+qAgUKqO7du+vnjBgxQmXOnFmtW7dOL7sbbuPI9la2NjvOnLbfxDbZ/vzzT7Vx40Y1bdo03VlTz549dYVF9AAJTz31lN4f6PcACSn2OZo+2vv+iSee0N1eozQJ+w7/h9tRSAzQX4JjEotmsnj+zZtWTof1wC0sqFu3rrLrjaCyKwK3iz788EN968ruGvy+++7TzwWUZuG20+eff65QD2fbtm0qW7ZsumXN3URERBw0+4iIKChFpk6d2hzygods002zfXdjnZndbM6cOfr+9BdffIEufdXhw4f1lTvs3LlTJwh2c88VK1aoo0eP6udClSpV9NQTZHvHW5sdNzgJO/P000/rK22ULERGRurH0PshoFQB7NYo6N4Y2223AsHVPtSoUUN99dVXt1o+FC5cWC1atEgPzQ1Ino4fP66TKRtaYuzatUs3jd27d68uiUFygPWxIaFAF9p4XXRPbd/CQr0JjB9iQ0VVdIQEGGgMXVsjicD/Ob5nbJCEmN1ERBTUlniyBYO3YBtkW6Zbm3RPL5p/cytc/eIE5qhEiRJ6iivoTZs23aqoiboYuOrGiWnlypX6JOopsr3xSg5iK663OZYc2JAEoNJpmzZt9DISB7RCQQVUdEaFAJQsAK7e8R54HNuOk/3s2bP1FIoUKaKbuCJhsCE5OHbsmC6hQIkEoLULSgNQEoHXQbKFUgxMe/furZ+D/dyvXz89FoOtXLly+raPbejQoXr69ddf68TGsc5MTJUqVWJyQEQhI3OiRIn2owVBoMGgPLL+OyXicy+4Pu5LuxtOYCiedlSwYEE9RfH+smXLdBNODCZUqFAhXUSO+/YzZ87UJQ2egO2U7cVATnEm3wWn7RYx6JFdtG9DCRSK/dHszyYvo6eoA7Bq1So9/+KLVk6GUhKc6HGiRYdTSDiwD/bs2aP/joGocEWPUhjbr7/+qhOsjz/+WHXp0kU/hlsz2KdIFj744AN9iwClNyjJcEwO0LcH3ge3GfBc3A4ZP368bnqLzrnQ+RFus+HzQ18Od0sOUqRIccbaS0REoSObxCocrFEk7q/Qw2Lbtm1xAkLXwVmw4vGFq113QzF2zBPLmTPW+FZ4/No1q3PKmB0JeSJRsaGCpGxumLXVcVZlyZIl5hVuh/oAsbHv69stYVBpEbDN9j6xtxv1Lmz2Y9h3OJEDOiECxwqdeF3777HtR/tvgMTDcQhyu2WM43PAvu1gP9f+rJxBhVPZN2WtXUREFJo6Jk+efDcSBXR57GubN29W7dq1Q5fIO2Td2lqrmCAP4Wo1mC1duhQnM1f7Opjq6giKqNh3t6vvQIRkWfYJhtQmIiKjvMSsAgUKnEYTNpx0UGHMU3DPGPebUeSbL18+DL88w6yDuw1EsXQwQv0G2b7vrM102WR81qEOtyqwL6xdQkREzqA7WTSP+1ViW8GCBc9XrlxZ1axZU9cmR018tOnH1T5KHXC/HYH78aiRjr8tX75c13pHrXH8ryQe5+S1tkpMMq+dQ8IbXrlbBbxAhGZ8sl2DrM1LsI61a9c2rxx6UBdB9kFza1cQEVFCREvklcD92QckapjAPB7DEMN4jr/InjZt2mv+XM8iLnCvHmNYyPYUsDbLrebEtWOhYPDcc89hP861Np2IiELZ06VKldI15QMJ6gagqZ6sf3drMzwmQuJHlCSg0l+wwTbVqVMH+3GChCdGtiQiogDWKm3atOft9u/+Cn0kZMmS5aKs72PWansVitqPP/roowGXTDlCy5dHHnkECcFhiYexYURERHeTQmJI9uzZr6AdvacHi7oXNLn79NNP0XfCNVmvkRIZsJJ+ACfV38uWLXsdPRM6NlX0N7j18vbbb6syZcpcl3VeZNadiIjIZZ0lVpUoUeImhqdGz3x2m3t3w+ui8ibeBx3zyPtuMu8fCB6XGCxxBp0mdevWTfeGiJEyvQXvhfdE3QE0gcW6SHwq0UmCiIjIY9Bp1IsSn0hcTJEixY1GjRrpngARGMQH3QKjl8Ddu3frTnbQRTDGWJg7d67u1td+LrofTpUqFcaFuCzxhXndfBLBAqUcL0hgu1ZIXME4GPXq1bu1DxAYawLjI6BXRXQpjQ6i0GwWvSPisfnz5+vnOP4PXiNNmjT2vkPHWHiP5yXSSxAREfmdtBJZJdD8s6CZYplD/8YusQRO6uj5MpdEfhM5zWP4G55DRERERERERERERERERERERERERERERERERERERERERERERERERERERERERERERERERERERERERERERERERERERERBI7FEGoksErkk8krkk8gtkU0inURSCSIiIiIiIiIKIpklnpZ4VWKpxOXUqVOr+vXrqxdeeEG9+OKLqmfPnmro0KFqzpw5av369ergwYPq9OnT6syZM+rIkSNq69atavHixWr06NGqd+/e+n8Qbdq0UdmzZ1fymtcltkp8KPGCRCkJIiIiIiIiIvIzDSWGSJysUqWK6tatm1qwYIG6cOGC8parV6+qTZs2qbfeeks1b94chQqXJKZIdJBArQYiIiIiIiIi8pJ6Er/lyJHjxmuvvaa2bdtmLt/9z4kTJ9SQIUNUuXLlUJiwTuIZCRYkEBEREREREblZU4mtdevWVb///ru5LA88u3fvVl26dFGJEyf+V7bndYlIbBwRERERERERxR86LZycN29eNXv2bHPpHTz27NmjGjVqZNdEKI0NJiIiIiIi8qTsEtUkajHcHuUloiTIO1JJzKpVq5bupDDY3bhxQz3//PMoQDgsUQY7gIiIiIiIyF2qSuxF9e1Fixap7du3MzwUn3/+ucqSJQsu7sZLpMDOJ4/omiFDBrVq1SpzWR06zp8/r2rXro3v2BhrVxARERERESVMH3S4dv36dXPZQd7w22+/oX36Rdn/GPOf3CeRxOyOHTuaPR26hg8fjsKDAxJ5sWOIiIiIiIhcUVji2Lp168ylBnlT165dcWH3s/4kyF1m9ejRw+zh+Dt58qTueDA2hw4dCrgmD9OnT1eJEiU6Lvslo7V7iIiIiIiI4qeYxMnNmzebywzyJtMeHWP0301aCfSa/4YE7qaTcy9Xr17d7F3X9OnTB5+JeuCBB9TFixfNo5aaNWuqZs2amaXA8cYbb2Cblus9REREREREFE8sOPAhJwUHKCh4XmKlhL6IlfhGgu4O1fHPL1682Oxd1+Aiu0yZMmrkyJEqIiJC/fnnn+YvSqEPkFatWun5CxcuqG7duukCBozWkDt3blWxYkW1cuVK/feJEyeqSpUqqSeffFKVLl1aZc6cWXXu3FkNGTJENWjQQGXPnl0VKFBAOa7vxx9/rMqWLatfq2TJkgrNLf7991/zV9ddu3ZN5c+f/6bsn9Z6TxEREREREcWD2woOcHGCatyYOkJP74cPH1ZXrlwxj1jw+NGjR+94PCY87/jx4+ry5cvmkbi5efOm/j90FOevTMHBDAkUFKyQsAsKHGO+REGJohL4vBh3RgGJRilSpLi5du1as3dd07t3b1xk6/l9+/aptGnTqr59++rlevXq3So4OH36tP7+Ar6bBw4cUO3bt9e1EmDmzJkKnTPu379fL+N7WLhwYTV27Fi9DF988YUeRhHwunj9gwcPqh07dqi9e/fqggQUSpw4cUI/x1X4LaCQQvbRqxJERERERETxgosut9U4aNu2rb4D6wh3TeU9VOPGjXUhgO3xxx/XPb/fCwodihUrpn799VfzSNzgogsXarhzi9EM/JFDjYOyEh9InMO+ihEoUMgskZXhNLB/KkdHR99Ys2aN2buusQsOcLENKAirU6eOvqivVq2aeuSRR/Tjo0aN0qNjfPLJJ+qnn37SF/qoXWB/p/F9RU2DY8eO6eUzZ87o7/GECRP0Mnz66aeqSZMmer5p06aqdevWukAChQfoTwHTrVu3qqtXr+rnuMqh4OBlCSIiIiIionhxa8HBxo0bVfHixW9V7547d66qUKGCrm5do0YNXf0bdu7cqS+qli5dqpcxBCSqeeOCrVChQqp8+fJq9uzZ+m+48Lrvvvv0Bdn999+vq3EXKVLkrgUJ+Fu+fPn0HWMMf1i0aFF17tw581elXn75ZZU6dWrVsmVLfTGXLVs2fQFnd3w3dOhQ/R4o7MA0a9as+sIOhRjudJc+DspLDJQ4L4HnoNYB+ze4u+wShzFaRUKgY0XUFLALDmxfffWVLshB4Rig4CBTpky6zwMUjmGK71yVKlX0/06ePFnlyZPnVq0EFAjkyJFDjR49Wi9Dv3799O8C8Btp2LChKlWqlC6cwDyev3DhQv33hECHjzlz5rws698QO4qIiIiIiCg+3FpwAE899ZR66aWX9DyqbqM6NqDNd9WqVXWHc7hgatGihX583rx5ujBg0qRJ6q+//tIxZcoUlSJFCjVr1izdlhw1B37++Wf9fMCFUJo0afT/xIQ7vyh8wJ1dDDGJphAoFMCFv+3VV1/VbcwdjRs3TrcvR7VzXNzlypXrtmYXuHBEYQfWx13i2DkiVJVA+/TEeomc6YyCKw4tervnnnsO37PfrF1EREREREQUP24vOFi/fr2uPYACA1TtPnv2rH4cF/Boz/3OO+/oGgR//PGHfvy7777TyzH7MEBVbbvfhHLlyt2qnQCo9p0+fXpdRdwR7vSiAztUKx88eLAaNGjQrYiKitIFFoCCA9QkcIRaClgPrCfWCbUbHKFtOv7uo4IDiruRqPJPlhEjRuA7tk4ihd47RERERERE8eT2ggPAhbm87m3VsgEdxuFx3AF1hKYBKVOm1LUVcDGNZgR4Ddw5RgeHaLqAwoNHH31U/x1VxGO+NqDXejQ9iK0nelT5xnujGQX6P4iOjtbNH1544QVd0FCiRAndnhzw2qjRgP4a8Hf0go8q5KjN4E4sOPCIMInB+OwuXbpk9nRo6t69O75ff0qw0ICIiIiIiFzmkYIDf/fKK6+oggULmqU74S4tCgo8jQUHHlUzKirqwo8//mj2dujYsmWLbv4j++B1a1cQERERERG5LiQLDtCB3sCBA83SndDPAsbbjzm0pLux4MAreqGTQcemLsEKNWLQOaNs8zSJlHrriYiIiIiIEigkCw78BQsOvOrZyMjIf99+++07RkwIdOgkFJ15yjZ+LRGtt5aIiIiIiMhNWHDgQyw48IlcEt9hyMWPPvpId7QZiDDcI0b5kG1ZJoFRN4iIiIiIiDwit8SuUKjG7Y86deqEC7+R+pMgX0B1/l4S2zCKxjfffKMOHz5sPh3/gZE+pk2bplq1aqXCw8PPyPoOlyggQURERERE5BWdsmbNegMdqpH39O3bF4UGOyXS6U+B/AGq+beRmBQVFXW8QIECui8MNAXwRoECRoGYPXu2GjNmjKpcubJKnjz5DVmXORK9Jfg9ISIiIiIin8Kd108xRCHGwB83bpyaOnUqw82Bi9CyZcuiwGC7RDvsePJ74RIZJSpLDJCYmihRonmpU6c+nS1bNlW8eHFVvXp19fjjj6t3331XDRs2TE2YMEFNmTJFf+YTJ05UI0eOVP369VNdu3ZV9evXV2XKlNF9EqRJk+Z6ZGTkH3hNiW8kHpbIKZFUgoiIiIiIyK/hzisKEzD+u79GcokmEvMkMpnH3Bn26/8r0VUikXkstufGJbA/IyRielkChQkIVEM/KPG3xCiJpyRqSTwggW0k/5dEIpmE/bnjtxQpESZBREREREREXlZbYpaEp3qSx4W7fVF/QqK6hCd0kUC1dPu9HAOFCehAEQUI6SWIiIiIiIiIKI48WXCA2gV7JWJeyO+WKCnhbo9JOL7PaYnfJUpLEBEREREREZELPFlw0EDimoTjxbxj/CWRQ8KdnpPAa6P2QRE8IJ6UOCUxXQJt7YmIiIiIiIgojjxZcDBOAhfxSyUKS6C5APo6sKHZQFmJ1HrJfV6SWCwRs4M89JGAoRtPSrwugT4XiIiIiIiIiOguPFVwUFDiXYkMesnSUuIfCX/oZwDNF1ZK7JeoiQfI61CQk8cEvi91JZ6WeFMCoy98IfGlxCcS70l0k2gqUULC/j/WICEiIiIiIvIwT3eOGBP6HHjfmvUbqAVxWWKiBEdecB+MjFBAAqNezEiWLNnazJkz36xQoYJ66aWX1KhRo9TcuXPVn3/+qTZs2KAOHz6sLl++rJy5fv26OnHihNqyZYv666+/1MKFC9UPP/ygh3CsV6+ewtCOadOm3SnvtUBioEQ5ibQSRERERERElADeLji4X+KmRFG95F9QaPCVBPpDwN1tijs0+0Czk5FJkiTZXaZMGTV48GB9ce8rq1atUmPGjFENGjRQyZMnvyDrhqYyqLEQswkLERERERER3YW3Cw7gawl0jOjPHpBYK7FBoh4eoDugqcC3kZGRF5955hm1fPlyc8nuv3bt2qX69u2rMmfOjL435krUwIYQERERERGRc74oOIiUwJCMGD4xELSTQIeKaMrg2GdDKMIoGONz5cqlvv32W3Xz5k1zSR6YFixYoKpUqYJChBUSlbGBREREREREdDtfFBzAsxLoKDGNXgoMKDTAqAyo9t4HD4QQfE+OoG+C8+fPm8vu4IKCkLRp02IYz1f1FhMREREREZHmq4ID9Ki/XOJFvRR4ykugucU6iWCu7o4+KY4NGjTIXF4Hv3nz5qksWbKgFgKG9SQiIiIiIgp5vio4gKcktksE+pB6z0n8K/GzRHY8EATCJCY2btxYXbx40VxSh5YPP/wQhQcYpSFYPlMiIiIiIiKX+LLgAFZKDLFmAx5qUXwncU6iMx4IUBhdYv8XX3xhLqFDF0ZmSJYs2SXZH+wgk4iIiIiIQpavCw5KSlyXKK2XgkcVCTRlQI2KQGrKkCIiImLj8OHDzaXznWbOnKk+/vhj9f77798RU6dONc9yrz/++EN98803en7t2rXqhx9+UFevXtXLMV26dEkNGzZMbdiwQS9v375dffLJJ3o0BXs98VqHDh3Sf78XvE7atGlR+yDYvqNERERERERx4uuCAxgssdGaDUpoknFKYpwERiXwZ+937NjRXDLHDs0Xqlevrq5du3ZHXL9+3TzLvc6dO6dOnDih51ETAiMh4LHYnDp1Sg+3OGrUKL08fvx4lTt3brVu3bpb64nmF0OGDFGJEiVSY8aM0c+7m88++wwFBxieM4neS0RERERERCHEHwoO0ktskeikl4JXKokvJS5KvIYH/Ey+sLCwaytWrDCXy7Fr1KiRql27tlmKHe7o42L90UcfVRiJoV69eqpEiRKqWbNmqlu3bqpz585oAnDron369OkqR44c6sknn1RvvPGGatWqlb74nzVrlv77O++8owoUKKDnv/rqK5cKDjZt2qSXHU2bNk1lyJBBN0m4l4IFC6Lw4AlrVxEREREREYUOfyg4AAzPuFQihV4Kfg9IbJA4KDFeYqLETz6MHyRmpUyZ8ibuzN9NixYt9EX+gAED1EcffaSjX79+ujPBffv26eeg4AC1EuyOFY8dO6Zy5sypmznY3n77bV2AYEPTg4ULF6qffvpJYRSHdOnS6UIHwOuXLVtWz6PgoGrVqurChQvqn3/+0YUPiLFjx6ozZ86os2fPxrngAIUk4eHhas6cOeaR2N28eVMXXMg+6iVBREREREQUUvyl4AAdC6KjRN7R9Z1MkZGR1+919x1NFWrWrGmWYvf111+rJk2a3Gq6cOTIEZUnTx7166+/6mXo3bu3eu655/Q8XhO1EVDAgAIBQA2F559/Xs/HLDiwaxycP39e/w/i+PHj+v1Onz59R8EB3nvbtm162VGFChX0+8aFKTgI1OFDiYiIiIiIXOYvBQfwmMQBCX9Yl1CURmL56NGjzaVy7J544gmVOnVqVahQodsCF9YoAIDvv/9etWnT5lbBwdGjR1Xx4sVvq3Hw3nvvqe7du+t5NFW47777VJEiRXRNhS5duqgOHTqoHj166L9/+umnurAAUJsBTR+cNVVAwUH+/Pl1DQRAYQWaI+TNm/fWuqIQomLFimrevHn6OfeCWhjp0qU7LvunrN5TREREREREIcSfCg5glcS31iz5wMNZsmS5grv3ZEFniqiVIPvmM2sXERERERERhRZ/KzgoKHFNooJeIl94rnTp0rq/AFK6HwbZJ2MlwvXeISIiIiIiCjH+VnAAH0j8bs2Sj7RLly7dtbVr15rL59CDvhYqVaqEQoMvrF1CREREREQUmvyx4CCrBMbMb6eXyFcySPyNIRVRXT+UfPbZZygwOCXBmi9ERERERBTy/LHgAN6QWCIRKsMz+rNyEnsxNCKGTAxmGA0iWbJk12V7u+otJyIiIiIiIr8tOEglsUfiWb1E/qCAxFwMk/jPP/+YS+3AhxEfHnvsMdQw2CXxEDaUiIiIiIiI/uOvBQeApgonJVLrJfInjSRWYljDn376KeBqIqxZs0Y1aNAAhQXHJJ6XSCpBREREREQU8lA4MFriVYmUeEBUlkDBga2YxESJRyUS4QEfWyQxzpolP1VU4kOJ0zVr1lTDhg1TJ0+eNJfovnfu3Dk1c+ZM1apVK5U6deoLsp4/SlSRICIiIiIioljgzuo/ErjbijgscUDinMNjL0n4iyIS5yVq6iUKBGhm0kria4mTpUuXvt6hQwf16aefqg0bNqiLFy+6tbPFGzduqEuXLqn9+/erMWPGqC5duigUYISFhV2U958h8bQEhvkkIiIiIiKiOEJNgj8l7IICx8BFlr/B8IwLJTiOfuBDR4sdJbpLfCOxXGK/xOU0adJcL1GixI0aNWqoJk2aqNatW6s2bdqoZs2aqTp16qiyZcvezJo1KzouvCqBJgZrJH6S6C3xlERdiQgJIiIiIiIicoNkEqslHAsNXpPwR1kkVkk000tERERERERE5BWREn9L+GtNA0dvSSywZomIiIiIiIjIW9JKoIq3v0Mhx0GJZ/QSEREREREREVEMzSWuSaTTS0RERERERETkdlUlXpGYLYFe59HZnB0YXWGoxBMS2ST80a8SP1izRERERERERJRQKSQGhIeHX0Tv9MuXL1dXrlwxA9nFDsPlDR06VJUuXRp9H6yXaIgX8hP5JfZIVNZLFIgwqgc+x8YSaHrSTQIjI3wrsVhim8RxiQsSKNw6LYHPfIXEjxJ9JF6Q6CyBYR9LSaCzTyIiIiIiIoqHlhJ7nnzySXXmzBlTJOCa+fPnqwIFCqAQYZJEdry4jw2W+FkiiV4if4TCAfSd8aLEliRJkpyvVauWateunRowYIDavXu3+vfff9WFCxfUzZs3zTctfi5duqTOnj2rTpw4ocaNG6c6dOigmjdvrjJkyHBJ3hMFDx9JtJBg0xYiIiIiIiIjtcSQXLlyqenTp5vLK/dBTYTXX38dBQgYdx/9DfgK7lbvlvCnmhChroJEf4mTNWvWVAMHDlQHDhxQ165dM98e3zh9+rSaOHGiQm2bFClSnJf1+0WingQREREREVFIqSSxFXdzjx07Zi6ZPGvq1Kkqd+7cKET4WiI5VsLLPpFYK5FYL5G3obbHqxJHGjVqpObNm6euX79uvh3+bevWrapz584qderUaAYxTCK3BBERERERUdCJkhiQNm1aNX78eHNJ5H3nzp1Tjz/+OAoQdkl4uwYAOnN8yZolL+kUFhZ27JlnnlEHDx4034LAhVo0gwYNQiHCVdm2gRL4XREREREREQW0+yX+QtXrXbt2mcsf//Djjz+qjBkzohABtQG8UQuhgcRliax6iTwFtTqG5MiRQy1cuNB82sEHTSsaNmyI7+8CiczYcCIiIiIiokARIfF2ihQprqNjOX+3f/9+9dBDD+ECbLvEA9gAD0EHfCMkDkug1/1/JN6XaCJRRQK97WNYSXai6LrX0WfGunXrzKcb/NDp4sMPP4zv7wyJSL0XiIiIiIiI/FQ5iTUPPvig2rdvn7msCSxff/21Sp48+Q3ZDtRC8NZFGIagLCBRUaK6RHuJ7yXQqSM6VcQQk+tMbJLYKPGNBIYHLCtRQiKnRCj3n5BDYuenn35qPsnQ8/vvv+O7iwIEFEQRERERERH5jXCJnkmSJLkwePBgl4eq8zdoD2/u4q6UqIwN9UNpJFDggFoSD0k8I/GFBAoWjpop1h8FDuiYcYnEWImnJEpKFJRAR3vJJAJZpejo6BtLliwxn17oQh8eRYsWxfe2p7VriIiIiIiIfCePxLyqVauqtWvXmsuW4PT5559jaLwrsr0vS6CgJNChwKG4xIMSqLXwggR6618mcVoCNR1WSPwpsUpivgRqOPSQQCEFajegn4ZUEr5WLHny5Edxt9329ttvqypVqqhSpUrdiho1aqiRI0cGTcGWbenSpeqVV15Rly9fNo8odfToUVWiRAkUHjxi7SIiIiIiIiLveiYsLOz0e++9p27cuGEuVULDzp07VfXq1XFB9odEEb03QguabqBpRD0JVIfvIjFSAgUMqOFwXgLNKuZJLJZYKDFc4nmJGhLZJVBoES3hDuhLY9S7775rPiELCrNatGhhlv6DAoXMmTPfNrrCmTNn1J49e9ShQ4fu+D6jkAH9X6DZzZUrV8yj/8H/7N27V490ABjeEcOLOg7ziL+dPHnSLFnPOXHihLp69ap5RKkjR47o97BfB/DeZ8+e1fN4TRQG2K+LPg3wfNQumDlzpqpdu7a6cOGC/ptt8uTJKioqCn12ZNJ7ioiIiIiIyMPQfnzi/fffH/S1C+ICF5hDhgxRERERZ2W/PKv3EN0LClpaSuAu+BMSn0mgGQUKHK6ZKQocpkrMkRgn0VUCnUaidgtqN8TscyKzfAbXV65caT4ZS7Vq1VSjRo30PC7AEbjY7tixoypUqJAuBMBoC2nSpFHDhg1TW7duVb/99psqWbKkeumll/T/Pfroowp9dWzZskWtWbNG1axZU9WrV0//bejQofqO/qpVq9TmzZtVt27d9P/iPbp3767fH1AogWYDyZIlu9Xnx0cffaSaNm2q5zFEZJEiRdTs2bPV33//rd8bo3ysXr1a/71x48YqZcqUav78+WrZsmXq+PHjqnTp0qpDhw5qxYoVatq0aXo9HnjggVgLNgoWLIhCLhTuEBEREREReUwziWM9evTQF0F0J1zA4cJN9hN6tOeQeO4VJoFmEWhOgX4ZOku8I4EaDhckLqVKleqOERTq1KmjL+RRKGDH8OHD1V9//WWeYcH/PfbYY6pdu3aqffv2+qLdrqmAmgQoAEiSJImqXLmyvljfvXu3/htqAKD/i8SJE6ty5cqpli1bqj/++EP/7fTp06pChQq6o8KvvvpKvfzyywq/nyeffFJf+OfPn18XIuCiPzIyUtckcPT444/rAgVo3ry5+vbbb/U89O3bVxUrVswsWf788089JOP58+fNIxYUlhQoUADfy14SREREREREboUe/n9Ale65c+eayxC6F7Qxf+6553ChdkKCbcu9I1d4ePiNf/75x3wKFlzwY3jNuylbtqyuVWBD0wH0g2D/31NPPaUGDhyo5wHNG1BQMH36dPXJJ58oNNWx/fvvvyp9+vRqwoQJennEiBG6hgKaEOzYsUMXGKBmAIaJ/OCDD/RzDh8+rGsjOI4CgdfJmjWrQiejgMIJ9MtgW7BggcqSJYtyrGHx4osvKtQEcuzjwMYaB0RERERE5Akvp02b9rYLk/gwHbKpDBkyqHTp0ulp0qRJ9QXTZ599Zp6VcLgTiyrf94KLs9dee03fPfamnj17Yj8ckMCIB+Q5SSTGvP/++2bPW9CMBBfvd4P+BHCB/vTTT6vnn39eTZ06VReUob8Euy+B8ePH67+htkCfPn1u6xsBzQtw0f7EE0+oXr166eYONrw2agegloMNTSFef/11de3aNfOIZcqUKeqFF17Q64HvNPo/ADSHwdCgqFHgCE0SvvjiC12wge8Z1vubb765o6kCXjcqKmqH7B/2cUBERERERG7zC6psJwTaj6ONd0y4WEK1bMcLKVzU4+4rLppQpTvmBRXaeaO3eFxsbdq0SVfZXr58uf7bpEmTbrug+uWXX/T74vnoZR5OnTqlL/jCw8N123a7OjvuLOMuLt73ww8/vO1icMaMGWrMmDH6Ygzt1tG23VW4kEyRIsVN2a/1rd1LHlIqOjr6BPoIIAuaS6BGheybjtYuIiIiIiIiSrjH8uXLF2t15/jAxQo6e8NFN9ppd+7cWbVu3VpXvx4wYIB5ltLVwZs1a2aWrGr+qFaNKuAoQEA1765du5q/KvXzzz+r1KlTq++//14vo4ADd5UBbczfeustPQ+o+v3GG2/oeVRhR8d0GA0BPv74Y1W8ePFbvdUD2q63bdtWz+N1sK728xMKd6xl3+6USK33MnlKFfl+XI/ZZCEUobYEmi7IPulp7RoiIiIiIiL3aJc3b96bjsPBuQI1DlB924Ze5tEzPHqCRw0AwJ14dNqGi390GmfHO++8ozuMQ2/3aEu+fft2/XwbhthDzQTA/w4aNEjPQ//+/XVBBDrKQ9jtwlErAQUH6BkfUKiBjgzRe739vqjRgP8H1Fho0KCBnneHcePG4QJuqwRGBCDPKhkWFnbAsVZLqEETI/S1IPuig7VLiIiIiIiI3Ot79Cgfcyz7+ECthWeffdYs/QcX+fL6at68eXq5S5cuKkeOHLeaD2C4OTQpwDB3gJ7u0VEdxr/HHVS0Icffx44dq//eqlUrXTsBzQ7Qg32nTp1uNXVAO3F0OodCC4x4gPfFsHmAGgAYgg9NHQBj9N93333qkUce0csoUECHdu6wceNG9O9wSd6/BnYuec0n2bJlS1Azk0CDfhHwe5FtXyCBzk2JiIiIiIg8pis6NcQFtyvQzhy9yMcGfQmg8znHYePWr1+vfv31V7Vt2zbziFLnzp3TF9248EeNAawL5qtUqaKbLADGzsdFvw1ND1D4gA7oMFSeI1xUoe8Cx/XCsHp4LObwfGiigHVKKPS3IPsSTRQwlCB5X5TE93nz5r3V50UwOnLkiKpfvz6+a2skCmPDiYiIiIiIvCGxRH+MiICmA76AzgnLly+vR2PAxV/FihV1B4j+DEPpobaF7Lt9EnWxI8kvPClxEp1hHj161HxagQs1glAzJ1OmTPiuDZFgDQMiIiIiIvIpjAiwH0PF2X0U0O3QJ4MZhvJHiTTYaeSXcIH9enh4+OGWLVuqZcuWmU/Q/6GGDYYVTZYs2XXZhm8l8mGDiIiIiIiI/Ak69xtRrFgxtWjRInM5E7rQiSTG9Q8LCzsh+6Wt3kMUaEpKjEuaNOkRNINBR5YxO+T0hePHj6tZs2bp0T5Sp059VdZxtkQziUgJIiIiIiKigPC4xFGMRpDQURgCDUaEMOPj42KuAHYGBQ3UFrlf4geJPzJnznwVQ4S++eabulPPxYsXqwMHDphvgutQc2f58uX6NTFKCIYTzZ49u4qIiNgg7ztPoqVEZgkiIiIiIqKAh4ub6RhaMZg7oEOb8jfeeAMXdhdle1/QW06hJp1EQQkULLST+EJikcQyOxInTrwsMjJSR5IkSZYlSpTo1t9MfC/RRaKyRFEJ/H7CJYiIiIiIiELCU+Hh4WdRCwEjIAQDDOFYuXJl1C7AXeAieiuJiIiIiIiIKEFwV/Y3VL9evXq1uQQPHDdv3lSffPKJioqKuiTb8YYE7wgTEREREREReUjPyMjIy3379tUX5P5sx44dqlq1aqhdsFKiuF57IiIiIiIiIvKKnBILatasqTZs2GAu1f3D8OHDVbp06W7K+r0lwdoFRERERERERD6UWKJXqlSpro0ZM8ZcunsferVv3749aheskngQK0ZERERERERE/qWcxKq6deuqgwcPmkt6zxo/frzKlCkTCgy+lEiGlSAiIiIiIiIi/5ZUol/GjBnVd999Zy7x3efo0aOqQ4cOKCzYIVETb0hEREREREREgamuxLoWLVqobdu2mUt/1/z4448qR44cKDAYJZERL05EREREREREwSFC4mWJw82bN1fTpk1TV65cMUUCsTt06JDq37+/Kl68OAoL5kuw7wIiIiIiIiKiEJFN4jmJzySOSlw2cUXiL4leEg9LEBERERERERERERERERERETlXVqKfRJReIiIiIiIiIiJyUFtilkS0XiIiIiIiIiIicsCCAyIiIiIiIiJyigUHREREREREROQUCw6IiIiIiIiIyCkWHBARERERERGRUyw4ICIiIiIiIiKnWHBARERERERERE6x4ICIiIiIiIiInGLBARERERERERE5xYIDIiIiIiIiInKKBQdERERERERE5BQLDoiIiIiIiIjIKRYcEBEREREREZFTLDggIiIiIiIiIqdYcEBERERERERETrHggIiIiIiIiIicYsEBEREREREREWlJJMKt2VucFRxESSSyZomIiIiIiIgoVDwvoSSmSzSTqCvxi0ROiR4S+ySOS+SXICIiIiIiIqIQ9IIECg9iixMSaSWIiIiIiIiIKIQ9JRGz0GCnRBYJIiIiIiIiIqJbzRYQpyUySBARERERERER3fKKxBGJbHqJiIiIiIiI4qWkxMiwsLATlSpVUm3btlVPP/20evbZZxlxjE6dOqmHH35Y5cmT57LsS1SF7yKRSoKIfOMBiV+SJk16qnr16uqRRx5RzzzzTKy/X8ad0blzZ/XYY4+pxo0bq6xZs56XfblSorVEYgkiIiIiChEYgq5fxowZ1dixY9WNGzcUuc/Jkyd1YYLsY3TC1wA7nHwCFzl5JSpK1JQoJZFJgoJTconx+fLlUwsXLjS/RnKXXbt2qWbNmuG4tkKiAHY4EREREQWvWpGRkTfmzJlj0kHyJNTgkH0+RSJa733ylNQSnSQ25M+f/2rdunXVqFGj1Lp169SWLVvU9u3b1caNG9WKFSvUK6+8oqpWraqSJk2Kgp2JEuUlKLC1zZAhg/6MybOuXr2q8PuSff6VBAqhiYiIiCjIVEEtA1xMkfe89dZbSLIXS0ToT4HcJYnE+4kTJz73wgsvqEOHDpk9Hj8oRCtfvjw+ozUSdfDCFFCeKl68uDp16pT5RMkbHn/8cfxmvpEI158CEREREQWFMIl5uIgl76tevfpN2f+P60+CEqq5xIHWrVurgwcPmj3sHj///LPKmTMnLogmS2TFm5FfSxMeHr5i6tSp5hMkb9m8ebPKli0b+nW53/ooiIiIiCgYpBWrUGWbvK9+/fq4GB1jfRTkgsISswoXLqzmzZtn9qrnoDp27969VZIkSS7J+74uwU7h/NPDKVOmVMeOHTOfHHlTixYtcFx71/ooiIiIiCgYsODAh1hw4JIoif5Jkya9PmTIEHXt2jWzN71r7969und5WZe9Eg2xYuQ3dMHB8ePHzadF3tSyZUsWHBAREREFGRYc+BALDuLlEYn9uCjZv3+/2YP+Yfr06Sp9+vT4LGdJZMbKkk+x4MCHWHBAREREFHxYcOBDLDi4p/wSCwsVKhQQQ+ldunRJvfHGGyosLOycrPdrEuxd3jdYcOBDLDggIiIiCj4sOPAhFhzECv0GfBAZGXmlf//+PmuKkFDbtm2zmzJslWiADSOvYcGBD7HggIiIiCj4sODAh1hwcJs2ErsxKsK+ffvMHgoOaMqQN29efNZTJPJhY8mjWHDgQyw4ICIiIgo+LDjwIRYc/K+YxKKiRYuqxYsXm70SvFB7AkOfJkqU6KJsNy6s2JTBM1hw4EMsOCAiIiIKPiw48KEQLTiIlBiYNGnSG4MHDzZ7IvRgVIaGDRvi898pUR87htyGBQc+xIIDIiIiouDDggMfCrGCg1YS+9EUARfN9J8ZM2aonDlz4rswWyIXdhYlCAsOfIgFB0RERETBhwUHPhQCBQcYFWF2gQIF1Ny5c81WkzMXLlzQTRlkn52XeBU7kFzCggMfYsEBERERUfBxW8EBXqNSpUqqfPny6vnnn1cvvviieuihh1TmzJnd1n69V69eqm/fvmYp8MWj4KCaRCeJML3k//JIbGvTpo06ffq02Vr3uXnzpqpVq5Z65ZVXzCPudeTIEfX000+rdevWmUe8D8NPmloIn+o9SlBO4nmJdHrJOZ8VHCxatEhly5ZN5cuXT23evNk86lyXLl1UlSpVzFL8oDAOv4Hr16+bR/wDCw6IiIiIgo9bCg7mzZunoqKi1J9//mke+c/+/fvV66+/ro4dO6a2bt2qSpUqpZYuXWr+qtQPP/yg7rvvPnX06FG9PGbMGP0cWS9VrVo13SM9vPbaa+hUTkVERKjmzZvrx/CaPXv2VLlz51bp06dXjz/+uNqyZYv+24EDB1SDBg3U0KFDVd26dVXy5MnVs88+qzZu3KheeukllTFjRv0+8+fP18+HXbt26UQehR158uTRSfmpU6f03zZs2KDKlSununbtqrJmzao+/PBD/XhC3KXgoLLECIlrEngOqrBjmMJA0ClHjhxq586dZivdDwUHGOrwzTffNI/c6cSJE/o7g88xQ4YMqlOnTrddyOH79swzz+jv2QMPPKA+++wzfbH3xx9/qDNnzqgKFSqo5cuX6+fic+revbv+bqRJk0aVLVtWf+e9AUNShoWFbZP9msPavSGvhQR+E4hVEk9LpJFw5JOCA3znChcurCZNmqS+/fZb/T05e/as+asFx5uqVavq712PHj0Umu40adJE/w2FRTjm4TPH/+I5gwYNUitWrFDt27dXKVKk0Me03bt36+ePHz9e/w4Ar5spUyb9vzVq1FCpU6fW3/nDhw/rv3sTCw6IiIiIgo/kpgkvOGjbtq2uXXAvuPguVqyYWrJkiXlEqQkTJqjSpUvru2YjR45UkZGRt9VQQBKOAgLA+7zzzjt6/vfff9cFBqtWrdLLgIv87Nmz69c8f/68KlSokBowYID5q/X/uCC04e5gxYoV1aVLl9TMmTN1Yr5jxw7zV6UvInHXd9OmTbpdPtbNcd0TyqHgoKLEUIkrEvZFkR1/S2SUyOxnkU0iWsJRCbmwPvrPP/+YLfSMexUcLFu2TH9uuOCynTx5UmXJkkV/N1DAhbvC+D7a8F3AhRo+c9SSQKES5qFIkSL6Is+2Z88eXYDlrcIDbKfs2+8lwvVe/k8GiSwSsX0+wRppJXpKXJeI+VtBQQL60njS2wUHV69eVc2aNVOdO3c2jyj12GOP6d+4DYWNON44QoFAzZo19Ty+t9iO1atX62V8z1FY+f777+tlGDJkiH4M8F2uU6eOnkfBAQpW7f+FN954QxeGeZspOBgokV4its8w2CKTBDp9JSIiIgpabik4+O233/Sd2PXr15tH/nPw4EHVu3dvPd22bZsqUaKETpBtqHGAggPHO2N4HmoSoDo6agZMnDhRP96iRQv9WjBixAh1//3363lHuHv39ttv6wtF3EmeM2eO+YuVpNerV88s/XeHD4UM6OEfCflff/2lCyNWrlyptwd393BRgJoMuHPteDGaUKbg4CeJzhLLJOwLIMdYLIG+AkpJlPajKCOBC1dHlTJnznzGk7UN4F4FB8OGDVNlypS5owo3vj8ffPCBGj58uP5eXb582fzFKnRCYQNqw8RWcOD4Xtg+XJg61lbxpE8++QTfg+kSSfRe/k8Ridg+m2AObHN3icsSMX8rJyQ+l+jt7YIDFAqgJlK7du10LQIECiqjo6NvHbPQ/AU1Vxzh/+xCVxReoeDTrlGAAk0cA+3jH+C7YBc+OBYcoNkC3sux41EUHKCg1ttMwcEwiWD/fuKYXFICNcLYJwkREREFNbcUHAAuwlFVFu110dwASS2SaDQRGDVqlH4OLuRwxx+BarZ9+vRRBQsW1IUJ6BgOd/MTJ06smwOgQAF/RzI+a9Ys/f+4m4d+FOwLNizjLvFXX32lxo0bpy/2kEijIAC1FFAggUINGxJaVOO14XWwLrhQRJLetGlTlTdvXv1a3333nU7iUTXYLjhAjYTYmmO4yklThWQSz0r8KWFfEH0jESj9G7yLfi7+/fdfs5Xuh4KDRo0a6QsufM8cw/5uoFmK43cDBQnVq1e/1fSkW7duKleuXPpvKGhAoVHSpEl18wQ8B1XOUasF8J1A/xo21EpJkiSJVzp8nDx5Mn4Tp2W/4gKFrNo59u/ipMS3EjH3jVebKkydOlU3lYqtUHHNmjV6XX/99Vd9nEETBByjcPxDkyn8zW6qsGDBApUuXbpbzXxwTMLxFN9r28cff6y/yzB27Fhd8AmzZ89W4eHhujaMDU118ufPb5a8JwSbKoyXeMmaJSIiIgpObis4cHTx4sU72vbG5Pj3c+fOqRs3bpglC9qZxwYX8fgbLh5tuHOMwgJHeD287rVr18wjVq/1js/D37Ds+FqA5yEc4fWwzu7siMxJwUFMqSSek8Bd1kCBzhwvouaHp+DzwQU+vgt2YDnm9yC27wYurlDrwPFzR82UokWL6poxeBzfHfuzRiEILuJs9nfB8bvlbrhzjBozsh9/k0BhEv3vf/dJoKCgvF5yzqsFB/h+xTxeOMIxCzWgHMU8/gG+T/iuOR4L8dr4fxu+z/bz8bj93cb/4jUd/xffWU8W4DkTggUHP0qw4ICIiIiCmkcKDihu4lhwEMgaSuzAHVXHKtT+AB1hPvHEE7oWAtqYf/nll7ddoPnKjz/+qO86y377TiJmp38UNxyO0YdYcEBEREQUfFhw4EMhUHBgi5DoGxkZeRVtuv3hAt2foBADI3/IPtouURc7jBKEBQc+FIIFB9MkelizRERERMGJBQc+FEIFB47ySMzGiBjeGpXAH6HKOYYpDQsLuyD7o5dEzBETyHUsOPChECw4mCHBggMiIiIKaiw48KEQLThw1FriEC400LdAKMDwohgWUrb7VwkM5Ubux4IDHwrBggOMeMKCAyIiIgpqLDjwIRYc3BIl8VHSpEmvfPTRRx7tdNAX0Eu+aYqwRYJNETyPBQc+FGIFB4kklki8qJeIiIiIghQLDnyIBQexyi0xLV++fLcNpRlo0BThzTffVBEREZdke16XYFME72HBgQ+FYMHBYgkWHBAREVFQY8GBD7Hg4J4ektjdtGlTtXv3brPX/NvEiRNV5syZ8blibPds2AjyOhYc+BBrHBAREREFHxYc+BALDuIsUmJAVFTUjX79+t02Vr0/2Lp1q6pSpQo+S4yKUA0rTD7FggMfCrGCA4wY84/EC3qJiIiIKEix4MCHWHDgknwSswoUKKCWLFli9qT3ofCiV69eKnHixNdkfV7Va0b+ggUHPsSCAwpyKMiOZrg9iIjIz+mCgx07dpiUj7zJFBx8b30U5IJmErvQlGH//v1mr3rWzz//rHLmzInP7SeJXFgJ8jvNWHDgO6bg4D3rowh6iSXWSTyvlyhY1ZFYWbp0afXZZ5+pBQsWqC1btujaZgzXY9u2bWr16tXqhx9+UE8//bRKlCgRhif+SCIJdjoREfmX8LCwsEWDBg0yKR95U+3atZFgM+FMuKQSfZIlS3YNTRncPSrDhg0b7M9qk0RVvCH5tWwRERGb5s+fbz5B8pZ9+/apggULXpXPoLb1UQQ9XOBsleBxPDhhxJ+lnTp1CrrRfv7P3llAR3V1UfhPgoQQ3N2huLtrcYqVosWLtFAo7lasUKHQ4q7FpbgUtxYp7lrc3e9/9s176ZDGmcnY/tbaK2OZefNk3jv7nnuOo7Jjxw4VJ06cl7Leq+otQAghxKGoJRd6ETZiS/z48ccfEYgeFeHChFiPtKKVqVKlUtOmTTPWdthBMcYWLVpgG90XfYM3Jk5FnyJFiqhXr14ZW5REBD179sQxs0bkLiOGNA5cmzndu3c39m4SUZw4cQLmAX5L8vptBkIIIY5E/fjx4+uRVWJ7+vbtixPiERGr7tuWnKJfRI+rV6+uhg4dqrZv367u3bvnP3r07NkzdfXqVTVnzhzdPjFt2rTYNgdECASYLunc9MmSJYu6c+eO3tbEtnz++ec4dn4XIQPIXcB89/Oi9voecSUKe3p6KtaAsg9t27bF78kEv01BCCHE0YglWoNRugMHDhg/3cSa/PTTTzgRvhOxkJb9SCDCfNWvRZiH3USUW8TMD9ckpWg/6mBcunTJOBKJtXj58qXq168fftduispihbsZMEmuimgcuB4wDt7ROLAPNA4IIcR5aCDalTBhQtWuXTv1888/U+HQ999/r8qUKaM8PDxgFkwWZcXKJYREOChihyyS46lTp1bdunUL9JilQtbw4cNVwYIFcVGPaTwoZJZC5K7AOLgionHgetA4sCM0DgghxHnBRTdSMh1NFUQ3ROktHnMUIc3dU0QIcUwc9XfNkYXfNQ8R8QNt5B6I2ul7xJWgcWBHaBwQQgixNqVE10XuPOJFCCHEPtA4cF1oHNgRGgeEEEKsDY0DQggh9gLGwUMRjQPXwyrGAQrw4j3u379vPOI8oCsNige/ePHCeCTioHFACCHE2tA4IIQQYi9iiN6I2uh7xBnIJdogqiEKbjphuI2DW7duqaJFi6qsWbOqJUuWqHPnzqn169erzJkz6/ogDx48MF4ZPD/88IOqWLGicS/iuXbtmmrZsqU6deqU8UjEQeOAEEKItaFxQAghxF7QOHBO0G0FxT0RnL4UbRehZpJlC95wGQe3b99WPj4+auzYscYj73PlyhV1+fJlffuPP/5QOXLkUOXLl1elSpXSxsJnn32mjYWNGzeqVKlSqThx4qhq1aqpR48eqRs3bqjKlSurQoUK6cLLMCYGDx6s3wscP35c5cqVS5UuXVp9/PHHqmHDhqpYsWJq5cqV+vlDhw6p3Llz6/8tV66cfn8UcQZoUVypUiW9PHgegfvOnTtVmjRp1K5du/RrcB+fieexzFjeVatW6eewzDAZihcvrj8/X758qlGjRurx48f6+bBC44AQQoi1oXFACCHEXsQUvRK11vecj2SiwiKcS91NmF7yRIQA1VIvRKtFvTw9PV+H1TjYv3+/ihYtmn+wHhwwGUyQlYAgHKbD0qVL9WODBg3SBgDA6D8C9f79++tAfuvWrWrfvn0qT548OsjG/0eKFOm9dtrXr19XOXPm1NkO+B7JkydXx44dM571o0qVKurrr7/WtzNlyvSeEYFMg6RJk+r/gcmRIEECtXz5crV9+3b9+Zs2bVLe3t5q9uzZ6sSJE/p2hw4d9PMwR968eaOnO4QHGgeEEEKsDU7+NA4IIYTYgziip6LP9T3n41vRNRHOocmNv+6gpKKWoreigMbBLlFlUUVPT883YTUOUA8gf/78qnXr1sYj79OsWTOdCYDXIRsAI/Tr1q1TR44c0QG6pXEwcOBA/6kKZ8+e1aP/s2bN0iYCMheQgYDMBPwfDIvIkSPrrAOTu3fv6uyEtWvXqpMnT6q0adPqv5bUrl3bf1lhQowaNUrfBqZxgPeEqRE3blz9Wah7gM+HMQGD5OLFi+revXta+F74jMmTJ6vYsWOr7t27G+8WNmgcEEIIsTY0DgghhNgLVzAOLvjddCvKiUyjYJ+oniieyJJw1zjASPuIESP0VACM+CNtH39TpkypRo4cqV+Dkfi6deuqJEmS6FH/6tWr6+kDCRMm9J/mgGA9RowYui4CgnIE7ZiKgAAf0wqQIYCpC2bmAgwCfAbMCLwnjIkUKVJoYwLAkIB5gPoLMCSyZMmiOnXqpN6+favevXunUqdOrbMcTGAYRI0aVWcXAGQW4P0xFaFChQr69b169dL/+/DhQ/2ZyIrA1Ap8Rt68edXhw4f1/4YVGgeEEEKsDY0DQggh9iK+CHPlEXg6I+5oHOQXBWYUBMSp2jHeuXNHmw9r1qwxHlHql19+0cYEMgOcDRoHhBBCrA2NA0IIIfYigeiuqK6+53y4a8ZBaHAq48AE9QUWLVqkFi9e/F69A2eDxgEhhBBrQ+OAEEKIvaBx4Lo4pXHgKtA4IIQQYm1oHBBCCLEXiUU4B1XV95wPGgdBQ+PAjtA4IIQQYm1oHBBCCLEXSUToSlBF33M+aBwEDY0DO0LjgBBCiLWhcUAIIcRe0DhwXWgc2BEaB4QQQqwNjQNCCCH2AuceBN5l9D3ng8ZB0OTx8PB4gRaIJOJp3rw5jIOf/DYFIYQQ8uHQOCCEEGIvaBy4NmNq1KhhhLIkoti8ebOKFCnSO1n/qf02AyGEEPLh0DgghBBiL2gcuD4js2XLpo4fP26EtcSW9OvXD5kGV0Tp9NonhBBCrASNA0IIIfYCI6InRAX1PeeDxkHo6Si6nDdvXtWlSxc1fPhwygoaOHCgql+/vvL19YVhsFSUCyubEEII+RBiiQaLLC/QSohgHKAlFvAUtRDVEHnhAUIIIcRGmMZBIX3P+aBxEDQlRQhmM+t7/wXXGx+ieqI/RZEtHnMm4VoLgX5gz4VFhBBCiE1IJbonwskcf1eJbogOGo9Bo0WEEEKIrUkrOirKp+85HzQOgqaY6I0ok75nfT4VwThw1kGO5qIlfjcJIYQQxySRCGaBaRRY6jsRIYQQEhGkFx0S5dT3nA8aB0FD4yB4aBwQQghxCpAe+o/I0jT4UeQhIoQQQqwNUsp7iBrqe36kEcE4yKbv+fGZCEFVDH3PsaFxEDQ0DoKHxgEhhBCnIbnINA++xwOEEEKIDYkq2irCeee5cfuSCNMVXorw+AqRs5jYNA6ChsZB8NA4IIQQ4lTUEm0SsRAiIYSQiADmwRaRme1mqTkiZ4LGQdDQOAgeGgeEEEKcArTrOda8eXO1fv16lSpVKlywjRHRQCCEEGJrooh2iCxNg4UiZ4PGQdDQOAgeGgeEEEIcmtyiU/Xq1VPPnz9XluzZs0elSZMGF2+odUADgRBCiC3xFm0T4bzzCx5wQmgcBA2Ng+ChcUAIIcQhySM6U7du3f8YBgHZtWuXpYFACCGE2IocorUiX33P+aBxEDQ0DoKHxgEhhBCHIr/oTP369dWLFy8MayB07NixQ6VNmxYGwk/6nQghhBDrUFd0e8CAAerUqVPq008/xbnmsKgwnnQiaBwEDY2D4KFxQAghxCHIJzrVsGFD9fLlS8MKCB8wEIwaCDQQCCGEfAhDfHx83k6dOtU4w/zLmzdvVM+ePXGueSJCUOUM0DgIGhoHwUPjgBBCiF3xNwxCmpIQViymMKCIIiGEEBIaEouW5MuXT/3111/GGSV4li1bppIkSYLzzXARCik6KjQOgobGQfDQOCCEEGIXdNHDBg0aqCdPnhiXXrZh9+7dKnXq1MxAIIQQEhxlRBcwVe7+/fvGGSRsnDlzRhUqVAjnmz2iDHhTB4PGQdDQOAgeGgeEEEIilLyis3Xq1LG5YRCQvXv3qvTp0+OC7me9JIQQQsj//tcyUqRIz7799lv17t0744zxYTx69Ei1bt0a55uLonL6UxwDGgdBQ+MgeGgcEEIIiRD8DYOnT58al1b2ARkI6dKlwwUdpzAQQoh7Eks0GfVwNm/ebJwdbMP48eNV1KhRn8vn9dWfbF9oHAQNjYPgoXFACCHEpqCGwdnPPvtMPXv2zLiMcgx27txpdmEYq5eUEEKIq5NV9FepUqXUuXPnjLNBxLBt2zaVJUsWnHPmi+JiYewAjYOgoXEQPDQOCCGE2IQ8opPhaasY0aCIolEDAVMYPLDwhBBCXIrqosudO3e2u4l9/fp1VaNGDZxz9ooKYOEiEBoHQUPjIHhoHBDyAfiIGolQQXc05TQaJqot8hQR64OihyfR49rRDYOAYAqD0YUBGQg0EAghxLlBgDY8duzYavr06cYvvWPRpUsXnHMeiVpggSMAGgdBQ+MgeGgcEBIOOkWPHl117dpV3bt3z/jpJ87E5cuX1TfffIOT9WNRY71VyYeSXXSqdu3aDjclIazs27fPNBBYRJEQQpwPtFOclyNHDvXnn38av+yOzapVq1Ty5Mlx3hkoiowvYSNoHAQNjYPgoXFASBhAIZ2jgwYNMn7miStgVD1eJ4qJjUzCDDIMTiPDwNkNg4BYFFH8RX9TQgghjgy6F5ysV6+eevjwofFL7lwcPXpU5c6dG+edP0SZ8aWsDI2DoKFxEDw0DggJAxM6depk/LQTVwHp9OXKlcNJ+mu/zUxCCWoYnEbRw+fPnxtr0zVBEUVU3pbvyykMhBDieDSLGjXqs+HDhxu/2s4P2jl+8cUXOO+cFxXV39I60DgIGhoHwUPjgJAwsB/p7cT1mDhxIk7OU/w2MwkBGAYnGjZs6HQ1DD6UHTt2qJQpU2Jf+VXkrCd+QghxBeKIxqdIkUJt2LDB+JV2TdDO0cfH55V83x76m38YNA6ChsZB8NA4ICQM7KNx4JrgpCzbd7LfZiZBkEt0HIbB69evjTXnniADARersj6QgRAJK4cQQkiEkF60u0iRIur8+fPGr7J7sGnTJrMD0DwRps+GBxoHQUPjIHhoHBASBmgcuCg0DoIlp+g4ahi8efPGWGMEoI2jkYGAIorMQCCEENvxseg6uhC4u3l98+ZNVatWLZx79omyYuWEARoHQUPjIHhoHBASBmgcuCg0DgIFGQan6tSp4/YXaSGBIorGKNAYEWsgEEKIdUBG1whfX181ZcoU4xeXWNK9e3ece56LENSFBhoHQQPjAOuTxkHgoGXocr+bhJCQoHHgotA4eA//ooc0DMLG9u3bzTaOMBAIIYSEjxiixegu4CztFO3NkiVLVOLEiXH+GSkKLjC1lnFwX7RdVFuEttbOriai+qIqIh+RLXB24wBtTuuIAlt/tlAjUQMR1lknESFOhVWNg+vXr6s5c+aopk2bqrZt26ply5aFq33QrVu3VJ8+faw21+/JkycKlYkxihqQgwcPqmHDhql79+7p+z///HOoT+pYzlevXhn3HItwGAeuOKqcT3S6UaNGNjcMUMiqf//+6sGDB8Yj7/PLL7+o6dOn6wuh77//3njUeYCBYHRhYAYCIYSEnpKiU/Xr11dPnz41flGDZ+3atapFixZq+fLlxiPvM2vWLNW+fXt1+fJl4xHX5syZMypv3rw4/2wUpcFKDYC1jIProh/8bpJQ4uzGgb3A9Tk7nxGnwyrGwfHjx3VhtY4dO6q7d+8ajyr1zz//qEqVKqkcOXLo+WsAgZVZuf7+/fv6rwmC95cvX+r/g8uMgm2WPH782P99TN6+fev/mXg+sL77eB7LMHnyZOORf/ntt99U1qxZ/U2KQ4cO/eczcN/SAEEQCoMBy4jvjmU2wfJcu3bNuPcv+N7m63AbbYkCM1WwDqzRCjAUxkEK0RDRFVE3kSsFg3lFJ2EYWG4bW4JtVqJECW2YBQQXeQkSJNDbHBdABw4cMJ75F+xjlheVuA1jyhIcL5b7DOozYN9+9+6d8YjtgYFgUQPBEyubEELIf2gbKVKkN99++63x6xl6Bg4cqDw8PPR1VcCBjDVr1ugssIwZM/5nMATnjatXr/6nds+dO3f0tQnAuSaoAQ+co3D9FRS3b9/2P6fi3BPwfXBtg88KCry3uRzhAd+vVatWOP/cFpXXa9kPGgf2g8ZB+KBxQJySDzYOcKIpWLCgnpMWFI0bN1bVq1fXt1EESE6mOgMA1XRx8sH/Jk2aVGco4KRYsmRJFTVqVLV//379P1jGZMmS6SD/jz/+0GZE+fLltUmAQCpLliwqe/bsatWqVbq4W0AQjMM4aN68uZo/f76aOXOm1rx587Rrj/+/cuWKfm3p0qXVggUL9O2yZcuqmjVrqm3btmnnP2bMmGrEiBH65IUTe/LkydXKlSv1MixcuFDFihVLjRw5Um3ZskX16NFDJUyYUP8v6Nq1q4oWLZoaO3as2rhxo74YwPPr16/XzwP8b4ECBawyOm4YB5btGJOJRojQPxnPmWoochUwJeEU9rfADCRbg30oU6ZMel8wuXTpkjaYzP0Ao0iFChXSt5GhkydPHlWjRg29X2N/xHEwdOhQ/XyuXLlUv3799O2zZ8+qGDFiqMyZM2uDDDRo0EA1a9ZM345oLGog/CSigUAIIf/7X1TRWAT8uL4JLz179tQDGuPGjVP58uXzD7YRlONaCtcoOXPm9DcOkOWJ32NcA23dulW1a9dOoYYCzhugWLFiKk6cOOqHH37Q1yc4d8AAxvkJIBsC5y5cm+BchPs4b+Gchs/Geeujjz5Smzdv1p+Na6Z48eKpkydPauMawXz69OnV77//rt+/ePHiqkqVKvq5c+fO6ffG9Q2WbcCAAfpaau/evfqzwwsGgiJHjmzWQRgmOif6UGgchB0aB+GDxoGbUkS0zYn16EONAzjQCGYwAh8UOAkWLVpU3+7QoYOqXLmyvg3QRx4paDi5mCCgghFw+PBhfaLy8fHRJz6cjCCM7MJYmDhxog6yCxcurA2HoIA5gZPspEmTjEf+BSfBbNmy+Z9AP/74Y//ADyftJEmS6P/FZ5rBH4CJkSFDBh2gYh14e3vrk6YlMEfQXgl89dVX+rtbgkAR6d8YrT516pQ+MWNE2hoYxsEp0WWRpVFgqWMipP4Ftm84k7aKHsBwsncNA1y4YTuaozZYJphMJm3atNHmFEB2QqJEiVSpUqX8920YCTDJLl68qPbt26cwHxbGFwwEmFboBIF9D89hv8W+bU9wIRg/fnzsS7hwCGzbuLOwX2K+7EyRrfhItEmEzwlsGSiKsr1wrN9A8Hzjxg3j1zH84JoJ5wFQrlw5PXgCcA2BwQdkFeA8g+snE2RN4noGmXYYzMFAhZmtgPPKl19+qW8DZB1Ejx5dD6SY4NoDU01hKuB6DVlye/bs0UZA2rRp38vExDUazm0nTpzQZgOMAFzrmOcxKHbs2Po6BFkJtWvX1gMtOJ81adLEKuvIBNeI+HxZ/7tEHwqNg7BD4yB80DhwUz4THfe76ZTstsZUhRUrVujAGYFwQDB6GiVKFP8TGEb4q1Wrpm8DjJ7ipDRjxgzjEaVTuXFSg3EAQwFOOgIUSzDSiqkMCNxDaxwENVUhoHGAeehIuYOLf+zYMf04QAVkuOx4Dt8ZxoEJToi9e/c27vmBkeQKFSro2zhpwzwISOvWrbW7j8+dNm2a8eiHYxgHE/w28//iib4SnRWZpgH0SJRc5Cr0wiiL5Yi/PcB+gEKMvXr1UujgYAmMAxgFYMyYMXokxhKYU9gnUJcDozUYOcKFIDJskN2DDBWM9kBz5841/iviwSgUlkvW+QFRZr32SWAUFCGox0ikLUC67iq/m4QQO1NKdAUG74dkvcE4QPYZgAmN33tMBW3YsKF+DCP9MA5wXYUgHNmOuG4xOX36tDYOYDADGAc4l5gg8Mc11rp169Rff/2lPD0938vWRO0nBPp4DJ+F11pOmVi8eLHOSMD1GcwDfL6ZIQpw/vriiy90DQYMqAS89oHJgPPHh4DBlvz58+MctFuEqZfWgMZB2KFxED5oHLgp9UQY1Y2p7zkfVi2OiJMQguC4cePqkXqcqAJOHejWrZt2tC2BI/3TTz+pdOnS6SkFKDIHNxtuN8AJePTo0TrAxwgtHGucNABG+ytWrKhd76DAiC3eD3PNA4LpEchmMKcq1K1bVy1dulTfxgm5U6dOOisA5gWmWZgjyQji4P7jhGuaFngvOPX47lWrVn3P7MD3xvSFgGC+IE5+gZkKH0IINQ4SiNqLsO++E5UVuRK9MQIBU8heYPtj1AcXUJbgeLM0zpBKCqMAF4m4EDSnwpjgog2jWIMGDTIeUfr/YUrZAxyruHiVdXxYlE2vbRIcZUQ7RLYyDsqJ1oqi63uEEEcAUwOXI5vyyJEjxq9n6Bk8eLCeqmDWr8G1CwJ5XO8AXP9gyptpDGBaBAZQEMzDtMDABqbsITsBYNolpkuaIHsA0ynM4osoxmhmu+EaDvfx/ub/o2YCzAxc2+C9kE2J6xZzYAWDKajlgMEUTIFANp1l4UbUxsE5Ef+PQRYM4gRVZyEkVq9erb+nrF/U2bF2pwAaB2GHxkH4oHHgptA4IOECASVOnhhJxgnVGgURLQnBOAgI9t9ofjddih5IlzRrVpDwg4KmFoZBVr12SWigcUCI+4L6L0NRz8ieGWIfAgZQkBkHwxqGAjIjUZgR2XMRWZh3yJAhmKKKmgZN9Zq1DTQOwg6Ng/BB48BNoXFAHJIwGgeuTg9kwdgzA8FZgWGAEShZh3+Lsui1ScICjQNCCEDAezu4QtLkfZBhgYEVWW9HRagpZmtoHIQdGgfhg8aBm0LjgDgkNA4CpQcqS2N+JgkepJFiSpGss0OiTHrtkfBA44AQYkkG0Q6M4Ju1lcj7oOMC6lLJeponioOVFkHQOAg7NA7CB40DN4XGAXFIaBwEi57CQAPhv6ArBQo7yjqCYcCihx8OjQNCSGDEFy1C/aTgajS5EygYjALHsl4G6TUU8dA4CDs0DsIHjQM3hcYBcUhoHISKbjAQOIXhvSkJqGHAKQnWg8YBISQkWkWPHv0JWkC7Gzj3fP311zj3nBN9rNeG/aBxEHZoHIQPGgduirMbB/tpHLgmEyZMwIl4it9mJiHQHQaCZU9rdwEdHIwMg2MidkmwPjQOCCGhBb8XF2DiPnz40PiVdk3QkaFEiRI49+wSYfqGI0DjIOzAONjnd5OEARoHboqzGwfLLVv0ENcAPfbRClO27xC/zUxCSVd3KaIYwDBglwTbQeOAEBJWEEivRUtfs+Whq4C23Wj7KN9voigWvqwDQeMg7FQTYXsGpmsinpsCh8aBm+LsxgGKnj0ze/kS12Dq1Kn4wb4oSoWNTMJMNxgICxcuNNao6wDDwJiSAMOAUxJsD40DQsiH8C3aOc6bN8/4FXc+0LZx+PDhKnLkyA/k+zTy+1oOCY0D69FS9FrEc1Pg0DhwU5zdOADeomWlS5dWR44cMX7miTOyZcsWsxLxAlFkbFzyQegpDIsWLTLWsPOCeaRGhgHbKkYsNA4IIdaguehut27ddBFbZwDtFGvVqoXzzhkRfqscHRoH1uMr0SsRz02BQ+PATXEF48CS2qL5kSNHPhEjRgwVM2ZMysEl2+mll5cX5giOFxXCRiRWpwfWtTNOYbAoegjDgDUMIh4aB4QQa5JDtLdq1arq6tWrxi+9Y3Hw4EGVO3dunHdmiRJhoZ0EGgfWg8ZB8NA4cFNczThwZXDywoksr77n/KQT1RfVFTURtXYRIb2trQjbqr/IkegGA2HBggXG5ZHj8vz5c9MwOCLKqZee2AMaB4QQW4D6AAvSpUunNm/ebPzy2xcUZcagkyyXs9ZXonFgPWgcBA+NAzeFxoHzkFGEE1opfY84MpFEj0W99D3Ho1usWLEccs7ps2fPTMPgqCi7XlpiT2gcEEJsTcdIkSI9Hzt2rHEmiDhwzjHaKaIQHrJWnRkaB9aDxkHw0DhwU2gcOA80DpwHRzcOTLSB4AhTGHDx1qhRI9Mw4JQEx4HGASEkoigrut6kSRObt3M8e/asKleuHM45u0Vp8eEuAI0D60HjIHhoHLgpNA6cBxoHzoOzGAcmXWPGjPnOHl0YMCXBMAxQwyCzXhriSNA4IIRENOiotL5AgQLqwoULxtnCOqxfv17FixcP55wpIlv9rkUE6UUnRWNEaH8JroqG+d3830eiaaKDInQgI2GDxsG/FBSdF/URpcEDwjhRK7+bOjt0pmiPKDYeIK4LjQPngcaB8+BsxoFJT8zvjAgD4dWrV6px48bYnw+L2CXBcaFxQAixF56iYXHixFGzZs0yzh5hx6Kd4jN5P3R3cBWQKQGzAOdSU+8sbsNY8BGRsEPj4H1gPuG61ty30KrScl9DkXNnNuJIKKFx4DzQOHAenNU4MOkdPXp0mxRRRBsuwzA4JMqqP404MjQOCCGOQGPRo759+6q3b98aZ5TgefTokapduzbON2dFRfAmLkgy0U2RGcCZOi5ypo4QjgaNg/+CLJbnooD7GrJaYPIRN4DGgfNA48B5cHbjwKSnr6+vVQwEGAYWUxJYw8B5oHFACHEkcP7YX7169SDbOe7fv19lz54d55vfRPHwTy5OCtE/IjOQOy1C1woSfmgcBE4u0SORua/9KfIVETeBxoHzQOPAeXAV48CkB9o4hqeIIgyDhg0bYr+FYcApCc4HjQNCiCOC34xZyZMnV1u3btXnm8mTJ5vtFB2tFXJEgODthugvkQceIB8EjYOgSSC6J9qu7xG3gsaB80DjwHlwNePApBe6MCxatEhfpAXHmzdvLA0DFj10XmgcEEIcnZ4ijLJ/qu85Bwju8bsXV5RShEyK8qKOIhQ8XCxabsrT03NVlChRtkaLFu2wr6/vpZgxYz6MHTv2izhx4ryJGzeuLvgYP378tyJ9G4/hObxGXntf/uei/O8heY8/PDw8Vlq+t2ihCN0Y2olwjYlphMlFWDZ3rZHgSsYBphGY+xoKj+YQVRJ1FqHI4TJRwH1tu+wvR2S/uWLsay9lf3prsa9pBdjXnstr78n/nPf29j4QOXLkzbKvrbB8bxH2tVGiNqKSIgwoYbpNHFE0EXFwaBw4DzQOnAdXNQ5MdAZCYAYC5p4ahsEBEebDEeeGxgEhhIQe/Faisnxe0Y8iTJdY7+PjcwdFHpMmTapq1aqlJk6cqLP4oE2bNqmLFy/qDD17g8LFZ86cUevWrfNfvnHjxqmKFSuqRIkSIUBUElCi7SPMB3y3b0UIRDE1IrLIVXAG48BbhH2tmOhnEbbHpujRoz9AMJ8sWTJVr149NWXKFP9tuWXLFnX58uVQ1wmxJeiqderUKbVmzRr/5fvhhx9UmTJlVMKECfW+5u3tfUW+E8wHfLd+IlxXYl/zEhE7QOPAeaBx4Dy4unFg0hMZCEuXLtUZBg0aNMD+iSI5nJLgOtA4IISQ90GAjJHbQaLfIkeO/A+mSKCOD6ZL/P777+rGjRtGeOT6IBBdsmSJNkNQjNLHx0d5eXmhIOVcUTdRfJGzBXqOYhxgX0sngkGzWPa166g91bJlSzV16lS1du1adevWLWNLuD7nz59XixcvVuPHj9dmFvY1Dw+PE7JuZos6iJC5wKk6NoTGgfNA48B5cBfjwGSACG0VWfTQuQmsKnJwxkFYT86BvX9wxgFP/oQQe4OAt6ZorgTDt/LkyaNGjRqlduzYYYQyJDiQRbFhwwY1dOhQlTVrVuXp6XlJ1uU0Ec4tjlyJ3x7GAa4dPxP9FilSpAfFihVTP/30k9qzZ4+xNklwPH36VGcv9O/fX6VLlw6GAsyrSaKiIhIOYA7gAm2LqDYeEKqL0LIFBy/mIY8XoeBFQRFxLGgcOA/uZhwQ12GkCGZyVxGKbRUW4ZwBUJ0c+zT6hnfCA+FgnmiPCL3Ucd7BCR0prwDzfEeLkAaLC3VCCLEHdUTbUqdOrQYNGqSOHTtmhCbEWqDzRdeuXfXUDVnXiE0qYsU7EBFhHOAciDaj+7JkyaLNldOnTxtriFgLFE/95ptvdC0GWddLRIyjwgACGswVwcoLTHdEOUXE8aBx4DzQOCDOTA9RwHODpVqIwguODYw2Bfa+0BtRWREhhEQkMDOvfPbZZ+rgwYNGyEEiit27d6sKFSrgHHBBhEFNe2NL4wCFAW+gHhTm+JOIBTVFkM0h2wCtJFGQlIQALtyWiiwv1qAXIhYzc1xoHDgPNA6Is4N5qQHPEa9FTUXWYKIo4PvjmCkuIoSQiGJ4pkyZ1IEDB4ywImLBCDNG3jNnzqx/B4sWLap+/PFH9ezZM+MVtgFF8v7++2/jnmOxbNkyc3R4qN5C9sHaxgFqFczGdA2YJBFFtWrVVPv27Y17/3Lu3Dm9v82bN894JOwUKFBADR482LgXPDdv3lTr16/XBREdienTp5v7WntsJBI8aIuhdxzRLREzDRwbGgfOA40D4gp0F5nnCMhapgFAiqaleQBTorSIEEIigtxRokR5huK+9uDx48e6enylSpXUu3fvjEf92Lhxoy76tnLlSv3cr7/+qk6ePKmrzuMxk3v37ukq9NOmTVMvX740Hv0XFJIbPXq0rslw9epV41GlJk2apNAZqU6dOrqQo8k///yjRowYoWbOnPmfZbIHv/zyC4osXpZtlclvk0Uo1jQOSnt7ez9HrYeIBsZBu3btjHv/EtA4wCj86tWr9X40ZswYXYAwMObPn6/3H3TfKFKkiBo4cKDxjNL7DLptDRgwQHflMIFBVb16dZU8eXL1/fffq/v37xvPKP06TAc6fPiw8Yh9gAEi6+O8CMUVSTAsEj0RpdH3iCND48B5oHFAXAVcPGFfbqDvWZ+xItTVyaXvEUKI7UkYLVq0swjQ7QUCsEiRIoU4px3mAPrl16hRQ5sNCNiOHz+uawMgwDPp1KmTyps3r3rx4oU6e/asSpMmzXumQOvWrXVWA4K7J0+eqPTp06s5c+bo5/bt26dSpEih5s6dq++jVV/Tpk111Xq81p4sXLgQ170XRYn1los4rGUcZIwaNeqrXbt2Gd8oYgnJOMB+CBDsw0zCCDwKWuJ5BPowkkCHDh1UxowZtQGFfRDdQ7y9vbUpBZDVgGk+2P8AsioSJEigixUCmFvIpjENrjZt2uiMhWvXrun7MA5Spkzpv0/aA8M8wPQFXMO7BblFKCjVTNRfhHmkKGoFB+WJ7LgvkiVL9jJr1qwvZWO9KlGixMsyZcq8Lleu3PNSpUq9LFy48KscOXK8kh+bl7FixcK0heeiG6J9ooWi70RI5fhUhOAVvUNJxEHjwHmgcUCCAhc/PUWn5GLwZcmSJV/Jb/DrsmXLOqKwbM/xV/TS+BvY68IrvN8Li7+BvSZEYf0VL178VezYsXHe+luECz6enwghQdEhVapUgY7SRxQwLWQ51NGjR41H3scclTWNg9mzZ+v7YOTIkSpRokSqcuXKWshaQIAImd0eMJKLFsnoAoGATa7vdVcDtE5G9XkYB6ZR8MUXXyi0VsaoMN4L71mlShUtexfrQwAq6wm1b9CSMCKxlnFQrVatWsa3iXiwT3z55ZfGvX+5cOGC3v+QxQK+/vpr3UrTErTYRIHQbdu2KUzn+fPPP41n/JBzr84WALdv31Z9+/ZVck2j9zWJK/U+ahoTMA5QVwCmFPZpvC/2TRhi5j5XtWpV1a1bN/16e4DlkhgYGS4Z9JZzAXKIUH3zF9H1lClTPsGKxgH/888/6zSmR48eaUfSVmDOFT4DPUPhAqJKZd26dVXu3LlfyjI9Eq0X4WBDcatoImI9aBw4LpVFT0VTRHnxgPBA1FEUS6QL4Yhw7NqqHz5xbFA/5h+M4uDkRGzHnTt31CeffILfSrQIjehRKkKI4+Pl6el5AKnw9uTbb79VMWLE0L34TR4+fKizA6JHj65TvHHdHS9ePDVr1izjFX7BNEZ7cR1ugroIyCjAXPIePXqobNmyGc/4XbvDBEAWAgI3GAfJkiXz///ly5fred6Yg24yZMgQlStXLv1+9gSBqWyvzaKIbhtvLeMA56CbQaX+2xoYSF5eXmrq1KnGI34BcqNGjXQGgTni37t3bwUzzaz1gf1QYjt/Y6BVq1Y6o8XMQNm+fbs2m9AuEq+V76inKZjMmDFD78PmVIgpU6bo/zdBNgvMBbPmwd27d/Xz6CxhL3DcyfdYg43mbGC0soIIvSfvYg4J0kyOHDmiN46jAwcXF25IoYKxESdOHIy8bhc1EqUQkfBB48CxQQvThyL9AxqIfhAR96SYnGDfIfWPRBy4uI4aNSoy59jDmRASEGQlHerSpYvxi2E/UFm/e/fuevR1woQJ6sGDB8YzSgdqX331lQos1R3p3c2bN1dt27bVMYIleE8MLLZs2VJPbbhy5Yrq06ePHmkGuN+iRQs1bNgwfR/gN/Pzzz/Xaenm6+wFUt4xAi3bCJ3gUFgworGWcQBSi8737NnT+HYRDzJHsK/DQBo/fvx/BjAw1QU1L3Cd0qxZM/2agIUMMTCNbBcMgGDf++6779SKFSv0czCkYE7gPZBdgHh17NixemAbINMFJgIGm816BjC08Dz2e0yRsFcGEL4nsidkG6FVo1NMU4ghQibBqezZs6v+/furGzduGF/HdcAPIdwoFIOR74o5rd+KEAyT0EHjwPEpJkK6NLaTpYaLUAyOuB/IMNlvnjxJxIILG1n/M0Ue2BiEEBKAMqKbCKqRUUvsCwYeMRou2+SqsW3shTWNA5PaHh4eD2ES2bprRljBaDviM3fi8uXLCtNIZLscF9mjAGeYQNrqjMSJE79GegjmhrgbcJaQJlWwYEFsNKSU1saKIUFC48A5KCSyzDwYJSLuC4zhm5ZpgiTiwBxNWf+rRFGwMQghJAiQUj4pduzYOj3b3in67gRGwxFMR4sWDd11fhb5YoPYGVsYByYpRTNRuwJdL9wxBrQX2NdQyDFKlCjIRuwjcuhp9QlEM5IkSaLnfiCtg/zLX3/9pcqXL2+aCAyO/wuNA+cBRXzwozRA3yPuDI0DO4J5pbL+aRwQQsICWrKhRtEx1A1AejZS/4l1QO0GZHhgTr2s4wOiFiJbBOgfgi2NA0viiXqLTmJfQ3tNTmu0HocOHdKFH9EhQtbxftFnIm+RQ4NCgVc7duzINKhQgnkwMWPGfCfrjSne/0LjwPYkFGE95xRVErUToTbBMhF+cI5GjRr1ZOLEiU+nSZPmQrp06W5lzJjxCX7sUa0YxYgw3Shnzpy6qBD+orosHsNzWbJkQWXaF+nTp7+XNm3aKylTpjwbK1asU/K+SJNCNfiNIhRY7CFC9xJkL2QRpRLZY44f+XBoHNgRGgeEECuAeggfi+Z5enqew/m8a9euauvWrTrdmQQOAmB0j0CtBVwnyfo7LUL9NkzrdPQC6hFlHAQkvqiaaIlcb17EtWSvXr10twzUpSCBc+bMGd1+FPUZMmTIgH3thAgFyVHjyGnO/x97eXndQ4EJEj6QhWD82OCHxkuvVfeFxsGHgTTEfCK0FF0r2p8kSZJbuAAoW7asLgyDH539+/frljP2/oFGTRC48lgeFCz6/vvvVc2aNVW+fPnQxuZttGjRkJmDVqlok1pOhCwHmguOB40DO0LjgBBiQ2Dso5j5bNERXFPgHI1+9mhzh2uJixcv6i4GrgYGQs+fP6/27duns6hRyBDfPX78+NdlXRwUIWgrIUovckbsZRwERTZRFdFc0bGUKVPewfpu3Lixrh+HbggwsQIWNHQFUGgRJhSuhSdNmqQL7+O7x4gR4x9ZF3+JMMAHgwBFKJ0SLPg5tDIh1gGtaqJGjfpW1itSTNwVGgehI5molmiDt7f3hbRp0+oqwZs2bfKv5OpqXL16VbfGQSE4ZDjIiRutIXeKzAKkTlEl1kWhcWBHaBwQQuwEjPxcIoyu49oV3QGQXXhWztG38+fP/xZ97aEmTZqoyZMn6yD86NGjur06AiW0ysMggrWrzb979053Lbh//776559/1NmzZ/Vn4rP37t2rq+HD/DCXL0+ePK9jx459U5YdGQNHRQtE1UX4bllFrpgZ7GjGQXAgeyO3CNsDxfYxOHZSdC5hwoR3ChQo8M7clujCgQ4GMLWOHTump+DAALp+/boO0F+9emXsJdbB3NfQxQHXqtjXTpw4ofc1ZFFgakbt2rX997VcuXK9ihEjBswn7GvHRChuXFWE74b6gC5H23Tp0jGdxEagrYys492iiO7n6gjQOPgvODEXF62Xk9ozON6rV69moRkLkLGAuYRJkybFvnNI1FMUV0QiBqsbB3DdEydOrOeHog8z0vKQOYOUxhEjRhivsg4o3IST+YeCiwcE8du2bTMeiRhoHBBCnAhc2yJ7ENmRpUXIZsC0SYw0o4B4W9EgEbJwV4q2iHaJUCcApsQF0XkRAi6MxGIAYbMI0y1/FfUTtRJ9IsJ74r3xGbiuzCtKI3KEwoSOgDMZB+EBdTwyiAqIMKU+4L6GqbqDRZNFAfc1TAPAvnZOZO5rO0SbRGhpiGyTviLUrghsX8sjwiC7q67bUDMFgYujtdhwNWbPno0LwbOiRHqtuw80DvzAdv8uatSoj9u1a6cOHjxo7BkkNNy6dUv3iTaKEm0XwXghtsPqxsHmzZsVMmkwlSsgKVKkUJ07d9a3MWqE3t/IRLFsB4liQV9++aVCRx+MNFiCXsvI8GrTpo3as2ePNg4KFCign4MhPmDAAD1qYLJz5041dOhQPaJg8scff+jWTj/99JMewQCoUh4rViyVO3du3U0HoD/5r7/+qntCL1u2zCYpljQOCCGEhANXNw6IHUF/6GGVKlUyLlWIrZk5cyYuBuGuupN54O7GQSsPD4/HCIoQcBDrsHLlSoUsKVm/mDeHAlDE+ly3pnGwZcsW1LlQ69ev19k16HuNebQoQIXgHBkJ6NqDVrdINzXB/8WMGVMH6Sbffvut3v5IU0TaIP4fBb8A5rAWLVpUB/sARgW6AlmadePGjdMZD8gowL6UMGFCbVYAmOjIgoCxAEqVKqXnYgIYwJkyZfI3HGBgFClSxOpGoGEcLPXbDIQQQkiooHFAbEbpZMmShap9RvXq1XER857wvyj0gEJozgZGiDA/JaiLPVzQxogRQ78G4MIy4PePEyeOKlmypO6kEBbQXkP+H3Nf3AV3NQ4+kX3o8dKlS40tHzFgXiH2TVSzDQzs0zh2UVsAAdCRI0eMZ5yTGzduqBIlSmD/wtxFZx+d/V50T/SHCOlz9hIyOjC16pU1jQME9tj3EPRj9H7BggW6hofl3MTHjx+rQoUK6edMhg0bpn9rEeSb4Dcc2SeYX9uzZ0/VoUMH4xk/pk2bpv8HYE4kPhcZCyYo/ovpEuDTTz9VH3/8sb4dEGQewIRAES0TzKWFsRE9enQ9lQbGh2U2gzUwjAPsC0jZxfYIbDtR1heOPaSyYv2jWw0hhDgqmPYasBZUUMaBuxdqJ1ZgEyqyhwZcVCGFMyBr1qzBydU/9RQVWKdMmaIaNmyo2rdv7x+YYwSnbdu2emTIEgTdv/zyi7p06ZL68ccfdUopRnlatGihi1+AFStW6AIsGOkJCD4fBeT69eunC6WYwMxAWjPeFymquLBD5U6AUV9cZEaLFk2VK1fOf5TKkrt37+remVg2gOAPF5mWn2FSrVo1fYGKVNnQcPr0aaTl3pD15qwVW8OKOxoHMytWrGi3isQIkDw8PP6zb6OwS6JEifRxiX0cARlGbE1Q2RZp4ChCg1FhEwRZlgYZTAcYYGbhI4wSI70bdQnshZHNc1WEeZbOylgR5tc5AihaZJOpCgi8g8I0Diz3NxTeihcvnu7Q8fr1az3ajykJaCWKIlkoHgqzDIWT8DuMLAC0EM2bN6/+f2Q1yHfRVY3xPIocIaMA/499F+clZBwgWMd9mADIjMB5xcyAQIYCwDQKHEOmYY7CSchcME1ma2EYB5ifyba+EQ/myb4R0TgghDg6qP+E8wXm9KMIH+pJvBD5iCqLfhfhedSeICTcJJELpdOhrdaOzIIGDRro9FLMNUbQgRGjlClT6sfBkiVLdCBuGUAjoMb/glWrVunRGfw/QPCBUSDcR0CDC7+RI0fq5zCylCZNGlW4cGH/2gsIVMwRJHxW3Lhxdf9Lk2+++UZf4AG8t6enpzYdTFD9EoYGuHnzpn5/zHMNjMCMA1wcBpxXC1DZE8u+bt0645GQwQWtbIPufpvC5XE346DtRx999N7caXuAQB7Bjzk9AgFZzpw5/QMcVIZFYToYWTAAkH3QrVs3/RwwTQYEeUgVR3tRZOJgdBgjtJEiRfLPasBxgmM1tOaZrRg1ahT2MxTBcVZnHcbBAL+bdsfqNQ5gDCMTAFkiQYH9C9kG+F0NCP4f+zXeI7BpP6iujboImPKA/RrTCyyzFLAf43kYCTAHYEZbVv2GWY0ijcuXLzce8QMGIPZxy6kSyJSA8YZWqLaANQ7syqciGgeEEGcB7bpxzghMd0ToXEDIB5FOuIjRmtBQpUoVVaNGDT2yg9FMyDQATDAaj3ncGJlHCmmjRo10MIIgwwTdBRDA42IOQczcuXP145hbikJWFy5c0PdB/vz5tVlggoDHNCGaNWumR6UQuHTt2lV16dJFjw6hkBa+Ey7q0CvTsko90mPxPQBGVhFU4XWBERbjAOYETAgzQyI04LvJNkAfe3fA3YyDNnXr1jW2tH1BOjUyfwBGaJHJY2IaBzjmcPzheEDRxh49eujjqXv37jr7Z+PGjfr1OP6REo5RY2QkIP0bRh5+EzC6i8Jy9gajwrL+US3XWYMtlzYOSOihcWBXaBwQQpyNwMwDZB6gEwAhH0z0SJEiHQnt/Pzy5cvrYD0oYASY/SxNEGAgvbRmzZrGI0qP7iDYQFpo3759jUf9jIM8efK8F5jj/ldffWXc82uvheUACFKiRImipyMAmAV4X5gFSC3dsGGDNiYszY3BgwcrsxAkRptix46tsyACA8YBimmZ6anIcECKLUaqTNCnFqYFpjyEZR471lWuXLlwUVLfb1O4PO5mHOT38fG5bTmf2l4gywCZAHXq1NFTaixHaVHbAFkEGNnFPonX4RgyzTbM6UZWgZlJg1oo6dOn15k+5hQIGA1eXl7aZLA3GKnG9BBZ/2jb5KzQOCAaGgd2hcYBIcQZ6SAyTQPUyKFpQKzKBNQdCA0IxINK67cEKagTJ07UKZ2Yi4rAHYUFLQMWpI/CFLBs/4jXIYhHoGOC+5jbaoIRfSyHJchygHmAz7NMOcXj+FzLNlmYk2qOngKYA5jzGlh/bqSZYyoGUl8B3g9zqMeMGaOzGlCPAcsXnjZcuBCXYAttGTGH2B1wxxoHRT09PV/89ttvxla3H8iuQUp2wAwhmG1IyQ6YdYTUa9Q0CCy7BlkG8+fPN+4pXUMEWUP2npaBKRSooC/rHX2inRkaB0RjGAfL9ZYgEQ36d8M4wDFACCHOBDIPkGmAa29CrEpy0cPVq1cblyq2BfNW5fNUhQoV3ptC4E7geyOtW9ZDPWwAFySwQl5BGQcYSXP1wl9DMHUHc66J9cHxhBorsp7R4jStXuPODY0DojGMgyuiGaKpVIRqi+idaJ7FYxQVGq0W4djNKyIkJBKLCouQgYxsgW4iXAPMER0QPRC99fHxeZs4ceK36dKle5s9e/Z3yBBFBjYyunEN1LhxY50V3qpVK12Ivn379u8wPRXTw5s2baqnjmPqKjJPy5Qpo6eGSyzyLnXq1G/jx4//NkqUKG/xOaLrInSXGS/qLfpG1E5UU5RTxNbX5H9lfH19H2O+M7E96E4h63yE36p3WfADiO+5TFROlEH0UlReVEWEdlePRBVE7gJ+eO/gR9zMYiHhA1k+yIhA4UZZpwtFOPG6CjQOiIZTFewKpyqQ8FJAhGOXKeLuDbo7NRa1Fq0QPfX29n6BAu6oEYV6U3369FF79uzRxXeRgW2ZNe0oYOo3rrmwfI8ePdKZ3JhCjuWvX78+6tjBbEB2w23Rr6IWIpgM8UTEhSnk4eHxKqj5/uTDwVQNo9f8EL9V7vLAPHgtwncOKPSXLSFyR5Bh0VR0AJ0XMOUluArzxI+1a9fq4oxeXl6Ys/ezKJnIFXEk4yCm6DY6GJCIB9PvZP3TOLAPNA5IeKFx4D6kFjUUTRfdypAhwxt0buvfv7+eGo1A27KrjzuAKeqYBo46dDAYUF8rVqxYMBZQtBrxD7KtfUXEBYgu2o4N7W47uq1BkcgYMWLgwKmq17T7gIsvS8MAeihCWhbxA8HZ56JVvr6+b9A1BL3o//rrL2PvcS9QqwABU6dOnXSrV1kv+0XI0EkvcgccyTgAo7AtSMSCczA6AMn6p3FgH2gckPBC48A1wVTIr0RHMmTI8App/6gHBXOAhA6c19AKH7XlqlevjgL1T2R9rhfVFbGejBNTN2bMmM9t1ZvancBIct68eXECwRxVZ+0r/6HUEWGaAtbDc1EREQkezCErJPpRtDFOnDg3kJ3QoUMHXYgQHQ1QrNMZQRHF/fv36xPu8OHDValSpVSCBAmUp6fnXvmuv4ng3rvS1IOw4mjGAdIN93Xr1s3YgiQiwFxVWe80DuwHjQMSXmgcuAYIZL8UXUC2MK69Hj58aPxCE2uCDnW4HkTLe1nf20XVRMQJaR8rVqzXYWkzSPxAy0a0pZR1iCI5ifTadG8qiW6Isup75ENIIEopwg/rGBHmzu1OmDDhhZQpU75MlSqVLnyDQA+uLjqYrF+/Xrc7ReocWirCdLh3716YO4IgBQ3uOgwx7OMnTpzQJsCWLVvUihUr1KxZs9SIESNUvXr1FIwOZAykSJHippeX1yFZxg2imSJU+80kSiFy9cKY4cHRjAOT+pgmgqJL6KzhiHMxrQHaE6N4b0SDOa7oIGQU+rwpQm0YHOO4iKJxEPHQOCDhhcaBc/OVp6fnYxQWdNci7vYGxcSNqd1/i0rqrUKcChS5uIGqnJi3QoIGF50JEiRAoZChIke/2MOoNooWYmS7jKiiqIFosGipCFXqz0De3t5n4sWLdyl58uS30qVL9zhLliyvkUlRpEgRVbx4cR2olitXTl9wo48+VKlSJZ1qC6GKK9KS8Ldq1aoK6fh4Hq9DsUj8H/6/dOnS+v3wvmjXmTlz5ldp06Z9lCxZsptx48a9GDlyZL08hvCDgsJ46NmPOVNY/tIinLSRUoYpAOR//4srwjw8pPqbgoGDQpWotdBLNEqEgHWKaK5osQij/8iUQWVdZD5gv0CBxxqifCLL90MRIGQJRBWRD8NRjQOTyCL8bsAAwvEH4wpFUB1RO0V3RSstHgtO+N07IkIdDbRBDOw1lsL7I8hHVkBgz1sK7405nsi6snwc6w+V+1uKcCx5iExQWAvVrWkcRDw0Dkh4oXHgnHSTa1xtjNuDTz/9VMm1tsqRI4fKnj27bi+dLVs2he4JFy5cMF4VMii++Mknnxj3gufKlSvq66+/VtevXzcecTzQAt/LywvnTVx7EicDxSxG+Pr6Pu/bty+dOAP0tM+UKRNOEutEubGi7AAuNnExjxNVcdF3or9Ef8sP0QVZvhcIxKFatWqpX3/9VY9uHT58WB05ckT/eGDEy5l5/PixunTpkh5Vx/fCCDsKD8K4ML97+vTpn8oP0FlZLwgOdon6i2CcYL25Qis/4vw4unHgTMBIDGvg3Vm0R2QZwAdFWdFakY++FzLIELrqdzNU0DiwHzQOSHihceBcJBUd//bbb42rSfuAIoKtW7c27v0LunDFiRNHzZgxw3jEL6sZ9egyZ86shgwZousGmGD6J+ovmOA5ZIKa013xvwAxgFwTIyjX18e4dgYwEXr16qXfu0ePHg4zLRZmiGwnDGoRJyWWCBdYV8qWLavnK7tq6mpATp06pb788ksVL148FPXAiCzSrm1NRhFMCQQU6C99NG3atPeyZs2qR/Lxg7Jz5051+vRpdf/+fWNJSWhAFg1+mLdv364NFWQ/YL2mSJHilqznw6KNoh6ibKI0IkJsCY0D64FMKgTeYcmEQQ9tGAehAdMJYBygsHBoQDcQGgfOAY0DEl5oHDgPmC45d+jQocYVof2AcdCqVSvj3vtg+icycgGyczGNwhJk8/bu3VvfRgYwpryBrl276vuWoOsDMn0BWkFmzJhRvXr1St+vWbOmliVouYiMc0comp8/f34cV731liNOT2YRRm8vwbkaOXKknkvt7MBpQ4V3HJTx4sVD+uoiEUaZQjMaFVYw5xsXupNFf0rg+hCpSnATN23axN7/dgQ/qkePHtUtAeHEIpUsWbJkd2Q77RMh0CsqSi4i5EOhcWA9wmMcYOrObr+bIULjwHWhcUDCC40D5wGZ1BccoeVwUMYBakthvj/qC4G0adPqKb/IBujcubMWMgrMdvowGJo0aaJvI8sAU4N79uzp/9phw4apJUuW6Oc3btyo0qVL5z8NHcUJS5Ys+d574/UoDInlsDdFixbFcTVSbzniciB1EwUtkDJ/WnbepxgZx4guRuwdqVbCkydPdKr+6tWrVcuWLfV8okiRIl2T5V4iqi1KJbImmHuPdoSTPD09D6OAXPPmzfXnnzlzxlgq4kwcP35c/xAjPSxp0qT4YYOh8JMItQBCm8ZMCKBxYD3CYxygZgqmMYUGGgeuC40DEl5oHDgXtXHdduvWLeOKzj7UrVtXX0NiKgGEugZTp07VXacsR/xhEsSLF09nemNawcKFC1WUKFHUhAkT9PMwDsypCr/99pt+bvz48bpzAQpZx4oVS7Vo0UI/j8LZPj4+uq4DBsgmTpyo4saNq+bMmaOLYK9Zs0ZFixZNDRo0SL/enqAAt7e39wPZXqipRdyMUqJPRCi6hrnmt/Ply/ccrhhG9jGii04OqNaO1HscGDAa0AYF8/BRCR7TIrCTm0KLt2fPnul57kjVxw8ADrxDhw7p0foffvhBp9vgM8qWLfvG19f3vnzueRGKWqEoVWUR5jnZghyi8ZEiRTqbJUsW9fPPP7ttj353A9NHMG8O88g8PDzQWWC0iNMdSHDQOLAe4TEOBopoHBAaByS80DhwPkpLgPx4wYIFxtVbxIPaXCtXrtRZzhAGEx88eGA8+19gLCxfvlxdvXrVeMQPdCQ4cOCAcc8PxEV4bWCZy3gOn3f27FnjEb/2iBgMs3zMnqD2g2wjXEOjRSYhQZJEhJF5VNKsFQ7hog4FAyP6ogvF9ubLj9BrpB3BuCDEZMOGDbpAZZQoUeCcYlpKRNTIIM4DjQPrER7jAN1DaBwQGgckvNA4cF7ayLX7M4zqu0vdNkcFA8CYviHb5III53JCXAbUO+gguoCCIwgMCQktSDdDLQvZf5B900hE3BsaB9YjPMbBEBFrHBAaByS80DhwftDCekbcuHHfdunSRd27d8+4YiO2BFMmUL/B09Pzkax/nIs51Ze4FJ+JLsIRY+FCYg2QXlaxYkVccBwXsWete0LjwHqExzj4VkTjgNA4IOGFxoFrEU2E3+KdKVKkeNe+fXs9lRrTpEn4wRTzxYsX6wzcaNGivZT1u0BUXkSIS4ELxJmpU6fmFARiU+bNm6cSJkyIiw+kTtuiiwdxTGgcWI/wGAdDRTQOCI0DEl5oHLg+mJKMNt174seP/w7tEgcPHqwHf96+fWtcxREAgwD1GtAaElnZHh4er2W9LRW1FrHmF3FZcOE5DUXujhw5YhwOhNgeFNJMnjw5LkJQ7Z24PjQOrEd4jIPhoj1+N0OExoHrQuOAhBcaB+4Ltv3XIvzW/y16W758edWhQwc1cOBAXfzw8uXLxtWd84MWjSdOnFCzZ89W3bt3V23atFHZs2fHvv9UtFWE6QYwCNiunLgVRVBt1eyRSog9+Omnn/Bj/FyUVe+VxFWhcWA9aByQ8ELjgIQXGgckOJCOj4EgCOcEnG9ui15HjRpVt4Tv2LGj6tevn79Gjx6tWyvu2rVLt23/559/dPFAdF1ARzkE8Mh0MFs2BgSPv3nzRk+vQHc6dFJAu0WYGGgnvnnzZjVz5kw1bNiw9z4XbRvRDU6Wzbz+RKv6dSKcJ7H83UXZRIQQgxpJkiTRbU9sAfqvRo4cWTVq1Eh9/fXXWg0aNFBeXl66byt+DEIDfgw+//xztX37duMR64IfnLJly6oSJUqoAQMG6B8dS3bs2KF/WBo3buz/PeCwJkuWTBUtWlTdvHnTeKX1wI9m/Pjx1fz5841H7AvWQbp06Wy2rwD8wMuJ5Yms62J67ySuCI0D6xEe42CEaK/fzRChceC60Dgg4YXGAbE2mK7qLYolii9KK8ovqihqKGojQpH2LqLeIrQVxmh/f1FP0Teir0StRPhtKyvKJUohiidCm8OwnCcJIYGQIUaMGHf/+OMPI2yzPugZmzhxYnXs2DHjkX9B4J01a1b16NEjfR8p6wjIc+bMqYW0ILN/a82aNXXgnihRIvXjjz/qx65fv6569+6t8ubNq0qVKqUmT54c7Nyrixcv6s+Eu4jUqilTpujH0c8Vj8EJTZEihRo5cqR+3BIEzXgegW1AatSooV1L0LJlS//3BXfu3FGVK1f27zmLOVBwPVEgEK0sAV7Ts2dPlT9/fv/vAe7evatQawLzynr06KGXsVmzZjptygRuaq9evbSDi3XZtm1bdejQIeNZpfva1q5dW2XMmFEbL/geJjBLJk6cqD8T67Bv377aoTXB52N5kZbVvHlzbWDkypVLr0dbsnTpUswRuyfbGycQ4nrQOLAe4TEOvhPROCA0Dkh4oXFACCFuyKBChQoZ4ZptCM44QAAcI0YMtWbNGm0QfPvtt+8F/kOGDNEj3ADFRzJlyqR27typ76NS6UcffaSDWxO8T5w4cQINbPv06aNSpkyp38cEATyWDZ/9/PlznTkQ2HICfG6UKFG0UTFmzBitUaNG6YAb8/PNUXi8B76HCcwNmBHbtm3T94sXL66De5MVK1aotGnTvjeKP2HCBG2OPHz48D9Gxrp165Svr69e5sePH6vvvvtOp3SZIM0rVqxYOlth+vTpqOSqTp8+bTyr1Pjx4/X/Xrp0SWczrF271njGL8MhTZo0uigmTBzcNg0P8P333+vtgf+1JcguQfaH7J+YR0dcDxoH1iM8xsEoEY0DQuOAhBcaB4QQ4oYMK1iwoBGu2YbgjAMExwhEMeKPALtkyZI6YMTIeKdOnfSofL58+fRrYRBkyJBBrV+/Xt//4osv9P8OGjRImwIQAnaM1uO9AoIpBhh5t+T8+fN6ygSCbbw/TJS9e/caz76PmXGAgBrzp548eaJevnxpPPsvMA4wh8oEwTgMC9M4QMVVTN8wgRGBUXxLMH0Dy4PpDzAlLF+/detWnXUBcwTzvj777DOVO3duPe3jyy+/1KZEggQJ3suMQPcCvK5AgQIK01Iw3WPDhg0qadKkOsMDmQZYf5iiMW7cOG00YO4XMhgswTbEY7bOOADVqlXDRQnaxhHXg8aB9QiPcTBaROOA0Dgg4YXGASGEuCE1JPh+GVigbS1Q7CR69OhqxIgRau7cuVoY6cdUAaThI3gHkyZN0qPjc+bMUVu2bNGvx4h4tmzZdNETTGdAhsE333yjMxXu3bunMxAQYCLTAJVcMb0BI/oI6gOCoBcj6E2aNNEj6lguGBpdunTR749RdGQP7Nmzx/iP90Gw7eHhEWRGggkCeCwXlmnZsmXaDPHx8fHPlIAxgkDeBFkDMCywPmCKLFmyRNdNQDYDsiBgEsB8McG0krhx42pzBK+HSYBgH+ts2rRpOrCX7aqDe3xPGCOodIv/Q1VYrPOpU6fq96pbt642X2BM4LWoPYF1bhoDVapUUUWKFNFZCZg+gOVCBoStK+bCpJF9BkVqeEHrmtA4sB7hMQ5+EO3zuxkiNA5cFxoHJLzQOCCEEDdlTKVKlXR6uC3A1ACMnFvKrGkQGLdv3/7PPHsE0CYYwbecngDwnvi/0ILUfkwDsATz/WFGBLUe8Dg+O7TFHJFFgcwEgEKLZnYCbltOl7AE39uyKCOmbaD+geXrsRz4rlheE/wPPs8E95GNYILPxvSEwAwVgO9t+f8BgUkBgwPgtZafbW2wrEarm+Z+uydxQWgcWI/wGAc/imgcEBoHJLzQOCCEEDcFlUwHYqTaMmAnJKLBFAlkNcj+iJ64xDVIIorjd9OfwIyD2CJUUiZhIzzGwU+i/X43Q4TGgWvgK0KFcUuCMg4yG38JAZFF2f1u+hOUcYDX4fWEEEJcnByiO/379zfCOEIiBmRHNGzYEBchf4vQOoe4FpNE5vZtKpopQrp8BRH6O+O5BSIvEQkb4TEOENzTOHA/copwrN0VoUBmXxGmhKHdGcy8+6J3ovQiQiyB6YR9B/vISFEz4z7+IoMJXZBei2g6EUKIm1FF9BDt/2w1fYEQAMMANSFkf7siKoadj7gsaAGIbR2YZohI+AiPcYAgkcaBe5JF9FIU2HGI7ZZRREhgZBDBOAhs37kjSikihBDipsA53oIpDBs3bjRCPUI+HBRjRFFG2b8WipJjZyNuAar5B7zgnCCKJCLhIzzGwTjRn343Q4TGgeuRW/RIZHkcIiBMKyIkOGA8PRRZ7jswDdKICCGEEE0t0d/oOoBOAbYsjkdcDxS3hFmArhayH20XFcJORdyS70XmBedUPEA+iPAYB7+KaBy4Nx+JnohwHF4SpRYREhqQlWJmHmDaSyoRIYQQEiiohTArZsyYTxs1aqQOHz5shIeE+IHOE2ipiFaZkSNHfiD7C+ZAct6se4F6BQg2URgRRQ9RgA2FEqHFokUiBCu4j+fwGrwWRdyYgRB6wmMcjBfROHAfvEWxRPFECUSJRDjuGoqQeVBclFSEx/E8XofXh2WfIu4FslNuixLre4QQQkgoKSqaIgHi/TJlyqgpU6aEqTUicX7QDnPMmDGqaNGiGIFA2iLms+cXEeckrggXhDB7EFyMEc0XrRH9GS9evPNJkiS5lzhx4jcilTlzZlWrVi311VdfqWHDhqkJEyaoadOmqTlz5qjffvtNLV68WC1ZskQtX75crVy5Uv3+++9auI3Hli5dql+DrJS5c+eq6dOn6/cYMWKE6tixo6pbt67Kli2bwmeJ3sln348fP/4FDw+Pv2R5ENSisCLS71F4EaNhWHYEP+5AeIwDTA/BugsNNA7sB7Yp9mWolKi/CPVAloq2xYgR44QcC9flmHiGYyNFihSqdOnSqkWLFqpPnz7q559/1ufjWbNmqQULFqhFixbp4xBZgytWrPA/DletWqXv43E8j9fNnz9fzZw5U02ePFn/tvfq1Us1a9ZMlSxZUne+MY7Fp/L513x8fI7L8mw1lmu6qLcINWvMZWeVfdcBxtKvqVOnVu3bt1dJkyZFMU0UuoXRRAghhIQZjFzUFy339vZ+ULZsWYVODSdPntTF8Ijz8vjxY/X333+rbt26qRIlSigJ3FBJebaohgjBJnF8YorQuaK5aLJoU+zYsa8kTJhQ4Vjt27evDhhQ1+To0aPq0aNHxtZ3fJ48eaKOHz+uNm/erE2LAQMGqI8//ljhu8WJE+eafNctommiNiKk17rCxW54jAN0uaBxYF8QTMPcgiEwTITz5aF48eK9zZIli2rdurUaO3asNtf27t2rrl69auzlzsHly5fV7t27tSEB4wFmRsaMGZV8v5dRo0bFvgeTYYgI2Q5YD+yo4ti08fT0vN+2bVt1584dYyv7gTbe2L7yGmQgoMsCIYQQ8sGUFXUWbY0UKdKT8uXLq3bt2unRRmQosIODY/DixQt9IYCRX1wMwCCQbYZ0Vow2txUhw4Q4Pkj7R7bAbC8vr4MJEiTQI/cYQdywYYPezu4KptLAXEBWBNqAYvRUfpOOyLqaJ2ohcqZshfAYBzCMDvjdDBEaBx8GtkteEWp7rIkePfrzfPnyqSFDhujR/dOnTxt7pXuCAQVkOGBwIXv27MrHxwfnmhWi4aLsImai2A+c6/cULlxYm1ehYfv27SpPnjy4ZkAtI2YdEkIIsToYAUWGQnsRLlBvJ02a9DUu6JEaOX78eHXixAk9mvju3Tvj9ETCw9u3b9XDhw911sBPP/2k12+9evVU/PjxX8l6vyHC3HOYA3VEYQlEiH1BoNtdtCV27Ni6xeWMGTPUvXv3jC1PQguyapCtgJG1ePHi4QJ4p6iPCCnXjkh4jIMpIhoH1gej5lhfMyNFivQif/786ocfflA7d+409i4SFhCEfvfddypHjhzKy8sLU+BgeJUQeYqIbYDhPEauCdQvv/xibInwgX0f5yN5v5Gi0P5+EEIIIR8MWkO2Fn0pwhzPy6JnsWLFeluxYkU91w7CnM5Dhw6p+/fv62kRrt79ASOnT58+1QHivn371KhRo/zXBea6+vr6vpH19FR0VoSCaDBnkErI1knODaYDIb35LlLxZ8+ezWlANgTHGeZ816hRAxfBKPaJ4NhRKomHxzjAdA0aB9YBpvc2zPsfPHgwiwXbmAMHDuj6DYapt15UHRuBfDA4Dm9jMAE1i6zJlStXdGaXvD8GJ+riwwghhBBHANXYUaEdqaGfib4RdRH1FWE0/YoIacnaCUcxKaSNVq9eXbVp00Z98803qkuXLqpr1656Hj+EOd8wJJBOuWXLFrVnzx5tTiDF8sKFC+r69evaqEDqN0b00XoQ9/E4nke2xMGDB/V8T6RHo0jVjz/+qHr37u3/Gfg8fC4+v1WrVqpKlSoqd+7cughVrFixMNqCk+5b0QXRXFEvEb5XJxGyA9DpAlXpORLjulQW7fjoo490DYKXL18al2UkosFxjuMYqdWyTTBfuyo2kJ0Ir3Fw0O9miNA4eB+cXyZEjRr1JYqBoqYGsR8wErAdZJugtSRGtmOISOhAW+RdxYoV09c1EcG2bdv0NZd87h+i3FgIQgghxNXARS2K/yUTYaQxnQjV27OIELTnERUQ4USMeX04IWJ+Jp7H69C6KKUII8VIBWS7ORIasN8sQ7G0NWvWGJdexNHYtGmTKlCgAC6G14lwvEck4TEOkLVF4yBsoD7Pvc6dO2tjmDgeqJWEopKynVCkrxE2GvkPaLk5IUmSJLrjhj0ZN24cpklie/0kwnURIYQQQggJIzCcTqLFIesUOA+YLtK8eXNcCJ8RwUyMCMJjHMwU0TgIHSPTpElD487JWLt2rS56Ktuvm99mdHtaie4gs/LBgwfGWnIM7t69q+styfJdF+H3gBBCCCGEhIIJRYoUoWHgxGC6EqY/ybbE9KiwBPThITzGwSzRIb+bIeKuxkFlLy+vF+guQ5wXTCny8fFBnZ+SfpvVrUAG5N6CBQs6TYFOi64Mu0QRZb4SQgghhDgVSNU8PHDgQOMSKmQQoGbNmlVhRBTdMaDPPvtM18iQi2XdUtNaoIWjLJ86e/as8Uj4Qeu1r7/+2rj3X1ADJFOmTOrWrVvGI84JaqNEihTpvKw3pAfbivAYB7NFNA6CpkeuXLlCPSXh2LFjKn369KpUqVK6hS1q1dSpU0fXp0H3GluBOjqosxHeoHDevHn6mEaBVcvfD8x5R/2fS5cuGa/8cNCpBPVZrGGIYloQjq3QgikM+D7yXdExyNVBraMfrNEVwd7gPIBjSL7PKFFsfDlCCCGEEHcHbdyWDBgwwLhkCh1IjcfoTK9evYxH/gWBOWojAATqlStX1gFC2rRpdaHOf/75RwcKyZMn1+3OMmbMqJYvX65fD1DYEwEEAnj08f78889V3Lhx1eXLl/Xz+Nxp06bp2wBFQFOlSqVbfYJTp04pdDzB56VLl06VK1dO/+/UqVN1CnGiRIl0Wj86FgQEF7x58+bVKaygfv36qlOnTqpEiRJ6eSCkIjdq1EgHTgEDtK1bt+rvjucyZ86sMJ8XXRFMUNAOgSGew3dHFxIUIz1z5ox+HoFgyZIl9edg2bHewmuYjBgxAhe+CLx9saFtQHiMgzmiw343Q8TdjINPULE/tAEu6lt4eHiov/76y3jkX27cuKGL6qLzDdp8Yn8qU6aMPnaqVq2qjT8UzsW+h/0VBiAMB9Mwe/Xqld6vU6dOrTBqnDRpUoUWj9gXkW7+ySefKG9vb20e4ngAOIZxLGP/xrH95ZdfBvldcEzI9/Xf7y3BPt+gQQN9G8uK5cYxCXMEVfdxnGNZ8J1w3OP4vnjxon49gNGI53B84X/R3hS/J+h0hHWGdYDfIJMhQ4boriVmy+V169bp750tWzZ9/Hbo0EEXIP7222/1d8ZnootFaMExnzBhQhQYRg0iV6Sp6B6KK7tathqOh8aNG2NfvSVCFxNCCCGEELclevz48W/s37/fuFQKHbiQLlSokIoTJ46uVI0ABAGDr6+vvmA3g12MgOLi3wRBfrRo0XRaqCUYycMcWHQMQUePI0eOGM8otX79ev0/5igkAp1Jkybp2wDBtlyYq3Pnzqm9e/dqcwDmgwkCjQkTJujb6FSCQCAoAhoHCJp69uypbwOYCHjeBIYEvi8MERgRpnlhguVEMPjo0SPd2QSBlmU2A+avR44cWY9MYhQ2Q4YM2vhA4IfX4X9kG+mK4GEF7fl8fHzeyf9/pLe09QmPcTBPxIyD/+Ihmob+86EFx1bZsmW1CRAcCPSjR4/+3jGD2wjuceyY+9rChQt1oIxj78mTJ+8dQwCtCHGcI8DG/grza9euXfo5BOfYd/Fe165dU3fu3NEF8FKmTBlo9sDixYv1fo1MAATyEI4NdPGBKWd+JxgRPXr00LcBjk/8zmD5THC84DcDy4JsAByPlqYg/ge/UTAO8FuC34+rV68az/qZmzAaAdY/3t8SmBym+Yf3CUvGgYkRfCLbxlVA96jdMHAiqiuCvYEpbHSz2SrKipVACCGEEOJORI8bN+6Nffv2GZdHoQMZBwgiQpregOwDVBs3QWozgpiAreQqVKigPv30U/8RQQQgJmh7hhHP8+fP6/u48Ef2gMnp06e1cYAABaOeMA4wymqCIASfi2WGCYCR0KAIaBwgMJs4caK+DdC6FCOiJjBIEGigTSoCJoxS4vlhw4bpoH/s2LE6VRnLg2ANo6MIYExg2CRIkEAHYhjRzJkzp04Dx3eBMJKKEWWMHIcVLBOmjcg2diTjYL5ov9/NEHG3jIMpo0aNMrZeyGDfkf/RAU1AMDKPrB6MnqN9Kgy+WbNmGc8q3ZK3ePHiev8y9zUcX9hncJwgiwBZCE2aNNGZB9gHv/vuOx04wzjAiD2CftMARK98ZATgGDDfD6YashpgMgbEzDjAvh4cMCcsjTu0D0bhVkswrQPLhQwLmCmo02IJ1gECXJgJGzdu1MGf5e8L1oVpHPTr1+8/749jHL8faIWK3zyksYcVwzhAYVBnBu1AJyFjy/I30R3B7zoMYVkf40TsykAIIYQQt8BTNC+wKQfBgUAWqfTBjd4DmAYIKixB0I95sEjTR6CEkUZcuJvBMQIVBNMY4cRywTTw9PT0Nw4QPOD/kS6M2wj0Y8aMqYMUgAAc/4PsAgipxTAEAEYU8Vr8DSyg+f777/WccYyYAmRCjBkzRt8G7dq1ey8wwWgnpkQgsMJtLBcCNnwevjsCGnwXPAdgPMDkwDJi2TFKa5lN8cUXX+hpGQhm8P0Q8MF8CWxZQwL/L9t2qSgaNrQNCI9xsEC00+9miLibcVAd2xtBf2hBlg2CYozsIxsG2xz7LMyq3377Tb8GGQfy3mry5Mn6PoCZgGryMNmGDh2qR/Vjx46tunfvro0BvDZGjBjqq6++0iPsmDqAz8C+DiMOGTTITsA0JBh7MMZgmGGKAI4hHNswCPG/5hQAS2bOnKmX6ejRo8YjgYPjuGPHjsY9pYN/TDPCMYTvClMBx9ygQYOMVyiduYRjfvjw4fp4wjqFoYdlhmkHgwOGBFry4b2Q1QCDEMuJ3yBMw8BvAJYdAT+mLZi/LZhGBHNv6dKl+n5oQOaP/Aa8ke+LVsnOCLoiPMJ6ffjwofGtCIDB3LRpU+zLaMPZBCuLEEIIIcSViSv6E4E6sR3IjMDFt2XGAUwJBDEIaqwJjBHZpkeMbWsrwmMc/Cba4nczRNyxOGJ3BLlmxgtxbpCZgSkhsl0b+G1epwFdBfbB+AyshoY1gRkU2jaNeC1MKmR/BAZqc+C3NDCzytZgyoYxlQG/KdmwEgkhhBBCXJUpuFC0nINPrAuKh40ePVpnWSAzIWBNhA8FF80oBCfbEu0YkU1iS8JjHCwUrfO7GSLuaByAUp6eni/ZjtG5GT9+PDqb3JXtmdNvszo86B4wHhlPyBqJCJBdA6MMtS2QHRYSmEIDo9UslBsQHDPIhMHUL3sB0wKFaWPFioX6MmNEMbFyCSGEEEJcjcSi3dWrVw9TyjSxL5jnXbt2bRgGJ0QZsSEjgPAYB4tEq/xuhoi7GgcmnePHj/8OBTSJ84CpWN7e3ggau/ltRocHKfb30M4ztCP/1gLTvlBzBlNEMGULdSosQcFL1LyBGYqpMDBb8T9mVwzUr4DxULRoUV2bAoV4MeqP74HMLkwHQxFfCLVoMPUmpGKi1gRGMeqEyPq9I6qLlU0IIYQQ4mpg9GkW5kBz5NNxQXV6zMGWbYXaAUmx4SKQ8BgHyIRY4nczRNzdODBp6uHh8RDz9WEQEccDNUrQNla21T+i2nqrOS7Y34t5e3vvQbHWsBbGtRbIMEA9DhN0jkH9GUzpAsuWLdPFXS0LWf7+++/+xsCWLVt0LQuzHg2A8YDHYESgfgYKGKKAL7r14DEU44xoc8QEBTbR1jdq1KjbZP0XEkXCxiCEEEIIcSXQf3wDAlRUFOf8a/uBi14UXkQROtkm20WlsYHsRHiMAxRrhMkRGmgcvE8s0YBIkSI9RMtCs2AfsQ9o/YosH09PT0xH6ClyppT01KJJqL9g2aYzooBJECtWLN3GEwVjUQAWhS6ROYB2mqhVYBoHGLU3QdcPvAbnIEsTwcTsmoGpCvg/TBuA2YbPw/QBtL4dOXKk8eqIBZ0YUOxT1js6MaTARiCEEEIIcWUwqt1DdLlw4cLq119/fW/Eh1gXXPxOnz5dV3OXdX5DNECUSuQIhMc4WCaa5XczRGgcBE8F0abUqVO/QjYCgqqgisaRDwOBLIoEohNFokSJXsp6XyEqhY3gAuA43o+WuH/++afxjW0HMgowLQEFXAOC/Rd1dmAOAEz7QNZb3bp1Vf369XWL0GTJkvm38USLUHT6QCvfOnXq6A4beB61XtABAuco1JNp2bKlnsaALjbIVIgodu/ebf5243emGFY2IYQQQoi7kkCE1NwdsWPHfoKLswkTJti1OJWzglE0mATVqlVD+7Znsk7/FCG4TSJyRMJjHCwXTfW7GSI0DsJGSdGPojsFCxbU87lPnDihnj17ZuxhJDQ8efJEt5hs1aqVDmJlfcKw+05UUOTqfOXl5XUPWQD2Sul3dlBcGO1IZV3eFLXUa5UQQgghhAQKUnY/EQ0S3UAQjGAYfeYRyGAkyB1HRpE2i+9+9uxZ3S8f/eKTJEnyQtYRCmchMKkpsmX7RGsTHuMAI7UT/G6GCI2DDwfTjPA9t4oeoUgcCsyhNgb2RXc1FTDfHd9/xowZen3kzZsXgd5D0SZRI5GzdEKwFYlEEzHaDzOThAy6aCRMmBD70U+ieFiJhBBCCCEk/KDiPzIUOopWip4kT578edmyZXUa8DfffKODGqTo4+LeGQIbVOnGsiI9duXKldoUaN68uULqb+rUqZ/Ld3wqQgDcSYTK2plFrkB4jANscwT4oYHGge2II8L2w4jo96JLvr6+T/PkyfMGad/t2rXTLfnMonIQeug7MphOYC4rCuNhLjvm0COFPVeuXK+jRYuG4/C8aLiohQgZGmyVFzKFRbtgOqHAH/kXTHtA1wdZP3+I8mBlEUIIIYSQiAPTH0qIPhW1Ew0UTRPtFt0WvU6YMOHrnDlzvkFV8Jo1a6oGDRootBNDay8E7qikjWJYo0ePVj/99JMuTIURIRQCmzx5sr6Nx/AcXoMgY9CgQapHjx46xRtzYhs2bKjfu3z58ip37txvEiVK9BqfLUIxtH2iGaLBovaieiIUKkQ7S3chPMYBWjGO9rsZIjQO7IuHKJeoqqiZCO0FMRXidxEC8Oc+Pj6v06dP/6ZYsWJvMU0Jo/foLtCmTRvVuXNnXTl/2LBhatSoUdqIGDNmjC7uielMOA7xd9y4cfpxPI/XDR06VPXp00dnKKF2A94PZkaVKlXQiu9tunTp3nh7e+M4hCl3RoTpLzA/uoo+F1URZRMR64PfursdO3Z02yK56PKA/VLWwy0RpyIQQgghhBASAuExDhB0DvO7GSI0DghxTGCQTnOndr0o1Ijii/K9x4viYyUQQgghhBBCQiasxoGnaLUIGSShgcYBIY4PjtP9JUqU0J0nXAl0RUBnBvl+u0TIgiOEEEIIIYSEkbAaB14iGAF99b2QoXFAiHPxtehO165d1f37943w27lAVwRMeZPvcV3UGl+KEEIIIYQQEn7CahxEEq0Tddf3QobGASHOCVrITk6aNKmaOXOmEZI7Nqi3kSBBAhgGY0ScikAIIYQQQoiVCKtxgAB9vQjdJUIDjQNCnJ9ior2lSpVyuKkMmIpQpEgRmAXbRQWxsIQQQgghxHVBa7nUIvReLypCQIvK6jVFdUToeFBfhP7sqLre1LjdQITn0CIRr0X1+LIivAfeK42I/biDJqzGgbdogwiV2UMDjQPnIpoomegjUQER2h1+LKohQgtWHGc4DhuKmohwHOIv7n8mQhcVvA6vx//h//OL8H5JRaHdz4jj8pXoDqYCYEqAPbh27Zpq1aoVzIIboi+wUIQQQgghxHlA0JFVVF3UXNRPtEZ0y8vL62GKFCkeFShQ4G21atV0m0S0S0TbxCFDhqjFixerPXv2qMuXL6uHDx9aRVevXlX79u1TS5cu1e3k8Fm42GzUqJGqXr26KlSo0LtUqVI9jhw58kNZRrRn3ChC0T/0h/9ElEMU2oDXWQmrcYBtjPUU2nnDNA7sQ3JRKRHMtQ6iSaJToofx4sV7mC1bthdog4oWiU2bNlVt27bVLVCnTJmiNm/erI4fP65b9QV2XIVVd+7cUUePHlUbN25UEydOVJg7j1aPaNFYt25dVbZsWZUlS5bnsWPHxnEIHReh6v2XIhgSxUVImyeORULRTEwNWLBggRHS25bZs2cr2X9hGGB/jouFIIQQQgghjgdGDDGij8B6n+hO2rRpX8AIQAAwffp0HSRAz58/Ny71nI8XL174f4958+bp4KpGjRoqQ4YML/GdRYdFrUTVRClEzkxYjQMYAJtEzfS9kKFxYH1QoBIZNTC3JovuxIwZ80HJkiXVJ598og2Aw4cP6/33wYMHxl7tnKA4H77HgQMH1Ndff62/X/HixZWPj899+d63RTAYsB6Yom5fkFlyGFMZYDpZE+zLxYoVg1mAc04RfBghhBBCCHEMMomQcrzV09PzNi7UMUq/adMmdfPmTfXmzRvjks59efv2rU7T3bZtm2rWrJlCG7MoUaIga2GnCKnc2UTOQFiNA1/RZhFGgkMDjYPw4yPCtJsfRFczZcr04uOPP1ZjxoxRFy9eVI8fPzb2RvcGWQ1nz55VI0aMUFg/adKkeSbr64LoW1FpEbNRIpavPTw87nbo0CHcxtXt27d1Voq8100RpyIQQgghhDgAGDFHBsGB1KlTv2rcuLH6448/9CgfCR/37t1TO3fuVC1atECWwhtZt8hQaCtKJ3I0wmocxBRtEcFYCg00DkIPRm1nRYoU6TaMqHHjxqkLFy6od+/eGXsWCQswOGEojB49WhUtWhRB6C3RRBFHrSMGdDWYgqkF06ZNM7ZK0GA///XXX1XMmDGxrcaKYuFNCCGEEEKIfUChwHai03nz5tUXdMgiILbFnPZgVP++JOoswhxha1NCBCMIbRNDQ1iNA1zMbxWhEGVooHEQNNhWixMkSPASafh///23sbcQW4LUd9RXkYD2iaz/uaI82BjEpqArwz5Mpzl48KCxJfxAbZtChQrhdxFdEVBIkxBCCCGE2AmM/IyPHTv2i549e6rr168bl2zEXmCaw8CBA1X8+PHfybaZJkL9iPCQVjRKhOriuPg+JAqtaQDCahyg+8U2ETpehAYaB++DYoWXKlSooDN7iP3BFCxjDv0JETpCENuCYp038uXLh3V+TcSpCIQQQgghdqalh4fHwy5dunA+tAPz9OlT3VkiUqRIj2SboZJ8cKC6fF8RKuTjwttSf4kwHQLTT0yhxSVaUkIwGTKIMlr8RZHDPaLQBt6oZI6RwfL6XsjQOPDrcLArR44cegoLcVzWrl2LDg84lhaIbJERRPzIJcJ6dpZaMIQQQgghLkn7KFGihGpeKXEs5s+fr7y9vXFB3ctvU74HLrK7iBBYm2aBpfaK0DsfBfVMIaPAUigWhzZ9ppAun1cUWpC9gkAd8/FDgzsbB4lEB5EWD3OIOA8ouIhuMbL9YJKxFaT1KSDC+uU0EUIIIYQQO4Cg7mi/fv2My1/b8Pr1a3Xt2jV1/vx5debMGV2ADLp8+bLxCuuB1ohI64+ITg6oAH7jxg3j3n9Bi0lM80BHBVszduxY5eHhcUW2JzIFggLTG5ChcEZkmgfrRLYEo7DoHBHaAnPuahwMSZs2rS5u+KGgaByOAXRSsDzeTAVVuR7/h/olpmmBOhuoVm9JUIUXcdxduXJFnTt37r3PDO74CC8oJnr37l3j3odjzd8K/M5lzZoVxxWyfIj1oHFACCGEEGInsorub9iwwbjktR2nTp1C60FdAfvYsWPqyJEjWnPnzlWenp76cWuBdoco4ogg5kOpV6+e+uyzz4x7/6V9+/Zo5Wbc+y8rV65UKVKk0EFcRLB3715UGEdrudAG6TFEbURDRJHxgA3AKPouUT59L2RcwThAC8pfRDBlQtoWHqK5we1nYeXRo0eqQIECqmPHjuro0aP+xxuEQn9BdUCBwYegd+rUqfo+jlWzAOOuXbuUr69vkP+7Zs0aFTduXP0XnwkdOnRIoUZK1KhR1e7du41XfjhoZ/rJJ58Y98IPTJD8+fOrxYsXG49YDyP7AJX+iXWgcUAIIYQQYgdQ2O7w+PHjjctc23L69GmdTh9Y8FCpUiWFlo6gevXqOvhAUNC5c2c9Wj9x4kQVJ04cHcQjhRutt1Ak0Bz5HD58OKqd6+cQfCFgglCjAYYF/nfLli36tQDTMVKlSuUfAMG0wGuaNm2qGjRooBIkSKBWrFih/vrrL/XRRx9p/fDDDzp7ICDoO54hQwZ9G8vz888/q1ixYqlWrVqpRo0aqZw5c6r06dMHGWzZgkWLFuHi+pwoMTa0A4C07d2iHPpeyLhSxsEsEbYHhHoUs0UFRZZ8DvPp5cuXxhb8cGAcoBvHsGHD9H5r6tmzZ/qveeygWj0+u3z58qpdu3aqbNmy+lhANw9QsWJFVapUKfXq1Sv1+eefKx8fH90yFIZAQFavXq2Pq4CZAMhggDk4Z84cbUygHgDMiSZNmqhBgwbp0X68Z/LkydVXX32lqlSpohInTqyWLFmi/x/HMX4P8N6dOnXyv43/BzAfsVyWmQ34LciVK5e+jXVRt25d/T/oRIH1kjt3bp0VgSydZMmS6d8ga9eSQFYEDEzZvtX9NjP5QGgcEEIIIYTYgehyoX4do4IRAVKWYQjI576ndOnSqSlTpvinCleuXFk1b95c3waTJk3SAYBl0I6gB8HMzJkzdYCTNGnS91KNMeqO4AAX7vhcBEbbt283nlU6gEHRObznxo0bdWBvmRGAQMdcLwj+oaCwNA7M7AKkKpusX79ev39Etq/ECHHMmDHReeEjkSOA6RGopYAMl9Bga+OgoeiV6HfRShtrheim6D/7vuip6DfR7hkzZhhbzzog2C5atKgOmCdMmPCekE2AYBpTC2CKWX42jiMcO9OnT9f369Spo4NqgI4OCOgx/SEwYM5ZfDctLy8v3X3ADMpxHKCNHow5E5h9WFZLENRHixZNGxu9evVS9evXN57xAwbAp59+qm/DKMNvgOUxjOMSvxEAZiRMEUuQjYTj9MmTJ6p48eLafLAFMERlPSwRkQ+HxgEhhBBCiB3w9fb2vo3AOSJAxgECgZDaySG9F+n/JggKMmfO/N48awT8GLHEiCTSojFiiMJkJghgChYsqI0D1FDImDGjTrM2wSgjDAuM8O7YsUMlSpRIXb161XjWr2c7sh0wOooLf4y0BoWlcYDvhmwIzPE2WbVqlUqdOnWETVUABw4cUJEjR8YFdma/TW130CFgvyiLvhcytjYOIpJ4ossi/2DaEL5fRREYgSkF1sTMOMC+HhQwCTJlyqR+/PFH4xG/x5AlY5oJlsbB5s2btXEQVGtWHIspU6ZU//zzj/HIf4FxgOXCa01wfKHNniUwDDC9AQYCsouQCWFJ69at9bKBpUuX6uWy7AKDDAYYFgDGX8OGDfVtk4ULF+pMI6ynEiVK2GSqAkBWhGzfn/w2M/lAaBwQQgghhNiJ/rVr135vtN5WwDhAOjFG4IMDo4Nffvmlcc+P/fv3q2zZsqns2bPr+chJkiTRmQImeB5ZCXny5NFp0BhpLFmypH+Ag6AAc7MxqonRTgRpSM02g/l9+/bp4B/vjc/A68wCdchoQABTuHBhdf/+ff2YJXgvGBMmSOHGKC5SlJEOjffC34g0DjA6K9t2pN8mdgjQ4vFPkbsZB5ia8UaE7YFR52qiwCgcLVq0x5gaYy1Q3BAj6TDrMBqPwNoUpuKYWT0InLG/4DXYV3EM4VgzR+CRsYAsIIB9GMcBjDYYegExjQMUQA0KGAf4HEvjAGA6Et4Xy4wMnXLlyun6CiaYUoUpFAjycazDGDS/AzInevTooWLEiKGP/dKlS+vlrlmzpn4eGUowCfDdy5Qpo41GGINmFhPMQfw2jRkzRt+3FuvWrcN2fyDC/k8+HBoHhBBCCCF2wlM0CxfpEWEeENuDOhCyTR0tNTqV6KDInYyDWKLiIhxjoaGMBMZvLTNjiPOydu1aZP3ck+3KINd60DgghBBCCLEz9aJHj/7GVum6xPZs2rRJxY4dG3UNWvttUociteiQKLRTJ1xpqkJYQPeJv5Fab81CiSTiQPFJZDrIdtwsCu3+S0IHjQNCCCGEEAdhUPz48dWCBQuMy2Di6Pz+++869Vy23RiRl96Kjkda0d8iGgehI7voLDpzBDY9hjgeqMFSq1YtHIdHRTmxEYnVoXFACCGEEOJg1BKdR9r78ePHjUtj4iig+CLaRso2uib6FBvMwUknOiaicRA2MDd+BeoGoAAgcTzQpcIw7qaLmGFgW2gcEEIIIYQ4MM1FZ1DQ7LfffjMul0lEs2zZMl3YTbbFJdFXIg+Rs5BBdEIU2vaQNA7+S27REhQA7N27d7AFCIntQJcHFFZEMUXZHgtEjtLy1NWIJkKB1y9F5u8AjgGsd2TkAG9Re9FA4zYhhBBCCHEQMorGeHl53UD18ylTpqg7d+4Yl9TEWqC15OzZs3Vl+ciRI9+Xdf6LyLxYdkYyiU6JaBxYh8iiVqI/MNrds2dPtXv3bmPvIdYErV27du2qMIVL1vcWUQNRJBGxPZh6hd8BrPu3oosi1HFBe1P8xeNLRYQQQgghxMFB5XgU41vl6+v7EGYC2p6hvSEJHQcOHFCTJ0/W2QQxYsR4JutyjaiDKJ7IVYBhcMb4GxpoHISNKKJCommenp5/p0qVSnXp0kWtXr1aPXjwwNjTSHCg1eSqVatUhw4ddLtGDw+PA7I+YdjlFzlq7RB3wTQPAsrRuscQQgghhJAwEFuElNJvRRtix459NVOmTKpjx4666CLazblTlgKK2+3Zs0ctXLhQB3NZsmRRcePGvSHrBlXXkYqLebtxRK4M2jCeEyHzIDTQOPhw0AYyqehz0QIvL6+DiRMnVtWrV1fjxo1TGzZsUKdPnzb2UvcA9VrWrVunxowZoypUqKASJUqEUes/RXNE9UVJRMTxgDEW0DxYJKKhQwghhBDiosQXpRTVE+FifbO3t/eJVKlSPUEBOLQxQ7ExzOdHe8HDhw+rGzduqDdv3hiX/vbn7du3enTyyJEjavPmzWr58uU6Y+DTTz9VGOkVPfPx8UFaPtKa54saifCdE4rclWyiCyIaB44BAjHsk3lFMK9Wi/YlTpz4Oo7D3Llzq/79+2ujb82aNdr4Qk2FJ0+eGEeBY/Do0SNdKBTTNJBdgeXt1auXypEjh8L3SJQo0T/yvfYa32+YKIcI3xtTPYjzsUpkmgaEEEIIIYToEXhU4kdRPcztbyeaJ9ou2iHaKToYK1asixLs3E6TJs2zDBkyvBOpD9Q7ea/nSZIkuRM7duxLHh4eh+RzdhmfCS0UdRSh3RqWLb3IlaYU2ApsQxR1pHHgXKDgHDo7YF+Hqop+Em0SmcfE3mjRop2KHz/+9RQpUjxMnz7960COqzAL7yPv9yBBggTXvL29T8rn7DE+D8f+RtEoUQWRuWzJRTBEyIeDDCEUxcW6Pu1AOi9Clgj+Bva8vbRN1FQU2t83QgghhBBCSCDAaLkiQnHN0EDjgJCIp2e8ePH0tKpnz54ZeR0kNCAbZ86cOSp27NjIiIC5TAghhBBCCAkjqHlxTUTjgBDH5Ofy5csbYTD5EEqWLAnzYITfaiWEEEIIIYSEljwiFIRESnlooHFASMSydOPGjUboSz6EuXPnwjiY6rdaCSGEEEIIIaEln+iWiMYBIY7JMnScIB/O7NmzaRwQQgghhBASDtBy8o6IxgEh9mWpCIEtMoAuitD95QfR3zQOrAONA0IIIYQQ+4F+3TFE6LZgCpW/G4p6iyaK0PHAGpos6itqIkI3AMvPxDJEEpGwUVB0T4QuFKGBxoHjEk0UW2QeE8lEH4s6iNDpAN1PAjuuwiq8z3eiL0XlRYlF5mfi89HxgYSdlaIf/W6+xxJ7GQfPnz9XGzZs0C1tGzZsqNt/vnv3zng2/OB90T43oqFxQAghhBBiXXxFaGVYV4TAb4boj+jRo1/x9fV9HTduXFWuXDk1aNAgNWHCBDV9+nS1aNEi9ccff6jjx4+rGzdu6AtDW4H3vnnzpjpx4oTatm2bWrx4sV4GLMu3336rKleurLCMsqxvROgXj1aRM0VjRY1ECUT4juR//ysseiCiceB4IADHfoo6FP1EU0TLokaNelz264cilTVrVtW+fXv1888/q8mTJ+vAaM2aNerPP/9Uly5dUg8fPlRv3rwxjhzrgvd98OCBunDhgtq/f79avXq1/vxJkyapn376SX3xxRcqU6ZMOA6hB1GiRDkiy49R9UkimIow//D9ooqIn3Ewxu/me0S4cXD+/HmVNm1aVa9ePf17bnL48GGVNGlS1ahRo/8YCNgXXrx4Ydzz4+XLl/77H7pBvHr1Sv34448qderU6tq1axFuHtA4IIQQQggJGxiZTynqLJrp6en5p1zUq0KFCqm+ffuqGTNm6ID87t27xuWW64CL2507d6pZs2apAQMGqFKlSikJxJSXl9dBWRdzRN1FCKIji9yBoqJHIhoH9gFZAlVFGGleK8fh7WTJkqkWLVqoMWPGqJUrV6pTp04Ze69rAZNx2bJlOpBs2rSpSpIkiZLvf1PWwyrRaFFFkTuZCg5hHCC4r1KlimrVqpXxSNDgPBErVizVtWtXtWDBAjVixAh9f/z48fp5mEj4fe3UqZO+jdd37txZJU6cWJvNjx490q+LKAzjAAYcIYQQQggJQFoRguEVuIDDBeHo0aMV58wGzebNm3UwU7NmTeXj44MLzdWiPqKPRK5GMdFTUTp9L2RoHIQPBMC1RRNEFzES3717d50pc+XKFWPPI5acO3dOTZs2TQeaadKkwXF4SoSsoRoiVzQUHMI4QJYADNVevXoZjwTPkydP1Lx589TgwYN19stHH32kPv/8c/0czK+qVau+l50wdepUlTlzZvX48WPjkYjDMA4uiTDlBtkvrqRCIkIIIYSQUIHRyy9E6+LEiaPatm2rVqxYYVwykQ8FF+8dO3ZUCRMmxMXnZtFXIszpdmZKiJ6JaBxYlyIiBIGPypQpo40oy5RvEn5gtIwaNUoVLlwYxyEyFJCdgCKfzo7DTFXA5yELDRkvAalTp46egoJsgY8//lhPZ7AE9RA+++wzfRvGQfXq1fVtkylTpqgsWbJYpVZCWDGMA9TdcTVmiVr53SSEEEIICRyMYm7BvFOkid65c8e4RCK2BiNmmMuNucCyDXaJ6mODOBklRS9ENA4+jIwijIY/QdC0e/duYy8hEQEK+CGglfX/UDRChKlYzobDGAcAgf24cePUJ598ouLHj69SpUqlmjVrpmvZmKAWQuPGjVW8ePFUrly5tKGDzAOYZWDixImqQYMG+rbJmTNndB0aGLC7du0yHo0YXLjGAQqWtvS7SQghhBDyL/VEl5ACiiJoxDFAsUYjeLkl+hwbygkoLXolwpSW0EDj4F9yiJZlyJBBj6LaYwSV/BfM0UehVAS7sn0Wi1JgYzkBDmUcuCI0DgghhBDiDqDd4AqkeGIOPnFsUGU+e/bsuEjdJEqODeiglBG9EdE4CD2fR4kS5RlGVhGkEscFlfy7deuG4/COCC1iHRkaBzaGxgEhhBBCXBkYBitLliyp26sR5+L69euqQoUKuFjdJkqEDepgwAjA8tE4CJk60aNHf7Fw4UJj6xJnYuzYsdjPUQi0pt6ajgeNAxtD44AQQgghrkopX1/fp86QYYCq2r1791bffPONv4YMGaLWr19vvCJw0MILrRFdHfQ/T5AgAS5aHS1oqSDCcqXR90LGHY0DD9FG9K4PTd/5o0eP6lafaFFnHgv9+/fX+7rZ0z40nD17VtfQuH//vvFI8Dx9+lTdvHnTuBc2UBkfBRx79Ojhv8xY/u+++079/fffxqusA+bFo1sCsgE+lNevX4e5K0XDhg2xv6NTCorJOhJBGgeo4UA+nDlz5tA4IIQQQojL8XHcuHHV1atXjUsex6ZAgQK640BA0I8eFbhv376tgyYzWHjw4IH+e+vWrUCrzeP1Qc0Zx3MvXrww7jkPCACNtnLBpUxHFlUW7RBdEWUX2ZKPRe5mHHiJhogw+vy9KIsoKGKJ9gwdOtTYiiGDdnMoVor91JKtW7fqnvZ9+/Y1HvmXu3fv6sDfkrVr16rUqVOrCxcuGI/48fDhw/+YCahwX65cOW3eBQzI8dqQWt/hOETrURiAluC9MmbMqJo3b+5/H8clFLAHP8wHfI+guHfvnv6LgnjFihXzfy2+j+WUD9zGYwFNGvxmWH4m2gbWrVtXVaxYUT8elhoT/fr1wz6PzihRsJEdhKCMgzldunQxlpx8CG3atMF2n+S3Wl0KGgeEEEKIm+Ij+gejI85C/vz59ShlQJo0aaLn+mNkED3r5XupPn366FFZBBK1atXSqfxg3759elS+Z8+e6vTp07o6t6+vry4AicAG9R1atmypA6nly5frbgaDBg3S/+ssbN++HevguSi1CCCIRfCOIAZFCvU6Eh0XYT+wNeVF+DxbGgcwQBwRtC8z1zd0T/STKJvI5KtChQrp/Te0wDhIkiSJunz5svHIv6xZs0ZXpz9+/LgOjgsWLKir1qPS/MaNG/U+/tVXX+nXIj0dxgGmKMF0q1atmn49OjYcOXJElS9fXre6g+EAgxHHEY5BGBYwCsqWLauFjAH8D/4Xo+2BYRoHixcvNh7xA2YAij+2a9dO34cR6OnpqWbMmKGOHTumjQT07Mdyrl69Wn+vKlWqqGzZsunsB6w3LGORIkXUwYMH1apVq1T69Ol1r398J2QLwCDF8WyydOlS/Tvwzz//aPMAhgiMSfw+IPsK6xbZEOggg1aAaAmI9wmLcYD3rVmzJrZ5O7/N7BAEZRz4enh47G/VqpU2S0jYwX7atGlTJetxu6xPb7/V6lLQOCCEEELclOhyIX4dF+HOAi7eUcU8Z86c/vriiy/U3r17jVcoXekcwb7liCha18E8ADly5NBmQWDATIgUKZL+fwQpGLlPnDixDnacqbMEAr44ceK8lG38h8gyaA0otJWDwWBrmZ9nqxoHQ0XvRIF9tr31SPREZLneLYXnzmOKQVgIzjhAK7vkyZNr42zSpEnKy8tL78vmPp0sWTLdPx/HzY4dO/TjMBhmzpyplyldunT6MQgGBB5DRweA0ffRo0fr2+PHj9cBvvlaKEWKFPr1MPACAuMAy5wyZUr/4xdGw8CBA9/7HgheYQaa4LtimWEwWIJl+eGHHxTqQeB5fAcTHAMwA/A/MAewXL///rvxrNLmApYXxiLaAaK+S1AZRviNgXkQHjD1RNYHgnVHISjjwATdIaZEjRr1b2S0YL1RwQv7tJw3Dsl6+0WUBCvRRaFxQAghhLgp0eWi/3bA0T9HBkFG+/btjXuBA+MAgU9A4wAjrgCjmjAgLEFQgEAHc71hGliC0UdMj7B8P0dnz549GPVCwGJ2WkgvQrBwQaQDO0NLRI5IWI2DsaLLfjcdjrwiTFewXO/7RM1EviLQHSPmYalNgEAewXLAqQfICoDZZWYUzJ07V9+3DIoPHTqks2qeP3+uMxAQQGNkHSYCjDnUPTBBMI72nwjEQe3atdUvv/yibyP4RrYOAnMT/C967ls+ZgLjIHr06NqgCA4YB8gwMIEBggAN0ypMkPGALAKYBvhM3N65c6fxrF9vf2Qk4HvDHEBGw/z5841nla61AEMQUyzw/sg+sDQHkYmFLBBkGOA3B98pPNSvXx/bu7ffZnYIQjIOLMHxh0we7MOh5Zmovd9Nq5NRhPUZ2swlYl1oHBBCCCFuTBOk84Y0N9lRQDAxYsQI417gLFmyRNWoUeO9QKlXr16qc+fOxj2/IoJ4DYwIpDxbFmZDyjbSTfPly6cDB1RJD0tAZ2+QHp03b15cXHfw28SBggtwBNvXRX+LYoocCVcpjvi5CNviT1EDUVDrOZWnp+e5kAJqSzDFIHfu3DqDACP4UK5cufS0moB1ARBkf/nllypPnjw6HX/48OH+6eioBYDpCWagDyMCtRbwOhwDMM1gKphgqgCydkxjAsYCih1iGhH+B1OEYEgEBgJ41B2A4RAcKHiKQo+WYDoCsgvM5erQoYM2Ikxg7OH/8B2RaTBq1Ci97GadE9Q6aN26tX4eUykwbQEmolnfBb8XqN2A74HfBWQhmDURYLRgOgbeNyyFIX/99Vdse0wHcqTjKyzGQTLRPyK0Uw0NUUXIsumm71mfAiKs0zz6HoloaBwQQgghbk5HjEgGLI5GnI9r167pud2yTcM6whnaAD2icAXjANkEaHMaWhJ7enpeRnBMnB8Up5RtekAUR29dx4HGAQkvNA4IIYQQoue1nsBIXGhawRHHAwXrZBueFWFagrPjKhkHYcVTNA7ZAyjyR5yPv/76S3e7kO3YU29Rx4PGAQkvNA4IIYQQ4k9R0TnUBHCW6QvuDNKrkW4t2wzz+9G5wFVwV+PABO37piZMmPC9TgDEcVm0aJHC9pLthkKdMIAcFRoHJLzQOCCEEELIf4gr+jVevHjvRo4c+Z9q5sR+YA76zz//rBIlSoQL6NmihNhgLoa7GweW1BFdQh0Cy1ocxP6gGGPp0qVxHB4VVcHGcgJoHJDwQuOAEEIIIcGCyvyjPD09H6IzwbZt24zLZhJRoLc8Ws9FjRoVrfsQJLvCdITgoHEQOHVFB7JmzarNI2YFRSwoBPndd9/pDg2yHXaKPsFGcTJoHJDQUEGEFpOdRbHxgDBdVM/v5v+yiKaJVovM5wkhhBBC3qO0aILoYaVKlXQbQ8v+6eTDQEYB2sZhhNnT0xNGwSxRWZE7QeMgZJKKOoqOoTNKly5d1KlTp5yqA4gjgy4OaEGJ7g0ZM2Z8J+sZhQ6/EsUTOTM0DkhoKSh6KcI6D0zbRGZLWUIIIYSQEEGqPHrSLxQ9Rcuyrl276uJuli0RyfugHR5Sz9EqEgaMrDtcoOGivoUIWR7uDI2D8FFN1F90PkWKFO9atGih5s2bp+7fv6/evXtn7HnEEhSDRbvKqVOnqubNm6Ow4VtZf6dFvUSuaNjROCBhIZ/otcjSMIB2iwghhBBCrEIm0ReiH0X348SJ87Z27dq6//ukSZN0r3lXHh3Fd0Nv+RkzZujvXK9ePZUgQQIEJY9EY0VtRdlE5L/QOLAeGBGsJULK8V8eHh5v8uXLp9q3b6/69Omjjh496tLHIQwTfL/Dhw/rrIw2bdqoPHnyIPB5I9ohQhYBDBcEve4AjQMSVgqJnolM0+APkY+IEEIIIcTmICAsIcJFe1/RTNFdHx8flT17doVaCl9//bUObEaMGKHWrVunbt26ZYQC9uPu3btq48aNatSoUXrZOnfurGrVqqVy5sypfH19cUF1XzRX1E/0tQgX3DFFJGzQOIg4Mooai3qIRon+Eim0hCxVqpRq2bKl6tmzpxo4cKCaOXOmOnHihN2NhlevXmnDA1kCAwYMUD169NDZAiVKlFDJkiXDcYipBXtEw0XdRfVF6USExgEJH1j3OK7263uEEEIIIQ4KLmCLiFCMDKn8uDAdIsIF8EQRjIeloq0iVDhHe8Ibonsi1Al4JTJHS5B2+VSE5/AavPaYCPM1l4lQU2CSCO+N1moIPPCZNUVoV5lSRGwLjQPHJIYoh+hjUUMRjD+YZKNFv4qmiuaL1okQYJwTXRPdFiHTBkElgg8zuMf9hyI8jwD1rGifaI0IFdzxfnhfGBowGL8UNRChcBuydTjqGXZoHJDw8KnopOh3ETPlCCGEEEKIQ0DjgBDbQOOAhBZ0TliWJUsWtXbtWv9sH2T5eHt7Y+oC6oC4yxQfQgghhBDigNA4IMQ20DggwYEsnr4xYsR4PXToUN1dJChOnjypqlevju2BjD1kARFCCCGEEBKh0DggxDbQOCCBgQKqZz/99FN1/vx5wxoIPStWrFBoCyvvgSmDKIxMCCGEEEKIzaFxQIhtoHFATLKKfs+aNatas2aNYQF8GMhQQKaCj48PagmhDlFof8MJIYQQQggJMzQOCLENNA7cG/ymDo8RI8a777//XrcrtRVnz55VdevWxfY6I6qBDyeEEEIIsRXoQY9RkWIiVHKvK2onGiBCNwVUX/9TdF50C4oePfqdhAkT3kmWLNnd1KlT382QIcPdzJkz38uRI8e9nDlz3sNtPIbn8JpEiRLdiRkz5h35X1R2x3tcEKElHSrDTxYNFKGaez1RRVFxUXZRLBGxDTQOHA90E0HgVlZUTdRMhADxe9Ei0Q7RcdF10a0oUaLcjhcv3p0kSZLcTZky5d106dLdzZQp072sWbPq4xB/M2bMeC9t2rT6ebwubty4dyJHjmweh+jGYHY7+U2EzgpdRU1F+HwEs/lFKUQk9NA4cE/qiC589tln6sKFC0ZoH3EsW7ZMyfFuTmVIiwUihBBCCAkJXFyipVtVEQLy5aKrsWLFupo9e/aX5cuXV5hn+dVXX6np06erU6dOqatXr2rdunVLvXz50rgUiThQSRqfbS4HRlLmzJmjOnbsqJe1QoUKKkeOHK/jxImDi2wEsKtFHUXVRblEbBsXNmgcRAwwA0qJ6ot+EB3z8PC4miZNmrtFixbVhc+aNm2qhg8frnbs2OG////zzz/q0aNHxtERsTx8+FB/vrksW7duVUOGDFFNmjRR1apVU0WKFFGpUqWCEYj94YhopAjfr4QIgbC7Q+PAfcgoWo6AfenSpcYRZF9wLu3Xr5+KFi3aS1k2DADw3EgIIYS4OfFEhUUwBo5Fjx79er58+VSZMmXU2LFj1blz5/TFv6tz7dpJBDD7AABEPUlEQVQ1/V1hgMAQKVCggIoVK9ZNWSdI3ewuKipKJCLvQ+PAeiA7ppJosei8BBEvihUrptq0aaP27dunC6E9ffrU2GNdk8ePH+vjcM+ePap58+YK3z9t2rQIcJGptEBUXoTMJneAxoFro7si+Pr6vho0aFCwXRHszZkzZ7TZJ8t7WoSMQkIIIYS4ONlESCE+kjx58qdly5bVoxu4KHDkixZ78/btWx3MoD925cqVVcqUKV/IOkSqdz9RTpE7Q+Mg7CQQYb39HilSpH9g1PXv318dOXJE3b5929jrSGAgm+jvv/9WXbt2Vbly5UIgc1m0ylifMEFdCRoHrsknoov16tVTFy9eNPZs5wHXDMZUBhicnMpACCGEuADeIsyV3JooUaLnDRs2VNu3b3f5EcuI5MWLF3okuEWLFipZsmSvZF3vFDUWhTaIDi+1RY1EnvqefaFxEDJoeTZWdDl//vxq6tSp6vLly8ZeRKwB5oKPGzfONBNQ+wTTOTKInBkaB65DFtHKHDlyaAPaFXj+/LkaPHiw8vX1hZEOE93W5z1CCCGEWBFcpM2LGzfuyy+//FJnEpCIBZkJ3bt3V/Hjx38j2wLFpQphw3wg6UUIhDAf3Bzp8RA5AgVFNA7eBynIPUUXSpQooZYvX66zVkjEAVNv/vz5qnDhwjhezorai6KJnAkaB85NDNEQHx+fl6jtgZoBrgqMu1q1apmmHYxtQgghhDggaUSLU6dOrefnE8diwYIF6qOPPsIFFdKpQzs3GxecrUUoGIf/tdR+UVJDyUUomod9ILMonwiF5dBRopYI2Q9fiDqL+opQfO4X0SzRMtFG0R4RPudv0UER3h+PIXsCVfK3iDaLUIkfz+G1mOeKFHFU078hmiuKIgoNrmwcdPb09Lzbrl07ZhQ4GEgJR1FG2UYw33BsOQM0DpwTtDO8gq4IV65cMfZA9wFGqcVUhtRYIYQQQgixLygSdvubb75RT548MU7ZxFFBDYkePXooDw+Pp7LdUDk+KFB4ar7oscg0CyyFtnfocoE2d/gLVRYhYMDoP+pYwEhIKHLE1FFXMw7iiBbnzZtXHT161NjaxJFB14k0adLgWELrSEeuFE/jwHlAV4TfM2fOrANnotSzZ89U3759VZQoUTCNr7coMlYUIYQQQiKO3KJbP/74o3F6Js4G5mJ7eHg8ku2IzICQwDztLqKLItM8+EMU2hF+R8OVjIMJMAxu3LhhbFniTKAYZbJkyXA8/eq3OR0OGgeODX6D+0hg/AJtC115KsKHgil8VatWxf5wUgSzmxBCCCE2pidGNFBZ3JJFixYp9HK/f/++8ci/oIUS5h6GxIMHD3QLQlv2kMbyoYI8+rcHXFZ8PgrHpUiRQqc5ZsiQQaVPn17lzJlTt0fctWuX8crAwegGKq2XKlVKTw3Ae1WqVEmtXr3aeEXoOH36tF6fAFkCuNj59ddf9X1rgt76JUuWxIXUd36bNtRghLSuaJQIo93OhiMaBxgJi+t3M1Rgisj1adOmGVszYvnzzz9VjRo1VKFChfSxUrx4cdW7d+8wdUY5fPiwWrlypXHPvfnll19wHGKfTIeN60DQOHBM0BXhQt26dUM1JWn06NHq448/VlmzZvU/ny1evNh4VqklS5aoChUq6HOCtUEhRnRPQpvToLh69arCtApcQ+Cci/Pzp59+qg4ePGi8InRs3bpV/fHHH8a9oFm1apXKlCkT9g1Ml3O0Y44QQghxCVoiGEYl44DMnj1bn4jv3r1rPPIvuBgoXbq0cc+vtSCKhmGEBCm7JigmtnDhQv/2ULiwwfzM48ePqwEDBqg1a9boxy3B8yNHjtT/d+/ePT2fP6jR13fv3umLE3wughy0NbQERkKMGDHU+PHjjUf+BRcw8v3VgQMHjEfep1u3bgo1Hq5fv2488i99+vRBoUJ/swV1IPbv369OnDih0DsbnSZMYE7gwgnrcsSIEboDBS68LFPQsf7wPZGCiY4KliBFFUEdlgP/j9fheweHYR6gRaa74KgZB9VF2BYopNdLFF8UGJkiR478z4oVK4wtGHHg+M6SJYv64osvjEf+Zd26dSpu3Lhq586dxiNKXbt2TZtevXr1Utu2bTMeVWr9+vUqSZIkKnfu3GrMmDHGo0ofwzj+hg4dqi5dumQ8+i8YNUSRNxgOCETwG4H/McExhiDphx9+0J9tcufOHX0s4P+RbYNl+fnnn9WxY8eMV/iBoAOvswf4DZVti7odsfVWdgxoHDgOqCGzDoE/jp/QgOMkWrRogb4enXiQrfTy5Ut9/oQJiONkzpw5avjw4e8dPyY4t+C8g/PMmzdvjEf/Ze/evfpcbWmW47XoNGKaEmj3inO2eS6tUqWKNjUCvh/uw3gvVqyYvo/jfcKECfoYNsHtSZMm6WuHuXPnqgQJEujX4/oiNOAzsLzRo0d/KesWXRmwTxJCCCHkA/GNFCnSnaBGCEMyDsqUKaNvT548WSVKlEif6AGMA4zO4wIAj2XLls0/46BixYo6GDeLO+HiJk6cODqgQECNOcKorwAQHCOYkeXUAXlgIJAuWLCgzgzAyCguZsz/BzAOkiZNql/TrFkz1bhxY9W8eXP9vrggQcARGAjqkZ0QXCAHk8LMusDFGl5/8uRJfR/GAC7uTGOkZcuWuogawIUN1p352VgnyGhAdgSA6YD1aZod1atXV2nTplWnTp3S93fv3q1ku+kRlqDAxaCnpyfW3Ud6S7s+ui2h302HI7sIrcX0vmzovAgdElAzAvRG/3V7dEnAfoZ9959//jEeCRwcYziOBg4caDzi13tdlt3/+MS+CsMN4HcDxwVMPRMc76lSpdK/DRiRxLEJQwDg+C9XrpyKFy+e/l8EOTDnYMSZICCAOYHfj5s3b+rPtlyemTNnqnTp0vkfSzDzcCyZx6U9wG+OLOcgbGQHgcaBfUGNmMG+vr7aMAssWA+O7Nmz65H7kMCx6e3t/d7xkSdPHtWoUSN9G2YCMvHM8wqmRCCLAOcqgGMJ50gYBwDdlHB+/v3337VpAVMC51ec12BUwzwAGzZs0Od4ZB8FBswCnPNNEx3LYHkNgvMa/t/8PcIyjR07Vt8OK2fPntW/SbK+MSUPJi4hhBBCwkn0lClTXsfof2DAOIABYDn6Z4I0ZqRBmuDEj+DXw8NDX7jjYh8XCBB6TC9btky/DkEyRhNM0G4JFyAYJZw4caJ+D9OAALiowTSKwNIbt2zZoi+McNHStm1bbQZglEO+lx61BGbGAd7bBO+FUVTLC6qA4CIIKaAYDQkMLCOCKBQmBLiYQ+9pS9A+EVMSAMyKBg0a6NswOBAg4b0RACEbIWAqJoIvfD7AtJCvv/5a3wYIqpBKHtwIDOZZx44dG+vCXYyDdiJ0cECRR0fSUdEh0U2R3jcD0RXRmXnz5hlbL2KBORY9enR9kR0YOP5hGgBkz+BYw34NUxH7YeTIkf2NA5hpnTp10rdnzZqlvLy89LGBfRlZDbgN0xHZAdj/EciY7w3wPmg1iaABxhqOZ8vfA4BMJ2T8IBMBgcyePXuMZ/xAoF6/fn19G+9veezbA8M4WCFyFGgc2I8vRQptjcMLRt9r1qxp3HsfZBrguIDpjtF6ZBPiHGyCaXeYCoFzEM4rMOFg7OPYhGD0tW7dWp//MLUAWQqBAeMAxzbakuI3wHJ61aFDh/S5BwZ3YCD7EMYBsvSwbDASYUaYILMB1xBmdgSuCb7//nt9O7xgYALXEbLuYdhmwoYghBBCSNjAvPZLQbVbxGgAgn6cuC1HI/F6jJaYWQQYMcTJ36wvYAbVGFHAhUxA48By2sD58+f1axHMo4sDLmQsA3AE5rKMemqDJUi/TJkyZaB1AnARgxF5XCxgCkbMmDH/M2KBkV3URUCGguWFlSVIu4TBgKAfn2eCiyYELJ9//rn//G8EKHg/82IHRgAMCzOdFKZBnTp19G2MMME4MDMOEChhvZhpn2ZxNTPdG2mfHTp00LcBjAOMEAdnHOBzZb2hUCI6IRD7graVej82hLaTKExpOW2hDfZFHC/2oGfPnsrHx+e9kT9MD4IRgBF77P+Ya4xjyXIqDaYHybL7j1piv27fvr2+jf+H8WiaawABAoIKjGJiHjdGNJGxBPDdcZwkTJhQ7+M4fvFaMyMB4JjA8/jdwP9jZDJggILfEdRVwTFqmhj2Ar+FhpnZVG9lx4DGgf3B7/KikLLaAgPnCQTBOGdY1kKAkY7jCeclgOk5OCc9fPhQ3wddunRRn3zyib4NQw0ZPZbnVpxrTLN7ypQp+jxkGoowubG8OP8jqwDvjfOoeb43z28AmUXIeBs1apT/ORLnPWQxwDTAtAaA7wKzAiY7QNYDMh5gZJoZDDAav/vuO307LOD6Bb9rkSNHRiehr0VeWPGEEEIICT+lo0SJ8tpyjmFAcAJGWiOCV8xTDiztFxf9GGHEyDguDswACKOJuNg3L05w0WGmPgKMZiL4x0WJOW8fy4I5lxiB3bx5s4oaNaouLmjJb7/9pt8rqLn+U6dO1RdGeB7ZD0GNfsBkCGpUxQQXM7i469y5s76AQcpmQDBqgwwGzAXHqI5ljQOA5cBn4QIJF3JYR5aFGRHsYD1gmgUuAC2ZMWPGe9MSsE4xAvP3338bj7wPAjYJ9l7Ltq3tt4mJHRktui3qJAqu6CQCrq32DnQx4g/Dr2PHjvoYCzjaj98CGF7YT2GOISjAcWjWNcF91Bno37+/fwo2zDQECjguLI9989jFbwPMBZiLOM5gwplBA8DxhveDoQjDwARmBo7HwArJYaoQDEtbFIYLC+3atUOQu1zkSC3jaBw4FmiVexgZfAHrcwQHgnZMhcN5CedLTE+zBFMFUKDT8hjG65FJaAlMAPzu4Li2NBlMYPbhecs6IThmcZxbvjcGBEwT0ARThnDew+8Jng9YgNkE50L8PuD4x2tgWsA8BDD2v/322/fqpgQHrlVgKMo6nSpKhRVMCCGEEOtRxMvL6xUCBXsCswFpkhg1QcFDzG1Mnjy52rhxo/EKxwU1CCxHVu0FDIZIkSK9k21awW/TEjviafwNLRgRW4q6GUEZYq4EghSMLmLUE1MLkBqNKQ2W5kJYQZoz5kzDyDMLstoDGBbI1JLtOUlvWceCxoFjgjaMPaJGjfoamQGWU3hI8CBjERkYsv4wPQxGDCGEEEJsiIdovGWBP+I8IGMD81llG04XhTVgJY5FZdGDkDJhiGOCzAjZfqhpURAb0wGhceD4oJ3gUkxJCOtUBncBxgo6uxhTEb4R8bxHCCGERDCoezAO1c7NGgbEcUHqKYpTyTabJoqJDUhchhqiG2ixZqbtEscErVJRn0G2FwpdFsfGc2BoHDgX6AZwCplIgU2TczeWLFmiCwrLOlkoSo8VRAghhBD7o+deonKy2VaQ2B9M3UA7R9k2SMusiw1FXJoYol+jRo36FvU6LOf/E/uBWiKY+x05cmS02hxmbCdngMaBc2JOZXiGFqeoi+MuoPYKukDI9z8hqoSVQQghhBDHBRdqy6JHj/4araSC6tFMrA8KUaFwFLo0yDb4XVQUG4S4Jb6i7qJzaMuGrCAU7yS2B4Ea1nfu3LlxHB4XIT06msjZoHHg/OiuDBh5xwi8K4I6ITjvRYoUyZyKwK4IhBBCiBOCi0MEr/N9fHweoAUb2i9ZVjwn4ePq1au6ujxaYvn6+j6RdbxEVF7kjAEKsT3JRQNEf6Io4JAhQ/7T0YOED3Q36dOnjy7QKut3v6iHKInI2aFx4FpUFJ3EiHzA7kPOyNy5c3V7Z/lOM0TY/wghhBDiYiQSVRUt9Pb2Po3+7W3atNGtnCz7RBM/0Pd+3bp1usVllixZ0Lf6gqy7ZSK0UEwsIiQ8oEZJdtEQ0Z4kSZK8Q5s3tCZFS1J3Sm8ODRjVRAtVtK0rXbo02pi+lPW2S9RPlFmEQNjVoHHgmmDd94oSJcrTnj17qufPnxt7ueODa4RKlSphux4RcSoCIYQQ4qakEBUT/SDaFTdu3LPo3IAshe+//16P6v3999+6uJircPPmTXXkyBG1bds23XsabaLwnePHj39e1sFe0ThRSRF7TJOIIpYIgXA70SrR36lTp36QK1cubV4tXrxY/fXXX+rcuXMuM/UBPeZRTA797ZER1a5dO92mMVWqVHfl+x8SLRe1FGUUYQqIu0DjwPXJIFqCwrk4th0RmJgwOGB0yLL2FkXGghNCCCGEBEUmUU4RCjGOFW0R/R0zZsxLcpH/MGfOnCpPnjzq888/10E45nNu2LBB93o/duyYunDhgrp27ZquOv/48eMPCnpev36tL2bwXnhP9IHHZ+zbt08XJMT85rFjxypUuc+bN6/CsuXIkeNx3LhxL8syY6TkD9F4ETIv8J0QqKHNJSGODlLwsc/mF3URIbjcJzqdNm3aW7Kvv8b+DhOsf//+as6cOWr16tV6WsShQ4d0gI6WoLdu3VIPHjzQo53v3r0zjqywgf/D/+N9YMLhfZGCjV7tMOPwubNmzVK9e/dW5cuX18eh6FXq1KnRAvGUCObcYtFXIgSY+F4JRMQPGgfuRU3R2Xr16mlj0N7gHJ4uXTpsw99EqbGAhBBCCCG2AL2aMS0iqwhBjqVKiZqI+opgQkwVzRNhCsB60Q4R0pA3iDDaiOfwGry2v6ipCBfIAd8Xqd+YPhBJRAjxA+0/0W8+r8jyeCkk+kTUUTRKNFE0S7RItFoEg2238Rf30VYN85kniEaKOojQgg5BouX74nNQFM6dsgNsAY0D98Rb1Ddq1KhPBw8eHKFTGU6ePKnr9sjnHxVVxsIQQgghhBBCCHFcaBwQjPTPT5s2rVq0aJER3luXp0+f6uKiUaJEQZFfdILBvkEIIYQQQgghxAmgcUAsQVeG4+jKgKl5H8q8efNUypQpsY1mi9D1hRBCCCGEEEKIk0HjgARGFFFfb2/vF5jKEJZ6QeiKgPon8v8oOor2wYQQQgghhBBCnBgaByQkUNh3CYoYBtWV4dmzZ6pfv37Ky8vrmbx2oIhTEQghhBBCCCHERaBxQMJCLdHJ+vXrq/Pnz6vff/9dffTRR9gG6FySFi8ghBBCCCGEEGtTT4TAA6OUaP1IRay+FOUThQYaB8QE23anCB2ICCGEEEIIIcSmfCp6I0qo7xFHhsYBsQQtjFv63SSEEEIIIYQQ20HjwHmgcUAsoXFACCGEEEIIiRBoHDgPNA6IJTQOCCGEEEIIIRECjQPngcYBsYTGASGEEEIIISRCoHHgPNA4IJbQOCCEEEIIIYRYnWii+H43/QnKOPASRfK7SRwEGgfuiacoht/N9wjKOAjstYQQQgghhBASaqqJXolOixqL2okeiz4StRfhcQSDRUTEsaBx4L4kFZ0QYXv+IMovmiKCcVBZ9LsI2+I7ESGEEEIIIYR8MKVFCDICE0yE3CLieNA4cG+wPQ+KAh6zpvqKCCGEEEIIIcRqlBI9ElkGHu9EOUTEMaFxQHxFO0SWxy3UXUQIIYQQQgghVgeZB69FCDyeipD+TBwXGgcEYLseFZmmwUARIYQQQgghhNgMZB5cE2XT94gjk0R0XVRW3wsZGgeui4doq6i3vkcIIYQQQgghQnpRLkO1RD+K1oh2i/728vI6lzx58hs5c+Z8nCtXrnciBeXNm1dVqFBBNW3aVPXs2VMNGTJEjRo1So0dO1ZNmjRJzZ49Wy1YsEDNmjVL3//555/VyJEj1eDBg1X37t3V559/rsqXL69y586t38/QO/mcR8mSJbvu4eFxFp8v2ilCgbbRohoic1nTiNwFBHMI1DeL6otQuM6aai6qK4orCg00Dj4cFAndljJlytdVq1ZV48ePV0uWLFGLFi2iDC1evFj/HTBggCpQoICKGjXqbVlnY0WxsAIJIYQQQgghH05METoaVBChWvqO6NGjn8qQIcOjrFmzqs8++0wH85s2bVKHDx9W586dU/fv31eOzN27d9XZs2f18m7YsEH9+OOPqk6dOipLliwqY8aMD7y9vU/K98RoKSrAY7pEJhHmbjs7MA7uiwbre/aHxkH4QQbOvYEDBxp7NQkL165dUyVKlMC+sViE1q6EEEIIIYSQUID56bVFCzw8PA4kT5783ccff6xH+Xfu3KnOnz9vXHK7FzAY8P3HjRunypUrp5IlS/ZG1tGfIvSory5Cer6zQOPANUgVK1asu9u3bzf2UhJevvnmG+wfc0U4NgghhBBCCCEWpBKhNdrOxIkTq0aNGqn169erGzduGJfTJDRcvnxZrVixQtWuXVslSpQIAQimQ/QQwYRxRGgcuAY/FS9e3NgLyYdw5MgR7B9QQb1mCSGEEEIIcWOQ1jzHx8fnSY0aNdS6devUq1evjEtnYk2ePn2qVq5cqes2eHt7P5T1PkWUFhvBAaBx4Br8gjR78uEcPXrUNA5QK4IQQgghhBC3wlPUSnQZhQMxj5/YDxg1RYsWRXByStRMZK+0aGc3DrBfo+ZGnFAK3R1oHJAgoXFACCGEEELckXKiczVr1lQnT540Lo2JI4GCjJUrV0agclxUERstAnF24wBFOo+JOosC6+oQUOjy0FgEE8GVoHFgJWgcEEIIIYQQd6Klt7f3MxQyJM7DiBEjVOTIkZ/K9mvktxltjrMbB1lEu0SJ9D33hcaBlaBxQAghhBBC3IHsohtoh0icl549eyJwuSJKh41qQ2gcuAY0DqwEjQNCCCGEEOLqNE+ZMuU7VPYPLQhQkyZNqv/26dNHq3379hj1Vm3btlVv3rwxXvnhoLbC119/bdwLP9evX1cVK1ZUFy5cMB55H3x/fKclS5YYjzgn586dU/HixUMAU8tv89oEGgeuQbiMg3fv3ulaG/ny5fM//qEqVaqoaNGi6aKezsauXbtUzpw51cuXL41HwgaNA0IIIYQQ4spUjhkzprpy5Ypx+Rs6unfvrgP6gBfZT548UT4+PmrVqlU6QC9btqwO+tOnT68GDhyoX7N582bddjBu3LgKreB++eUX/bjJzJkzVeHChVW6dOnU+PHj9Tx+GBRg5MiR6rPPPlOvX7/W90GzZs1U//79jXtKLV26VHciQPCMzg9bt25Vjx8/1u8n31dFihRJzZs3z3j1v2Ad4DVoiwh+/PFH1aFDB718eDxHjhzq999/18uP94fJ0LVrV3Xnzh39eqyL7777TpUpU0bFiRNH5c2bV/300086yDLBFJDcuXOrNGnSqO+//14HWh07djSeVWrWrFmqZMmSKkGCBKpWrVpqy5YtxjNhY+/evUq262v5vpn1VrY+NA5cg3AbB9hPu3XrZjzyLzgmcGzAPMQxMXbsWH1MxI4dW+XJk0fv9+gYcvbsWVWwYEG1fft24z+VPq6LFCmili1bpguBfvHFF2r48OEqU6ZMKnv27Gr58uVq27Ztqlq1arptacuWLdW1a9eM//YrHlq1alX92wKTcM6cOcYzfr8dDRo00H/xfhkyZFCjR4/Wzx04cED5+vrq3wf8VsEECCs0DgghhBBCiCszYdCgQcalb+jp16+fDqb79u2rBgwYoIWLfE9PT9WpUyf9GlyMx48fX+3evVvfBy1atFClSpUy7vmBwCJXrlzq9u3bqn79+jpYN3n27JkqUKCA6tWrl76Pz4GRYGkcwIRAsAJgODRu3FjfBghcOnfurI4dO6aOHz+ul/mff/4xnn2fgMYBAhwEETdv3tT3b9y4ob+fpelQp04dvQ4AgpZNmzbp2yaZM2dWXbp00bcREFkaHI8ePVIfffSRatWqlQ7EYCbAeLAE72/5fcJCkyZNEMSghaMtoHHgGoTbOIAZgKwD8/iHYBTGiBHDv/sKDERLYwDg+P/222/1bRz7OGZxLACYgPXq1dO3f/vtN20A4LgDyAjy9vZWs2fP1vfBl19+qf8HwCgw/9cEv1Mff/yxvt27d29tFliSP39+9c033+jbM2bMUAkTJtS3wwONA0IIIYQQ4qog+JuFi/ewYmYcvHr1ynjkv+zfv18lSZJEB+0mCPJxAW/JwYMHVbJkydSOHTv0KD1G3S1B4NyjRw99G8EJRhvfvn2r7wME1+bIJwL1gEYIUvfv37+vU5HTpk2rTp8+bTzzPgGNg6FDh6pPP/1U3wYIXJInT67Wr19vPKJUo0aN9DIB1IfA94ARgGBk+vTp+vVI4YYBghHNjRs36teaVKpUSZspMEKiR4+usw/mzp2rgxisB4yw/vXXX8arwwbWm2zf+XpLWx8aB66B1TMOLPnhhx90sN68eXNtKE6cOFEH6yjmaQKzEIYajLcsWbLo7CAAgwDLhmMHnD9/XqVOnVpn/JjAFMTxBooVK6Z/G2Ds4fhB5hKmHeG4BzAfYXZYgvv4LQMTJkzQmT7m54UVGgeEEEIIIcSV+RSjbA8fPjQuf0MHAmMEDsHNB0a6PEYMLdN+kYWAi3+MhuMCHyOPmCqBgALs2bNHZylglB5pxgjMZRn9zYA//vhDTzVAEIDAGnUVcLGP4Bzs3LlTp0kjSFmwYIEejcyYMaO6ePGiNgxgZCBQgJkQENMYQJo0wGd+8skn+ja4dOmSXra1a9cajyg9wgnjAIEURjYRvOB7TZ06VRsayFAwsyFgAsSKFUsNGTJEB0VYB15eXromBMDnYrQW3w2jra1bt9ZmQnimK5w5cwbr+Z2su6J6K1sfGgeuQbiNA2QKIHAPDhwPhQoVUvPnz1fTpk3TJgGOV3PaErh7966evoPpPfjNMEHwj6kMZiCPYxbHr6X5huwkMyMHmU2JEyfWRgKOfWQb4PiDgQdwHCJDwhIsn2XGgYeHh56ahOynsELjgBBCCCGEuDrDcIGO+gShBYZBSCNzyArAe1pmB1jy4MEDHYAEhZm+jNe8ePFC3zbB52OeNMBc6oDPA7x/YGBEM7DX43PwnuY0CHzG8+fP9W2A5/F9LAs/4vmA5glMGMvvjPfE/yJt+9SpU8ajfmD0FXUcAhLUsocGfD7mcMt27eq3eW0CjQPXIFzGAcDxH5xxaAn2Z/O4wbEQ0KhEPY/Bgwcb9/zAcWj5G4NjCseS5fGH4zioYz/g705gv1mBfQf87gSXSRUUNA4IIYQQQog7UN/X1/c1Co8R24BgBJkRNWvW1FMgMFKKAnHWBNXso0WL9la2ZyW/zWozaBy4BuE2DqwBanpgypMzdmEICI0DQgghhBDiLkQRzUTBPnNeMHEO9u3bp+eSy/Ybqbek7aFx4BrY1ThwJWgcEEIIIYQQd8NLNCBatGgv0AotsFRgYn+wXTBXPHLkyC9ke/XVWy7ioHHgGtA4sBI0DgghhBBCiDuTXjQPBc1QyPDq1avGZTKxByjQiGKMMWPGfC3bBa0Wk2Mj2QEaB64BjQMrQeOAEEIIIYQQP+KIOopO58qVS02ZMkW3MCS2A90g0OYxe/bsCEhOiFqIYovsDY0D14DGgZWgcUAIIYQQQkjgJBTVEu1KnDjx07Jly6qlS5fqYJeEnQsXLui2dWgZlyBBgoeyXreIPhHFFTkaNA5cg1+KFy9u7IHkQzhy5AiNA0IIIYQQQkJJYlEp0ULRufTp079CYIKWg2fOnAlXf3RX4tatW3o9jBkzRhsEadKkQX2CM6KZouKiBCJngMaBa5AnZcqUT0+fPm3soSS8jB07FqbBGhH2RUIIIYQQQkg48BHlFVUXjRKdihEjxlVMeahYsaJq1qyZmj17th51xzz+e/fuGZfjzsGdO3f0cp87d05P4WjSpIn6+OOPVY4cOd5Gjx79inzfk6IhoqqiPCJnDy5oHLgOlX19fd+uW7fO2JtJWOnQoQNMg0MiTOcihBBCCCGE2JBYIgTV5UWNRX1Es0R/i24mTJjwdtasWe8VLFjwZalSpVSVKlV0gI6L9l69eil0gJgwYYJavHix+uOPP9SePXvUgQMH1LFjxxRGVBHYX7t2Tf/FfcxJxvN43ebNm9WiRYt0ZsTQoUNVz5491VdffaUaN26sKleurEqWLKkKFCjwIkuWLPfix49/G8sjQqAwXdRT1EhUTpRL5CtydWgcuBbYnp28vLzuV6pUSR9HOEZu3LhBBSL8ZuA3J0eOHDAM9onyYyUSQgghhBBCnAcYEKlFmUTZRDAjCoowFaC08Rf38TiezyhKKYopIqGDxoFr4y0qJIIZVtbOKiPaLEKmEm4H9pqIFvYfQgghhBBCCCHBQOOARCTzRC39bhJCCCGEEEIIcQZoHJCIhMYBIYQQQgghhDgZNA5IRELjgBBCCCGEEEKcDBoHJCKhcUAIIYQQQgixGtFESUSZRehwgGrnRUWlRBVElUTo2lBShMfxPF73kQj/h6JwJGRoHJCIhMYBIYQQQgghRBNfhI4H7UR9RcNEi0XXPT09VdKkSXX7swoVKqjPP/9cdenSRfXt21cNHjxYt1AcPXq0mjFjhkI/+kOHDqkzZ86oy5cvq1u3bqlHjx6pV69e6Z7rL1++VA8fPlQ3b97UrRnxuoMHD6q1a9eqadOmqVGjRun3GzRokH5/fA7aMpYrV05ly5ZNJUmSRHl4eKAN21XRAtG3ot6iL0QwI+KKXB0aByQioXFACCGEEEKIG+ArqiHqKJosehQjRox3FStWVB07dlSdOnVSq1at0kH9u3fvdIDvbGC5nz9/rpYuXaq+/vpr/b3Kli2rfHx83sn3fSD62fj+VUU+ImeGxgGJSGgcEEIIIYQQ4kKkF7USrRE9K1CggGrVqpWaN2+eun//vnr79q0RZrsnb9680eth1qxZer3kzZsXmQtPRctECIxSiZwBGgckIqFxQAghhBBCiJOSUdRJdCxz5szvvvjiC7Vp0yY96k7CztOnT9Xvv/+umjdvrtKlS/dW1utBETIUUoscDRoHJCKhcUAIIYQQQoiTgAAW8/nvoM7AokWLdLBLbMfjx491dkL58uWRmXBd1EuUQmRvaByQiITGASGEEEIIIQ5MXtH6TJkyqUmTJtEosDNPnjxRY8eOValTp4aRsEqUAxvJDtA4IBEJjQNCCCGEEEIcjBiisYkTJ9ZdCojjAjMnTpw4MBEmiCKylSSNAxKR0DgghBBCCCHEQYgl+j1Pnjzq3LlzRmhKnIETJ04obDfZfnNF0bAxbQyNAxKR0DgghBBCCCHEAWiXJEkSdfToUSMUDR60HoS5sG/fPrV3714t3L569arxCuuBTgyHDh1St27dMh6xHVj+I0eOGPfeB8H5xYsXjXuOyR9//KFixIgBA+FTv81qM2gckIiExgEhhBBCCCF2Zmzp0qXV69evjfAzZNBWsFq1aqp69erqr7/+0vrzzz91wcS4ceOqli1b6tdYg5cvX6qECROqcePGGY+En927dyt816AYMWIEgm6VLVs29fDhQ+NRPwoVKqRbKDo6L168UGiDKd9jgAgBfnCg0GI/0XCRJx4IJTQOSERC44AQQgghhBA70iBp0qS66F5YgClQtWpVbRAEBF0A5H11wP/TTz+pKFGiKHRhQIHFJUuWqHv37qnKlSurjz76SOXKlUtlyZJFoZWjaTScOnVKlSxZUmXOnFkVLlxYffrppypmzJhqypQp+vkqVarozzZBoAxjAUE/QFZA2bJldfCP9P2MGTOqX3/9VWdFpEuXTvn6+qoiRYoEOh2jT58+epkWLlyookePrnbt2mU8o/T/tG7dWt++e/euql27tn4tgvQMGTKorFmzqp07d+rnly1bptKkSaPq1Kmj/y9ZsmT6dv/+/fV3x3dLmTKlbl8JkMHRvXt3vU7y5s2rcubMqU2Z27dv6+fDCtYB3ku2Q2m9lf8FgXJv0WmR3k6i+aKwmAaAxgGJSGgcEEIIIYQQYicQ/M2ZOHGiEW6GHgT5CIRhOlSqVElVrFhR/0WwWrx4cf+UfgTzRYsW1bcBRvFTpUqlZs+ebTziR79+/VT27NnVtWvXdOA8f/584xmlMyESJEigg39Qv3591aBBA30bwKDA5+J7oOsDijquWLHCeNZvqgOyIR48eKDWrVunypQpox49emQ8+z4wDtKmTatvX7p0SRsWvXv31vctjQMYLXiPV69e6SkUx48f198/R44c+nl8TuzYsf2nbty/f18bJ7/99pu+D4YMGaLXG4CZkC9fPrVnzx61YcMGtWPHDtWjRw897eD69ev6NWGlcePGMAU2iAaJTohMo8BSl0WY1vC5qGkohdc2E+H/kangCNA4cG1oHBBCCCGEEGJHfjED47AA4wAj/23atDEeCRwYBzASTJBtgJF4ywAaYCQeQTcC7dy5c+sRfxME/jAoLI2DRo0a6dvg+fPnKn369LrDwOPHj1X8+PHVqlWrjGf9mDBhgjp58qQOykNrHJhgSgb+B4bGl19+qR8bNmyYziKYM2eOWr9+vTYvsC5M42D16tXazLh586a+jwwFZEAg48JkwIAB/pkT5cqV00aMJcikgAGD7x8emjRpgsB+jCiZqL3oosjSNICOiiKJnB0aB64NjQNCCCGEEELsSHlfX983Z8+eNcLN0AHjoHz58npUOzgwqo5UfkvOnz+vR9eLFSumzQcE5J988ol/MI9lwf/geQTtmA4gy6mDf7Bt2zaVOnVqVapUKT1dAAEypir8/PPP+nlMQYD5gGAcgTmmKgwcOFA/h2kQmCKALIjAiiBiugBMioCMHz9eL0PHjh31/Xnz5ulaDviMmjVramFaRMGCBfW0AxgXWMYbN27o19+5c0ebG5aGCAwb/D+A8dCsWTM9bQPrBHUYYDyEtlhlQLCOvL29X8oyp8NGDkBy0VciZBvge50TxRc5MzQOXBsaB4QQQgghhNiZWokSJXqLoJo4P+hAgfoMsl0r+23eEIGRUEMU1joHjgSNA9eGxgEhhBBCCCEOAEamz/bt29cIP4mzgSkNbdu2hWFwSpQUG9WNoHHg2tA4IIQQQgghxIGoK7pvpvYTxwfTRnr27Kk8PT1vybYrq7ei+0HjwLWhcUAIIYQQQogDklO0G7UAMF+eOB5btmzRtSBkO20XFcBGc2NoHLg2i0TYXuOdUL+KvhOlFxFCCCGEEOKyVBMdRxHDyZMn6+J/JOJBlwW0nMyaNSvMgt2iStg4REPjgDgqCUSPRBX1PUIIIYQQQtyA1KIhoruo/P/LL7+oJ0+eGKEtsSb3799XP/74oypcuDCMghuiASIGuoFD44A4KmiHSuOAEEIIIYS4NTFFX4iWRIkS5V316tXV2LFj1ZkzZ4zwl4QGtF384YcfVIUKFVCr4K2sT6RmNxf5ikjI0DggjgqNA0IIIYQQQgIhsghp9N+LNkSOHPkFaiV8++23at68eerYsWNGuOxeHD58WM2dO1cNGjRIFSxYUMl6eSbrZ41olAhFDSOJSPigcUAcFRoHhBBCCCGEhAEPkY8ot2iwaKZot4+Pzz1fX19VsWJFNWLECDVp0iS1fPlydfDgQXXr1i0j7HZMbt68qf766y+1dOlSvdxDhw5VZcqUUfKdoNvy/XaIposwzSCzCN8f64FYFxoHxFGhcUAIIYQQQogNiC6KZaioaJjoN0OLRdu9vb3PxYwZ80msWLGUqbhx4+rCgVWqVFFt27ZV3bt3VwMGDFDfffedGjdunJo+fbrOeMBfTKcYOXKkfh6va9OmjapUqZLKnDmzihMnjv97QvI5j+XzzsjnbhVhCoG5LDA/8ovMZYUpQOwDjQPiqNA4IIQQQgghhBAHgMYBcVRoHBBCCCGEEEKIA0DjgDgqNA4IIYQQQgghxAGgcUAcFRoHhBBCCCGEEOIA0DggjgqNA0IIIYQQQghxANAClMYBcURoHBBCCCGEEOJEFBftEZ0SnbZQwPuU8+msSIl6iEIDjQMSUdA4IIQQQgghxEHBCHQvUXNRTDwg1BK99bvpTx1Ra7+bxI2gcUAiChoHhBBCCCGEODCeok0ijES/E10UvRT9aTwGzRNFEhH3gsYBiShoHBBCCCGEEOLgeIg2ikyjwFKLRMQ9oXFAIgoaB4QQQgghhDgJq0SWpsFskZeIuCc0DkhEQeOAEEIIIYQQJwHTFraIYBosxAPEraFxQCIKGgeEEEIIIYREMKhHYMpXlF9UX4Q2fN+Lxop+Fo0LoF9EU0SowD/ZeMxS5v9BeJ8uos9EeUXRRJafS5wfGgckoqBxQAghhBBCiBVII2opGiyaINomuixSyZIlU7Vr11bdu3dXQ4YMUaNHj1YzZsxQa9euVQcOHFCXL19WDx8+VG/fvlXW5M2bN+rBgwfq0qVL6s8//1SrV69W06dPV6NGjVKDBw9W3bp1UzVq1FCJEydGBgM6NaDwIjIaxosGitDNIYWI2J//t3cmcDaW7R+PUXnJMIylLNkKJVuiUimvLBWlFCkpqVS2dpKSIiotKGUpXhkkSxIJRUiWCBPJMkJaLL0lDYr7f33vOY//ad7RMmamc2Z+38/n9zHnOec853nu+z5jruu+lryme0z9TYU5YLDmcBwU8o9SnEM4n540yTkk0guRTS+YHjUV5IDBmttrutg/Ou64fKbeJtYbzk8hhBBCCCGEca6J/vr/MW2MjY11zZo1cz179nQjRoxwixcvdgcOHAiZ7NmD5ORkt2DBAjds2DDXo0cP17RpU5c/f36cDEQ8vGZ6wFTbJLKO101BjYvvTdtMq8KOzTRRTFOIY4HaKaRDBetqgwnHwc6wY9RYEUIIIYQQIkdykYmdtM+KFy/u2rVr5/r16+fWrFkTMqdFOMuWLXN9+/Z1bdq0cYULF8aY+MT0sOl8k8gcSEUJjLdwvWsSIiN525TWWhttIjJBCCGEEEKIbE9lE0bujho1arju3bu79evXh0xicSwkJia6+++/31WqVAkjg91KohNOM4mMYYwp3JCbbZIhJzKaE03TTOFrbZRJCCGEEEKIbAtF5Mjb3dGwYUM3ffp0d/jw4ZCpKzIT6jeMHz/eXXLJJRge2033mYLcfJE+BpoYT9p0CpGZjDOx1ob5R0IIIYQQQmQzTjWNJO2gf//+bu/evSFTVvyT/PDDDz7FIV++fBgjFJMMCv7lROJMdU10wGgX0s0milPea6IgIgbbWBN55+wAv2eaZ6LOAf/OMr1jmmRKMNF942kTnTU4D+cLzn2D6QJTUZPI/jDPdFZpYboppGCNoc4mHKrPm6ihwfphnZGmMMNENMtCE/UNFoQekxYz1fSmidfzPt7PeTqZgnPzOcFn8vlcRxGTEEIIIYQQEUEz0+4uXbr4zgIictm5c6dr3749DgS6OkR7uzccVY1N15l6mTDyt+TOnXtv1apVf2nUqNHhFi1auA4dOrinnnrKjRkzxs2ZM8d9/vnnbvfu3d6xtW/fPvfLL7+4/fv3+84YxwKRHpyH83Fezs/3gZScDz/80CUkJLinn37adezY0V199dWuSZMmrmbNmsnHH388hfCIDMFBQacQnBqXmZRukvXEmuqZ+J12o4kaLBj2iab/Fi5c+Oc6deok29wdvuqqq9yNN97oi5kOHjzYTZgwwX3wwQe+Rsu3337rfvrpJ/fzzz//bo39+uuvodWSMXC+8DXH5/G5fD7XMXfuXH9dgwYN8td5ww03+O4ujRs3Ply7du1k7of7Mq0x4ZjgftuYuH9qp6iLgxBCCCGEOGYamtHz31dffTX0Z6yIJvr06YMDYZepgZ/NyIPd0n+bupnYfd1VvXr1ZDpsUNPh/fffd7t27fJOgOyUBrNnzx5/X3TZoJMIzo9atWodtO8ac7XSRMcRnD6nmMRfp6ypkelOE0byjvj4+N1169b9DSfAPffc48aNG+e2bNnixz+nOkGJUOL+k5KS3NixY13Xrl29s6FOnTq/FSlSZDfjZhpv6mi61IQDTwghhBBCiDSZcsUVV/jdrmhiw4YNbtSoUe6ZZ55xQ4cOdfPnzw89kwI7hrNnzw49yhk0b94cBwKG1PF+ZrMedjXrmwaYtlWpUuUQxvLo0aPd119/ne1abx4rREYwLlOmTHHXXXedq169OvOHMTfU1NCUk1NRypuamkgd2Vq6dOkfL730Uh/lwXedcWN3Xhw7RDgwnvzOvPXWWx21bEqVKvUT4x4af5xb5UxCCCGEECIHks80j53QaOLHH390tWvXdp06dTpiOBBa/u6772J0uRkzZvhj3333nQ/zhYMHD3rHCIYr//KY0GDeFw7Ho5377ruPcSCXOo8ps6ll6mv6ulatWu755593W7duDV2JOBa2b9/uXnvtNVe3bl3m8zsTNS3OMWU36EBASgHOkm3VqlXzTpSlS5d6Y1b88+zYscMtWbLEtWrVylWtWpX1iEOB9qakQJxgEkIIIYQQ2Zg7a9asGXXGMru0Dz30kMubN68Pc1+4cKHPdU8Nxgeh8PDZZ5/5nHh21PgDuF69eq5ChQq+TgCOiPPPP99ddtllbt68eT5/vkyZMq5fv37+vdEG83n55Zfzx/2tKdOcoZQ04Sj4rlGjRj7vWlEEWQMpHMuXL/dr+sQTT9xjczDERMh+tFHG9KApCSP00UcfdRs3bgzdpYgmmLdevXq5KlWq8PtmvYmipPyOEEIIIYQQ2QR6108iDziaoXjY2rVr3eTJk33LwgIFCrhp06b5526++WbvPAiHaISCBQu6qVOnho4417lzZ5cnTx533nnn+UiGc845x5155pn8Iexz06MRCr3Z9dMtICMoZhoZHx/vnn32WRXNjBCIthk+fLh3ctn8TDFVYrIilOtNq0nFGDlypM+9F9kPapQwv5UrV2ZNrjBR7DSXSQghhBBCRDGPYVgfawX6rIaq9nbt3lmQmrZt2zqKowEdBwLHAVXxzz33XHfTTTf5x+GwY3bqqaeGHqVA9fx7773XF7eLRqi4bmP0uJ/l9EMbuJ0UmpOhF9kkJye73r17u5iYmF9szmgjGQlcaUqifsrKlStDVypyEitWrHBNmzbldxHRCHR3EEIIIYQQUchpZmhsozBbtEGrsldeecWdddZZPsqgUKFCPjz/008/Db3CuQceeMDn++MY4XUXXnihu/jii33OOCKy4KWXXvKvTUxM9G31CJ1mt4z3RqvTgIKRNrebTXF+lv8+dGb44YUXXgidUUQTb731Fmk8OBBa+tnMWijKOaBw4cJHao0IAaSAEbVk64M2kUIIIYQQIsoomydPnp0UYRPRD6kENqfrTCX87P49KKb4TuPGjf+naGSkwQ42NRZILaFOB2rQoIGjnSg1K47Gtm3bfMX41atXh45kT6iHQLSNzSetLwswuVlAq3z58h2gteZfBcdd/fr1j8whIipo0aJFUduWE4cjjs20WLVqlV9/d911V5pdbN555x1H5wi6kPwV+J5SADaoU8PvcbrMZBTUL7n99tv9dWUUpJLlz5//V1sv16QsGyGEEEIIES1Q1XzcGWecoSJlUQrzVqlSJQzFZ/yMpo9ZGAnRwHvvvediY2N9cctw1qxZ43c16e4AGHEYoNTCoDYDBhbOg9RGG6+jC0dakOZCVflo5LnnnmNNrDFldoeNgdQY+buFMtu1a+datmwZevT/PP74446ohfCuCkQO0WkifM459s033/xPuhVz9v333/vOKUFNDoz51HPMe49WHJbnUtfzYN0EaTusqaBrC2DE0wkiLi7OTZw40T+fGtYtzpHTTjvNDRgwIHQ0ha+++spddNFFvujrY489FjqaAvfHWISvW64bRwHrHYcEz9Eh57bbbvPPc/9HSzGiPgbnSz1uAbwviLjiel9++WX/cwDfh2OJyGKdEP3FuklZPkIIIYQQIpqINU2tWLFi1BYFzGnQJaJ8+fL8AT7M9C8mMZ3cRZrG0QyJSCNwHGDchUMkAceHDh3qH5N2cvrpp3tD7uOPP/aOBZ7nZ6Bnfbly5RzpOrTzpDp8ixYtvBGIYcd3gdQP6mpQ84LHmzdv9u+NFpo3b876oJVjZnFVsWLFfGG8vwuOA1KEUtO/f3/vOMCAJfqgRIkS/hjzQCoGxjIdVaBPnz5+XgIHAM4BjF06fmzZssW/ljx7aqKMHz/eFS1a1Kck4VQhnYKiqNdcc41/L06lGjVquOuvv97Nnj3bvf32275QKl1cYNasWXS08K9n55xrKV26tOvRo4d/njWE4+BobUl5njQpojJIlQqv/cA4DBs2zKdUBfc2f/58f+9PPvmkv/chQ4b47/ubb77pHQVEFxQpUsRHBOCo4HHQbWbmzJl+Ddv8+LGAQYMGueLFi7sXX3zR3x8dLSgW+9FHH/nnBw4c6M/3xhtv+HMyDpyPx3wniOohWoL/HxjLkiVL+nOlByKDbGwP2fVFSk0OIYQQQgiRDu4y7cawYidMRA7r1q0LwtC3m25msjKAbt27dw99QuSD0YMBd+WVV/ruGRSDvOOOO7wxGO5MwEAkfSOAyAwMOzpxYLxh8KaOWgB2VOlWgKHUpk0bd+2113ojCiMSwyma4HptfselTHOmMCS99TA6duzoTjnlFF/UlBQF9OCDD3qDPRwcCBjFd999t3f2UMyU4qcBRDvg2AHOFRj6OIqqVav2u9on7OoHzwNOI9JeiExhp5/radWqlZ9z/qV2SqlSpXxLV1q/4ngi8iHgkUce8Q4qwFmAMU1b17TAcYBTg2gAdvEpHAn8HEReUI+FyAGgTWytWrX8GuR51iBFXkl3ABxoOC6CSIqHH37Yfx/CwcnRt29fb6jzXr474eBkC8aIf1MXsmS8qCcD1CmgpgzXxLi8/vrr/nh6wWlj6+fZlGUkhBBCCCGiGdIYcCIksRNG+8ZozT2OVtjpY9ebHUqbh7Wm20y008xIumKkRMvcYjBhwGzatCl0JG0wwtJyHGAcsbtctmxZvzMbQAQHhhKvq1ChgndEhINRy65zNNG6dWvWzZiUac4U2pHmlFZo/p+BkYvz54/g+jEwwwkcOgGkDFDvgjB9DOwgZYIQfiIIMPoDwnf0YdKkSUcMcWpksCMfnhLAmuD1pD3MmTPHOw7CnakY60SqAMeJECBlIS1wHHA9vI7vNc4JrrlJkyZ+PQLOLtYZdOjQwUdLhMMOP44AIOoBpwapB0DkQ7jjgM+gy8wTTzzhH/M7pFu3bv7nABwAXAOdORgHCsoG4EDj/DgISP/AQReezsZ45cqVyz+XHpgzWz/3pSwjIYQQQgiRnahi6mfagaGJUXa03HCRPtjNxDAgpNnGeYvpSVNZU2aSNyYmZnm4kR3JsPOLMfln0TDstuJ0CWBH+IILLjhiSGIMcs/Bzi4h4RhQAQkJCd5wI92Bne4lS5aEnokOCGm3ef2G+U2Z5kyBc08Ncuv/DrRC7dKlyx86rNidJxKAaA/y4nHm4MBkPsILYZI2QBRK+JqgrSrROV988UXoSIqzgpD8AJwB1PbYt2+ff4wziugFDPh69er5SIfAEcG6Y62E17wg/D9oAUuqz4gRI7wjAYdCakgJ4HqCiAWulfNx7QGkLIQ7rEhRuOWWW3w6RrNmzXyKQMCuXbv8tZK+QCQBa50IiADGFUdBEDEARFjgrKHOAo6JIE0hgLElAiP4PhDlgHMFSP3AqYHzAycEn5VWxM5fgc+2dTPNryAhhBBCCJHtoegaOaovmX5gh5ddL/6IVWTCH0NONnnEpAiwY2vj973pedN1plymrOYkU2I0pSyIozN48GDW1FZTGSY3CxiIsYmhn5VQr6JTp07euaMWkJHPl19+6dMrbL2oLaMQQgghhDjuFNMdpgGmzYT3Eo7bu3dvv0MXXi09O0P4MTuWFCGjzVr+/Pn5g5l0A6IIbjEVNUUaDxHCT364iD7YxQ45ol5Jmc4spZTpAyIDjlbRX+RMqM1Cmoitj49N6WkXK4QQQgghchiENp9nutfEDvsbpk1U765evbrP+yVqgYJrVBknBz1S2uHhCJg+fboP/aVyOkXWCC0mrPmEE07gj+IvTKNNz5m6ms4xHW+KRvpRKC48jFpELkT5EH5u8/a66Vg6bGQE+Uwv0hmBVBBSQkTOg9oLpF3Fxsb+ausBJ3JmpswIIYQQQogcCgUAY0xEL1xiusmEs4HdelIjKPg22TQjV65cH+bOnftT06aYmJhdpr2m/aZDJvK8U+s3U7LpJ3vPTtNG03I7zwd2vndNk0z/MQ029TF1M7U1XWQqZuK6MrpAYaTS3PQ5uf6LFy8OmQQiEgjrsEFKAuszEilnGpY3b96D5OMnJiaGrl5kR4hUopOHzfcBm3fagGZ2fRYhhBBCCCFEhHGNaQEt54gISW9hNJE+KOA3fPhw3y3C5uFTUzsmJYqgdkdr03sFCxb03Qrmzp0bujsRjTB/nTt39t0mbF5nmlqYcopTVQghhBBCCPEnEA7/mOnj+Ph4X/l+2bJlIXNCZASrV6/2NTJCxeQ+M/U3RWJdjPSCI6GiiQiiFYUKFfLOBCr/0zFARA4UvWRe6IIRchLguCIii/kTQgghhBBCiL8EHTbONA0xfYIRSOs7WrmtXbs2ZH6ItEhKSvLj1LVrV1esWLHASTDSVMd0oimnEWciRWaCya+lBg0auDFjxvgaI4p0yRxorTt16lQ3evRo3/qScWf8TeNNzUzMixBCCCGEEEJkOEVMGMAUjJxpxsgeivi1atXKJSQkuFmzZkVM8cvMYs+ePb544eTJk1379u1d5cqVXVxc3H4bjzmm4ab6pniT+GMoukjnhoaml00zTzrppPUU8axdu7YPmccBQ0FVOat+D7UlGJeJEyf6GgSM18knn0ynl3WMo2lQaFypKfNPF9cUQgghhBBCiCMUNJUxNTE9appmWlikSJH11FGgy0bLli1dz5493dixY928efN8gcaVK1e6rVu3uoMHD4bMoqzh0KFDvpXoqlWr3CeffOLmz5/vJkyY4NuMtm7d2p199tmuVKlSrmjRokl2H4tMM0x9TeyelzcVNonMhV3xkiY6t9xuIgLmfdMiW1efm7F8oEKFCq5+/fqubdu2vlUqO+zk6i9atMgtXbrUp4hs377d7d+/PzTz/yxcB9fDdXF9XCfXO2rUKNerVy9/H7Q6LF++PM6A/XafidyvaZYJh8BtpnNNjEshkxBCCCGEEEJkS4hcwPgmp7qy6VLTnaanTaNMdNjAUFpoWmZaxW5qXFzc+vj4+A1mUG0yoz6pbNmyX1WsWHFruXLlvipdunQSx4sVK7bBXvdlaPd1tWm5CcNrtmmKiQ4bREx0NjU1nWHiOiqYslPNgZwKxjTV/5lP5pWUG5xZGNx0VXnFlGB624QTgjW2xLQiJiZmTWxs7JF1VqJEiU0lS5bcXKZMmSTWWLDW7PEWjtvzG3kd661AgQLreD/nCZ1vgYnzTzXxeUNNj5s6mBqZqpqCdUe3ChxvQgghhBBCCCGEEEIIIYQQQgghhBBCCCGEEEIIIYQQQgghhBBCCCGEEEIIIYQQQgghhBBCCCGEEEIIIYQQQkQ0xx33f2vf7n5hZe/hAAAAAElFTkSuQmCC;" parent="WIyWlLk6GJQsqaUBKTNV-1" vertex="1">
          <mxGeometry x="-820" y="70" width="820" height="820" as="geometry" />
        </mxCell>
      </root>
    </mxGraphModel>
  </diagram>
</mxfile>
